<svg xmlns="http://www.w3.org/2000/svg" xmlns:xlink="http://www.w3.org/1999/xlink" width="505" height="223" viewBox="0 0 505 223">
  <defs>
    <linearGradient id="linear-gradient" x1="-0.017" y1="0.356" x2="0.448" y2="0.776" gradientUnits="objectBoundingBox">
      <stop offset="0" stop-color="#4c02f1"/>
      <stop offset="1" stop-color="#06044a"/>
    </linearGradient>
    <linearGradient id="linear-gradient-3" y1="0.5" x2="1" y2="0.5" gradientUnits="objectBoundingBox">
      <stop offset="0" stop-color="#e39a65"/>
      <stop offset="1" stop-color="#e95f8d"/>
    </linearGradient>
    <radialGradient id="radial-gradient" cx="-0.082" cy="0.242" r="2.243" gradientTransform="translate(-0.159) scale(1.318 1)" gradientUnits="objectBoundingBox">
      <stop offset="0" stop-color="#e39a65"/>
      <stop offset="0.153" stop-color="#a92ffb"/>
      <stop offset="0.409" stop-color="#3919bb"/>
      <stop offset="0.931" stop-color="#3919bb"/>
    </radialGradient>
    <linearGradient id="linear-gradient-4" y1="0.5" x2="1" y2="0.5" gradientUnits="objectBoundingBox">
      <stop offset="0" stop-color="#e39a65"/>
      <stop offset="0.252" stop-color="#a92ffb"/>
      <stop offset="0.556" stop-color="#3919bb"/>
    </linearGradient>
    <linearGradient id="linear-gradient-5" y1="0.5" x2="1" y2="0.5" gradientUnits="objectBoundingBox">
      <stop offset="0" stop-color="#4f1fec"/>
      <stop offset="1" stop-color="#a92ffb"/>
    </linearGradient>
    <linearGradient id="linear-gradient-7" y1="0.5" x2="1.261" y2="0.5" gradientUnits="objectBoundingBox">
      <stop offset="0" stop-color="#131060"/>
      <stop offset="0.186" stop-color="#140f62"/>
      <stop offset="0.282" stop-color="#190f6a"/>
      <stop offset="0.358" stop-color="#220f77"/>
      <stop offset="0.424" stop-color="#2e0f8a"/>
      <stop offset="0.482" stop-color="#3d0ea3"/>
      <stop offset="0.536" stop-color="#510ec1"/>
      <stop offset="0.585" stop-color="#670de5"/>
      <stop offset="0.607" stop-color="#740df8"/>
      <stop offset="0.618" stop-color="#7a14ef"/>
      <stop offset="0.683" stop-color="#9b3bc2"/>
      <stop offset="0.748" stop-color="#b75c9d"/>
      <stop offset="0.812" stop-color="#cc7680"/>
      <stop offset="0.876" stop-color="#db886b"/>
      <stop offset="0.939" stop-color="#e4935f"/>
      <stop offset="1" stop-color="#e8975b"/>
    </linearGradient>
    <radialGradient id="radial-gradient-2" cx="-0.135" cy="0.092" r="3.209" gradientTransform="translate(0.211) scale(0.577 1)" gradientUnits="objectBoundingBox">
      <stop offset="0" stop-color="#e39a65"/>
      <stop offset="0.252" stop-color="#a92ffb"/>
      <stop offset="0.736" stop-color="#3919bb"/>
    </radialGradient>
    <linearGradient id="linear-gradient-8" x1="-0.089" y1="0.5" x2="1.209" y2="0.5" xlink:href="#linear-gradient-7"/>
    <clipPath id="clip-path">
      <rect id="Rectángulo_406551" data-name="Rectángulo 406551" width="505" height="223" rx="8" transform="translate(915.051 6252)" fill="url(#linear-gradient)"/>
    </clipPath>
    <radialGradient id="radial-gradient-3" cx="0.193" cy="-0.023" r="1.117" gradientTransform="translate(-0.04) scale(1.08 1)" gradientUnits="objectBoundingBox">
      <stop offset="0" stop-color="#e39a65"/>
      <stop offset="0.474" stop-color="#a92ffb"/>
      <stop offset="0.595" stop-color="#881bfa"/>
      <stop offset="0.742" stop-color="#6507fa"/>
      <stop offset="0.802" stop-color="#0d0c6f"/>
    </radialGradient>
    <radialGradient id="radial-gradient-4" cx="0.01" cy="0.384" r="1.712" gradientTransform="translate(0.213) scale(0.573 1)" gradientUnits="objectBoundingBox">
      <stop offset="0" stop-color="#e39a65"/>
      <stop offset="0.474" stop-color="#a92ffb"/>
      <stop offset="0.568" stop-color="#881bfa"/>
      <stop offset="0.683" stop-color="#6507fa"/>
      <stop offset="0.738" stop-color="#0d0c6f"/>
    </radialGradient>
    <radialGradient id="radial-gradient-5" cx="0.101" cy="0.074" r="1.524" gradientTransform="translate(0.211) scale(0.577 1)" gradientUnits="objectBoundingBox">
      <stop offset="0" stop-color="#e39a65"/>
      <stop offset="0.474" stop-color="#a92ffb"/>
      <stop offset="0.588" stop-color="#881bfa"/>
      <stop offset="0.726" stop-color="#6507fa"/>
      <stop offset="1" stop-color="#3919bb"/>
    </radialGradient>
    <radialGradient id="radial-gradient-6" cx="-0.116" cy="0.206" r="1.121" gradientTransform="translate(-0.038) scale(1.077 1)" xlink:href="#radial-gradient-5"/>
    <linearGradient id="linear-gradient-10" y1="0.5" x2="1" y2="0.5" gradientUnits="objectBoundingBox">
      <stop offset="0" stop-color="#3919bb"/>
      <stop offset="1" stop-color="#6507fa"/>
    </linearGradient>
    <radialGradient id="radial-gradient-7" cx="-1.084" cy="-0.321" r="2.658" gradientTransform="translate(-0.038) scale(1.077 1)" xlink:href="#radial-gradient-5"/>
  </defs>
  <g id="Grupo_1179729" data-name="Grupo 1179729" transform="translate(-915.051 -6252)">
    <rect id="Rectángulo_406129" data-name="Rectángulo 406129" width="505" height="206" rx="8" transform="translate(915.051 6269)" fill="url(#linear-gradient)"/>
    <g id="Grupo_1179717" data-name="Grupo 1179717" transform="translate(905.641 6194.682)">
      <path id="Trazado_1045758" data-name="Trazado 1045758" d="M181.8,212.319a15.622,15.622,0,0,1-7.812-2.087h0l-28.6-16.51a3.959,3.959,0,0,1,0-6.858l28.594-16.508a15.664,15.664,0,0,1,15.626,0l28.6,16.509a3.959,3.959,0,0,1,0,6.858l-28.594,16.509A15.626,15.626,0,0,1,181.8,212.319Zm-6.882-3.7a13.81,13.81,0,0,0,13.766,0l28.594-16.509a2.1,2.1,0,0,0,0-3.634l-28.6-16.51a13.805,13.805,0,0,0-13.766,0L146.32,188.476a2.1,2.1,0,0,0,0,3.634Z" fill="url(#linear-gradient-3)"/>
      <g id="Grupo_1179716" data-name="Grupo 1179716">
        <ellipse id="Elipse_11861" data-name="Elipse 11861" cx="19.641" cy="11.339" rx="19.641" ry="11.339" transform="translate(162.012 179.343)" fill="#020230" opacity="0.6"/>
        <path id="Trazado_1045759" data-name="Trazado 1045759" d="M210.767,109.863H154.825l5.2,60.569h0c0,3.365,2.223,6.729,6.669,9.295,8.891,5.134,23.307,5.134,32.2,0,4.446-2.566,6.668-5.93,6.668-9.295Z" fill="url(#radial-gradient)"/>
        <path id="Trazado_1045760" data-name="Trazado 1045760" d="M210.767,109.863H154.825l.856,9.965a21.768,21.768,0,0,0,5.185,4.664c10.689,7.091,28.328,8.458,40.363,3.351l-1.861,44.3a8.7,8.7,0,0,1-2,5.282c-1.812,2.133-5.3,4.642-12.014,6.061a31.562,31.562,0,0,0,13.541-3.759c4.446-2.566,6.668-5.93,6.668-9.295l4.173-48.575h0Z" fill="#06033e" opacity="0.4"/>
        <ellipse id="Elipse_11862" data-name="Elipse 11862" cx="27.971" cy="16.149" rx="27.971" ry="16.149" transform="translate(154.825 93.714)" fill="#06033e" opacity="0.4"/>
        <ellipse id="Elipse_11863" data-name="Elipse 11863" cx="24.092" cy="13.91" rx="24.092" ry="13.91" transform="translate(158.704 90.261)" fill="#06033e" opacity="0.4"/>
        <path id="Trazado_1045761" data-name="Trazado 1045761" d="M212.424,109.1l0,0,0-.049c0-.027-.006-.055-.009-.083l-.537-5.423-.023.061c-.24-4.1-3.067-8.168-8.494-11.3-11.357-6.557-29.77-6.557-41.126,0-5.564,3.212-8.4,7.4-8.507,11.613l-.007-.015-.511,4.829c-.014.126-.031.252-.04.377l-.009.08.006,0c-.307,4.6,2.576,9.259,8.66,12.771,11.582,6.687,30.361,6.688,41.943,0C209.89,118.427,212.773,113.732,212.424,109.1Z" fill="url(#linear-gradient-4)"/>
        <ellipse id="Elipse_11864" data-name="Elipse 11864" cx="24.092" cy="13.91" rx="24.092" ry="13.91" transform="translate(158.704 90.261)" fill="url(#linear-gradient-5)"/>
        <ellipse id="Elipse_11865" data-name="Elipse 11865" cx="24.092" cy="13.91" rx="24.092" ry="13.91" transform="translate(157.561 90.261)" fill="url(#linear-gradient-5)"/>
        <path id="Trazado_1045762" data-name="Trazado 1045762" d="M168.618,96.407c9.408-5.432,24.663-5.432,34.071,0,.12.069.22.145.337.215a19.171,19.171,0,0,0-3.2-2.287c-9.408-5.432-24.663-5.433-34.071,0-9.289,5.363-9.389,14.01-.337,19.456C159.379,108.4,160.438,101.13,168.618,96.407Z" fill="#06033e" opacity="0.4"/>
        <path id="Trazado_1045763" data-name="Trazado 1045763" d="M165.76,96.749c9.409-5.432,24.663-5.431,34.071,0,4.173,2.408,6.49,5.481,6.963,8.628.592-3.95-1.726-8.019-6.963-11.042-9.408-5.432-24.662-5.433-34.071,0-5.236,3.024-7.554,7.092-6.962,11.043C159.27,102.23,161.588,99.158,165.76,96.749Z" fill="url(#linear-gradient-7)"/>
        <path id="Trazado_1045764" data-name="Trazado 1045764" d="M203.539,92.437c-11.341-6.681-29.821-6.844-41.277-.363s-11.55,17.15-.209,23.831,29.82,6.844,41.277.363S214.879,99.118,203.539,92.437Zm-3.707,21.57a31.4,31.4,0,0,1-10.955,3.61l-.437-1.437a1.378,1.378,0,0,0-1.319-.976H178.47a1.378,1.378,0,0,0-1.318.976l-.437,1.437a31.372,31.372,0,0,1-10.954-3.611c-9.409-5.432-9.41-14.239,0-19.671s24.663-5.431,34.071,0S209.24,108.575,199.832,114.007Z" fill="url(#radial-gradient-2)"/>
        <g id="Grupo_1179714" data-name="Grupo 1179714">
          <path id="Trazado_1045765" data-name="Trazado 1045765" d="M199.831,93.306c-9.408-5.432-24.663-5.433-34.071,0-4.931,2.846-7.273,6.62-7.035,10.349.216-3.386,2.558-6.735,7.035-9.32,9.408-5.432,24.663-5.432,34.071,0,4.478,2.585,6.82,5.934,7.036,9.32C207.1,99.927,204.763,96.153,199.831,93.306Z" fill="#fff"/>
          <path id="Trazado_1045766" data-name="Trazado 1045766" d="M203.33,115.238c-11.456,6.481-29.937,6.318-41.277-.363-5.4-3.18-8.2-7.262-8.424-11.367-.223,4.445,2.576,8.951,8.424,12.4,11.34,6.681,29.821,6.844,41.277.363,6-3.4,8.881-7.944,8.633-12.464C211.753,107.979,208.878,112.1,203.33,115.238Z" fill="#fff"/>
        </g>
        <path id="Rectángulo_406550" data-name="Rectángulo 406550" d="M.654,0H5.824a.653.653,0,0,1,.653.653V.745a.654.654,0,0,1-.654.654H.654A.654.654,0,0,1,0,.745V.654A.654.654,0,0,1,.654,0Z" transform="translate(179.557 116.968)" fill="#0c0a78"/>
        <path id="Trazado_1045767" data-name="Trazado 1045767" d="M185.381,116.968H180.21a.654.654,0,0,0-.653.653v.092a.626.626,0,0,0,.035.173.645.645,0,0,1,.618-.479h5.171a.646.646,0,0,1,.619.479.665.665,0,0,0,.035-.173v-.092A.654.654,0,0,0,185.381,116.968Z" fill="url(#linear-gradient-8)"/>
        <g id="Grupo_1179715" data-name="Grupo 1179715">
          <path id="Trazado_1045768" data-name="Trazado 1045768" d="M183.588,164.211a4.469,4.469,0,0,1-8.638-2.3c.634-2.386,2.884-3.061,5.269-2.427S184.222,161.825,183.588,164.211Z" fill="#e8975b"/>
          <path id="Trazado_1045769" data-name="Trazado 1045769" d="M187.106,159.5a1.979,1.979,0,1,1-2.766-2.83c.9-.879,2.61-1.312,3.374-.531S188.006,158.623,187.106,159.5Z" fill="#e8975b"/>
          <path id="Trazado_1045770" data-name="Trazado 1045770" d="M182.432,155.763a1.979,1.979,0,1,1-3.9-.693c.22-1.239,1.36-2.586,2.436-2.4S182.653,154.525,182.432,155.763Z" fill="#e8975b"/>
          <path id="Trazado_1045771" data-name="Trazado 1045771" d="M176.671,155.191a1.979,1.979,0,1,1-3.66,1.506c-.479-1.164-.24-2.912.771-3.328S176.192,154.028,176.671,155.191Z" fill="#e8975b"/>
        </g>
      </g>
    </g>
    <g id="Enmascarar_grupo_1098907" data-name="Enmascarar grupo 1098907" clip-path="url(#clip-path)">
      <g id="Grupo_1179727" data-name="Grupo 1179727" transform="translate(935.866 6186.736)">
        <g id="Grupo_1179718" data-name="Grupo 1179718" transform="translate(268.363 412.65)">
          <path id="Trazado_1045772" data-name="Trazado 1045772" d="M263.617,410.117V400.032h3.151q2.627,0,2.627,2.9a3.852,3.852,0,0,1-.207,1.34,1.959,1.959,0,0,1-.6.87,2.421,2.421,0,0,1-.882.451,4.236,4.236,0,0,1-1.132.137h-.912v4.391Zm2.049-5.827h.657a1.092,1.092,0,0,0,.912-.307,1.867,1.867,0,0,0,.232-1.08,4.4,4.4,0,0,0-.035-.624,1.265,1.265,0,0,0-.145-.432.629.629,0,0,0-.347-.289,1.836,1.836,0,0,0-.617-.085h-.657Z" transform="translate(-263.617 -399.904)" fill="#fff"/>
          <path id="Trazado_1045773" data-name="Trazado 1045773" d="M270.162,410.117V400.032h2.549a6.563,6.563,0,0,1,1.381.126,2.93,2.93,0,0,1,1.024.422,1.809,1.809,0,0,1,.67.827,3.377,3.377,0,0,1,.222,1.3,3.8,3.8,0,0,1-.277,1.576,1.845,1.845,0,0,1-.951.912l1.393,4.921h-2.093l-1.155-4.55h-.712v4.55Zm2.049-5.79h.511a1.348,1.348,0,0,0,1.053-.35,1.657,1.657,0,0,0,.31-1.116,1.765,1.765,0,0,0-.272-1.092,1.176,1.176,0,0,0-.975-.344h-.627Z" transform="translate(-263.368 -399.904)" fill="#fff"/>
          <path id="Trazado_1045774" data-name="Trazado 1045774" d="M279.933,410.256a3.9,3.9,0,0,1-1.4-.222,2.089,2.089,0,0,1-.923-.662,2.85,2.85,0,0,1-.5-1.037,5.608,5.608,0,0,1-.155-1.406v-3.723a5.577,5.577,0,0,1,.155-1.4,2.76,2.76,0,0,1,.5-1.025,2.109,2.109,0,0,1,.923-.651,3.972,3.972,0,0,1,1.4-.219,2.837,2.837,0,0,1,2.3.834,3.762,3.762,0,0,1,.7,2.463v3.723a3.828,3.828,0,0,1-.7,2.479A2.808,2.808,0,0,1,279.933,410.256Zm-.4-1.554a.93.93,0,0,0,.4.076.953.953,0,0,0,.4-.076.7.7,0,0,0,.261-.192.834.834,0,0,0,.151-.3,1.837,1.837,0,0,0,.069-.361c.01-.115.017-.254.017-.417v-4.719c0-.163-.006-.3-.017-.417a1.748,1.748,0,0,0-.069-.356.82.82,0,0,0-.151-.295.685.685,0,0,0-.261-.185.989.989,0,0,0-.4-.074.965.965,0,0,0-.4.074.657.657,0,0,0-.255.185.814.814,0,0,0-.144.3,1.953,1.953,0,0,0-.066.356c-.01.114-.014.251-.014.414v4.719c0,.163,0,.3.014.417a1.989,1.989,0,0,0,.066.361.83.83,0,0,0,.144.3A.669.669,0,0,0,279.538,408.7Z" transform="translate(-263.109 -399.909)" fill="#fff"/>
          <path id="Trazado_1045775" data-name="Trazado 1045775" d="M286.592,410.262a3.092,3.092,0,0,1-1.284-.243,2.013,2.013,0,0,1-.851-.712,3.2,3.2,0,0,1-.46-1.092,6.526,6.526,0,0,1-.142-1.45v-3.321a7.377,7.377,0,0,1,.087-1.21,3.661,3.661,0,0,1,.3-.977,2.22,2.22,0,0,1,.547-.736,2.366,2.366,0,0,1,.842-.449,3.885,3.885,0,0,1,1.178-.162,4.123,4.123,0,0,1,1.356.2,2,2,0,0,1,.9.593,2.457,2.457,0,0,1,.48.925,4.579,4.579,0,0,1,.151,1.24v.572h-1.989v-.682c0-.186,0-.338-.012-.456a2.113,2.113,0,0,0-.06-.367.767.767,0,0,0-.14-.3.672.672,0,0,0-.253-.18,1,1,0,0,0-.4-.071.912.912,0,0,0-.419.088.728.728,0,0,0-.262.213.949.949,0,0,0-.144.35,2.416,2.416,0,0,0-.061.4c-.005.117-.007.272-.007.462v4.373a2.472,2.472,0,0,0,.2,1.119.767.767,0,0,0,.748.384.791.791,0,0,0,.768-.411,2.559,2.559,0,0,0,.217-1.171V406.2h-.991v-1.265h2.84v5.188h-1.344l-.134-.924A1.659,1.659,0,0,1,286.592,410.262Z" transform="translate(-262.846 -399.909)" fill="#fff"/>
          <path id="Trazado_1045776" data-name="Trazado 1045776" d="M290.851,410.117V400.032H293.4a6.557,6.557,0,0,1,1.381.126,2.942,2.942,0,0,1,1.025.422,1.806,1.806,0,0,1,.669.827,3.356,3.356,0,0,1,.223,1.3,3.8,3.8,0,0,1-.278,1.576,1.838,1.838,0,0,1-.951.912l1.393,4.921h-2.093l-1.155-4.55H292.9v4.55Zm2.05-5.79h.511a1.351,1.351,0,0,0,1.053-.35,1.657,1.657,0,0,0,.309-1.116,1.773,1.773,0,0,0-.271-1.092,1.179,1.179,0,0,0-.976-.344H292.9Z" transform="translate(-262.58 -399.904)" fill="#fff"/>
          <path id="Trazado_1045777" data-name="Trazado 1045777" d="M297.314,410.117l1.97-10.085h2.251l1.965,10.085h-1.9l-.372-2.232h-1.6l-.371,2.232Zm2.506-3.5h1.2l-.6-4.014Z" transform="translate(-262.334 -399.904)" fill="#fff"/>
          <path id="Trazado_1045778" data-name="Trazado 1045778" d="M304.21,410.117l.165-10.085h2.159l1.271,6.436,1.338-6.436h2.1l.164,10.085h-1.5l-.14-6.806-1.308,6.806H307.2l-1.344-6.843-.128,6.843Z" transform="translate(-262.071 -399.904)" fill="#fff"/>
          <path id="Trazado_1045779" data-name="Trazado 1045779" d="M312.536,410.117l.165-10.085h2.159l1.271,6.436,1.338-6.436h2.1l.164,10.085h-1.5l-.14-6.806-1.308,6.806h-1.253l-1.344-6.843-.128,6.843Z" transform="translate(-261.754 -399.904)" fill="#fff"/>
          <path id="Trazado_1045780" data-name="Trazado 1045780" d="M320.921,410.117V400.032h2.038v10.085Z" transform="translate(-261.435 -399.904)" fill="#fff"/>
          <path id="Trazado_1045781" data-name="Trazado 1045781" d="M324.349,410.117V400.032h1.429l2.251,5.237v-5.237h1.7v10.085h-1.369l-2.263-5.571v5.571Z" transform="translate(-261.305 -399.904)" fill="#fff"/>
          <path id="Trazado_1045782" data-name="Trazado 1045782" d="M333.566,410.262a3.09,3.09,0,0,1-1.283-.243,2.007,2.007,0,0,1-.851-.712,3.2,3.2,0,0,1-.461-1.092,6.526,6.526,0,0,1-.142-1.45v-3.321a7.493,7.493,0,0,1,.087-1.21,3.7,3.7,0,0,1,.3-.977,2.223,2.223,0,0,1,.548-.736,2.361,2.361,0,0,1,.841-.449,3.89,3.89,0,0,1,1.178-.162,4.13,4.13,0,0,1,1.357.2,2,2,0,0,1,.9.593,2.459,2.459,0,0,1,.481.925,4.581,4.581,0,0,1,.15,1.24v.572h-1.989v-.682c0-.186,0-.338-.011-.456a2.118,2.118,0,0,0-.061-.367.739.739,0,0,0-.14-.3.656.656,0,0,0-.253-.18.992.992,0,0,0-.4-.071.912.912,0,0,0-.419.088.746.746,0,0,0-.262.213.986.986,0,0,0-.144.35,2.4,2.4,0,0,0-.06.4c-.006.117-.008.272-.008.462v4.373a2.486,2.486,0,0,0,.2,1.119.768.768,0,0,0,.748.384.789.789,0,0,0,.768-.411,2.56,2.56,0,0,0,.217-1.171V406.2h-.991v-1.265h2.841v5.188h-1.344l-.134-.924A1.659,1.659,0,0,1,333.566,410.262Z" transform="translate(-261.058 -399.909)" fill="#fff"/>
        </g>
        <g id="Grupo_1179723" data-name="Grupo 1179723" transform="translate(138.959 65.264)">
          <path id="Trazado_1045783" data-name="Trazado 1045783" d="M312.673,352.718,162.744,266.156c-2.185-1.262-1.911-3.466.612-4.923l96.225-55.557c2.524-1.456,6.341-1.615,8.526-.353l149.93,86.562c2.185,1.261,1.911,3.465-.612,4.923L321.2,352.364C318.676,353.821,314.858,353.98,312.673,352.718Z" transform="translate(-138.11 -59.964)" fill="#020230" opacity="0.6"/>
          <path id="Trazado_1045784" data-name="Trazado 1045784" d="M316.957,368.828a9.585,9.585,0,0,1-4.718-1.106h0L141.127,268.93a3.826,3.826,0,0,1-2.167-3.276c0-1.5,1.044-2.964,2.865-4.015L258.466,193.3c3.2-1.848,7.9-2.025,10.7-.406l171.113,98.793a3.821,3.821,0,0,1,2.167,3.275c0,1.5-1.044,2.963-2.866,4.014L322.942,367.316A12.239,12.239,0,0,1,316.957,368.828Zm-52.484-175.1a10.412,10.412,0,0,0-5.036,1.243L142.8,263.309c-1.2.69-1.9,1.565-1.9,2.344a2.042,2.042,0,0,0,1.2,1.6l171.114,98.792h0c2.184,1.263,6.2,1.079,8.762-.4l116.642-68.338c1.2-.69,1.9-1.565,1.9-2.345a2.042,2.042,0,0,0-1.2-1.6L268.2,194.567A7.65,7.65,0,0,0,264.474,193.728Z" transform="translate(-138.959 -60.447)" fill="url(#linear-gradient-3)"/>
          <path id="Trazado_1045785" data-name="Trazado 1045785" d="M453.926,152.065,304.587,65.843a3.868,3.868,0,0,0-3.048-.438h0l-.013,0-2.765.963.974.23a4.84,4.84,0,0,0-.912,1.708L265.049,177.966a6.615,6.615,0,0,0,2.737,7.379l149.339,86.22a4.378,4.378,0,0,0,1.1.45l-.37.806,2.641-.928-.006,0a4.224,4.224,0,0,0,2.4-2.793l33.772-109.653A6.614,6.614,0,0,0,453.926,152.065Z" transform="translate(-134.168 -65.264)" fill="url(#radial-gradient-3)"/>
          <path id="Trazado_1045786" data-name="Trazado 1045786" d="M415.719,271.094l.053.063L268.264,185.994c-2.17-1.253-5.961-1.1-8.466.351l-95.306,55.024-3.178-1.214.893,4.459,0,0a2.669,2.669,0,0,0,1.43,1.784l148.872,85.952c2.17,1.253,5.96,1.1,8.465-.351l95.547-55.164a3.819,3.819,0,0,0,2.024-2.36l.006.006.911-4.339Z" transform="translate(-138.108 -60.699)" fill="url(#radial-gradient-4)"/>
          <path id="Trazado_1045787" data-name="Trazado 1045787" d="M312.673,328.607,162.744,242.045c-2.185-1.261-1.911-3.465.612-4.921l96.225-55.557c2.524-1.456,6.341-1.615,8.526-.353l149.93,86.562c2.185,1.261,1.911,3.465-.612,4.922L321.2,328.254C318.676,329.711,314.858,329.87,312.673,328.607Z" transform="translate(-138.11 -60.882)" fill="url(#radial-gradient-5)"/>
          <path id="Trazado_1045788" data-name="Trazado 1045788" d="M417.424,269.368,321.2,324.924c-2.523,1.457-6.341,1.615-8.526.354L162.743,238.716a2.8,2.8,0,0,1-1.363-1.555,2.335,2.335,0,0,0,1.363,2.722l149.929,86.563c2.185,1.261,6,1.1,8.526-.354l96.226-55.556c1.664-.961,2.327-2.242,1.975-3.368A3.969,3.969,0,0,1,417.424,269.368Z" transform="translate(-138.109 -58.719)" fill="#fff"/>
          <g id="Grupo_1179719" data-name="Grupo 1179719" transform="translate(90.813 139.637)" opacity="0.4">
            <path id="Trazado_1045789" data-name="Trazado 1045789" d="M231.777,226.526l-5.062-2.922c-.406-.235-.355-.645.114-.916l5.974-3.45a1.764,1.764,0,0,1,1.586-.065l5.062,2.922c.407.235.355.645-.114.916l-5.974,3.45A1.764,1.764,0,0,1,231.777,226.526Z" transform="translate(-226.441 -199.047)" fill="#06033e"/>
            <path id="Trazado_1045790" data-name="Trazado 1045790" d="M239.308,230.875l-5.063-2.923c-.406-.235-.355-.644.114-.915l5.975-3.45a1.762,1.762,0,0,1,1.585-.066l5.062,2.923c.407.235.356.644-.113.915l-5.975,3.45A1.758,1.758,0,0,1,239.308,230.875Z" transform="translate(-226.154 -198.881)" fill="#06033e"/>
            <path id="Trazado_1045791" data-name="Trazado 1045791" d="M246.838,235.221l-5.062-2.922c-.407-.235-.356-.645.113-.916l5.975-3.45a1.761,1.761,0,0,1,1.585-.065l5.063,2.922c.406.235.355.645-.114.916l-5.975,3.45A1.762,1.762,0,0,1,246.838,235.221Z" transform="translate(-225.868 -198.716)" fill="#06033e"/>
            <path id="Trazado_1045792" data-name="Trazado 1045792" d="M257.253,231.611l-5.063-2.922c-.406-.235-.355-.645.114-.916l5.016-2.9a1.761,1.761,0,0,1,1.585-.065l5.062,2.922c.407.235.356.645-.113.916l-5.016,2.9A1.761,1.761,0,0,1,257.253,231.611Z" transform="translate(-225.471 -198.832)" fill="#06033e"/>
            <path id="Trazado_1045793" data-name="Trazado 1045793" d="M264.783,235.958l-5.062-2.922c-.407-.235-.356-.645.113-.916l5.016-2.9a1.761,1.761,0,0,1,1.585-.065l5.062,2.922c.407.235.356.645-.113.916l-5.016,2.9A1.758,1.758,0,0,1,264.783,235.958Z" transform="translate(-225.184 -198.667)" fill="#06033e"/>
            <path id="Trazado_1045794" data-name="Trazado 1045794" d="M272.313,240.306l-5.062-2.922c-.407-.235-.355-.645.114-.916l5.015-2.9a1.764,1.764,0,0,1,1.586-.066l5.062,2.923c.406.234.355.644-.114.915l-5.015,2.9A1.764,1.764,0,0,1,272.313,240.306Z" transform="translate(-224.898 -198.501)" fill="#06033e"/>
            <path id="Trazado_1045795" data-name="Trazado 1045795" d="M279.843,244.654l-5.062-2.922c-.406-.235-.355-.645.114-.916l5.015-2.9a1.763,1.763,0,0,1,1.586-.065l5.062,2.922c.407.235.355.645-.114.916l-5.015,2.9A1.764,1.764,0,0,1,279.843,244.654Z" transform="translate(-224.611 -198.336)" fill="#06033e"/>
            <path id="Trazado_1045796" data-name="Trazado 1045796" d="M287.374,249l-5.062-2.922c-.407-.235-.356-.645.113-.916l5.016-2.9a1.758,1.758,0,0,1,1.585-.065l5.062,2.922c.407.235.356.645-.113.916l-5.016,2.9A1.762,1.762,0,0,1,287.374,249Z" transform="translate(-224.324 -198.17)" fill="#06033e"/>
            <path id="Trazado_1045797" data-name="Trazado 1045797" d="M294.9,253.349l-5.062-2.922c-.407-.235-.356-.645.113-.916l5.016-2.9a1.761,1.761,0,0,1,1.585-.065l5.062,2.922c.407.235.356.645-.113.916l-5.016,2.9A1.761,1.761,0,0,1,294.9,253.349Z" transform="translate(-224.038 -198.005)" fill="#06033e"/>
            <path id="Trazado_1045798" data-name="Trazado 1045798" d="M302.434,257.7l-5.062-2.923c-.406-.235-.355-.645.114-.916l5.015-2.9a1.764,1.764,0,0,1,1.586-.065l5.062,2.922c.406.235.355.645-.114.916l-5.015,2.9A1.764,1.764,0,0,1,302.434,257.7Z" transform="translate(-223.751 -197.839)" fill="#06033e"/>
            <path id="Trazado_1045799" data-name="Trazado 1045799" d="M309.964,262.044l-5.062-2.922c-.406-.235-.355-.645.114-.916l5.015-2.9a1.764,1.764,0,0,1,1.586-.066l5.062,2.923c.406.235.355.644-.114.915l-5.015,2.9A1.763,1.763,0,0,1,309.964,262.044Z" transform="translate(-223.464 -197.674)" fill="#06033e"/>
            <path id="Trazado_1045800" data-name="Trazado 1045800" d="M317.495,266.392l-5.063-2.922c-.406-.236-.355-.645.114-.916l5.016-2.9a1.761,1.761,0,0,1,1.585-.065l5.062,2.922c.407.235.356.645-.113.916l-5.016,2.9A1.762,1.762,0,0,1,317.495,266.392Z" transform="translate(-223.177 -197.508)" fill="#06033e"/>
            <path id="Trazado_1045801" data-name="Trazado 1045801" d="M325.025,270.739l-5.062-2.922c-.407-.235-.356-.645.113-.916l5.016-2.9a1.762,1.762,0,0,1,1.585-.066l5.063,2.923c.406.235.355.645-.114.916l-5.016,2.9A1.761,1.761,0,0,1,325.025,270.739Z" transform="translate(-222.891 -197.343)" fill="#06033e"/>
            <path id="Trazado_1045802" data-name="Trazado 1045802" d="M268.348,229.553l-5.062-2.923c-.407-.235-.356-.645.113-.916l5.016-2.9a1.762,1.762,0,0,1,1.585-.065l5.063,2.922c.406.235.355.645-.114.916l-5.016,2.9A1.762,1.762,0,0,1,268.348,229.553Z" transform="translate(-225.049 -198.911)" fill="#06033e"/>
            <path id="Trazado_1045803" data-name="Trazado 1045803" d="M260.7,225.14l-5.062-2.922c-.406-.235-.355-.645.114-.916l5.015-2.9a1.76,1.76,0,0,1,1.586-.066l5.062,2.922c.406.236.355.645-.114.916l-5.015,2.9A1.764,1.764,0,0,1,260.7,225.14Z" transform="translate(-225.34 -199.079)" fill="#06033e"/>
            <path id="Trazado_1045804" data-name="Trazado 1045804" d="M253.264,220.844l-10.9-6.294c-.406-.235-.355-.645.114-.916l5.015-2.9a1.764,1.764,0,0,1,1.586-.066l10.9,6.295c.406.235.355.645-.114.916l-5.015,2.9A1.763,1.763,0,0,1,253.264,220.844Z" transform="translate(-225.845 -199.371)" fill="#06033e"/>
            <path id="Trazado_1045805" data-name="Trazado 1045805" d="M258.54,215.426l-8.847-5.108c-.406-.235-.355-.645.114-.916l5.016-2.9a1.762,1.762,0,0,1,1.585-.066l8.848,5.108c.406.235.355.645-.114.916l-5.015,2.9A1.764,1.764,0,0,1,258.54,215.426Z" transform="translate(-225.566 -199.532)" fill="#06033e"/>
            <path id="Trazado_1045806" data-name="Trazado 1045806" d="M275.878,233.9l-5.062-2.922c-.406-.235-.355-.645.114-.916l5.015-2.9a1.764,1.764,0,0,1,1.586-.066l5.062,2.923c.406.235.355.645-.114.915l-5.015,2.9A1.764,1.764,0,0,1,275.878,233.9Z" transform="translate(-224.762 -198.745)" fill="#06033e"/>
            <path id="Trazado_1045807" data-name="Trazado 1045807" d="M283.409,238.248l-5.063-2.922c-.406-.236-.355-.645.114-.916l5.015-2.9a1.764,1.764,0,0,1,1.586-.065l5.062,2.922c.407.235.356.645-.114.916l-5.015,2.9A1.761,1.761,0,0,1,283.409,238.248Z" transform="translate(-224.475 -198.58)" fill="#06033e"/>
            <path id="Trazado_1045808" data-name="Trazado 1045808" d="M290.939,242.6l-5.062-2.922c-.407-.235-.356-.645.113-.916l5.016-2.9a1.765,1.765,0,0,1,1.585-.066l5.062,2.923c.407.235.356.645-.113.916l-5.016,2.9A1.758,1.758,0,0,1,290.939,242.6Z" transform="translate(-224.189 -198.414)" fill="#06033e"/>
            <path id="Trazado_1045809" data-name="Trazado 1045809" d="M298.469,246.943l-5.062-2.922c-.407-.235-.356-.645.114-.916l5.015-2.9a1.761,1.761,0,0,1,1.585-.065l5.063,2.922c.406.235.355.645-.114.916l-5.015,2.9A1.764,1.764,0,0,1,298.469,246.943Z" transform="translate(-223.902 -198.249)" fill="#06033e"/>
            <path id="Trazado_1045810" data-name="Trazado 1045810" d="M306,251.291l-5.062-2.923c-.406-.235-.355-.644.114-.916l5.015-2.9a1.763,1.763,0,0,1,1.586-.065l5.062,2.922c.406.235.355.645-.114.916l-5.015,2.9A1.764,1.764,0,0,1,306,251.291Z" transform="translate(-223.615 -198.083)" fill="#06033e"/>
            <path id="Trazado_1045811" data-name="Trazado 1045811" d="M313.529,255.638l-5.062-2.922c-.406-.235-.355-.645.114-.916l5.015-2.9a1.764,1.764,0,0,1,1.586-.066l5.062,2.923c.407.235.356.645-.114.916l-5.015,2.9A1.763,1.763,0,0,1,313.529,255.638Z" transform="translate(-223.328 -197.918)" fill="#06033e"/>
            <path id="Trazado_1045812" data-name="Trazado 1045812" d="M321.06,259.986,316,257.064c-.407-.235-.356-.645.113-.916l5.016-2.9a1.761,1.761,0,0,1,1.585-.065l5.062,2.922c.407.235.356.645-.113.916l-5.016,2.9A1.758,1.758,0,0,1,321.06,259.986Z" transform="translate(-223.042 -197.752)" fill="#06033e"/>
            <path id="Trazado_1045813" data-name="Trazado 1045813" d="M328.59,264.333l-5.062-2.922c-.407-.235-.356-.645.114-.916l5.015-2.9a1.758,1.758,0,0,1,1.585-.065l5.063,2.922c.406.235.355.645-.114.916l-5.016,2.9A1.758,1.758,0,0,1,328.59,264.333Z" transform="translate(-222.755 -197.586)" fill="#06033e"/>
            <path id="Trazado_1045814" data-name="Trazado 1045814" d="M336.12,268.681l-5.062-2.922c-.406-.235-.355-.645.114-.916l5.015-2.9a1.764,1.764,0,0,1,1.586-.066l5.062,2.922c.406.235.355.645-.114.916l-5.015,2.9A1.764,1.764,0,0,1,336.12,268.681Z" transform="translate(-222.468 -197.421)" fill="#06033e"/>
            <path id="Trazado_1045815" data-name="Trazado 1045815" d="M349.726,276.537l-11.044-6.376c-.406-.236-.355-.645.114-.916l5.015-2.9a1.763,1.763,0,0,1,1.586-.065l11.044,6.377c.407.234.355.644-.114.915l-5.015,2.9A1.764,1.764,0,0,1,349.726,276.537Z" transform="translate(-222.178 -197.253)" fill="#06033e"/>
            <path id="Trazado_1045816" data-name="Trazado 1045816" d="M364.324,268.036,355,262.654c-.407-.235-.356-.645.114-.916l5.015-2.9a1.764,1.764,0,0,1,1.586-.065l9.322,5.381c.406.235.355.645-.114.916l-5.016,2.9A1.761,1.761,0,0,1,364.324,268.036Z" transform="translate(-221.557 -197.539)" fill="#06033e"/>
            <path id="Trazado_1045817" data-name="Trazado 1045817" d="M289.065,233.05,284,230.127c-.406-.235-.355-.644.114-.916l5.015-2.9a1.764,1.764,0,0,1,1.586-.065l5.062,2.922c.406.235.355.645-.114.916l-5.015,2.9A1.764,1.764,0,0,1,289.065,233.05Z" transform="translate(-224.26 -198.778)" fill="#06033e"/>
            <path id="Trazado_1045818" data-name="Trazado 1045818" d="M281.348,228.594l-5.062-2.922c-.407-.236-.356-.645.113-.916l5.016-2.9a1.761,1.761,0,0,1,1.585-.065l5.062,2.922c.407.235.356.645-.113.916l-5.016,2.9A1.759,1.759,0,0,1,281.348,228.594Z" transform="translate(-224.554 -198.947)" fill="#06033e"/>
            <path id="Trazado_1045819" data-name="Trazado 1045819" d="M273.63,224.138l-5.062-2.922c-.406-.235-.355-.645.114-.916l5.015-2.9a1.767,1.767,0,0,1,1.586-.065l5.062,2.922c.406.235.355.645-.114.916l-5.015,2.9A1.764,1.764,0,0,1,273.63,224.138Z" transform="translate(-224.848 -199.117)" fill="#06033e"/>
            <path id="Trazado_1045820" data-name="Trazado 1045820" d="M265.913,219.682l-5.063-2.922c-.406-.235-.355-.645.114-.916l5.016-2.9a1.762,1.762,0,0,1,1.585-.066l5.062,2.923c.407.235.356.645-.113.916l-5.016,2.9A1.761,1.761,0,0,1,265.913,219.682Z" transform="translate(-225.141 -199.286)" fill="#06033e"/>
            <path id="Trazado_1045821" data-name="Trazado 1045821" d="M296.6,237.4l-5.063-2.922c-.406-.235-.355-.645.114-.916l5.016-2.9a1.762,1.762,0,0,1,1.585-.066l5.062,2.923c.407.235.356.644-.114.915l-5.015,2.9A1.761,1.761,0,0,1,296.6,237.4Z" transform="translate(-223.973 -198.612)" fill="#06033e"/>
            <path id="Trazado_1045822" data-name="Trazado 1045822" d="M304.126,241.745l-5.062-2.922c-.407-.235-.356-.645.113-.916l5.016-2.9a1.762,1.762,0,0,1,1.585-.065l5.062,2.922c.407.235.356.645-.113.916l-5.016,2.9A1.759,1.759,0,0,1,304.126,241.745Z" transform="translate(-223.687 -198.447)" fill="#06033e"/>
            <path id="Trazado_1045823" data-name="Trazado 1045823" d="M311.656,246.092l-5.062-2.922c-.407-.235-.355-.645.114-.916l5.015-2.9a1.76,1.76,0,0,1,1.586-.065l5.062,2.922c.406.235.355.645-.114.916l-5.015,2.9A1.764,1.764,0,0,1,311.656,246.092Z" transform="translate(-223.4 -198.281)" fill="#06033e"/>
            <path id="Trazado_1045824" data-name="Trazado 1045824" d="M319.186,250.44l-5.062-2.922c-.406-.235-.355-.645.114-.916l5.015-2.9a1.764,1.764,0,0,1,1.586-.065l5.062,2.922c.406.235.355.645-.114.916l-5.015,2.9A1.764,1.764,0,0,1,319.186,250.44Z" transform="translate(-223.113 -198.115)" fill="#06033e"/>
            <path id="Trazado_1045825" data-name="Trazado 1045825" d="M326.717,254.788l-5.063-2.923c-.406-.235-.355-.645.114-.915l5.016-2.9a1.761,1.761,0,0,1,1.585-.065l5.062,2.922c.407.235.356.645-.113.916l-5.016,2.9A1.762,1.762,0,0,1,326.717,254.788Z" transform="translate(-222.826 -197.95)" fill="#06033e"/>
            <path id="Trazado_1045826" data-name="Trazado 1045826" d="M334.247,259.135l-5.062-2.922c-.407-.235-.356-.645.113-.916l5.016-2.9a1.762,1.762,0,0,1,1.585-.066l5.062,2.923c.407.235.356.644-.113.915l-5.016,2.9A1.762,1.762,0,0,1,334.247,259.135Z" transform="translate(-222.54 -197.784)" fill="#06033e"/>
            <path id="Trazado_1045827" data-name="Trazado 1045827" d="M341.777,263.483l-5.062-2.922c-.407-.236-.355-.645.114-.916l5.015-2.9a1.764,1.764,0,0,1,1.586-.065l5.062,2.922c.406.235.355.645-.114.916l-5.015,2.9A1.761,1.761,0,0,1,341.777,263.483Z" transform="translate(-222.253 -197.619)" fill="#06033e"/>
            <path id="Trazado_1045828" data-name="Trazado 1045828" d="M349.307,267.83l-5.062-2.922c-.406-.235-.355-.645.114-.916l5.015-2.9a1.767,1.767,0,0,1,1.586-.066l5.062,2.923c.407.235.355.645-.114.916l-5.015,2.9A1.764,1.764,0,0,1,349.307,267.83Z" transform="translate(-221.966 -197.453)" fill="#06033e"/>
            <path id="Trazado_1045829" data-name="Trazado 1045829" d="M356.838,272.178l-5.062-2.922c-.407-.235-.356-.645.113-.916l5.016-2.9a1.762,1.762,0,0,1,1.585-.065l5.062,2.922c.407.235.356.645-.113.916l-5.016,2.9A1.762,1.762,0,0,1,356.838,272.178Z" transform="translate(-221.68 -197.288)" fill="#06033e"/>
            <path id="Trazado_1045830" data-name="Trazado 1045830" d="M285.1,222.3l-5.062-2.922c-.406-.235-.355-.645.114-.916l5.015-2.9a1.76,1.76,0,0,1,1.586-.066l5.062,2.922c.406.236.355.645-.114.916l-5.015,2.9A1.764,1.764,0,0,1,285.1,222.3Z" transform="translate(-224.411 -199.187)" fill="#06033e"/>
            <path id="Trazado_1045831" data-name="Trazado 1045831" d="M277.607,217.97l-5.062-2.922c-.406-.235-.355-.645.114-.916l5.015-2.9a1.761,1.761,0,0,1,1.586-.066l5.062,2.922c.407.236.355.645-.114.916l-5.015,2.9A1.763,1.763,0,0,1,277.607,217.97Z" transform="translate(-224.696 -199.352)" fill="#06033e"/>
            <path id="Trazado_1045832" data-name="Trazado 1045832" d="M270.115,213.644l-5.063-2.922c-.406-.235-.355-.645.114-.916l5.016-2.9a1.759,1.759,0,0,1,1.585-.066l5.062,2.922c.407.236.356.645-.113.916l-5.016,2.9A1.762,1.762,0,0,1,270.115,213.644Z" transform="translate(-224.981 -199.516)" fill="#06033e"/>
            <path id="Trazado_1045833" data-name="Trazado 1045833" d="M262.622,209.318,257.56,206.4c-.407-.235-.356-.645.113-.916l5.016-2.9a1.758,1.758,0,0,1,1.585-.066l5.062,2.922c.407.236.356.645-.113.916l-5.016,2.9A1.761,1.761,0,0,1,262.622,209.318Z" transform="translate(-225.267 -199.681)" fill="#06033e"/>
            <path id="Trazado_1045834" data-name="Trazado 1045834" d="M270.327,204.8l-5.062-2.922c-.407-.236-.356-.645.113-.916l1.658-.957a1.761,1.761,0,0,1,1.586-.066l5.062,2.922c.406.235.355.645-.114.916l-1.658.957A1.762,1.762,0,0,1,270.327,204.8Z" transform="translate(-224.973 -199.779)" fill="#06033e"/>
            <path id="Trazado_1045835" data-name="Trazado 1045835" d="M280.1,210.444l-5.062-2.922c-.407-.235-.356-.645.113-.916l1.658-.957a1.76,1.76,0,0,1,1.586-.065l5.062,2.922c.407.235.355.645-.114.916l-1.658.957A1.761,1.761,0,0,1,280.1,210.444Z" transform="translate(-224.601 -199.564)" fill="#06033e"/>
            <path id="Trazado_1045836" data-name="Trazado 1045836" d="M287.566,214.752,282.5,211.83c-.406-.235-.355-.645.114-.916l1.658-.957a1.76,1.76,0,0,1,1.586-.065l5.062,2.922c.406.235.355.645-.114.916l-1.658.957A1.764,1.764,0,0,1,287.566,214.752Z" transform="translate(-224.317 -199.4)" fill="#06033e"/>
            <path id="Trazado_1045837" data-name="Trazado 1045837" d="M295.028,219.06l-5.062-2.922c-.407-.235-.356-.645.113-.916l1.659-.957a1.762,1.762,0,0,1,1.585-.066l5.062,2.923c.407.235.356.645-.113.916l-1.659.957A1.762,1.762,0,0,1,295.028,219.06Z" transform="translate(-224.033 -199.236)" fill="#06033e"/>
            <path id="Trazado_1045838" data-name="Trazado 1045838" d="M302.489,223.368l-5.062-2.922c-.406-.235-.355-.645.114-.916l1.658-.957a1.764,1.764,0,0,1,1.586-.066l5.062,2.923c.406.235.355.645-.114.916l-1.658.957A1.764,1.764,0,0,1,302.489,223.368Z" transform="translate(-223.749 -199.072)" fill="#06033e"/>
            <path id="Trazado_1045839" data-name="Trazado 1045839" d="M344.146,247.419l-5.062-2.923c-.406-.235-.355-.645.114-.916l1.658-.957a1.761,1.761,0,0,1,1.585-.065l5.063,2.922c.406.235.355.645-.114.916l-1.658.957A1.764,1.764,0,0,1,344.146,247.419Z" transform="translate(-222.163 -198.157)" fill="#06033e"/>
            <path id="Trazado_1045840" data-name="Trazado 1045840" d="M351.608,251.726l-5.062-2.922c-.407-.235-.356-.645.113-.916l1.659-.957a1.761,1.761,0,0,1,1.585-.065l5.062,2.922c.407.235.356.645-.113.916l-1.659.957A1.758,1.758,0,0,1,351.608,251.726Z" transform="translate(-221.879 -197.993)" fill="#06033e"/>
            <path id="Trazado_1045841" data-name="Trazado 1045841" d="M359.069,256.035l-5.062-2.923c-.406-.235-.355-.645.114-.916l1.658-.957a1.764,1.764,0,0,1,1.586-.065l5.062,2.922c.406.235.355.645-.114.916l-1.658.957A1.767,1.767,0,0,1,359.069,256.035Z" transform="translate(-221.595 -197.829)" fill="#06033e"/>
            <path id="Trazado_1045842" data-name="Trazado 1045842" d="M366.531,260.342l-5.062-2.922c-.407-.235-.356-.645.114-.916l1.658-.957a1.761,1.761,0,0,1,1.585-.065l5.062,2.922c.407.235.356.645-.113.916l-1.658.957A1.76,1.76,0,0,1,366.531,260.342Z" transform="translate(-221.311 -197.665)" fill="#06033e"/>
            <path id="Trazado_1045843" data-name="Trazado 1045843" d="M292.63,226.644l-5.062-2.923c-.406-.235-.355-.644.114-.916l5.015-2.9a1.764,1.764,0,0,1,1.586-.065l5.062,2.922c.407.235.355.645-.114.916l-5.015,2.9A1.764,1.764,0,0,1,292.63,226.644Z" transform="translate(-224.124 -199.021)" fill="#06033e"/>
            <path id="Trazado_1045844" data-name="Trazado 1045844" d="M300.161,230.991l-5.062-2.922c-.407-.235-.356-.645.113-.916l5.016-2.9a1.762,1.762,0,0,1,1.585-.066l5.062,2.923c.407.235.356.645-.113.915l-5.016,2.9A1.761,1.761,0,0,1,300.161,230.991Z" transform="translate(-223.837 -198.856)" fill="#06033e"/>
            <path id="Trazado_1045845" data-name="Trazado 1045845" d="M307.691,235.339l-5.062-2.922c-.407-.235-.356-.645.113-.916l5.016-2.9a1.762,1.762,0,0,1,1.585-.065l5.063,2.922c.406.235.355.645-.114.916l-5.016,2.9A1.762,1.762,0,0,1,307.691,235.339Z" transform="translate(-223.551 -198.69)" fill="#06033e"/>
            <path id="Trazado_1045846" data-name="Trazado 1045846" d="M315.221,239.686l-5.062-2.922c-.406-.235-.355-.645.114-.916l5.015-2.9a1.764,1.764,0,0,1,1.586-.065l5.062,2.922c.406.235.355.645-.114.916l-5.015,2.9A1.76,1.76,0,0,1,315.221,239.686Z" transform="translate(-223.264 -198.525)" fill="#06033e"/>
            <path id="Trazado_1045847" data-name="Trazado 1045847" d="M322.751,244.034l-5.062-2.922c-.406-.235-.355-.645.114-.916l5.015-2.9a1.767,1.767,0,0,1,1.586-.065l5.062,2.922c.407.235.355.645-.114.916l-5.015,2.9A1.764,1.764,0,0,1,322.751,244.034Z" transform="translate(-222.977 -198.359)" fill="#06033e"/>
            <path id="Trazado_1045848" data-name="Trazado 1045848" d="M330.282,248.382l-5.062-2.923c-.407-.235-.356-.644.113-.915l5.016-2.9a1.762,1.762,0,0,1,1.585-.065L337,244.505c.407.235.356.645-.113.916l-5.016,2.9A1.762,1.762,0,0,1,330.282,248.382Z" transform="translate(-222.691 -198.194)" fill="#06033e"/>
            <path id="Trazado_1045849" data-name="Trazado 1045849" d="M337.812,252.729l-5.062-2.922c-.407-.235-.356-.645.113-.916l5.016-2.9a1.762,1.762,0,0,1,1.585-.066l5.063,2.923c.406.235.355.644-.114.916l-5.016,2.9A1.761,1.761,0,0,1,337.812,252.729Z" transform="translate(-222.404 -198.028)" fill="#06033e"/>
            <path id="Trazado_1045850" data-name="Trazado 1045850" d="M345.342,257.077l-5.062-2.922c-.406-.235-.355-.645.114-.916l5.015-2.9a1.763,1.763,0,0,1,1.586-.065l5.062,2.922c.406.235.355.645-.114.916l-5.015,2.9A1.764,1.764,0,0,1,345.342,257.077Z" transform="translate(-222.117 -197.863)" fill="#06033e"/>
            <path id="Trazado_1045851" data-name="Trazado 1045851" d="M352.873,261.424,347.81,258.5c-.406-.235-.355-.645.114-.916l5.016-2.9a1.761,1.761,0,0,1,1.585-.065l5.062,2.922c.407.235.356.645-.114.916l-5.015,2.9A1.761,1.761,0,0,1,352.873,261.424Z" transform="translate(-221.831 -197.697)" fill="#06033e"/>
            <path id="Trazado_1045852" data-name="Trazado 1045852" d="M249.94,227.389l-14.908-8.607c-.407-.235-.356-.645.114-.916l5.015-2.9a1.76,1.76,0,0,1,1.586-.065l14.907,8.607c.407.235.356.645-.113.916l-5.016,2.9A1.761,1.761,0,0,1,249.94,227.389Z" transform="translate(-226.124 -199.21)" fill="#06033e"/>
            <path id="Trazado_1045853" data-name="Trazado 1045853" d="M342.451,280.8l-14.908-8.607c-.407-.236-.355-.645.114-.916l5.015-2.9a1.764,1.764,0,0,1,1.586-.065l14.907,8.607c.407.235.356.645-.113.916l-5.016,2.9A1.762,1.762,0,0,1,342.451,280.8Z" transform="translate(-222.602 -197.176)" fill="#06033e"/>
            <path id="Trazado_1045854" data-name="Trazado 1045854" d="M311.975,272.83l-5.062-2.923c-.406-.235-.355-.645.114-.916L313,265.541a1.764,1.764,0,0,1,1.586-.065l5.062,2.922c.406.235.355.645-.114.916l-5.974,3.449A1.764,1.764,0,0,1,311.975,272.83Z" transform="translate(-223.388 -197.284)" fill="#06033e"/>
            <path id="Trazado_1045855" data-name="Trazado 1045855" d="M257.4,241.321l-8.095-4.673c-.407-.235-.355-.645.114-.916l5.974-3.45a1.76,1.76,0,0,1,1.586-.065l8.095,4.673c.407.235.355.645-.114.916l-5.974,3.45A1.764,1.764,0,0,1,257.4,241.321Z" transform="translate(-225.581 -198.55)" fill="#06033e"/>
            <path id="Trazado_1045856" data-name="Trazado 1045856" d="M304.831,268.7l-8.1-4.673c-.406-.235-.355-.645.114-.916l5.975-3.449a1.761,1.761,0,0,1,1.585-.065l8.095,4.673c.407.235.356.645-.113.916l-5.975,3.45A1.758,1.758,0,0,1,304.831,268.7Z" transform="translate(-223.775 -197.508)" fill="#06033e"/>
            <path id="Trazado_1045857" data-name="Trazado 1045857" d="M268.266,247.594l-8.095-4.674c-.407-.235-.356-.645.113-.915l5.975-3.45a1.759,1.759,0,0,1,1.585-.066l8.1,4.674c.406.235.355.644-.114.916l-5.975,3.448A1.762,1.762,0,0,1,268.266,247.594Z" transform="translate(-225.167 -198.312)" fill="#06033e"/>
            <path id="Trazado_1045858" data-name="Trazado 1045858" d="M267.887,238.514l35.2,20.32a.481.481,0,0,1,0,.912l-6.092,3.518a1.748,1.748,0,0,1-1.582,0l-35.2-20.32Z" transform="translate(-225.155 -198.305)" fill="#06033e"/>
            <path id="Trazado_1045859" data-name="Trazado 1045859" d="M332.974,280.441l5.639,3.255c.333.192.291.528-.093.751l-2.445,1.411a1.445,1.445,0,0,1-1.3.054l-5.638-3.255c-.333-.192-.292-.528.093-.751l2.444-1.411A1.445,1.445,0,0,1,332.974,280.441Z" transform="translate(-222.54 -196.713)" fill="#06033e"/>
            <path id="Trazado_1045860" data-name="Trazado 1045860" d="M325.381,276.057l5.639,3.255c.333.193.292.528-.093.751l-2.444,1.412a1.449,1.449,0,0,1-1.3.054l-5.639-3.255c-.333-.193-.292-.528.093-.751l2.444-1.412A1.449,1.449,0,0,1,325.381,276.057Z" transform="translate(-222.829 -196.88)" fill="#06033e"/>
            <path id="Trazado_1045861" data-name="Trazado 1045861" d="M317.851,271.71l5.639,3.255c.333.192.291.528-.093.751l-2.445,1.411a1.445,1.445,0,0,1-1.3.054l-5.638-3.255c-.333-.192-.292-.528.093-.751l2.444-1.411A1.445,1.445,0,0,1,317.851,271.71Z" transform="translate(-223.115 -197.046)" fill="#06033e"/>
            <path id="Trazado_1045862" data-name="Trazado 1045862" d="M329.54,273.657l5.638,3.255c.333.192.292.528-.093.75l-2.444,1.412a1.445,1.445,0,0,1-1.3.054l-5.639-3.255c-.333-.192-.291-.528.093-.751l2.445-1.411A1.442,1.442,0,0,1,329.54,273.657Z" transform="translate(-222.67 -196.972)" fill="#06033e"/>
          </g>
          <g id="Grupo_1179720" data-name="Grupo 1179720" transform="translate(90.813 139.637)" opacity="0.4">
            <path id="Trazado_1045863" data-name="Trazado 1045863" d="M231.777,226.526l-5.062-2.922c-.406-.235-.355-.645.114-.916l5.974-3.45a1.764,1.764,0,0,1,1.586-.065l5.062,2.922c.407.235.355.645-.114.916l-5.974,3.45A1.764,1.764,0,0,1,231.777,226.526Z" transform="translate(-226.441 -199.047)" fill="#06033e"/>
            <path id="Trazado_1045864" data-name="Trazado 1045864" d="M239.308,230.875l-5.063-2.923c-.406-.235-.355-.644.114-.915l5.975-3.45a1.762,1.762,0,0,1,1.585-.066l5.062,2.923c.407.235.356.644-.113.915l-5.975,3.45A1.758,1.758,0,0,1,239.308,230.875Z" transform="translate(-226.154 -198.881)" fill="#06033e"/>
            <path id="Trazado_1045865" data-name="Trazado 1045865" d="M246.838,235.221l-5.062-2.922c-.407-.235-.356-.645.113-.916l5.975-3.45a1.761,1.761,0,0,1,1.585-.065l5.063,2.922c.406.235.355.645-.114.916l-5.975,3.45A1.762,1.762,0,0,1,246.838,235.221Z" transform="translate(-225.868 -198.716)" fill="#06033e"/>
            <path id="Trazado_1045866" data-name="Trazado 1045866" d="M257.253,231.611l-5.063-2.922c-.406-.235-.355-.645.114-.916l5.016-2.9a1.761,1.761,0,0,1,1.585-.065l5.062,2.922c.407.235.356.645-.113.916l-5.016,2.9A1.761,1.761,0,0,1,257.253,231.611Z" transform="translate(-225.471 -198.832)" fill="#06033e"/>
            <path id="Trazado_1045867" data-name="Trazado 1045867" d="M264.783,235.958l-5.062-2.922c-.407-.235-.356-.645.113-.916l5.016-2.9a1.761,1.761,0,0,1,1.585-.065l5.062,2.922c.407.235.356.645-.113.916l-5.016,2.9A1.758,1.758,0,0,1,264.783,235.958Z" transform="translate(-225.184 -198.667)" fill="#06033e"/>
            <path id="Trazado_1045868" data-name="Trazado 1045868" d="M272.313,240.306l-5.062-2.922c-.407-.235-.355-.645.114-.916l5.015-2.9a1.764,1.764,0,0,1,1.586-.066l5.062,2.923c.406.234.355.644-.114.915l-5.015,2.9A1.764,1.764,0,0,1,272.313,240.306Z" transform="translate(-224.898 -198.501)" fill="#06033e"/>
            <path id="Trazado_1045869" data-name="Trazado 1045869" d="M279.843,244.654l-5.062-2.922c-.406-.235-.355-.645.114-.916l5.015-2.9a1.763,1.763,0,0,1,1.586-.065l5.062,2.922c.407.235.355.645-.114.916l-5.015,2.9A1.764,1.764,0,0,1,279.843,244.654Z" transform="translate(-224.611 -198.336)" fill="#06033e"/>
            <path id="Trazado_1045870" data-name="Trazado 1045870" d="M287.374,249l-5.062-2.922c-.407-.235-.356-.645.113-.916l5.016-2.9a1.758,1.758,0,0,1,1.585-.065l5.062,2.922c.407.235.356.645-.113.916l-5.016,2.9A1.762,1.762,0,0,1,287.374,249Z" transform="translate(-224.324 -198.17)" fill="#06033e"/>
            <path id="Trazado_1045871" data-name="Trazado 1045871" d="M294.9,253.349l-5.062-2.922c-.407-.235-.356-.645.113-.916l5.016-2.9a1.761,1.761,0,0,1,1.585-.065l5.062,2.922c.407.235.356.645-.113.916l-5.016,2.9A1.761,1.761,0,0,1,294.9,253.349Z" transform="translate(-224.038 -198.005)" fill="#06033e"/>
            <path id="Trazado_1045872" data-name="Trazado 1045872" d="M302.434,257.7l-5.062-2.923c-.406-.235-.355-.645.114-.916l5.015-2.9a1.764,1.764,0,0,1,1.586-.065l5.062,2.922c.406.235.355.645-.114.916l-5.015,2.9A1.764,1.764,0,0,1,302.434,257.7Z" transform="translate(-223.751 -197.839)" fill="#06033e"/>
            <path id="Trazado_1045873" data-name="Trazado 1045873" d="M309.964,262.044l-5.062-2.922c-.406-.235-.355-.645.114-.916l5.015-2.9a1.764,1.764,0,0,1,1.586-.066l5.062,2.923c.406.235.355.644-.114.915l-5.015,2.9A1.763,1.763,0,0,1,309.964,262.044Z" transform="translate(-223.464 -197.674)" fill="#06033e"/>
            <path id="Trazado_1045874" data-name="Trazado 1045874" d="M317.495,266.392l-5.063-2.922c-.406-.236-.355-.645.114-.916l5.016-2.9a1.761,1.761,0,0,1,1.585-.065l5.062,2.922c.407.235.356.645-.113.916l-5.016,2.9A1.762,1.762,0,0,1,317.495,266.392Z" transform="translate(-223.177 -197.508)" fill="#06033e"/>
            <path id="Trazado_1045875" data-name="Trazado 1045875" d="M325.025,270.739l-5.062-2.922c-.407-.235-.356-.645.113-.916l5.016-2.9a1.762,1.762,0,0,1,1.585-.066l5.063,2.923c.406.235.355.645-.114.916l-5.016,2.9A1.761,1.761,0,0,1,325.025,270.739Z" transform="translate(-222.891 -197.343)" fill="#06033e"/>
            <path id="Trazado_1045876" data-name="Trazado 1045876" d="M268.348,229.553l-5.062-2.923c-.407-.235-.356-.645.113-.916l5.016-2.9a1.762,1.762,0,0,1,1.585-.065l5.063,2.922c.406.235.355.645-.114.916l-5.016,2.9A1.762,1.762,0,0,1,268.348,229.553Z" transform="translate(-225.049 -198.911)" fill="#06033e"/>
            <path id="Trazado_1045877" data-name="Trazado 1045877" d="M260.7,225.14l-5.062-2.922c-.406-.235-.355-.645.114-.916l5.015-2.9a1.76,1.76,0,0,1,1.586-.066l5.062,2.922c.406.236.355.645-.114.916l-5.015,2.9A1.764,1.764,0,0,1,260.7,225.14Z" transform="translate(-225.34 -199.079)" fill="#06033e"/>
            <path id="Trazado_1045878" data-name="Trazado 1045878" d="M253.264,220.844l-10.9-6.294c-.406-.235-.355-.645.114-.916l5.015-2.9a1.764,1.764,0,0,1,1.586-.066l10.9,6.295c.406.235.355.645-.114.916l-5.015,2.9A1.763,1.763,0,0,1,253.264,220.844Z" transform="translate(-225.845 -199.371)" fill="#06033e"/>
            <path id="Trazado_1045879" data-name="Trazado 1045879" d="M258.54,215.426l-8.847-5.108c-.406-.235-.355-.645.114-.916l5.016-2.9a1.762,1.762,0,0,1,1.585-.066l8.848,5.108c.406.235.355.645-.114.916l-5.015,2.9A1.764,1.764,0,0,1,258.54,215.426Z" transform="translate(-225.566 -199.532)" fill="#06033e"/>
            <path id="Trazado_1045880" data-name="Trazado 1045880" d="M275.878,233.9l-5.062-2.922c-.406-.235-.355-.645.114-.916l5.015-2.9a1.764,1.764,0,0,1,1.586-.066l5.062,2.923c.406.235.355.645-.114.915l-5.015,2.9A1.764,1.764,0,0,1,275.878,233.9Z" transform="translate(-224.762 -198.745)" fill="#06033e"/>
            <path id="Trazado_1045881" data-name="Trazado 1045881" d="M283.409,238.248l-5.063-2.922c-.406-.236-.355-.645.114-.916l5.015-2.9a1.764,1.764,0,0,1,1.586-.065l5.062,2.922c.407.235.356.645-.114.916l-5.015,2.9A1.761,1.761,0,0,1,283.409,238.248Z" transform="translate(-224.475 -198.58)" fill="#06033e"/>
            <path id="Trazado_1045882" data-name="Trazado 1045882" d="M290.939,242.6l-5.062-2.922c-.407-.235-.356-.645.113-.916l5.016-2.9a1.765,1.765,0,0,1,1.585-.066l5.062,2.923c.407.235.356.645-.113.916l-5.016,2.9A1.758,1.758,0,0,1,290.939,242.6Z" transform="translate(-224.189 -198.414)" fill="#06033e"/>
            <path id="Trazado_1045883" data-name="Trazado 1045883" d="M298.469,246.943l-5.062-2.922c-.407-.235-.356-.645.114-.916l5.015-2.9a1.761,1.761,0,0,1,1.585-.065l5.063,2.922c.406.235.355.645-.114.916l-5.015,2.9A1.764,1.764,0,0,1,298.469,246.943Z" transform="translate(-223.902 -198.249)" fill="#06033e"/>
            <path id="Trazado_1045884" data-name="Trazado 1045884" d="M306,251.291l-5.062-2.923c-.406-.235-.355-.644.114-.916l5.015-2.9a1.763,1.763,0,0,1,1.586-.065l5.062,2.922c.406.235.355.645-.114.916l-5.015,2.9A1.764,1.764,0,0,1,306,251.291Z" transform="translate(-223.615 -198.083)" fill="#06033e"/>
            <path id="Trazado_1045885" data-name="Trazado 1045885" d="M313.529,255.638l-5.062-2.922c-.406-.235-.355-.645.114-.916l5.015-2.9a1.764,1.764,0,0,1,1.586-.066l5.062,2.923c.407.235.356.645-.114.916l-5.015,2.9A1.763,1.763,0,0,1,313.529,255.638Z" transform="translate(-223.328 -197.918)" fill="#06033e"/>
            <path id="Trazado_1045886" data-name="Trazado 1045886" d="M321.06,259.986,316,257.064c-.407-.235-.356-.645.113-.916l5.016-2.9a1.761,1.761,0,0,1,1.585-.065l5.062,2.922c.407.235.356.645-.113.916l-5.016,2.9A1.758,1.758,0,0,1,321.06,259.986Z" transform="translate(-223.042 -197.752)" fill="#06033e"/>
            <path id="Trazado_1045887" data-name="Trazado 1045887" d="M328.59,264.333l-5.062-2.922c-.407-.235-.356-.645.114-.916l5.015-2.9a1.758,1.758,0,0,1,1.585-.065l5.063,2.922c.406.235.355.645-.114.916l-5.016,2.9A1.758,1.758,0,0,1,328.59,264.333Z" transform="translate(-222.755 -197.586)" fill="#06033e"/>
            <path id="Trazado_1045888" data-name="Trazado 1045888" d="M336.12,268.681l-5.062-2.922c-.406-.235-.355-.645.114-.916l5.015-2.9a1.764,1.764,0,0,1,1.586-.066l5.062,2.922c.406.235.355.645-.114.916l-5.015,2.9A1.764,1.764,0,0,1,336.12,268.681Z" transform="translate(-222.468 -197.421)" fill="#06033e"/>
            <path id="Trazado_1045889" data-name="Trazado 1045889" d="M349.726,276.537l-11.044-6.376c-.406-.236-.355-.645.114-.916l5.015-2.9a1.763,1.763,0,0,1,1.586-.065l11.044,6.377c.407.234.355.644-.114.915l-5.015,2.9A1.764,1.764,0,0,1,349.726,276.537Z" transform="translate(-222.178 -197.253)" fill="#06033e"/>
            <path id="Trazado_1045890" data-name="Trazado 1045890" d="M364.324,268.036,355,262.654c-.407-.235-.356-.645.114-.916l5.015-2.9a1.764,1.764,0,0,1,1.586-.065l9.322,5.381c.406.235.355.645-.114.916l-5.016,2.9A1.761,1.761,0,0,1,364.324,268.036Z" transform="translate(-221.557 -197.539)" fill="#06033e"/>
            <path id="Trazado_1045891" data-name="Trazado 1045891" d="M289.065,233.05,284,230.127c-.406-.235-.355-.644.114-.916l5.015-2.9a1.764,1.764,0,0,1,1.586-.065l5.062,2.922c.406.235.355.645-.114.916l-5.015,2.9A1.764,1.764,0,0,1,289.065,233.05Z" transform="translate(-224.26 -198.778)" fill="#06033e"/>
            <path id="Trazado_1045892" data-name="Trazado 1045892" d="M281.348,228.594l-5.062-2.922c-.407-.236-.356-.645.113-.916l5.016-2.9a1.761,1.761,0,0,1,1.585-.065l5.062,2.922c.407.235.356.645-.113.916l-5.016,2.9A1.759,1.759,0,0,1,281.348,228.594Z" transform="translate(-224.554 -198.947)" fill="#06033e"/>
            <path id="Trazado_1045893" data-name="Trazado 1045893" d="M273.63,224.138l-5.062-2.922c-.406-.235-.355-.645.114-.916l5.015-2.9a1.767,1.767,0,0,1,1.586-.065l5.062,2.922c.406.235.355.645-.114.916l-5.015,2.9A1.764,1.764,0,0,1,273.63,224.138Z" transform="translate(-224.848 -199.117)" fill="#06033e"/>
            <path id="Trazado_1045894" data-name="Trazado 1045894" d="M265.913,219.682l-5.063-2.922c-.406-.235-.355-.645.114-.916l5.016-2.9a1.762,1.762,0,0,1,1.585-.066l5.062,2.923c.407.235.356.645-.113.916l-5.016,2.9A1.761,1.761,0,0,1,265.913,219.682Z" transform="translate(-225.141 -199.286)" fill="#06033e"/>
            <path id="Trazado_1045895" data-name="Trazado 1045895" d="M296.6,237.4l-5.063-2.922c-.406-.235-.355-.645.114-.916l5.016-2.9a1.762,1.762,0,0,1,1.585-.066l5.062,2.923c.407.235.356.644-.114.915l-5.015,2.9A1.761,1.761,0,0,1,296.6,237.4Z" transform="translate(-223.973 -198.612)" fill="#06033e"/>
            <path id="Trazado_1045896" data-name="Trazado 1045896" d="M304.126,241.745l-5.062-2.922c-.407-.235-.356-.645.113-.916l5.016-2.9a1.762,1.762,0,0,1,1.585-.065l5.062,2.922c.407.235.356.645-.113.916l-5.016,2.9A1.759,1.759,0,0,1,304.126,241.745Z" transform="translate(-223.687 -198.447)" fill="#06033e"/>
            <path id="Trazado_1045897" data-name="Trazado 1045897" d="M311.656,246.092l-5.062-2.922c-.407-.235-.355-.645.114-.916l5.015-2.9a1.76,1.76,0,0,1,1.586-.065l5.062,2.922c.406.235.355.645-.114.916l-5.015,2.9A1.764,1.764,0,0,1,311.656,246.092Z" transform="translate(-223.4 -198.281)" fill="#06033e"/>
            <path id="Trazado_1045898" data-name="Trazado 1045898" d="M319.186,250.44l-5.062-2.922c-.406-.235-.355-.645.114-.916l5.015-2.9a1.764,1.764,0,0,1,1.586-.065l5.062,2.922c.406.235.355.645-.114.916l-5.015,2.9A1.764,1.764,0,0,1,319.186,250.44Z" transform="translate(-223.113 -198.115)" fill="#06033e"/>
            <path id="Trazado_1045899" data-name="Trazado 1045899" d="M326.717,254.788l-5.063-2.923c-.406-.235-.355-.645.114-.915l5.016-2.9a1.761,1.761,0,0,1,1.585-.065l5.062,2.922c.407.235.356.645-.113.916l-5.016,2.9A1.762,1.762,0,0,1,326.717,254.788Z" transform="translate(-222.826 -197.95)" fill="#06033e"/>
            <path id="Trazado_1045900" data-name="Trazado 1045900" d="M334.247,259.135l-5.062-2.922c-.407-.235-.356-.645.113-.916l5.016-2.9a1.762,1.762,0,0,1,1.585-.066l5.062,2.923c.407.235.356.644-.113.915l-5.016,2.9A1.762,1.762,0,0,1,334.247,259.135Z" transform="translate(-222.54 -197.784)" fill="#06033e"/>
            <path id="Trazado_1045901" data-name="Trazado 1045901" d="M341.777,263.483l-5.062-2.922c-.407-.236-.355-.645.114-.916l5.015-2.9a1.764,1.764,0,0,1,1.586-.065l5.062,2.922c.406.235.355.645-.114.916l-5.015,2.9A1.761,1.761,0,0,1,341.777,263.483Z" transform="translate(-222.253 -197.619)" fill="#06033e"/>
            <path id="Trazado_1045902" data-name="Trazado 1045902" d="M349.307,267.83l-5.062-2.922c-.406-.235-.355-.645.114-.916l5.015-2.9a1.767,1.767,0,0,1,1.586-.066l5.062,2.923c.407.235.355.645-.114.916l-5.015,2.9A1.764,1.764,0,0,1,349.307,267.83Z" transform="translate(-221.966 -197.453)" fill="#06033e"/>
            <path id="Trazado_1045903" data-name="Trazado 1045903" d="M356.838,272.178l-5.062-2.922c-.407-.235-.356-.645.113-.916l5.016-2.9a1.762,1.762,0,0,1,1.585-.065l5.062,2.922c.407.235.356.645-.113.916l-5.016,2.9A1.762,1.762,0,0,1,356.838,272.178Z" transform="translate(-221.68 -197.288)" fill="#06033e"/>
            <path id="Trazado_1045904" data-name="Trazado 1045904" d="M285.1,222.3l-5.062-2.922c-.406-.235-.355-.645.114-.916l5.015-2.9a1.76,1.76,0,0,1,1.586-.066l5.062,2.922c.406.236.355.645-.114.916l-5.015,2.9A1.764,1.764,0,0,1,285.1,222.3Z" transform="translate(-224.411 -199.187)" fill="#06033e"/>
            <path id="Trazado_1045905" data-name="Trazado 1045905" d="M277.607,217.97l-5.062-2.922c-.406-.235-.355-.645.114-.916l5.015-2.9a1.761,1.761,0,0,1,1.586-.066l5.062,2.922c.407.236.355.645-.114.916l-5.015,2.9A1.763,1.763,0,0,1,277.607,217.97Z" transform="translate(-224.696 -199.352)" fill="#06033e"/>
            <path id="Trazado_1045906" data-name="Trazado 1045906" d="M270.115,213.644l-5.063-2.922c-.406-.235-.355-.645.114-.916l5.016-2.9a1.759,1.759,0,0,1,1.585-.066l5.062,2.922c.407.236.356.645-.113.916l-5.016,2.9A1.762,1.762,0,0,1,270.115,213.644Z" transform="translate(-224.981 -199.516)" fill="#06033e"/>
            <path id="Trazado_1045907" data-name="Trazado 1045907" d="M262.622,209.318,257.56,206.4c-.407-.235-.356-.645.113-.916l5.016-2.9a1.758,1.758,0,0,1,1.585-.066l5.062,2.922c.407.236.356.645-.113.916l-5.016,2.9A1.761,1.761,0,0,1,262.622,209.318Z" transform="translate(-225.267 -199.681)" fill="#06033e"/>
            <path id="Trazado_1045908" data-name="Trazado 1045908" d="M270.327,204.8l-5.062-2.922c-.407-.236-.356-.645.113-.916l1.658-.957a1.761,1.761,0,0,1,1.586-.066l5.062,2.922c.406.235.355.645-.114.916l-1.658.957A1.762,1.762,0,0,1,270.327,204.8Z" transform="translate(-224.973 -199.779)" fill="#06033e"/>
            <path id="Trazado_1045909" data-name="Trazado 1045909" d="M280.1,210.444l-5.062-2.922c-.407-.235-.356-.645.113-.916l1.658-.957a1.76,1.76,0,0,1,1.586-.065l5.062,2.922c.407.235.355.645-.114.916l-1.658.957A1.761,1.761,0,0,1,280.1,210.444Z" transform="translate(-224.601 -199.564)" fill="#06033e"/>
            <path id="Trazado_1045910" data-name="Trazado 1045910" d="M287.566,214.752,282.5,211.83c-.406-.235-.355-.645.114-.916l1.658-.957a1.76,1.76,0,0,1,1.586-.065l5.062,2.922c.406.235.355.645-.114.916l-1.658.957A1.764,1.764,0,0,1,287.566,214.752Z" transform="translate(-224.317 -199.4)" fill="#06033e"/>
            <path id="Trazado_1045911" data-name="Trazado 1045911" d="M295.028,219.06l-5.062-2.922c-.407-.235-.356-.645.113-.916l1.659-.957a1.762,1.762,0,0,1,1.585-.066l5.062,2.923c.407.235.356.645-.113.916l-1.659.957A1.762,1.762,0,0,1,295.028,219.06Z" transform="translate(-224.033 -199.236)" fill="#06033e"/>
            <path id="Trazado_1045912" data-name="Trazado 1045912" d="M302.489,223.368l-5.062-2.922c-.406-.235-.355-.645.114-.916l1.658-.957a1.764,1.764,0,0,1,1.586-.066l5.062,2.923c.406.235.355.645-.114.916l-1.658.957A1.764,1.764,0,0,1,302.489,223.368Z" transform="translate(-223.749 -199.072)" fill="#06033e"/>
            <path id="Trazado_1045913" data-name="Trazado 1045913" d="M344.146,247.419l-5.062-2.923c-.406-.235-.355-.645.114-.916l1.658-.957a1.761,1.761,0,0,1,1.585-.065l5.063,2.922c.406.235.355.645-.114.916l-1.658.957A1.764,1.764,0,0,1,344.146,247.419Z" transform="translate(-222.163 -198.157)" fill="#06033e"/>
            <path id="Trazado_1045914" data-name="Trazado 1045914" d="M351.608,251.726l-5.062-2.922c-.407-.235-.356-.645.113-.916l1.659-.957a1.761,1.761,0,0,1,1.585-.065l5.062,2.922c.407.235.356.645-.113.916l-1.659.957A1.758,1.758,0,0,1,351.608,251.726Z" transform="translate(-221.879 -197.993)" fill="#06033e"/>
            <path id="Trazado_1045915" data-name="Trazado 1045915" d="M359.069,256.035l-5.062-2.923c-.406-.235-.355-.645.114-.916l1.658-.957a1.764,1.764,0,0,1,1.586-.065l5.062,2.922c.406.235.355.645-.114.916l-1.658.957A1.767,1.767,0,0,1,359.069,256.035Z" transform="translate(-221.595 -197.829)" fill="#06033e"/>
            <path id="Trazado_1045916" data-name="Trazado 1045916" d="M366.531,260.342l-5.062-2.922c-.407-.235-.356-.645.114-.916l1.658-.957a1.761,1.761,0,0,1,1.585-.065l5.062,2.922c.407.235.356.645-.113.916l-1.658.957A1.76,1.76,0,0,1,366.531,260.342Z" transform="translate(-221.311 -197.665)" fill="#06033e"/>
            <path id="Trazado_1045917" data-name="Trazado 1045917" d="M292.63,226.644l-5.062-2.923c-.406-.235-.355-.644.114-.916l5.015-2.9a1.764,1.764,0,0,1,1.586-.065l5.062,2.922c.407.235.355.645-.114.916l-5.015,2.9A1.764,1.764,0,0,1,292.63,226.644Z" transform="translate(-224.124 -199.021)" fill="#06033e"/>
            <path id="Trazado_1045918" data-name="Trazado 1045918" d="M300.161,230.991l-5.062-2.922c-.407-.235-.356-.645.113-.916l5.016-2.9a1.762,1.762,0,0,1,1.585-.066l5.062,2.923c.407.235.356.645-.113.915l-5.016,2.9A1.761,1.761,0,0,1,300.161,230.991Z" transform="translate(-223.837 -198.856)" fill="#06033e"/>
            <path id="Trazado_1045919" data-name="Trazado 1045919" d="M307.691,235.339l-5.062-2.922c-.407-.235-.356-.645.113-.916l5.016-2.9a1.762,1.762,0,0,1,1.585-.065l5.063,2.922c.406.235.355.645-.114.916l-5.016,2.9A1.762,1.762,0,0,1,307.691,235.339Z" transform="translate(-223.551 -198.69)" fill="#06033e"/>
            <path id="Trazado_1045920" data-name="Trazado 1045920" d="M315.221,239.686l-5.062-2.922c-.406-.235-.355-.645.114-.916l5.015-2.9a1.764,1.764,0,0,1,1.586-.065l5.062,2.922c.406.235.355.645-.114.916l-5.015,2.9A1.76,1.76,0,0,1,315.221,239.686Z" transform="translate(-223.264 -198.525)" fill="#06033e"/>
            <path id="Trazado_1045921" data-name="Trazado 1045921" d="M322.751,244.034l-5.062-2.922c-.406-.235-.355-.645.114-.916l5.015-2.9a1.767,1.767,0,0,1,1.586-.065l5.062,2.922c.407.235.355.645-.114.916l-5.015,2.9A1.764,1.764,0,0,1,322.751,244.034Z" transform="translate(-222.977 -198.359)" fill="#06033e"/>
            <path id="Trazado_1045922" data-name="Trazado 1045922" d="M330.282,248.382l-5.062-2.923c-.407-.235-.356-.644.113-.915l5.016-2.9a1.762,1.762,0,0,1,1.585-.065L337,244.505c.407.235.356.645-.113.916l-5.016,2.9A1.762,1.762,0,0,1,330.282,248.382Z" transform="translate(-222.691 -198.194)" fill="#06033e"/>
            <path id="Trazado_1045923" data-name="Trazado 1045923" d="M337.812,252.729l-5.062-2.922c-.407-.235-.356-.645.113-.916l5.016-2.9a1.762,1.762,0,0,1,1.585-.066l5.063,2.923c.406.235.355.644-.114.916l-5.016,2.9A1.761,1.761,0,0,1,337.812,252.729Z" transform="translate(-222.404 -198.028)" fill="#06033e"/>
            <path id="Trazado_1045924" data-name="Trazado 1045924" d="M345.342,257.077l-5.062-2.922c-.406-.235-.355-.645.114-.916l5.015-2.9a1.763,1.763,0,0,1,1.586-.065l5.062,2.922c.406.235.355.645-.114.916l-5.015,2.9A1.764,1.764,0,0,1,345.342,257.077Z" transform="translate(-222.117 -197.863)" fill="#06033e"/>
            <path id="Trazado_1045925" data-name="Trazado 1045925" d="M352.873,261.424,347.81,258.5c-.406-.235-.355-.645.114-.916l5.016-2.9a1.761,1.761,0,0,1,1.585-.065l5.062,2.922c.407.235.356.645-.114.916l-5.015,2.9A1.761,1.761,0,0,1,352.873,261.424Z" transform="translate(-221.831 -197.697)" fill="#06033e"/>
            <path id="Trazado_1045926" data-name="Trazado 1045926" d="M249.94,227.389l-14.908-8.607c-.407-.235-.356-.645.114-.916l5.015-2.9a1.76,1.76,0,0,1,1.586-.065l14.907,8.607c.407.235.356.645-.113.916l-5.016,2.9A1.761,1.761,0,0,1,249.94,227.389Z" transform="translate(-226.124 -199.21)" fill="#06033e"/>
            <path id="Trazado_1045927" data-name="Trazado 1045927" d="M342.451,280.8l-14.908-8.607c-.407-.236-.355-.645.114-.916l5.015-2.9a1.764,1.764,0,0,1,1.586-.065l14.907,8.607c.407.235.356.645-.113.916l-5.016,2.9A1.762,1.762,0,0,1,342.451,280.8Z" transform="translate(-222.602 -197.176)" fill="#06033e"/>
            <path id="Trazado_1045928" data-name="Trazado 1045928" d="M311.975,272.83l-5.062-2.923c-.406-.235-.355-.645.114-.916L313,265.541a1.764,1.764,0,0,1,1.586-.065l5.062,2.922c.406.235.355.645-.114.916l-5.974,3.449A1.764,1.764,0,0,1,311.975,272.83Z" transform="translate(-223.388 -197.284)" fill="#06033e"/>
            <path id="Trazado_1045929" data-name="Trazado 1045929" d="M257.4,241.321l-8.095-4.673c-.407-.235-.355-.645.114-.916l5.974-3.45a1.76,1.76,0,0,1,1.586-.065l8.095,4.673c.407.235.355.645-.114.916l-5.974,3.45A1.764,1.764,0,0,1,257.4,241.321Z" transform="translate(-225.581 -198.55)" fill="#06033e"/>
            <path id="Trazado_1045930" data-name="Trazado 1045930" d="M304.831,268.7l-8.1-4.673c-.406-.235-.355-.645.114-.916l5.975-3.449a1.761,1.761,0,0,1,1.585-.065l8.095,4.673c.407.235.356.645-.113.916l-5.975,3.45A1.758,1.758,0,0,1,304.831,268.7Z" transform="translate(-223.775 -197.508)" fill="#06033e"/>
            <path id="Trazado_1045931" data-name="Trazado 1045931" d="M268.266,247.594l-8.095-4.674c-.407-.235-.356-.645.113-.915l5.975-3.45a1.759,1.759,0,0,1,1.585-.066l8.1,4.674c.406.235.355.644-.114.916l-5.975,3.448A1.762,1.762,0,0,1,268.266,247.594Z" transform="translate(-225.167 -198.312)" fill="#06033e"/>
            <path id="Trazado_1045932" data-name="Trazado 1045932" d="M267.887,238.514l35.2,20.32a.481.481,0,0,1,0,.912l-6.092,3.518a1.748,1.748,0,0,1-1.582,0l-35.2-20.32Z" transform="translate(-225.155 -198.305)" fill="#06033e"/>
            <path id="Trazado_1045933" data-name="Trazado 1045933" d="M332.974,280.441l5.639,3.255c.333.192.291.528-.093.751l-2.445,1.411a1.445,1.445,0,0,1-1.3.054l-5.638-3.255c-.333-.192-.292-.528.093-.751l2.444-1.411A1.445,1.445,0,0,1,332.974,280.441Z" transform="translate(-222.54 -196.713)" fill="#06033e"/>
            <path id="Trazado_1045934" data-name="Trazado 1045934" d="M325.381,276.057l5.639,3.255c.333.193.292.528-.093.751l-2.444,1.412a1.449,1.449,0,0,1-1.3.054l-5.639-3.255c-.333-.193-.292-.528.093-.751l2.444-1.412A1.449,1.449,0,0,1,325.381,276.057Z" transform="translate(-222.829 -196.88)" fill="#06033e"/>
            <path id="Trazado_1045935" data-name="Trazado 1045935" d="M317.851,271.71l5.639,3.255c.333.192.291.528-.093.751l-2.445,1.411a1.445,1.445,0,0,1-1.3.054l-5.638-3.255c-.333-.192-.292-.528.093-.751l2.444-1.411A1.445,1.445,0,0,1,317.851,271.71Z" transform="translate(-223.115 -197.046)" fill="#06033e"/>
            <path id="Trazado_1045936" data-name="Trazado 1045936" d="M329.54,273.657l5.638,3.255c.333.192.292.528-.093.75l-2.444,1.412a1.445,1.445,0,0,1-1.3.054l-5.639-3.255c-.333-.192-.291-.528.093-.751l2.445-1.411A1.442,1.442,0,0,1,329.54,273.657Z" transform="translate(-222.67 -196.972)" fill="#06033e"/>
          </g>
          <path id="Trazado_1045937" data-name="Trazado 1045937" d="M414.673,272.423,265.334,186.2a6.616,6.616,0,0,1-2.737-7.379L296.369,69.17c.837-2.719,3.418-3.824,5.767-2.469l149.339,86.221a6.614,6.614,0,0,1,2.737,7.379L420.44,269.954C419.6,272.674,417.022,273.778,414.673,272.423Z" transform="translate(-134.262 -65.231)" fill="url(#radial-gradient-6)"/>
          <path id="Trazado_1045938" data-name="Trazado 1045938" d="M413.148,268.438,268.3,184.739a6.33,6.33,0,0,1-2.62-7.061L297.965,72.85c.8-2.6,3.271-3.66,5.518-2.363l144.851,83.7a6.331,6.331,0,0,1,2.62,7.062L418.667,266.075C417.866,268.677,415.4,269.735,413.148,268.438Z" transform="translate(-134.144 -65.086)" fill="url(#linear-gradient-10)"/>
          <path id="Trazado_1045939" data-name="Trazado 1045939" d="M413.148,268.438,268.3,184.739a6.33,6.33,0,0,1-2.62-7.061L297.965,72.85c.8-2.6,3.271-3.66,5.518-2.363l144.851,83.7a6.331,6.331,0,0,1,2.62,7.062L418.667,266.075C417.866,268.677,415.4,269.735,413.148,268.438Z" transform="translate(-134.144 -65.086)" fill="#06033e" opacity="0.4"/>
          <path id="Trazado_1045940" data-name="Trazado 1045940" d="M413.148,268.438,268.3,184.739a6.33,6.33,0,0,1-2.62-7.061L297.965,72.85c.8-2.6,3.271-3.66,5.518-2.363l144.851,83.7a6.331,6.331,0,0,1,2.62,7.062L418.667,266.075C417.866,268.677,415.4,269.735,413.148,268.438Z" transform="translate(-134.144 -65.086)" fill="#06033e" opacity="0.4"/>
          <path id="Trazado_1045941" data-name="Trazado 1045941" d="M403.9,235.265l-98.056-56.612a4.343,4.343,0,0,1-1.8-4.846l22.174-72a2.518,2.518,0,0,1,3.787-1.621L428.066,156.8a4.343,4.343,0,0,1,1.8,4.845l-22.174,72A2.518,2.518,0,0,1,403.9,235.265Z" transform="translate(-132.68 -63.949)" fill="#06033e" opacity="0.5"/>
          <g id="Grupo_1179721" data-name="Grupo 1179721" transform="translate(157.947 37.597)">
            <path id="Trazado_1045942" data-name="Trazado 1045942" d="M391.139,236.939l-98.056-56.612a4.345,4.345,0,0,1-1.8-4.846l22.175-72a2.518,2.518,0,0,1,3.786-1.621L415.3,158.475a4.343,4.343,0,0,1,1.8,4.845l-22.175,72A2.518,2.518,0,0,1,391.139,236.939Z" transform="translate(-291.113 -101.482)" fill="url(#radial-gradient-7)"/>
          </g>
          <g id="Grupo_1179722" data-name="Grupo 1179722" transform="translate(157.947 37.597)" opacity="0.5">
            <path id="Trazado_1045943" data-name="Trazado 1045943" d="M391.139,236.939l-98.056-56.612a4.345,4.345,0,0,1-1.8-4.846l22.175-72a2.518,2.518,0,0,1,3.786-1.621L415.3,158.475a4.343,4.343,0,0,1,1.8,4.845l-22.175,72A2.518,2.518,0,0,1,391.139,236.939Z" transform="translate(-291.113 -101.482)" fill="#06033e"/>
          </g>
          <path id="Trazado_1045944" data-name="Trazado 1045944" d="M414.446,158.475l-98.056-56.613a2.441,2.441,0,0,0-2.759.094,2.641,2.641,0,0,1,1.416.362L413.1,158.932a4.343,4.343,0,0,1,1.8,4.845l-22.175,72A2.958,2.958,0,0,1,391.7,237.3a2.594,2.594,0,0,0,2.371-1.984l22.174-72A4.341,4.341,0,0,0,414.446,158.475Z" transform="translate(-132.309 -63.885)" fill="#fff"/>
          <path id="Trazado_1045945" data-name="Trazado 1045945" d="M269.967,290.142a7.378,7.378,0,0,1-3.633-.852h0L227.048,266.61a2.84,2.84,0,0,1-1.614-2.421,3.713,3.713,0,0,1,2.166-3l20.222-11.676c2.472-1.425,6.1-1.565,8.26-.319l39.286,22.682a2.84,2.84,0,0,1,1.615,2.421,3.714,3.714,0,0,1-2.166,3l-20.224,11.677A9.471,9.471,0,0,1,269.967,290.142Zm-17.5-40.653a8.434,8.434,0,0,0-4.078,1l-20.222,11.675c-1.017.587-1.6,1.325-1.6,2.021a1.791,1.791,0,0,0,1.048,1.437L266.9,288.309c1.782,1.027,5.044.883,7.124-.32l20.223-11.675c1.017-.586,1.6-1.322,1.6-2.02a1.794,1.794,0,0,0-1.048-1.438l-39.285-22.681A6.232,6.232,0,0,0,252.468,249.489Z" transform="translate(-135.667 -58.293)" fill="#06033e" opacity="0.4"/>
        </g>
        <g id="Grupo_1179725" data-name="Grupo 1179725" transform="translate(311.248 126.725)">
          <g id="Grupo_1179724" data-name="Grupo 1179724" transform="translate(6.5 4.841)">
            <path id="Trazado_1045946" data-name="Trazado 1045946" d="M339.544,138.454l-6.061-3.5a1.58,1.58,0,0,1-.674-1.743h0a.9.9,0,0,1,1.363-.568l6.061,3.5a1.579,1.579,0,0,1,.674,1.743h0A.9.9,0,0,1,339.544,138.454Z" transform="translate(-310.37 -129.006)" fill="#fff"/>
            <path id="Trazado_1045947" data-name="Trazado 1045947" d="M353.561,146.546l-8.939-5.161a1.58,1.58,0,0,1-.674-1.743h0a.9.9,0,0,1,1.363-.567l8.939,5.16a1.582,1.582,0,0,1,.674,1.744h0A.9.9,0,0,1,353.561,146.546Z" transform="translate(-309.946 -128.761)" fill="#fff"/>
            <path id="Trazado_1045948" data-name="Trazado 1045948" d="M327.767,164.453l-6.062-3.5a1.584,1.584,0,0,1-.674-1.744h0a.9.9,0,0,1,1.363-.567l6.062,3.5a1.579,1.579,0,0,1,.674,1.743h0A.9.9,0,0,1,327.767,164.453Z" transform="translate(-310.818 -128.016)" fill="#fff"/>
            <path id="Trazado_1045949" data-name="Trazado 1045949" d="M340.273,171.674l-8.939-5.161a1.583,1.583,0,0,1-.674-1.743h0a.9.9,0,0,1,1.363-.568l8.939,5.161a1.58,1.58,0,0,1,.674,1.743h0A.9.9,0,0,1,340.273,171.674Z" transform="translate(-310.452 -127.804)" fill="#fff"/>
            <path id="Trazado_1045950" data-name="Trazado 1045950" d="M321.968,133.772l-3.787-2.186a1.58,1.58,0,0,1-.674-1.743h0a.9.9,0,0,1,1.363-.568l3.787,2.187a1.58,1.58,0,0,1,.674,1.743h0A.9.9,0,0,1,321.968,133.772Z" transform="translate(-310.953 -129.134)" fill="#fff"/>
            <path id="Trazado_1045951" data-name="Trazado 1045951" d="M333.23,145.742l-11.57-6.681a1.579,1.579,0,0,1-.674-1.743h0a.9.9,0,0,1,1.363-.568l11.57,6.681a1.58,1.58,0,0,1,.674,1.743h0A.9.9,0,0,1,333.23,145.742Z" transform="translate(-310.82 -128.85)" fill="#fff"/>
            <path id="Trazado_1045952" data-name="Trazado 1045952" d="M322.665,150.574l-3.788-2.186a1.583,1.583,0,0,1-.674-1.743h0a.9.9,0,0,1,1.363-.568l3.788,2.186a1.584,1.584,0,0,1,.674,1.744h0A.9.9,0,0,1,322.665,150.574Z" transform="translate(-310.926 -128.495)" fill="#fff"/>
            <path id="Trazado_1045953" data-name="Trazado 1045953" d="M341.661,183.408l-10.115-5.84a1.581,1.581,0,0,1-.674-1.743h0a.9.9,0,0,1,1.363-.568l10.115,5.84a1.581,1.581,0,0,1,.674,1.743h0A.9.9,0,0,1,341.661,183.408Z" transform="translate(-310.444 -127.384)" fill="#fff"/>
            <path id="Trazado_1045954" data-name="Trazado 1045954" d="M318.526,159.117l-2.431-1.4a1.582,1.582,0,0,1-.674-1.744h0a.9.9,0,0,1,1.363-.567l2.431,1.4a1.581,1.581,0,0,1,.674,1.743h0A.9.9,0,0,1,318.526,159.117Z" transform="translate(-311.032 -128.139)" fill="#fff"/>
            <path id="Trazado_1045955" data-name="Trazado 1045955" d="M316.332,168.784l-3.019-1.743a1.579,1.579,0,0,1-.674-1.743h0a.9.9,0,0,1,1.363-.567l3.019,1.743a1.58,1.58,0,0,1,.674,1.743h0A.9.9,0,0,1,316.332,168.784Z" transform="translate(-311.138 -127.784)" fill="#fff"/>
            <path id="Trazado_1045956" data-name="Trazado 1045956" d="M327.826,175.42l-7.959-4.6a1.58,1.58,0,0,1-.674-1.743h0a.9.9,0,0,1,1.363-.567l7.959,4.595a1.581,1.581,0,0,1,.674,1.743h0A.9.9,0,0,1,327.826,175.42Z" transform="translate(-310.888 -127.64)" fill="#fff"/>
            <path id="Trazado_1045957" data-name="Trazado 1045957" d="M317.644,175.008l-5.722-3.3a1.581,1.581,0,0,1-.674-1.744h0a.9.9,0,0,1,1.363-.567l5.722,3.3a1.579,1.579,0,0,1,.674,1.743h0A.9.9,0,0,1,317.644,175.008Z" transform="translate(-311.191 -127.607)" fill="#fff"/>
            <path id="Trazado_1045958" data-name="Trazado 1045958" d="M349.784,188.122,346.109,186a1.582,1.582,0,0,1-.674-1.744h0a.9.9,0,0,1,1.363-.567l3.675,2.122a1.58,1.58,0,0,1,.674,1.743h0A.9.9,0,0,1,349.784,188.122Z" transform="translate(-309.889 -127.063)" fill="#fff"/>
            <path id="Trazado_1045959" data-name="Trazado 1045959" d="M336.467,158.543l-10.115-5.84a1.58,1.58,0,0,1-.674-1.743h0a.9.9,0,0,1,1.363-.567l10.115,5.839a1.582,1.582,0,0,1,.674,1.744h0A.9.9,0,0,1,336.467,158.543Z" transform="translate(-310.641 -128.33)" fill="#fff"/>
          </g>
          <path id="Trazado_1045960" data-name="Trazado 1045960" d="M337.9,153.9l-17.629-10.177a1.581,1.581,0,0,1-.674-1.744h0a.9.9,0,0,1,1.363-.567l17.629,10.178a1.58,1.58,0,0,1,.674,1.743h0A.9.9,0,0,1,337.9,153.9Z" transform="translate(-304.373 -123.831)" fill="#e8975b"/>
          <path id="Trazado_1045961" data-name="Trazado 1045961" d="M327.6,158.891l-10.115-5.84a1.581,1.581,0,0,1-.674-1.743h0a.9.9,0,0,1,1.363-.568l10.115,5.84a1.581,1.581,0,0,1,.674,1.743h0A.9.9,0,0,1,327.6,158.891Z" transform="translate(-304.479 -123.476)" fill="#e8975b"/>
          <path id="Trazado_1045962" data-name="Trazado 1045962" d="M343.621,162.674l-3.675-2.122a1.581,1.581,0,0,1-.674-1.743h0a.9.9,0,0,1,1.363-.568l3.675,2.122a1.58,1.58,0,0,1,.674,1.743h0A.9.9,0,0,1,343.621,162.674Z" transform="translate(-303.624 -123.19)" fill="#e8975b"/>
          <path id="Trazado_1045963" data-name="Trazado 1045963" d="M380.295,161.982l-21.762-12.565a1.581,1.581,0,0,1-.674-1.744h0a.9.9,0,0,1,1.363-.567l21.762,12.565a1.58,1.58,0,0,1,.674,1.743h0A.9.9,0,0,1,380.295,161.982Z" transform="translate(-302.916 -123.614)" fill="#e8975b"/>
          <path id="Trazado_1045964" data-name="Trazado 1045964" d="M326.863,169.4,314.7,162.378a1.581,1.581,0,0,1-.674-1.743h0a.9.9,0,0,1,1.363-.568l12.159,7.02a1.58,1.58,0,0,1,.674,1.743h0A.9.9,0,0,1,326.863,169.4Z" transform="translate(-304.585 -123.121)" fill="#f8359e"/>
          <path id="Trazado_1045965" data-name="Trazado 1045965" d="M328.511,132.083l-8.939-5.16a1.582,1.582,0,0,1-.674-1.744h0a.9.9,0,0,1,1.363-.567l8.939,5.16a1.582,1.582,0,0,1,.674,1.744h0A.9.9,0,0,1,328.511,132.083Z" transform="translate(-304.4 -124.471)" fill="#f8359e"/>
          <path id="Trazado_1045966" data-name="Trazado 1045966" d="M316.013,179.533l-10.353-5.977a1.581,1.581,0,0,1-.674-1.743h0a.9.9,0,0,1,1.363-.568l10.353,5.977a1.581,1.581,0,0,1,.674,1.744h0A.9.9,0,0,1,316.013,179.533Z" transform="translate(-304.929 -122.695)" fill="#e8975b"/>
        </g>
        <g id="Grupo_1179726" data-name="Grupo 1179726" transform="translate(386.105 149.549)">
          <path id="Trazado_1045967" data-name="Trazado 1045967" d="M382.006,150.809l-4.432-2.559a1.155,1.155,0,0,1-.492-1.274h0a.656.656,0,0,1,1-.415l4.432,2.559a1.155,1.155,0,0,1,.492,1.274h0A.656.656,0,0,1,382.006,150.809Z" transform="translate(-377.041 -146.458)" fill="#fff"/>
          <path id="Trazado_1045968" data-name="Trazado 1045968" d="M390.148,155.51l-4.432-2.559a1.155,1.155,0,0,1-.492-1.274h0a.656.656,0,0,1,1-.415l4.431,2.559a1.155,1.155,0,0,1,.493,1.274h0A.657.657,0,0,1,390.148,155.51Z" transform="translate(-376.731 -146.279)" fill="#fff"/>
          <path id="Trazado_1045969" data-name="Trazado 1045969" d="M398.29,160.21l-4.432-2.558a1.155,1.155,0,0,1-.492-1.274h0a.656.656,0,0,1,1-.415l4.43,2.558a1.157,1.157,0,0,1,.493,1.275h0A.656.656,0,0,1,398.29,160.21Z" transform="translate(-376.421 -146.1)" fill="#fff"/>
          <path id="Trazado_1045970" data-name="Trazado 1045970" d="M402.134,162.433l-.133-.08a1.157,1.157,0,0,1-.493-1.275h0a.656.656,0,0,1,1-.414l.133.08a1.157,1.157,0,0,1,.493,1.275h0A.656.656,0,0,1,402.134,162.433Z" transform="translate(-376.111 -145.921)" fill="#f8359e"/>
        </g>
      </g>
    </g>
    <g id="Grupo_1179728" data-name="Grupo 1179728" transform="translate(513.643 6116.391)">
      <path id="Trazado_1045971" data-name="Trazado 1045971" d="M497.365,316.505a6.964,6.964,0,0,1-3.482-.931L482.147,308.8a2.173,2.173,0,0,1,0-3.765l11.736-6.776a6.982,6.982,0,0,1,6.962,0l11.737,6.776a2.173,2.173,0,0,1,0,3.765l-11.736,6.776A6.958,6.958,0,0,1,497.365,316.505Zm0-17.317a5.1,5.1,0,0,0-2.552.68l-11.736,6.777a.312.312,0,0,0,0,.542l11.737,6.776h0a5.117,5.117,0,0,0,5.1,0l11.737-6.776a.313.313,0,0,0,0-.542l-11.738-6.777A5.1,5.1,0,0,0,497.365,299.188Z" fill="url(#linear-gradient-3)"/>
      <path id="Trazado_1045972" data-name="Trazado 1045972" d="M463.8,278.054a11.3,11.3,0,0,1-5.655-1.511l-20.2-11.662a3.068,3.068,0,0,1,0-5.316l20.2-11.661a11.335,11.335,0,0,1,11.311,0l20.2,11.661a3.07,3.07,0,0,1,0,5.317l-20.2,11.661A11.313,11.313,0,0,1,463.8,278.054Zm-4.725-3.122a9.486,9.486,0,0,0,9.451,0l20.2-11.661a1.21,1.21,0,0,0,0-2.1l-20.2-11.661a9.481,9.481,0,0,0-9.451,0l-20.2,11.661a1.209,1.209,0,0,0,0,2.094Z" fill="url(#linear-gradient-3)"/>
    </g>
  </g>
</svg>
