<svg xmlns="http://www.w3.org/2000/svg" xmlns:xlink="http://www.w3.org/1999/xlink" width="295" height="183" viewBox="0 0 295 183">
  <defs>
    <linearGradient id="linear-gradient" x1="0.5" x2="0.5" y2="1" gradientUnits="objectBoundingBox">
      <stop offset="0" stop-color="#16bcc4"/>
      <stop offset="1" stop-color="#0b5e62"/>
    </linearGradient>
    <clipPath id="clip-path">
      <rect id="Rectángulo_406582" data-name="Rectángulo 406582" width="295" height="183" rx="9" transform="translate(180.051 7681)" fill="url(#linear-gradient)"/>
    </clipPath>
    <linearGradient id="linear-gradient-2" x1="0.08" y1="0.108" x2="0.917" y2="0.842" xlink:href="#linear-gradient"/>
  </defs>
  <g id="Enmascarar_grupo_1098911" data-name="Enmascarar grupo 1098911" transform="translate(-180.051 -7681)" clip-path="url(#clip-path)">
    <g id="Grupo_1179853" data-name="Grupo 1179853">
      <rect id="Rectángulo_406135" data-name="Rectángulo 406135" width="283" height="174" rx="9" transform="translate(180.051 7690)" fill="url(#linear-gradient-2)"/>
      <g id="Grupo_1179854" data-name="Grupo 1179854" transform="translate(238.004 7622.019) rotate(-25)">
        <path id="Trazado_1042871" data-name="Trazado 1042871" d="M38.551,152.611l-.052.118L.81,238.707l.514.226,37.638-85.859,66.628-20.245-5.556,92.957.592-1.008,30.326-51.612.427.036,33.578,63.488-19.27,13.206,97.3-26.377L238.956,291.3l.561.034,6.5-109.2-.124-.091-52.248-38.179L186.86,79.416l-.052-.065L122.885-.009,122.8.643l-7.049,54.048L28.093,82.937l77.137,49.414Zm62.183,70.874,5.432-90.886L184.71,80.562Zm31.309-50.228,111.791,9.377L165.423,236.37Zm113.4,9.15-2.412,40.518-94.289,25.56L245.3,182.309Zm-.313-.229-.458-.038-112.039-9.4,60.719-28.4ZM123.273,1.368l63.045,78.272,6.76,64.21-61.916,28.958,54.615-92.951.415-.275L116.315,54.715Zm-7.032,53.917,68.7,24.448-78.692,52.136ZM29.4,83.107l86.272-27.8-10,76.66Z" transform="translate(-191.81 0.009)" fill="#f8e32a" stroke="#f8e32a" stroke-width="1" fill-rule="evenodd"/>
      </g>
      <g id="Grupo_1179844" data-name="Grupo 1179844" transform="translate(-60.902 7522.437)">
        <g id="Grupo_1179834" data-name="Grupo 1179834">
          <g id="Grupo_1179792" data-name="Grupo 1179792">
            <path id="Trazado_1046120" data-name="Trazado 1046120" d="M301.516,198.968s-14.127,4.68-10.067,17.72c0,0-10.826-1.3-13.759,12.973,0,0-16.464-.625-15.562,16.3s19.676,8.16,19.676,8.16,4.789,15.21,17.705,7.7c0,0,8.012,10.892,16.892,0Z" fill="#33324f"/>
            <path id="Trazado_1046121" data-name="Trazado 1046121" d="M341.15,204.289s11.826,9.034,3.733,20.036c0,0,10.659,2.3,8.771,16.753,0,0,15.768,4.782,9.392,20.485s-21.262,1.291-21.262,1.291-9.49,12.815-19.249,1.5c0,0-11.128,7.68-15.967-5.513Z" fill="#33324f"/>
            <path id="Trazado_1046122" data-name="Trazado 1046122" d="M347.31,206.034c-.151.885-.337,1.791-.556,2.731a66.4,66.4,0,0,1-2.114,7.152,1.484,1.484,0,0,1-.062.158c-.343.967-.714,1.962-1.119,2.978a3.212,3.212,0,0,1-2.848,2.052l-32.668,1.153c-2.512.089-4.036-2.8-4.9-5.195-3.418-9.485-9.973-31.728,13.225-39.278a24.824,24.824,0,0,1,12.552-.741C337.489,178.787,351.064,184.868,347.31,206.034Z" fill="#33324f"/>
          </g>
          <g id="Grupo_1179797" data-name="Grupo 1179797">
            <path id="Trazado_1046123" data-name="Trazado 1046123" d="M338.875,302.49a18.69,18.69,0,0,0-.369,4.88,14.738,14.738,0,0,0,1,4.548c8.108,20.5,61.315,16.82,61.315,16.82l-.074-9.27-42.384-16.833-1.948-.771Z" fill="#e8776e"/>
            <g id="Grupo_1179793" data-name="Grupo 1179793">
              <path id="Trazado_1046124" data-name="Trazado 1046124" d="M357.2,307.646l-15.891,7.8a14.929,14.929,0,0,1-2.279-4.062c-.683-1.793-1.31-3.546-1.895-5.259-.053-.177-.12-.361-.18-.537-1.248-3.762-2.257-7.338-3.075-10.733a101.262,101.262,0,0,1-2.92-22.553c-.033-2.6.071-4.946.244-7.052l-.007-.006a56.948,56.948,0,0,1,7.272-11.7c.491-.357,1-.7,1.481-1.011l.537.02,3.168.128,5.2.208q.96,1.156,1.956,2.608c.33.485.66.99.991,1.53,1.493,7.75,3.141,24.511,4.223,36.625.075.925.149,1.816.221,2.679.038.356.062.712.093,1.061s.06.678.084,1.007c.089.952.162,1.849.234,2.685.075.911.153,1.739.209,2.486C357.076,306.125,357.2,307.646,357.2,307.646Z" fill="#e8776e"/>
              <line id="Línea_701" data-name="Línea 701" x2="5.239" y2="2.01" transform="translate(354.836 301.304)" fill="none" stroke="#924541" stroke-miterlimit="10" stroke-width="1.384"/>
            </g>
            <g id="Grupo_1179796" data-name="Grupo 1179796">
              <g id="Grupo_1179794" data-name="Grupo 1179794">
                <path id="Trazado_1046125" data-name="Trazado 1046125" d="M397.253,318.129c-.2.184-.391.372-.57.563l-.013.014-.012.013c-2.58,2.774-2.893,6.289,2.933,9.676a4.057,4.057,0,0,0,2.357.472v0a35.47,35.47,0,0,0,9.751-2.23,7.434,7.434,0,0,0,3.421-2.391,6.651,6.651,0,0,1,1.771-.283,3.264,3.264,0,0,1,1.255.377,3.05,3.05,0,0,1-1.634,1.283c-1.3.544-.989,3.282,2.2,1.772,2.655-1.259,3.477-2.826,2.791-4.159a10.084,10.084,0,0,1,.8.687c3.488,3.348,5.924.17,2.1-3.071-.422-.358-.871-.709-1.339-1.05a1.969,1.969,0,0,0,.253-.156,9.175,9.175,0,0,1,.8.513c3.991,2.87,5.609-.975,1.435-3.428a23.712,23.712,0,0,0-3.778-1.756,13.087,13.087,0,0,1,1.811.244c3.937.841,5.061-2.592,1.338-3.616a36.061,36.061,0,0,0-14.158-.346A33.547,33.547,0,0,0,397.253,318.129Z" fill="#e8776e"/>
                <path id="Trazado_1046126" data-name="Trazado 1046126" d="M420.356,314.918c-4.814.108-6.719,1.05-6.719,1.05" fill="none" stroke="#924541" stroke-miterlimit="10" stroke-width="1.384"/>
                <path id="Trazado_1046127" data-name="Trazado 1046127" d="M419.625,323.36a5.07,5.07,0,0,0-3.31-.275" fill="none" stroke="#924541" stroke-miterlimit="10" stroke-width="1.384"/>
              </g>
              <g id="Grupo_1179795" data-name="Grupo 1179795">
                <path id="Trazado_1046128" data-name="Trazado 1046128" d="M411.529,323.913c2.265-.878,3.67-2.348,5.324-2.78,2.206-.576,6.426-.734,6.771-1.874.668-2.208-1.759-2.575-4.7-2.593s-7.623-.736-8.435-2.539" fill="none" stroke="#924541" stroke-miterlimit="10" stroke-width="1.384"/>
              </g>
            </g>
          </g>
          <path id="Trazado_1046129" data-name="Trazado 1046129" d="M352.237,252.71a4.37,4.37,0,0,1-.041.844l-3.143,45.894-2.7,39.442-83.689-1.352,13.795-83.8a10.459,10.459,0,0,1,7.934-11.832c2.5-.583,5.113-1.043,7.666-1.413.617-.09,1.235-.172,1.839-.254,1.283-.165,2.533-.3,3.727-.426.542-.055,1.07-.1,1.585-.151.371-.034.741-.068,1.1-.1,4.935-.432,8.469-.5,8.469-.5l11.537.8a60.692,60.692,0,0,1,6.637.371c.158.013.316.034.473.055.1.013.2.02.3.034.281.041.555.075.83.11.789.11,1.558.233,2.32.364q1.061.185,2.079.391l.007.007c.577.116,1.146.24,1.709.363,1.935.44,3.747.941,5.415,1.455.8.247,1.318.4,1.668.494a.247.247,0,0,1,.061.014c.3.09.474.13.6.165a1,1,0,0,1,.1.027,4.713,4.713,0,0,1,.507.192c.035.014.076.035.11.049C345.011,244.756,348.531,246.931,352.237,252.71Z" fill="#fdbb3b"/>
          <g id="Grupo_1179800" data-name="Grupo 1179800">
            <g id="Grupo_1179799" data-name="Grupo 1179799">
              <path id="Trazado_1046130" data-name="Trazado 1046130" d="M324.95,250.28l2.4-9.869c.075.021.082-.034.068-.123.1.013.2.02.3.034.281.041.555.075.83.11.789.11,1.558.233,2.32.364q1.061.185,2.079.391l.007.007c.577.116,1.146.24,1.709.363C346.019,255.819,324.95,250.28,324.95,250.28Z" fill="#fff"/>
              <g id="Grupo_1179798" data-name="Grupo 1179798">
                <path id="Trazado_1046131" data-name="Trazado 1046131" d="M325.554,249.436a12.445,12.445,0,0,1-.735,1.222c-2.752,4.117-13.225,15.826-30.925-10.418,1.283-.165,2.533-.3,3.727-.426.542-.055,1.07-.1,1.585-.151.371-.034.741-.068,1.1-.1l24.605,9.615Z" fill="#fff"/>
              </g>
            </g>
            <path id="Trazado_1046132" data-name="Trazado 1046132" d="M297.621,239.814c.542-.055,1.07-.1,1.585-.151,5.5-.515,9.567-.6,9.567-.6l11.537.8a60.692,60.692,0,0,1,6.637.371c.528.082,1.057.164,1.572.254C328.519,240.487,334.833,262.249,297.621,239.814Z" fill="#e8776e"/>
          </g>
          <g id="Grupo_1179801" data-name="Grupo 1179801" opacity="0.5">
            <path id="Trazado_1046133" data-name="Trazado 1046133" d="M321,230.138c-.83,1.246,4.456,2.752,5.059,1.531S321.862,228.849,321,230.138Z" fill="#924541"/>
          </g>
          <g id="Grupo_1179802" data-name="Grupo 1179802">
            <path id="Trazado_1046134" data-name="Trazado 1046134" d="M363.767,291.486s-3.266,2.108-7.151,4.269a64.548,64.548,0,0,1-7.563,3.693c-1.99.761-3.658,1.139-4.543.775L342,249.471,341.7,243.5a.223.223,0,0,1,.041.006.247.247,0,0,1,.061.014,4.31,4.31,0,0,1,.6.165,1,1,0,0,1,.1.027c.15.055.315.117.507.192.035.014.076.035.11.049,1.565.665,4.249,2.271,7.234,6.094.618.789,1.242,1.675,1.88,2.663.316.494.632,1.009.948,1.558C357.254,261.241,361.407,272.688,363.767,291.486Z" fill="#fdbb3b"/>
          </g>
          <g id="Grupo_1179803" data-name="Grupo 1179803">
            <path id="Trazado_1046135" data-name="Trazado 1046135" d="M345.439,265.381s6.407,18.442,3.614,34.067" fill="none" stroke="#ec9e05" stroke-miterlimit="10" stroke-width="1.106"/>
            <line id="Línea_702" data-name="Línea 702" y1="3.36" x2="1.586" transform="translate(346.762 266.486)" fill="none" stroke="#ec9e05" stroke-miterlimit="10" stroke-width="1.106"/>
          </g>
          <g id="Grupo_1179805" data-name="Grupo 1179805">
            <path id="Trazado_1046136" data-name="Trazado 1046136" d="M277.258,245.922c.048-.041.1-.075.144-.11.343-.253.666-.48.975-.686.576-.213,1.146-.405,1.695-.563l10.157,3.363c1.009,2.725-3.109,25.394-6.046,40.589-.254,1.29-.494,2.525-.728,3.685-.418,2.121-.789,4-1.1,5.553q-.051.277-.1.535c-.5,2.505-.81,4-.81,4l-17.892,3.191-.144.028q-.391-3.459-.618-6.726c-.082-1.187-.151-2.347-.205-3.493-.193-4.173-.179-8.078-.021-11.736a96.66,96.66,0,0,1,4.79-26.931Z" fill="#e8776e"/>
            <path id="Trazado_1046137" data-name="Trazado 1046137" d="M281.248,297.929,324.7,317.613l-.363,9.26s-68.306,1.478-60.633-29.148Z" fill="#e8776e"/>
            <g id="Grupo_1179804" data-name="Grupo 1179804">
              <path id="Trazado_1046138" data-name="Trazado 1046138" d="M337.873,326.983a22.179,22.179,0,0,1,6.344,2.073c2.967,1.58,3.422-1.743.766-3.166a12.455,12.455,0,0,1,3.458,1.57,1.544,1.544,0,0,0,2.222-2.12,1.682,1.682,0,0,0,2.141-.505c.84-1.182-.4-2.658-.9-3.1,0,0,2.815-1.894-2.274-4.942s-12.1-5.261-21.678-1.924c-6.587,2.3-7.6,7.1-6.461,9.808C323.556,329.6,331.676,331.386,337.873,326.983Z" fill="#e8776e"/>
              <path id="Trazado_1046139" data-name="Trazado 1046139" d="M344.983,325.89c-4.458-2.323-6.676-2.42-6.676-2.42" fill="none" stroke="#924541" stroke-miterlimit="10" stroke-width="1.384"/>
              <path id="Trazado_1046140" data-name="Trazado 1046140" d="M350.663,325.34c-6.728-4.467-10.448-4.655-10.448-4.655" fill="none" stroke="#924541" stroke-miterlimit="10" stroke-width="1.384"/>
              <path id="Trazado_1046141" data-name="Trazado 1046141" d="M351.908,321.735C347.779,318.3,341.7,317.2,341.7,317.2" fill="none" stroke="#924541" stroke-miterlimit="10" stroke-width="1.384"/>
            </g>
            <line id="Línea_703" data-name="Línea 703" x1="5.218" y1="2.379" transform="translate(279.165 296.97)" fill="none" stroke="#924541" stroke-miterlimit="10" stroke-width="1.384"/>
          </g>
          <path id="Trazado_1046142" data-name="Trazado 1046142" d="M283.741,242.083s-24.312,6.637-29.995,53.387c0,0,21.784,2.093,32.519-1.4l7.632-46.98Z" fill="#fdbb3b"/>
          <g id="Grupo_1179806" data-name="Grupo 1179806">
            <path id="Trazado_1046143" data-name="Trazado 1046143" d="M282.918,294.922l3.347-.854,1.909-27.406" fill="none" stroke="#ec9e05" stroke-miterlimit="10" stroke-width="1.106"/>
            <line id="Línea_704" data-name="Línea 704" y1="3.209" x2="2.943" transform="translate(287.781 269.087)" fill="none" stroke="#ec9e05" stroke-miterlimit="10" stroke-width="1.106"/>
          </g>
          <g id="Grupo_1179829" data-name="Grupo 1179829">
            <g id="Grupo_1179808" data-name="Grupo 1179808">
              <g id="Grupo_1179807" data-name="Grupo 1179807">
                <path id="Trazado_1046144" data-name="Trazado 1046144" d="M303.868,242.833c14.494,3.834,22.956,7.159,20.921,1.448l-.446-2.212-.114-.575-1.243-6.181-1.2-5.936L321.2,226.5l-15.458-1.367-.826,7.785-.342,3.207Z" fill="#e8776e"/>
              </g>
              <path id="Trazado_1046145" data-name="Trazado 1046145" d="M304.575,236.123c1.942.765,16.075,6.275,19.768,5.946l-.114-.575-1.243-6.181-17.376-8.829Z" fill="#924541" opacity="0.5"/>
            </g>
            <g id="Grupo_1179810" data-name="Grupo 1179810">
              <g id="Grupo_1179809" data-name="Grupo 1179809">
                <path id="Trazado_1046146" data-name="Trazado 1046146" d="M344.819,208.755c-.04.6-.08,1.185-.133,1.8-.027.374-.067.746-.107,1.12a52.539,52.539,0,0,1-1.092,6.58,34.658,34.658,0,0,1-2.145,6.407,23.847,23.847,0,0,1-2.264,3.969c-5.275,7.5-12.987,8.311-18.1,7.832-5.9-.546-14.892-3.437-17.822-15.384a41.022,41.022,0,0,1-.773-13.347c.04-.56.093-1.106.16-1.652.053-.6.133-1.186.213-1.758,1.812-13.134,7.819-23.084,23.257-21.645C341.635,184.139,345.605,195.3,344.819,208.755Z" fill="#e8776e"/>
              </g>
            </g>
            <path id="Trazado_1046147" data-name="Trazado 1046147" d="M328.081,222.564l7.62.743c-6.193-1.041-4.459-10.406-4.459-10.406" fill="none" stroke="#924541" stroke-miterlimit="10" stroke-width="1.384"/>
            <g id="Grupo_1179817" data-name="Grupo 1179817">
              <g id="Grupo_1179813" data-name="Grupo 1179813">
                <g id="Grupo_1179812" data-name="Grupo 1179812">
                  <g id="Grupo_1179811" data-name="Grupo 1179811">
                    <path id="Trazado_1046148" data-name="Trazado 1046148" d="M340.153,213.57c-.145,1.421-1.055,2.492-2.031,2.392s-1.651-1.332-1.506-2.753,1.054-2.492,2.031-2.392S340.3,212.149,340.153,213.57Z" fill="#33324f"/>
                  </g>
                </g>
              </g>
              <g id="Grupo_1179816" data-name="Grupo 1179816">
                <g id="Grupo_1179815" data-name="Grupo 1179815">
                  <g id="Grupo_1179814" data-name="Grupo 1179814">
                    <path id="Trazado_1046149" data-name="Trazado 1046149" d="M323.609,211.882c-.145,1.421-1.054,2.492-2.031,2.393s-1.651-1.333-1.506-2.754,1.054-2.492,2.031-2.392S323.754,210.461,323.609,211.882Z" fill="#33324f"/>
                  </g>
                </g>
              </g>
            </g>
            <g id="Grupo_1179824" data-name="Grupo 1179824">
              <g id="Grupo_1179820" data-name="Grupo 1179820">
                <g id="Grupo_1179819" data-name="Grupo 1179819">
                  <g id="Grupo_1179818" data-name="Grupo 1179818">
                    <path id="Trazado_1046150" data-name="Trazado 1046150" d="M336.776,205.436c-1.248,1.693,4.69,3.745,5.664,2.087S338.066,203.686,336.776,205.436Z" fill="#33324f"/>
                  </g>
                </g>
              </g>
              <g id="Grupo_1179823" data-name="Grupo 1179823">
                <g id="Grupo_1179822" data-name="Grupo 1179822">
                  <g id="Grupo_1179821" data-name="Grupo 1179821">
                    <path id="Trazado_1046151" data-name="Trazado 1046151" d="M323.645,203.328c.9,1.9-5.323,2.772-5.96.957S322.715,201.362,323.645,203.328Z" fill="#33324f"/>
                  </g>
                </g>
              </g>
            </g>
            <g id="Grupo_1179825" data-name="Grupo 1179825">
              <path id="Trazado_1046152" data-name="Trazado 1046152" d="M321.133,223.7a5.751,5.751,0,0,0,10.758,2.645Z" fill="#972a45"/>
              <path id="Trazado_1046153" data-name="Trazado 1046153" d="M322.024,226.6a5.757,5.757,0,0,0,7.377,2.087,4.62,4.62,0,0,0-3.373-2.725A4.781,4.781,0,0,0,322.024,226.6Z" fill="#dc3c5e"/>
            </g>
            <path id="Trazado_1046154" data-name="Trazado 1046154" d="M347.31,206.034c-.151.885-.337,1.791-.556,2.731a66.4,66.4,0,0,1-2.114,7.152,1.484,1.484,0,0,1-.062.158c-2.807-4.53-.762-15.23-.762-15.23-8.606-.865-14.2-7.639-14.2-7.639-6.109,2.938-15.326,1.936-15.326,1.936-1.791,9.2-5.744,13.671-7.748,15.421a.739.739,0,0,1-1.222-.562l-.02-3.02-3.785-2.107,2.069-8.235,2.487-7.753,10.992-7.024,17.014.961,5.792,5.209,6.438,7.659Z" fill="#33324f"/>
            <g id="Grupo_1179827" data-name="Grupo 1179827">
              <g id="Grupo_1179826" data-name="Grupo 1179826">
                <path id="Trazado_1046155" data-name="Trazado 1046155" d="M307.839,207.682a5.221,5.221,0,0,0-1.388-1.38,7.163,7.163,0,0,0-4.935-1.428,4.35,4.35,0,0,0-1.2.333,5.012,5.012,0,0,0-1.843,1.322,7.126,7.126,0,0,0-1.095,1.648,8.208,8.208,0,0,0-.747,5.162,9.21,9.21,0,0,0,3.328,5.349,5.775,5.775,0,0,0,1.729.99,4.789,4.789,0,0,0,5.422-1.144,1.107,1.107,0,0,0,.357-.366,1.169,1.169,0,0,0,.17-.349c.024-.08.049-.153.073-.235a.025.025,0,0,1,.008-.016c.163-.52.333-1.079.487-1.664a16.98,16.98,0,0,0,.65-4.042A6.873,6.873,0,0,0,307.839,207.682Z" fill="#e8776e"/>
              </g>
              <path id="Trazado_1046156" data-name="Trazado 1046156" d="M304.7,216.688s2.949-9.61-4.684-7.145" fill="none" stroke="#924541" stroke-miterlimit="10" stroke-width="1.384"/>
              <line id="Línea_705" data-name="Línea 705" x1="3.297" y1="1.495" transform="translate(301.936 212.246)" fill="none" stroke="#924541" stroke-miterlimit="10" stroke-width="1.384"/>
            </g>
            <g id="Grupo_1179828" data-name="Grupo 1179828">
              <path id="Trazado_1046157" data-name="Trazado 1046157" d="M315.064,191.474l-2.17.537a.428.428,0,0,0-.3.559l1.906,5.338a.426.426,0,0,0,.468.278l.626-.1a.427.427,0,0,0,.36-.449l-.362-5.778A.426.426,0,0,0,315.064,191.474Z" fill="#fff"/>
              <path id="Trazado_1046158" data-name="Trazado 1046158" d="M346.475,198.162l-1.94-1.111a.427.427,0,0,0-.6.2l-2.312,5.175a.428.428,0,0,0,.147.525l.52.362a.427.427,0,0,0,.57-.075l3.731-4.427A.427.427,0,0,0,346.475,198.162Z" fill="#fff"/>
            </g>
          </g>
          <path id="Trazado_1046159" data-name="Trazado 1046159" d="M349.053,299.448" fill="none" stroke="#ec9e05" stroke-miterlimit="10" stroke-width="1.106"/>
          <g id="Grupo_1179831" data-name="Grupo 1179831">
            <g id="Grupo_1179830" data-name="Grupo 1179830">
              <path id="Trazado_1046160" data-name="Trazado 1046160" d="M349.053,299.448" fill="none" stroke="#ec9e05" stroke-miterlimit="10" stroke-width="1.106"/>
              <path id="Trazado_1046161" data-name="Trazado 1046161" d="M345.439,265.381" fill="none" stroke="#ec9e05" stroke-miterlimit="10" stroke-width="1.106"/>
              <path id="Trazado_1046162" data-name="Trazado 1046162" d="M346.762,269.846" fill="none" stroke="#ec9e05" stroke-miterlimit="10" stroke-width="1.106"/>
            </g>
          </g>
          <g id="Grupo_1179833" data-name="Grupo 1179833">
            <g id="Grupo_1179832" data-name="Grupo 1179832">
              <path id="Trazado_1046163" data-name="Trazado 1046163" d="M325.7,250.8a.539.539,0,0,0-.679-.441.522.522,0,0,0-.732.084,20.95,20.95,0,0,0-5.021,10.935c-.254,2.412.214,5.825,2.794,6.881,2.351.962,4.125-1.484,4.756-3.465C328.183,260.515,326.352,255.067,325.7,250.8Zm-4.41,15.432c-1.8-1.923-.927-5.7-.22-7.9a21.181,21.181,0,0,1,3.657-6.658c.4,2.56.831,5.12,1.162,7.688a14.833,14.833,0,0,1,.173,3.692C325.86,264.719,324.286,269.426,321.293,266.233Z" fill="#fff"/>
              <path id="Trazado_1046164" data-name="Trazado 1046164" d="M329.582,264.267c1.321,1.605,3.877,3.216,5.7,1.449,2-1.94,1.169-5.282.037-7.426A20.955,20.955,0,0,0,326.6,250a.524.524,0,0,0-.712.194.539.539,0,0,0-.465.663C326.4,255.062,326.726,260.8,329.582,264.267Zm.054-1.9a14.869,14.869,0,0,1-1.211-3.49c-.647-2.508-1.2-5.046-1.779-7.57a21.176,21.176,0,0,1,5.87,4.822c1.474,1.779,3.69,4.96,2.732,7.414C333.656,267.624,330.445,263.839,329.636,262.371Z" fill="#fff"/>
            </g>
            <path id="Trazado_1046165" data-name="Trazado 1046165" d="M327.923,258c-.045-.7-1.143-.706-1.1,0a171.812,171.812,0,0,1-.474,27.873c-.069.7,1.03.7,1.1,0A171.926,171.926,0,0,0,327.923,258Z" fill="#fff"/>
            <path id="Trazado_1046166" data-name="Trazado 1046166" d="M326.6,259.036c-.2-.675.834-1.053,1.032-.373a171.962,171.962,0,0,0,9.935,26.046c.3.638-.73,1.007-1.032.374A171.94,171.94,0,0,1,326.6,259.036Z" fill="#fff"/>
          </g>
        </g>
        <g id="Grupo_1179843" data-name="Grupo 1179843">
          <g id="Grupo_1179838" data-name="Grupo 1179838">
            <g id="Grupo_1179837" data-name="Grupo 1179837">
              <g id="Grupo_1179835" data-name="Grupo 1179835">
                <path id="Trazado_1046167" data-name="Trazado 1046167" d="M463.363,328.583H344.55l9.811-79.907H473.174Z" fill="#00b0d1"/>
                <path id="Trazado_1046168" data-name="Trazado 1046168" d="M468.349,328.583H349.536l9.811-79.907H478.16Z" fill="#08b"/>
              </g>
              <g id="Grupo_1179836" data-name="Grupo 1179836">
                <path id="Trazado_1046169" data-name="Trazado 1046169" d="M394.628,347.278l24.4-6.553,2.586,7.364Z" fill="#08b"/>
                <path id="Trazado_1046170" data-name="Trazado 1046170" d="M402.1,296.955h19.282l12.455,41.274a10.134,10.134,0,0,1-9.7,13.062H417.1Z" fill="#00b0d1"/>
                <path id="Trazado_1046171" data-name="Trazado 1046171" d="M405.531,296.955h19.282l13.346,44.229a7.842,7.842,0,0,1-7.508,10.107H420.532Z" fill="#006891"/>
                <rect id="Rectángulo_406571" data-name="Rectángulo 406571" width="26.99" height="4.033" transform="translate(394.628 347.259)" fill="#006891"/>
              </g>
            </g>
            <circle id="Elipse_11875" data-name="Elipse 11875" cx="8.363" cy="8.363" r="8.363" transform="translate(403.782 286.189) rotate(-76.669)" fill="#00b0d1"/>
          </g>
          <g id="Grupo_1179842" data-name="Grupo 1179842">
            <g id="Grupo_1179840" data-name="Grupo 1179840">
              <g id="Grupo_1179839" data-name="Grupo 1179839">
                <rect id="Rectángulo_406572" data-name="Rectángulo 406572" width="11.09" height="4.411" transform="translate(305.032 333.44)" fill="#00b0d1"/>
                <rect id="Rectángulo_406573" data-name="Rectángulo 406573" width="11.09" height="4.411" transform="translate(320.175 333.44)" fill="#00b0d1"/>
                <rect id="Rectángulo_406574" data-name="Rectángulo 406574" width="11.09" height="4.411" transform="translate(335.318 333.44)" fill="#00b0d1"/>
                <rect id="Rectángulo_406575" data-name="Rectángulo 406575" width="11.09" height="4.411" transform="translate(350.462 333.44)" fill="#00b0d1"/>
                <rect id="Rectángulo_406576" data-name="Rectángulo 406576" width="11.09" height="4.411" transform="translate(365.605 333.44)" fill="#00b0d1"/>
                <rect id="Rectángulo_406577" data-name="Rectángulo 406577" width="11.09" height="4.411" transform="translate(380.748 333.44)" fill="#00b0d1"/>
                <rect id="Rectángulo_406578" data-name="Rectángulo 406578" width="11.09" height="4.411" transform="translate(395.892 333.44)" fill="#00b0d1"/>
              </g>
              <rect id="Rectángulo_406579" data-name="Rectángulo 406579" width="106.57" height="6.059" transform="translate(302.622 336.306)" fill="#006891"/>
            </g>
            <g id="Grupo_1179841" data-name="Grupo 1179841">
              <path id="Trazado_1046172" data-name="Trazado 1046172" d="M296.363,342.316H257.992a1.32,1.32,0,0,1-1.215-1.834c2.584-6.178,13.126-24.541,40.466-.467A1.318,1.318,0,0,1,296.363,342.316Z" fill="#08b"/>
              <line id="Línea_706" data-name="Línea 706" x1="13.516" y1="9.354" transform="translate(283.727 330.661)" fill="none" stroke="#00b0d1" stroke-miterlimit="10" stroke-width="2"/>
            </g>
          </g>
        </g>
      </g>
      <g id="Grupo_1179852" data-name="Grupo 1179852" transform="translate(24.618 7625.644)">
        <g id="Grupo_1179850" data-name="Grupo 1179850" transform="translate(327.685 57.356)">
          <g id="Grupo_1179847" data-name="Grupo 1179847" transform="translate(0.001 0)">
            <rect id="Rectángulo_406581" data-name="Rectángulo 406581" width="119.968" height="77.589" rx="3.449" fill="#e2e4e4"/>
          </g>
          <g id="Grupo_1179849" data-name="Grupo 1179849">
            <path id="Trazado_1046176" data-name="Trazado 1046176" d="M447.654,62.535v5.358H327.685V62.535a5.179,5.179,0,0,1,5.179-5.179H442.475A5.179,5.179,0,0,1,447.654,62.535Z" transform="translate(-327.685 -57.356)" fill="#006891"/>
            <g id="Grupo_1179848" data-name="Grupo 1179848" transform="translate(2.195 2.315)">
              <path id="Trazado_1046177" data-name="Trazado 1046177" d="M345.442,61.852A2.953,2.953,0,1,1,342.49,58.9,2.952,2.952,0,0,1,345.442,61.852Z" transform="translate(-323.937 -58.898)" fill="#00aa80"/>
              <path id="Trazado_1046178" data-name="Trazado 1046178" d="M340.312,61.852A2.952,2.952,0,1,1,337.36,58.9,2.952,2.952,0,0,1,340.312,61.852Z" transform="translate(-326.508 -58.898)" fill="#fdbb3b"/>
              <path id="Trazado_1046179" data-name="Trazado 1046179" d="M335.053,61.852A2.953,2.953,0,1,1,332.1,58.9,2.952,2.952,0,0,1,335.053,61.852Z" transform="translate(-329.147 -58.898)" fill="#eb496f"/>
            </g>
          </g>
        </g>
        <g id="Grupo_1179851" data-name="Grupo 1179851" transform="translate(342.064 87.554)">
          <path id="Trazado_1046180" data-name="Trazado 1046180" d="M337.261,100.726V77.467h.664v23.259Zm.5-11.5V88.6h17.278v.631Zm17.112,11.5V77.467h.665v23.259Z" transform="translate(-337.261 -77.467)" fill="#fdbb3b"/>
          <path id="Trazado_1046181" data-name="Trazado 1046181" d="M361.1,100.726V78.1h-8.638v-.632H370.4V78.1h-8.638v22.627Z" transform="translate(-329.637 -77.467)" fill="#fdbb3b"/>
          <path id="Trazado_1046182" data-name="Trazado 1046182" d="M367.442,100.726V77.467h.565l11.065,19.338h-.3L389.8,77.467h.565v23.259H389.7V78.431h.264L379.1,97.436h-.4l-10.9-19.005h.3v22.295Z" transform="translate(-322.124 -77.467)" fill="#fdbb3b"/>
          <path id="Trazado_1046183" data-name="Trazado 1046183" d="M388.6,100.726V77.467h.664v22.627h13.855v.632Z" transform="translate(-311.514 -77.467)" fill="#fdbb3b"/>
        </g>
      </g>
      <g id="Grupo_1179846" data-name="Grupo 1179846" transform="translate(280.767 7547.009)">
        <rect id="Rectángulo_406580" data-name="Rectángulo 406580" width="49.504" height="49.504" rx="6.652" transform="translate(46.783 172.075)" fill="#fdbb3b"/>
        <g id="Grupo_1179845" data-name="Grupo 1179845" transform="translate(53.687 186.118)">
          <path id="Trazado_1046173" data-name="Trazado 1046173" d="M66.69,198.811l-6.89,2.365,6.89,2.364v3.866l-11.6-4.206v-4.047l11.6-4.207Z" transform="translate(-55.093 -189.989)" fill="#fff"/>
          <path id="Trazado_1046174" data-name="Trazado 1046174" d="M76.966,188.979h4.548L74.01,210.4H69.463Z" transform="translate(-57.525 -188.979)" fill="#fff"/>
          <path id="Trazado_1046175" data-name="Trazado 1046175" d="M95.7,199.152V203.2l-11.6,4.206V203.54l6.89-2.364-6.89-2.365v-3.866Z" transform="translate(-60.003 -189.989)" fill="#fff"/>
        </g>
      </g>
    </g>
  </g>
</svg>
