<svg xmlns="http://www.w3.org/2000/svg" xmlns:xlink="http://www.w3.org/1999/xlink" width="208" height="158" viewBox="0 0 208 158">
  <defs>
    <filter id="Rectángulo_406566" x="0" y="0" width="208" height="158" filterUnits="userSpaceOnUse">
      <feOffset dy="3" input="SourceAlpha"/>
      <feGaussianBlur stdDeviation="3" result="blur"/>
      <feFlood flood-opacity="0.161"/>
      <feComposite operator="in" in2="blur"/>
      <feComposite in="SourceGraphic"/>
    </filter>
  </defs>
  <g id="Grupo_1179790" data-name="Grupo 1179790" transform="translate(-591.051 -1061)">
    <g transform="matrix(1, 0, 0, 1, 591.05, 1061)" filter="url(#Rectángulo_406566)">
      <g id="Rectángulo_406566-2" data-name="Rectángulo 406566" transform="translate(9 6)" fill="#1bebf5" stroke="#fff" stroke-width="4">
        <rect width="190" height="140" rx="7" stroke="none"/>
        <rect x="2" y="2" width="186" height="136" rx="5" fill="none"/>
      </g>
    </g>
    <g id="Grupo_1179789" data-name="Grupo 1179789" transform="translate(638.051 1068.188)">
      <g id="Grupo_1179787" data-name="Grupo 1179787" transform="translate(1.674 16.486)">
        <g id="Grupo_1179760" data-name="Grupo 1179760" transform="translate(0 0)">
          <g id="Grupo_1179759" data-name="Grupo 1179759">
            <path id="Trazado_1045982" data-name="Trazado 1045982" d="M118.4,29.126V102a6.811,6.811,0,0,1-6.807,6.81H14.309A6.81,6.81,0,0,1,7.5,102V29.126a6.811,6.811,0,0,1,6.807-6.81h97.282A6.81,6.81,0,0,1,118.4,29.126Z" transform="translate(-7.502 -22.316)" fill="#e4eaf7"/>
          </g>
        </g>
        <g id="Grupo_1179762" data-name="Grupo 1179762" transform="translate(90.33 0)">
          <g id="Grupo_1179761" data-name="Grupo 1179761">
            <path id="Trazado_1045983" data-name="Trazado 1045983" d="M432.9,29.126V102a6.811,6.811,0,0,1-6.807,6.81H412.332a6.81,6.81,0,0,0,6.807-6.81V29.126a6.811,6.811,0,0,0-6.807-6.81h13.759A6.81,6.81,0,0,1,432.9,29.126Z" transform="translate(-412.332 -22.316)" fill="#d2dcf0"/>
          </g>
        </g>
        <g id="Grupo_1179764" data-name="Grupo 1179764" transform="translate(0 0.001)">
          <g id="Grupo_1179763" data-name="Grupo 1179763">
            <path id="Trazado_1045984" data-name="Trazado 1045984" d="M7.5,33.307H27.936a5.848,5.848,0,0,0,4.489-2.1l5.667-6.787a5.848,5.848,0,0,1,4.489-2.1H57.288A5.848,5.848,0,0,1,61.8,24.447l5.551,6.732a5.848,5.848,0,0,0,4.512,2.128H118.4v13.9H7.5Z" transform="translate(-7.504 -22.319)" fill="#bec8dc"/>
          </g>
        </g>
        <g id="Grupo_1179766" data-name="Grupo 1179766" transform="translate(97.137 10.989)">
          <g id="Grupo_1179765" data-name="Grupo 1179765">
            <rect id="Rectángulo_406567" data-name="Rectángulo 406567" width="13.757" height="13.899" fill="#afbbd0"/>
          </g>
        </g>
        <g id="Grupo_1179768" data-name="Grupo 1179768" transform="translate(55.448 24.889)">
          <g id="Grupo_1179767" data-name="Grupo 1179767">
            <path id="Trazado_1045985" data-name="Trazado 1045985" d="M311.451,133.859v54.793a6.811,6.811,0,0,1-6.807,6.81H256v-61.6Z" transform="translate(-256.003 -133.859)" fill="#ff8d95"/>
          </g>
        </g>
        <g id="Grupo_1179770" data-name="Grupo 1179770" transform="translate(90.33 24.889)">
          <g id="Grupo_1179769" data-name="Grupo 1179769">
            <path id="Trazado_1045986" data-name="Trazado 1045986" d="M432.9,133.859v54.793a6.811,6.811,0,0,1-6.807,6.81H412.332a6.81,6.81,0,0,0,6.807-6.81V133.859Z" transform="translate(-412.332 -133.859)" fill="#ff6469"/>
          </g>
        </g>
        <g id="Grupo_1179772" data-name="Grupo 1179772" transform="translate(55.447 32.651)">
          <g id="Grupo_1179771" data-name="Grupo 1179771">
            <path id="Trazado_1045987" data-name="Trazado 1045987" d="M301.05,184.508H256V168.647h45.05a1.062,1.062,0,0,1,1.061,1.061v13.739A1.062,1.062,0,0,1,301.05,184.508Z" transform="translate(-256 -168.647)" fill="#fff"/>
          </g>
        </g>
        <g id="Grupo_1179774" data-name="Grupo 1179774" transform="translate(85.705 55.98)">
          <g id="Grupo_1179773" data-name="Grupo 1179773" transform="translate(0 0)">
            <path id="Trazado_1045988" data-name="Trazado 1045988" d="M407.459,303.712H391.6V274.141a.941.941,0,0,1,.941-.941h13.972a.941.941,0,0,1,.941.941v29.571Z" transform="translate(-391.605 -273.2)" fill="#c3b4fa"/>
          </g>
        </g>
        <g id="Grupo_1179776" data-name="Grupo 1179776" transform="translate(55.447 55.98)">
          <g id="Grupo_1179775" data-name="Grupo 1179775" transform="translate(0 0)">
            <path id="Trazado_1045989" data-name="Trazado 1045989" d="M277.751,303.713H256V273.2h20.811a.941.941,0,0,1,.941.941v29.571Z" transform="translate(-256 -273.201)" fill="#ffcd74"/>
          </g>
        </g>
        <g id="Grupo_1179782" data-name="Grupo 1179782" transform="translate(63.858 39.859)">
          <g id="Grupo_1179781" data-name="Grupo 1179781">
            <g id="Grupo_1179778" data-name="Grupo 1179778">
              <g id="Grupo_1179777" data-name="Grupo 1179777">
                <path id="Trazado_1045990" data-name="Trazado 1045990" d="M293.7,209.605l8.464-8.469a.629.629,0,0,1,.891,0l8.423,8.427Z" transform="translate(-293.695 -200.952)" fill="#3879e3"/>
              </g>
            </g>
            <g id="Grupo_1179780" data-name="Grupo 1179780" transform="translate(8.889)">
              <g id="Grupo_1179779" data-name="Grupo 1179779">
                <path id="Trazado_1045991" data-name="Trazado 1045991" d="M333.532,209.605,342,201.136a.629.629,0,0,1,.891,0l8.423,8.427Z" transform="translate(-333.532 -200.952)" fill="#3879e3"/>
              </g>
            </g>
          </g>
        </g>
        <g id="Grupo_1179784" data-name="Grupo 1179784" transform="translate(18.572 72.136)">
          <g id="Grupo_1179783" data-name="Grupo 1179783" transform="translate(0 0)">
            <path id="Trazado_1045992" data-name="Trazado 1045992" d="M160.471,377.755H94.749a4.015,4.015,0,0,1-4.015-4.015V349.621a4.015,4.015,0,0,1,4.015-4.015h65.722a4.015,4.015,0,0,1,4.015,4.015V373.74A4.015,4.015,0,0,1,160.471,377.755Z" transform="translate(-90.734 -345.606)" fill="#b4e173"/>
          </g>
        </g>
        <g id="Grupo_1179786" data-name="Grupo 1179786" transform="translate(81.681 72.136)">
          <g id="Grupo_1179785" data-name="Grupo 1179785" transform="translate(0 0)">
            <path id="Trazado_1045993" data-name="Trazado 1045993" d="M380.2,345.606h-6.628a4.015,4.015,0,0,1,4.014,4.016v24.117a4.015,4.015,0,0,1-4.014,4.016H380.2a4.015,4.015,0,0,0,4.014-4.016V349.622A4.015,4.015,0,0,0,380.2,345.606Z" transform="translate(-373.572 -345.606)" fill="#a7d16c"/>
          </g>
        </g>
      </g>
      <g id="Grupo_1179788" data-name="Grupo 1179788" transform="translate(0 14.812)">
        <path id="Trazado_1045994" data-name="Trazado 1045994" d="M105.762,14.812H8.481A8.493,8.493,0,0,0,0,23.3V82.835a1.673,1.673,0,0,0,3.347,0V43.048H38.6a1.673,1.673,0,1,0,0-3.347H3.347V29.148h18.76a7.5,7.5,0,0,0,5.774-2.7l5.667-6.787a4.163,4.163,0,0,1,3.2-1.5H51.458a4.161,4.161,0,0,1,3.221,1.519l5.551,6.733a7.5,7.5,0,0,0,5.8,2.736H110.9V39.7H46.746a1.673,1.673,0,0,0,0,3.347h8.7v43.9H12.811a1.673,1.673,0,0,0,0,3.347h6.268a5.653,5.653,0,0,0-.506,2.342v.917H9.453a1.673,1.673,0,1,0,0,3.347h9.119v4.4H8.481a5.141,5.141,0,0,1-5.134-5.137V91.019a1.673,1.673,0,1,0-3.347,0v5.149a8.492,8.492,0,0,0,8.481,8.484H18.572v12.105a5.7,5.7,0,0,0,5.689,5.689H89.983a5.7,5.7,0,0,0,5.689-5.689V104.651h10.091a8.492,8.492,0,0,0,8.481-8.484V23.3A8.493,8.493,0,0,0,105.762,14.812ZM25.311,24.3a4.164,4.164,0,0,1-3.2,1.5H3.347V23.3a5.142,5.142,0,0,1,5.134-5.139H30.44Zm40.722,1.5a4.161,4.161,0,0,1-3.221-1.519l-5.05-6.124h48A5.142,5.142,0,0,1,110.9,23.3v2.5Zm7.724,37.377H69.6l4.843-4.844,2.078,2.08Zm4.732,0,4.841-4.844,4.839,4.841-1.2,0Zm14.415,0-8.39-8.394a1.674,1.674,0,0,0-2.367,0l-3.261,3.262-3.26-3.263a1.673,1.673,0,0,0-1.183-.491h0a1.674,1.674,0,0,0-1.183.49l-8.393,8.4H58.795V50.663h42.764V63.178ZM58.795,74.14H77.2V86.949h-18.4ZM95.671,101.3v-.823a1.673,1.673,0,0,0-3.347,0v16.275a2.344,2.344,0,0,1-2.342,2.342H24.261a2.344,2.344,0,0,1-2.342-2.342V92.637A2.344,2.344,0,0,1,24.261,90.3H89.983a2.344,2.344,0,0,1,2.342,2.342v1.428a1.673,1.673,0,0,0,3.347,0V92.637a5.7,5.7,0,0,0-5.689-5.688h-.931V74.14H101.56V101.3H95.671Zm10.091,0h-.855V72.467a1.673,1.673,0,0,0-1.673-1.673H87.378A1.673,1.673,0,0,0,85.7,72.467V86.949H80.546V72.467a1.673,1.673,0,0,0-1.673-1.673H58.795V66.525h6.442a1.669,1.669,0,0,0,.294.029h0l8.629-.019a1.687,1.687,0,0,0,.257.02h0l12.593-.03h16.215a1.673,1.673,0,0,0,1.673-1.673V48.99a1.673,1.673,0,0,0-1.673-1.673H58.795V43.048h52.1V96.168A5.141,5.141,0,0,1,105.762,101.3Z" transform="translate(0 -14.812)"/>
        <circle id="Elipse_11869" data-name="Elipse 11869" cx="1.7" cy="1.7" r="1.7" transform="translate(7.314 5.771)"/>
        <circle id="Elipse_11870" data-name="Elipse 11870" cx="1.7" cy="1.7" r="1.7" transform="translate(12.783 5.771)"/>
        <circle id="Elipse_11871" data-name="Elipse 11871" cx="1.7" cy="1.7" r="1.7" transform="translate(19.065 5.771)"/>
        <circle id="Elipse_11872" data-name="Elipse 11872" cx="1.699" cy="1.699" r="1.699" transform="translate(97.782 18.017)"/>
        <circle id="Elipse_11873" data-name="Elipse 11873" cx="1.699" cy="1.699" r="1.699" transform="translate(104.578 18.017)"/>
        <path id="Trazado_1045995" data-name="Trazado 1045995" d="M96.838,97.344a1.673,1.673,0,0,0,1.673,1.673H154.1a1.673,1.673,0,0,0,0-3.347H98.511A1.673,1.673,0,0,0,96.838,97.344Z" transform="translate(-75.23 -77.629)"/>
        <path id="Trazado_1045996" data-name="Trazado 1045996" d="M175.992,49.8a1.673,1.673,0,0,0,0-3.347H163.146a1.673,1.673,0,1,0,0,3.347Z" transform="translate(-125.443 -39.397)"/>
        <path id="Trazado_1045997" data-name="Trazado 1045997" d="M33.258,90.517a1.672,1.672,0,0,0-2.367,0l-1.307,1.308a1.673,1.673,0,0,0,.047,2.411l1.307,1.21a1.674,1.674,0,1,0,2.274-2.456l-.031-.029.078-.078A1.673,1.673,0,0,0,33.258,90.517Z" transform="translate(-22.603 -73.244)"/>
        <path id="Trazado_1045998" data-name="Trazado 1045998" d="M59.615,95.357a1.674,1.674,0,0,0,2.365.091l1.307-1.21a1.673,1.673,0,0,0,.047-2.411l-1.307-1.308a1.673,1.673,0,1,0-2.367,2.366l.078.078-.031.029A1.674,1.674,0,0,0,59.615,95.357Z" transform="translate(-45.967 -73.245)"/>
        <path id="Trazado_1045999" data-name="Trazado 1045999" d="M41.68,160.486H33.7a1.673,1.673,0,0,0,0,3.347H41.68a1.673,1.673,0,0,0,0-3.347Z" transform="translate(-24.878 -127.982)"/>
        <path id="Trazado_1046000" data-name="Trazado 1046000" d="M69.975,190.09H51.586a1.673,1.673,0,0,0,0,3.347H69.975a1.673,1.673,0,0,0,0-3.347Z" transform="translate(-38.776 -150.98)"/>
        <path id="Trazado_1046001" data-name="Trazado 1046001" d="M57.133,219.693H51.586a1.673,1.673,0,0,0,0,3.347h5.546a1.673,1.673,0,0,0,0-3.347Z" transform="translate(-38.776 -173.978)"/>
        <path id="Trazado_1046002" data-name="Trazado 1046002" d="M115.435,219.693H101.857a1.673,1.673,0,0,0,0,3.347h13.578a1.673,1.673,0,0,0,0-3.347Z" transform="translate(-77.83 -173.978)"/>
        <path id="Trazado_1046003" data-name="Trazado 1046003" d="M51.586,311.85h13.99a1.673,1.673,0,0,0,0-3.347H51.586a1.673,1.673,0,0,0,0,3.347Z" transform="translate(-38.776 -242.972)"/>
        <path id="Trazado_1046004" data-name="Trazado 1046004" d="M139.61,311.85h8.452a1.673,1.673,0,0,0,0-3.347H139.61a1.673,1.673,0,0,0,0,3.347Z" transform="translate(-107.159 -242.972)"/>
        <path id="Trazado_1046005" data-name="Trazado 1046005" d="M81.473,250.97a1.673,1.673,0,0,0,1.673,1.673h8.57a1.673,1.673,0,1,0,0-3.347h-8.57A1.673,1.673,0,0,0,81.473,250.97Z" transform="translate(-63.294 -196.976)"/>
        <path id="Trazado_1046006" data-name="Trazado 1046006" d="M167.366,250.97a1.673,1.673,0,0,0-1.673-1.673H148.58a1.673,1.673,0,1,0,0,3.347h17.112A1.674,1.674,0,0,0,167.366,250.97Z" transform="translate(-114.128 -196.976)"/>
        <path id="Trazado_1046007" data-name="Trazado 1046007" d="M98.717,280.572a1.673,1.673,0,0,0-1.673-1.673h-13.9a1.673,1.673,0,1,0,0,3.347h13.9A1.673,1.673,0,0,0,98.717,280.572Z" transform="translate(-63.294 -219.973)"/>
        <path id="Trazado_1046008" data-name="Trazado 1046008" d="M175.548,280.572a1.673,1.673,0,0,0-1.673-1.673H170.96a1.673,1.673,0,1,0,0,3.347h2.914A1.673,1.673,0,0,0,175.548,280.572Z" transform="translate(-131.514 -219.973)"/>
        <circle id="Elipse_11874" data-name="Elipse 11874" cx="1.7" cy="1.7" r="1.7" transform="translate(77.275 36.93)"/>
        <path id="Trazado_1046009" data-name="Trazado 1046009" d="M146.035,377.287a2.81,2.81,0,0,0-2.335,0,.816.816,0,0,0-.482.762v6.628h-5.711v-6.628a.816.816,0,0,0-.482-.762,2.81,2.81,0,0,0-2.335,0,.816.816,0,0,0-.482.762v16.507a.85.85,0,0,0,.482.762,2.553,2.553,0,0,0,2.323,0,.848.848,0,0,0,.495-.762v-7.289h5.711v7.289a.85.85,0,0,0,.482.762,2.553,2.553,0,0,0,2.323,0,.849.849,0,0,0,.495-.762V378.049A.815.815,0,0,0,146.035,377.287Z" transform="translate(-104.261 -296.21)"/>
        <path id="Trazado_1046010" data-name="Trazado 1046010" d="M209.349,377.033H198.612a.856.856,0,0,0-.774.433,1.871,1.871,0,0,0-.266,1,1.835,1.835,0,0,0,.279,1.039.869.869,0,0,0,.762.421h3.731v14.623a.856.856,0,0,0,.482.766,2.544,2.544,0,0,0,2.323,0,.854.854,0,0,0,.495-.766V379.928h3.706a.865.865,0,0,0,.762-.433,1.854,1.854,0,0,0,.279-1.027,1.873,1.873,0,0,0-.266-1A.856.856,0,0,0,209.349,377.033Z" transform="translate(-153.487 -296.21)"/>
        <path id="Trazado_1046011" data-name="Trazado 1046011" d="M277.323,377.439a1.741,1.741,0,0,0-1.18-.406,2.722,2.722,0,0,0-1.459.33,4,4,0,0,0-1.13,1.422l-3.122,5.689-3.122-5.689a4.1,4.1,0,0,0-1.117-1.422,2.656,2.656,0,0,0-1.447-.33,1.74,1.74,0,0,0-1.18.406,1.557,1.557,0,0,0-.469,1.244v15.872a.85.85,0,0,0,.482.762,2.553,2.553,0,0,0,2.323,0,.848.848,0,0,0,.495-.762V383.433l2.919,5.485a1.162,1.162,0,0,0,1.092.66,1.182,1.182,0,0,0,1.117-.66l2.97-5.282v10.92a.85.85,0,0,0,.482.762,2.554,2.554,0,0,0,2.323,0,.849.849,0,0,0,.495-.762V378.683A1.558,1.558,0,0,0,277.323,377.439Z" transform="translate(-204.391 -296.21)"/>
        <path id="Trazado_1046012" data-name="Trazado 1046012" d="M352.106,392.7h-6.193V378.049a.816.816,0,0,0-.482-.762,2.81,2.81,0,0,0-2.335,0,.816.816,0,0,0-.482.762v16.507a.865.865,0,0,0,.432.762,1.824,1.824,0,0,0,1.015.279h8.047a.815.815,0,0,0,.723-.432,2.07,2.07,0,0,0,0-2.032A.817.817,0,0,0,352.106,392.7Z" transform="translate(-266.166 -296.21)"/>
      </g>
    </g>
  </g>
</svg>
