<svg xmlns="http://www.w3.org/2000/svg" xmlns:xlink="http://www.w3.org/1999/xlink" width="88.914" height="88.914" viewBox="0 0 88.914 88.914">
  <defs>
    <filter id="Trazado_874925" x="0" y="0" width="88.914" height="88.914" filterUnits="userSpaceOnUse">
      <feOffset dy="3" input="SourceAlpha"/>
      <feGaussianBlur stdDeviation="3" result="blur"/>
      <feFlood flood-opacity="0.161"/>
      <feComposite operator="in" in2="blur"/>
      <feComposite in="SourceGraphic"/>
    </filter>
  </defs>
  <g id="Grupo_1179956" data-name="Grupo 1179956" transform="translate(-425.051 -7919)">
    <g id="Grupo_1179043" data-name="Grupo 1179043" transform="translate(434.051 7925)">
      <g id="Grupo_1111314" data-name="Grupo 1111314" transform="translate(0 0)">
        <g id="Grupo_1109835" data-name="Grupo 1109835">
          <g id="Grupo_1107913" data-name="Grupo 1107913">
            <g transform="matrix(1, 0, 0, 1, -9, -6)" filter="url(#Trazado_874925)">
              <g id="Trazado_874925-2" data-name="Trazado 874925" transform="translate(9 6)" fill="#c7b622" opacity="0.859">
                <path d="M 35.45683670043945 69.41408538818359 C 30.87202644348145 69.41408538818359 26.42516708374023 68.5164794921875 22.23976707458496 66.74620056152344 C 18.19638633728027 65.03600311279297 14.56474685668945 62.58738327026367 11.44572639465332 59.46835327148438 C 8.326706886291504 56.34933090209961 5.878086566925049 52.71770095825195 4.167876720428467 48.67432403564453 C 2.397596597671509 44.48891448974609 1.499996662139893 40.04205322265625 1.499996662139893 35.45724105834961 C 1.499996662139893 30.87203216552734 2.397596597671509 26.42516326904297 4.167876720428467 22.2397632598877 C 5.878086566925049 18.19638252258301 8.326706886291504 14.56474304199219 11.44572639465332 11.44572257995605 C 14.56474685668945 8.326703071594238 18.19638633728027 5.878082752227783 22.23976707458496 4.167882919311523 C 26.42516708374023 2.397602796554565 30.87203598022461 1.50000274181366 35.45683670043945 1.50000274181366 C 40.0416374206543 1.50000274181366 44.48850631713867 2.397602796554565 48.67390823364258 4.167882919311523 C 52.71728515625 5.878082752227783 56.34892654418945 8.326703071594238 59.46794509887695 11.44572257995605 C 62.58696746826172 14.56474304199219 65.03558349609375 18.19638252258301 66.74579620361328 22.2397632598877 C 68.51607513427734 26.42516326904297 69.41367340087891 30.87203216552734 69.41367340087891 35.45683288574219 C 69.41367340087891 40.04205322265625 68.51607513427734 44.48891448974609 66.74579620361328 48.67432403564453 C 65.03558349609375 52.71770095825195 62.58696746826172 56.34933090209961 59.46794509887695 59.46835327148438 C 56.34892654418945 62.58738327026367 52.71728515625 65.03600311279297 48.67390823364258 66.74620056152344 C 44.48850631713867 68.5164794921875 40.04164505004883 69.41408538818359 35.45683670043945 69.41408538818359 Z" stroke="none"/>
                <path d="M 35.45683670043945 2.999992370605469 C 31.07387161254883 2.999992370605469 26.82360076904297 3.857734680175781 22.8240966796875 5.549385070800781 C 18.95950698852539 7.1839599609375 15.48813247680664 9.524631500244141 12.50638961791992 12.50638198852539 C 9.524635314941406 15.48812484741211 7.183967590332031 18.95950317382812 5.549392700195312 22.82408905029297 C 3.857742309570312 26.8235969543457 3 31.07386779785156 3 35.45724105834961 C 3 39.8402099609375 3.857742309570312 44.09049224853516 5.549392700195312 48.08999633789062 C 7.183967590332031 51.95457458496094 9.524635314941406 55.42594909667969 12.50638961791992 58.40769958496094 C 15.48813247680664 61.38945388793945 18.95950698852539 63.73012542724609 22.8240966796875 65.36470031738281 C 26.82360076904297 67.05635070800781 31.07387161254883 67.91409301757812 35.45683670043945 67.91409301757812 C 39.83980178833008 67.91409301757812 44.09007263183594 67.05635070800781 48.08957672119141 65.36470031738281 C 51.95416641235352 63.73012542724609 55.42554473876953 61.38945388793945 58.40728378295898 58.40769958496094 C 61.3890380859375 55.42594909667969 63.72970581054688 51.95457458496094 65.36428070068359 48.08999633789062 C 67.05593109130859 44.09049224853516 67.91367340087891 39.8402099609375 67.91367340087891 35.45682907104492 C 67.91367340087891 31.07386779785156 67.05593109130859 26.8235969543457 65.36428070068359 22.82408905029297 C 63.72970581054688 18.95950317382812 61.3890380859375 15.48812484741211 58.40728378295898 12.50638198852539 C 55.42554473876953 9.524631500244141 51.95416641235352 7.1839599609375 48.08957672119141 5.549385070800781 C 44.09007263183594 3.857734680175781 39.83980178833008 2.999992370605469 35.45683670043945 2.999992370605469 M 35.45683670043945 -7.62939453125e-06 C 55.03910827636719 -7.62939453125e-06 70.91367340087891 15.87456130981445 70.91367340087891 35.45682907104492 L 70.91367340087891 35.45724105834961 C 70.91367340087891 55.03952407836914 55.03910827636719 70.91409301757812 35.45683670043945 70.91409301757812 C 15.87456512451172 70.91409301757812 0 55.03952407836914 0 35.45724105834961 L 0 35.45682907104492 C 0 15.87456130981445 15.87456512451172 -7.62939453125e-06 35.45683670043945 -7.62939453125e-06 Z" stroke="none" fill="#fff"/>
              </g>
            </g>
            <g id="Trazado_874923" data-name="Trazado 874923" fill="none">
              <path d="M35.457,0A35.457,35.457,0,0,1,70.914,35.457h0A35.457,35.457,0,1,1,0,35.457H0A35.457,35.457,0,0,1,35.457,0Z" stroke="none"/>
              <path d="M 35.45683670043945 2.999992370605469 C 31.07387161254883 2.999992370605469 26.82360076904297 3.857734680175781 22.8240966796875 5.549385070800781 C 18.95950698852539 7.1839599609375 15.48813247680664 9.524631500244141 12.50638961791992 12.50638198852539 C 9.524635314941406 15.48812484741211 7.183967590332031 18.95950317382812 5.549392700195312 22.82408905029297 C 3.857742309570312 26.8235969543457 3 31.07386779785156 3 35.45724105834961 C 3 39.8402099609375 3.857742309570312 44.09049224853516 5.549392700195312 48.08999633789062 C 7.183967590332031 51.95457458496094 9.524635314941406 55.42594909667969 12.50638961791992 58.40769958496094 C 15.48813247680664 61.38945388793945 18.95950698852539 63.73012542724609 22.8240966796875 65.36470031738281 C 26.82360076904297 67.05635070800781 31.07387161254883 67.91409301757812 35.45683670043945 67.91409301757812 C 39.83980178833008 67.91409301757812 44.09007263183594 67.05635070800781 48.08957672119141 65.36470031738281 C 51.95416641235352 63.73012542724609 55.42554473876953 61.38945388793945 58.40728378295898 58.40769958496094 C 61.3890380859375 55.42594909667969 63.72970581054688 51.95457458496094 65.36428070068359 48.08999633789062 C 67.05593109130859 44.09049224853516 67.91367340087891 39.8402099609375 67.91367340087891 35.45682907104492 C 67.91367340087891 31.07386779785156 67.05593109130859 26.8235969543457 65.36428070068359 22.82408905029297 C 63.72970581054688 18.95950317382812 61.3890380859375 15.48812484741211 58.40728378295898 12.50638198852539 C 55.42554473876953 9.524631500244141 51.95416641235352 7.1839599609375 48.08957672119141 5.549385070800781 C 44.09007263183594 3.857734680175781 39.83980178833008 2.999992370605469 35.45683670043945 2.999992370605469 M 35.45683670043945 -7.62939453125e-06 C 55.03910827636719 -7.62939453125e-06 70.91367340087891 15.87456130981445 70.91367340087891 35.45682907104492 L 70.91367340087891 35.45724105834961 C 70.91367340087891 55.03952407836914 55.03910827636719 70.91409301757812 35.45683670043945 70.91409301757812 C 15.87456512451172 70.91409301757812 0 55.03952407836914 0 35.45724105834961 L 0 35.45682907104492 C 0 15.87456130981445 15.87456512451172 -7.62939453125e-06 35.45683670043945 -7.62939453125e-06 Z" stroke="none" fill="#fff"/>
            </g>
          </g>
        </g>
      </g>
    </g>
    <g id="Grupo_1179955" data-name="Grupo 1179955" transform="translate(445.551 7935.5)">
      <path id="Trazado_1046689" data-name="Trazado 1046689" d="M18,27.385V8h2.423a2.43,2.43,0,0,1,2.423,2.423V27.385Z" transform="translate(20.635 6.404)" fill="#666"/>
      <path id="Trazado_1046690" data-name="Trazado 1046690" d="M6,30.231V6H26.6V7.212A2.43,2.43,0,0,0,29.02,9.635h6.058v20.6Z" transform="translate(3.558 3.558)" fill="#f2f2f2"/>
      <path id="Trazado_1046691" data-name="Trazado 1046691" d="M16.923,12.319A2.43,2.43,0,0,1,14.5,9.9V5.171a1.053,1.053,0,0,1,1.793-.751L22.4,10.526a1.053,1.053,0,0,1-.751,1.793Z" transform="translate(15.654 0.873)" fill="gray"/>
      <path id="Trazado_1046692" data-name="Trazado 1046692" d="M6,8.846V6.423A2.43,2.43,0,0,1,8.423,4H26.6V8.846Z" transform="translate(3.558 0.712)" fill="#3ae4de"/>
      <path id="Trazado_1046693" data-name="Trazado 1046693" d="M4,27.385V10.423A2.43,2.43,0,0,1,6.423,8H8.846V27.385Z" transform="translate(0.712 6.404)" fill="#666"/>
      <path id="Trazado_1046694" data-name="Trazado 1046694" d="M10.5,18h7.269v4.846H10.5Z" transform="translate(9.962 20.635)" fill="#ccc"/>
      <path id="Trazado_1046695" data-name="Trazado 1046695" d="M6.423,20.846A2.43,2.43,0,0,1,4,18.423V16H42.77v2.423a2.43,2.43,0,0,1-2.423,2.423Z" transform="translate(0.712 17.789)" fill="#f2f2f2"/>
      <path id="Trazado_1046696" data-name="Trazado 1046696" d="M44.693,30.52a3.63,3.63,0,0,1-3.635,3.635H7.135A3.63,3.63,0,0,1,3.5,30.52V11.135A3.63,3.63,0,0,1,7.135,7.5H9.558a1.212,1.212,0,0,1,0,2.423H7.135a1.2,1.2,0,0,0-1.212,1.212V30.52a1.2,1.2,0,0,0,1.212,1.212H41.058A1.2,1.2,0,0,0,42.27,30.52V11.135a1.2,1.2,0,0,0-1.212-1.212H38.635a1.212,1.212,0,0,1,0-2.423h2.423a3.63,3.63,0,0,1,3.635,3.635Z" transform="translate(0 5.692)"/>
      <path id="Trazado_1046697" data-name="Trazado 1046697" d="M43.481,17.923H4.712a1.212,1.212,0,1,1,0-2.423h38.77a1.212,1.212,0,1,1,0,2.423Z" transform="translate(0 17.077)"/>
      <path id="Trazado_1046698" data-name="Trazado 1046698" d="M11.212,24.769A1.2,1.2,0,0,1,10,23.558V18.712a1.212,1.212,0,1,1,2.423,0v4.846A1.2,1.2,0,0,1,11.212,24.769Z" transform="translate(9.25 19.924)"/>
      <path id="Trazado_1046699" data-name="Trazado 1046699" d="M14.212,24.769A1.2,1.2,0,0,1,13,23.558V18.712a1.212,1.212,0,1,1,2.423,0v4.846A1.2,1.2,0,0,1,14.212,24.769Z" transform="translate(13.52 19.924)"/>
      <path id="Trazado_1046700" data-name="Trazado 1046700" d="M24.25,21.923H9.712a1.212,1.212,0,1,1,0-2.423H24.25a1.212,1.212,0,1,1,0,2.423Z" transform="translate(7.116 22.77)"/>
      <path id="Trazado_1046701" data-name="Trazado 1046701" d="M35.789,35a1.2,1.2,0,0,1-1.212-1.212V12.974a1.137,1.137,0,0,0-.363-.848l-5.84-5.84a1.234,1.234,0,0,0-.848-.363H9.135A1.2,1.2,0,0,0,7.923,7.135V33.789a1.212,1.212,0,1,1-2.423,0V7.135A3.63,3.63,0,0,1,9.135,3.5H27.526a3.631,3.631,0,0,1,2.568,1.066l5.84,5.84A3.631,3.631,0,0,1,37,12.974V33.789A1.2,1.2,0,0,1,35.789,35Z" transform="translate(2.846 0)"/>
      <path id="Trazado_1046702" data-name="Trazado 1046702" d="M24.9,13.192A1.2,1.2,0,0,1,23.692,14.4H17.635A3.63,3.63,0,0,1,14,10.769V4.712a1.212,1.212,0,1,1,2.423,0v6.058a1.2,1.2,0,0,0,1.212,1.212h6.058A1.2,1.2,0,0,1,24.9,13.192Z" transform="translate(14.943 0)"/>
      <path id="Trazado_1046703" data-name="Trazado 1046703" d="M28.52,6.712a1.2,1.2,0,0,1-1.212,1.212H6.712a1.212,1.212,0,0,1,0-2.423h20.6A1.2,1.2,0,0,1,28.52,6.712Z" transform="translate(2.846 2.846)"/>
      <path id="Trazado_1046704" data-name="Trazado 1046704" d="M10.048,19.947,7.625,15.1a1.232,1.232,0,0,1,0-1.09l2.423-4.846a1.208,1.208,0,0,1,2.157,1.09l-2.157,4.313L12.2,18.881a1.208,1.208,0,0,1-2.157,1.09Z" transform="translate(5.689 7.106)"/>
      <path id="Trazado_1046705" data-name="Trazado 1046705" d="M15.174,20.5a1.183,1.183,0,0,1-.533-1.623L16.8,14.559l-2.157-4.313A1.208,1.208,0,0,1,16.8,9.155L19.221,14a1.232,1.232,0,0,1,0,1.09L16.8,19.938a1.183,1.183,0,0,1-1.623.533Z" transform="translate(15.658 7.114)"/>
      <path id="Trazado_1046706" data-name="Trazado 1046706" d="M11.174,20.49a1.183,1.183,0,0,1-.533-1.623l4.846-9.692a1.208,1.208,0,1,1,2.157,1.09L12.8,19.957A1.183,1.183,0,0,1,11.174,20.49Z" transform="translate(9.966 7.12)"/>
    </g>
  </g>
</svg>
