<svg xmlns="http://www.w3.org/2000/svg" xmlns:xlink="http://www.w3.org/1999/xlink" width="505" height="307" viewBox="0 0 505 307">
  <defs>
    <clipPath id="clip-path">
      <path id="Trazado_1046437" data-name="Trazado 1046437" d="M7.769,0H497.231C501.522,0,505,4.925,505,11V296c0,6.075-3.478,11-7.769,11H7.769C3.478,307,0,302.075,0,296V11C0,4.925,3.478,0,7.769,0Z" transform="translate(915 2427)" fill="#12263f"/>
    </clipPath>
  </defs>
  <g id="Grupo_1181085" data-name="Grupo 1181085" transform="translate(-1000 -2447.258)">
    <path id="Trazado_1044522" data-name="Trazado 1044522" d="M7.769,0H497.231C501.522,0,505,4.925,505,11V296c0,6.075-3.478,11-7.769,11H7.769C3.478,307,0,302.075,0,296V11C0,4.925,3.478,0,7.769,0Z" transform="translate(1000 2447.258)" fill="#16bcc4"/>
    <g id="Enmascarar_grupo_1098912" data-name="Enmascarar grupo 1098912" transform="translate(85 20.258)" clip-path="url(#clip-path)">
      <path id="Trazado_1046438" data-name="Trazado 1046438" d="M3083.513,0V621.537H2461.974V475.04c21.171,35.141,47.68,64.566,77.655,85.4,55.814,38.765,123.042,47.288,183.331,23.213,28.3-11.284,57.152-32.422,68.281-68.907,6.369-20.932,6.083-44.35,4.483-66.846-7.006-98.361-36.991-197.586-18.058-293.126A269.515,269.515,0,0,1,2869,0Z" transform="translate(-1598.244 2121.002)" fill="#108d93"/>
      <g id="Grupo_1179888" data-name="Grupo 1179888" transform="translate(842.712 2253.371)">
        <path id="Trazado_1046279" data-name="Trazado 1046279" d="M474.694,558.083H195.565a5.549,5.549,0,0,1-5.628-5.436V325.185a5.549,5.549,0,0,1,5.628-5.436H474.694a5.546,5.546,0,0,1,5.611,5.436V552.647A5.546,5.546,0,0,1,474.694,558.083Z" transform="translate(-59.382 -106.725)" fill="#10254a"/>
        <path id="Trazado_1046280" data-name="Trazado 1046280" d="M508.688,578.927H255.347a5.1,5.1,0,0,1-5.108-5.071V361.691a5.1,5.1,0,0,1,5.108-5.07H508.688a5.1,5.1,0,0,1,5.093,5.07V573.856A5.1,5.1,0,0,1,508.688,578.927Z" transform="translate(-106.27 -135.395)" fill="#0e1627"/>
        <path id="Trazado_1046281" data-name="Trazado 1046281" d="M153.222,449.313h-35.56a4.108,4.108,0,0,1-4.1-4.1V422.875a4.108,4.108,0,0,1,4.1-4.1h35.56a4.108,4.108,0,0,1,4.1,4.1v22.341A4.108,4.108,0,0,1,153.222,449.313Z" transform="translate(0 -183.727)" fill="#244190"/>
        <path id="Trazado_1046282" data-name="Trazado 1046282" d="M146.579,433.372q-3.961,5.923-7.427,12.341l-.329.61.329.611a87.587,87.587,0,0,0,7.744,11.959l2.034-1.57a84.968,84.968,0,0,1-7.516-11.608l-1.131.61,1.13.61q3.4-6.3,7.3-12.134l-2.135-1.428Z" transform="translate(-19.638 -195.073)" fill="#fff"/>
        <path id="Trazado_1046283" data-name="Trazado 1046283" d="M239.772,434.8q3.891,5.82,7.3,12.134l1.131-.61-1.131-.61a84.972,84.972,0,0,1-7.516,11.608l2.034,1.571a87.653,87.653,0,0,0,7.743-11.96l.329-.611-.329-.61q-3.46-6.407-7.427-12.341l-2.135,1.428Z" transform="translate(-97.965 -195.073)" fill="#fff"/>
        <path id="Trazado_1046284" data-name="Trazado 1046284" d="M198.568,457.239q-3.834,7.642-6.953,15.616l2.121.83q3.076-7.866,6.867-15.425l-2.035-1.021Z" transform="translate(-60.687 -213.631)" fill="#fff"/>
        <path id="Trazado_1046285" data-name="Trazado 1046285" d="M1248.655,733.273H1213.1a4.109,4.109,0,0,1-4.1-4.1v-22.34a4.109,4.109,0,0,1,4.1-4.1h35.558a4.108,4.108,0,0,1,4.1,4.1v22.34A4.108,4.108,0,0,1,1248.655,733.273Z" transform="translate(-851.761 -404.522)" fill="#244190"/>
        <path id="Trazado_1046286" data-name="Trazado 1046286" d="M1258.045,732.5v4.987h-4.8v1.273h4.8v5.029h1.358v-5.029h4.795v-1.273H1259.4V732.5Zm-12.644,0v4.987h-4.8v1.273h4.8v5.029h1.358v-5.029h4.794v-1.273h-4.794V732.5Zm-6.724,9.357a7.386,7.386,0,0,1-3.013.6c-3.48,0-5.5-2.25-5.5-5.751,0-3.755,2.228-5.9,5.58-5.9a6.734,6.734,0,0,1,2.886.594l.445-1.506a7.668,7.668,0,0,0-3.4-.636,7.117,7.117,0,0,0-7.468,7.512c0,4.688,3.034,7.235,7.065,7.235a9.145,9.145,0,0,0,3.777-.68Z" transform="translate(-866.702 -425.134)" fill="#fff"/>
        <path id="Trazado_1046287" data-name="Trazado 1046287" d="M168.763,887.372H133.2a4.107,4.107,0,0,1-4.1-4.1V860.936a4.107,4.107,0,0,1,4.1-4.1h35.558a4.108,4.108,0,0,1,4.1,4.1v22.341A4.108,4.108,0,0,1,168.763,887.372Z" transform="translate(-12.085 -524.343)" fill="#98559a"/>
        <path id="Trazado_1046288" data-name="Trazado 1046288" d="M178.9,902.927a7.392,7.392,0,0,0,3.65.913c3.374,0,5.007-1.91,5.007-4.116,0-2.1-1.23-3.268-3.649-4.2-1.974-.764-2.844-1.422-2.844-2.758,0-.976.742-2.142,2.7-2.142a5.7,5.7,0,0,1,2.716.678l.509-1.506a6.5,6.5,0,0,0-3.162-.7c-2.779,0-4.625,1.655-4.625,3.883,0,2.016,1.444,3.225,3.777,4.052,1.931.742,2.7,1.506,2.7,2.844,0,1.442-1.1,2.44-2.992,2.44a6.54,6.54,0,0,1-3.31-.933Zm-10.459,0a7.392,7.392,0,0,0,3.65.913c3.374,0,5.007-1.91,5.007-4.116,0-2.1-1.23-3.268-3.649-4.2-1.974-.764-2.844-1.422-2.844-2.758,0-.976.742-2.142,2.7-2.142a5.7,5.7,0,0,1,2.716.678l.509-1.506a6.5,6.5,0,0,0-3.162-.7c-2.779,0-4.625,1.655-4.625,3.883,0,2.016,1.443,3.225,3.777,4.052,1.931.742,2.7,1.506,2.7,2.844,0,1.442-1.1,2.44-2.992,2.44a6.544,6.544,0,0,1-3.31-.933Zm-1.97-1.231a7.388,7.388,0,0,1-3.013.6c-3.48,0-5.5-2.25-5.5-5.751,0-3.755,2.228-5.9,5.58-5.9a6.726,6.726,0,0,1,2.886.594l.446-1.507a7.669,7.669,0,0,0-3.4-.636,7.117,7.117,0,0,0-7.468,7.511c0,4.689,3.033,7.235,7.065,7.235a9.144,9.144,0,0,0,3.777-.679Z" transform="translate(-33.003 -549.422)" fill="#fff"/>
        <path id="Rectángulo_406584" data-name="Rectángulo 406584" d="M15.266,0H28.485A15.266,15.266,0,0,1,43.751,15.266v0A15.266,15.266,0,0,1,28.485,30.532H15.266A15.266,15.266,0,0,1,0,15.266v0A15.266,15.266,0,0,1,15.266,0Z" transform="translate(255.492 182.492)" fill="#98559a"/>
        <path id="Trazado_1046289" data-name="Trazado 1046289" d="M812.448,228.589a7.391,7.391,0,0,0,3.65.912c3.374,0,5.007-1.91,5.007-4.116,0-2.1-1.23-3.268-3.649-4.2-1.973-.764-2.844-1.422-2.844-2.758,0-.976.742-2.143,2.7-2.143a5.7,5.7,0,0,1,2.716.678l.509-1.506a6.5,6.5,0,0,0-3.162-.7c-2.779,0-4.626,1.655-4.626,3.883,0,2.016,1.443,3.225,3.777,4.052,1.931.742,2.7,1.506,2.7,2.844,0,1.443-1.1,2.44-2.992,2.44a6.544,6.544,0,0,1-3.31-.933Zm-4.2-4.18c0,2.8-.977,3.544-2.631,3.544a4.4,4.4,0,0,1-1.549-.276l-.276,1.506a5.993,5.993,0,0,0,1.974.339c2.461,0,4.328-1.166,4.328-4.965v-9.57h-1.845Z" transform="translate(-536.689 -25.086)" fill="#fff"/>
        <rect id="Rectángulo_406585" data-name="Rectángulo 406585" width="43.751" height="30.532" rx="15.266" transform="translate(388.276 236.418)" fill="#98559a"/>
        <path id="Trazado_1046290" data-name="Trazado 1046290" d="M1467.07,442.362h6.236a1.44,1.44,0,0,1,1.433,1.433v16.014a1.442,1.442,0,0,1-1.433,1.434h-6.111v2.5h6.111a3.941,3.941,0,0,0,3.934-3.935V443.8a3.941,3.941,0,0,0-3.934-3.934h-6.236v2.5Z" transform="translate(-1052.425 -200.119)" fill="#fff"/>
        <path id="Trazado_1046291" data-name="Trazado 1046291" d="M1391.809,461.243h-6.928a1.441,1.441,0,0,1-1.433-1.434V443.8a1.44,1.44,0,0,1,1.433-1.433h7.318v-2.5h-7.318a3.941,3.941,0,0,0-3.934,3.934v16.014a3.941,3.941,0,0,0,3.934,3.935h6.928v-2.5Z" transform="translate(-985.458 -200.119)" fill="#fff"/>
        <path id="Trazado_1046292" data-name="Trazado 1046292" d="M391.278,481.348H342.166a1.744,1.744,0,1,1,0-3.489h49.112a1.744,1.744,0,0,1,0,3.489Z" transform="translate(-176.392 -229.664)" fill="#004776"/>
        <path id="Trazado_1046293" data-name="Trazado 1046293" d="M786.786,481.348H737.674a1.744,1.744,0,1,1,0-3.489h49.112a1.744,1.744,0,0,1,0,3.489Z" transform="translate(-483.921 -229.664)" fill="#004776"/>
        <path id="Trazado_1046294" data-name="Trazado 1046294" d="M617.957,481.348H590.55a1.744,1.744,0,0,1,0-3.489h27.408a1.744,1.744,0,1,1,0,3.489Z" transform="translate(-369.525 -229.664)" fill="#004776"/>
        <path id="Trazado_1046295" data-name="Trazado 1046295" d="M1013.075,481.348H985.668a1.744,1.744,0,0,1,0-3.489h27.408a1.744,1.744,0,1,1,0,3.489Z" transform="translate(-676.751 -229.664)" fill="#004776"/>
        <path id="Trazado_1046296" data-name="Trazado 1046296" d="M565.982,445.095H516.87a1.744,1.744,0,1,1,0-3.489h49.112a1.744,1.744,0,0,1,0,3.489Z" transform="translate(-312.234 -201.475)" fill="#004776"/>
        <path id="Trazado_1046297" data-name="Trazado 1046297" d="M831.1,445.095H781.99a1.744,1.744,0,1,1,0-3.489H831.1a1.744,1.744,0,0,1,0,3.489Z" transform="translate(-518.379 -201.475)" fill="#004776"/>
        <path id="Trazado_1046298" data-name="Trazado 1046298" d="M1051.331,444.841h-27.407a1.744,1.744,0,0,1,0-3.489h27.407a1.744,1.744,0,1,1,0,3.489Z" transform="translate(-706.498 -201.278)" fill="#91b508"/>
        <path id="Trazado_1046299" data-name="Trazado 1046299" d="M391.278,406.585H342.166a1.744,1.744,0,1,1,0-3.489h49.112a1.744,1.744,0,0,1,0,3.489Z" transform="translate(-176.392 -171.532)" fill="#004776"/>
        <path id="Trazado_1046300" data-name="Trazado 1046300" d="M786.786,406.585H737.674a1.744,1.744,0,1,1,0-3.489h49.112a1.744,1.744,0,0,1,0,3.489Z" transform="translate(-483.921 -171.532)" fill="#004776"/>
        <path id="Trazado_1046301" data-name="Trazado 1046301" d="M617.957,406.585H590.55a1.744,1.744,0,0,1,0-3.489h27.408a1.744,1.744,0,1,1,0,3.489Z" transform="translate(-369.525 -171.532)" fill="#91b508"/>
        <path id="Trazado_1046302" data-name="Trazado 1046302" d="M1013.075,406.585H985.668a1.744,1.744,0,0,1,0-3.489h27.408a1.744,1.744,0,1,1,0,3.489Z" transform="translate(-676.751 -171.532)" fill="#91b508"/>
        <path id="Trazado_1046303" data-name="Trazado 1046303" d="M1168.706,406.585H1141.3a1.744,1.744,0,1,1,0-3.489h27.408a1.744,1.744,0,1,1,0,3.489Z" transform="translate(-797.762 -171.532)" fill="#91b508"/>
        <path id="Trazado_1046304" data-name="Trazado 1046304" d="M1043.729,516.168h49.112a1.744,1.744,0,1,1,0,3.489h-49.112a1.744,1.744,0,0,1,0-3.489Z" transform="translate(-721.897 -259.452)" fill="#004776"/>
        <path id="Trazado_1046305" data-name="Trazado 1046305" d="M648.221,516.168h49.112a1.744,1.744,0,0,1,0,3.489H648.221a1.744,1.744,0,0,1,0-3.489Z" transform="translate(-414.367 -259.452)" fill="#004776"/>
        <path id="Trazado_1046306" data-name="Trazado 1046306" d="M892.919,516.168h27.407a1.744,1.744,0,0,1,0,3.489H892.919a1.744,1.744,0,1,1,0-3.489Z" transform="translate(-604.633 -259.452)" fill="#004776"/>
        <path id="Trazado_1046307" data-name="Trazado 1046307" d="M497.8,516.168h27.408a1.744,1.744,0,0,1,0,3.489H497.8a1.744,1.744,0,1,1,0-3.489Z" transform="translate(-297.407 -259.452)" fill="#004776"/>
        <path id="Trazado_1046308" data-name="Trazado 1046308" d="M869.025,552.421h49.112a1.744,1.744,0,1,1,0,3.489H869.025a1.744,1.744,0,0,1,0-3.489Z" transform="translate(-586.055 -287.64)" fill="#004776"/>
        <path id="Trazado_1046309" data-name="Trazado 1046309" d="M603.9,552.421h49.112a1.744,1.744,0,1,1,0,3.489H603.9a1.744,1.744,0,0,1,0-3.489Z" transform="translate(-379.908 -287.64)" fill="#004776"/>
        <path id="Trazado_1046310" data-name="Trazado 1046310" d="M459.545,552.675h27.408a1.744,1.744,0,0,1,0,3.488H459.545a1.744,1.744,0,1,1,0-3.488Z" transform="translate(-267.66 -287.838)" fill="#91b508"/>
        <path id="Trazado_1046311" data-name="Trazado 1046311" d="M1043.729,590.93h49.112a1.744,1.744,0,1,1,0,3.489h-49.112a1.744,1.744,0,0,1,0-3.489Z" transform="translate(-721.897 -317.583)" fill="#004776"/>
        <path id="Trazado_1046312" data-name="Trazado 1046312" d="M648.221,590.93h49.112a1.744,1.744,0,0,1,0,3.489H648.221a1.744,1.744,0,0,1,0-3.489Z" transform="translate(-414.367 -317.583)" fill="#004776"/>
        <path id="Trazado_1046313" data-name="Trazado 1046313" d="M892.919,590.93h27.407a1.744,1.744,0,0,1,0,3.489H892.919a1.744,1.744,0,1,1,0-3.489Z" transform="translate(-604.633 -317.583)" fill="#91b508"/>
        <path id="Trazado_1046314" data-name="Trazado 1046314" d="M497.8,590.93h27.408a1.744,1.744,0,0,1,0,3.489H497.8a1.744,1.744,0,1,1,0-3.489Z" transform="translate(-297.407 -317.583)" fill="#91b508"/>
        <path id="Trazado_1046315" data-name="Trazado 1046315" d="M342.166,590.93h27.407a1.744,1.744,0,0,1,0,3.489H342.166a1.744,1.744,0,1,1,0-3.489Z" transform="translate(-176.392 -317.583)" fill="#91b508"/>
        <path id="Trazado_1046316" data-name="Trazado 1046316" d="M391.278,1183.944H342.166a1.744,1.744,0,1,1,0-3.489h49.112a1.744,1.744,0,0,1,0,3.489Z" transform="translate(-176.392 -775.972)" fill="#004776"/>
        <path id="Trazado_1046317" data-name="Trazado 1046317" d="M786.786,1183.944H737.674a1.744,1.744,0,1,1,0-3.489h49.112a1.744,1.744,0,0,1,0,3.489Z" transform="translate(-483.921 -775.972)" fill="#004776"/>
        <path id="Trazado_1046318" data-name="Trazado 1046318" d="M617.957,1183.944H590.55a1.744,1.744,0,0,1,0-3.489h27.408a1.744,1.744,0,1,1,0,3.489Z" transform="translate(-369.525 -775.972)" fill="#004776"/>
        <path id="Trazado_1046319" data-name="Trazado 1046319" d="M1013.075,1183.944H985.668a1.744,1.744,0,0,1,0-3.489h27.408a1.744,1.744,0,1,1,0,3.489Z" transform="translate(-676.751 -775.972)" fill="#004776"/>
        <path id="Trazado_1046320" data-name="Trazado 1046320" d="M565.982,1147.689H516.87a1.744,1.744,0,1,1,0-3.488h49.112a1.744,1.744,0,0,1,0,3.488Z" transform="translate(-312.234 -747.783)" fill="#004776"/>
        <path id="Trazado_1046321" data-name="Trazado 1046321" d="M831.1,1147.689H781.99a1.744,1.744,0,1,1,0-3.488H831.1a1.744,1.744,0,0,1,0,3.488Z" transform="translate(-518.379 -747.783)" fill="#004776"/>
        <path id="Trazado_1046322" data-name="Trazado 1046322" d="M1051.331,1147.437h-27.407a1.744,1.744,0,0,1,0-3.489h27.407a1.744,1.744,0,1,1,0,3.489Z" transform="translate(-706.498 -747.586)" fill="#91b508"/>
        <path id="Trazado_1046323" data-name="Trazado 1046323" d="M391.278,1109.181H342.166a1.744,1.744,0,1,1,0-3.489h49.112a1.744,1.744,0,0,1,0,3.489Z" transform="translate(-176.392 -717.839)" fill="#004776"/>
        <path id="Trazado_1046324" data-name="Trazado 1046324" d="M786.786,1109.181H737.674a1.744,1.744,0,1,1,0-3.489h49.112a1.744,1.744,0,0,1,0,3.489Z" transform="translate(-483.921 -717.839)" fill="#004776"/>
        <path id="Trazado_1046325" data-name="Trazado 1046325" d="M617.957,1109.181H590.55a1.744,1.744,0,0,1,0-3.489h27.408a1.744,1.744,0,1,1,0,3.489Z" transform="translate(-369.525 -717.839)" fill="#91b508"/>
        <path id="Trazado_1046326" data-name="Trazado 1046326" d="M1013.075,1109.181H985.668a1.744,1.744,0,0,1,0-3.489h27.408a1.744,1.744,0,1,1,0,3.489Z" transform="translate(-676.751 -717.839)" fill="#91b508"/>
        <path id="Trazado_1046327" data-name="Trazado 1046327" d="M1168.706,1109.181H1141.3a1.744,1.744,0,1,1,0-3.489h27.408a1.744,1.744,0,1,1,0,3.489Z" transform="translate(-797.762 -717.839)" fill="#91b508"/>
        <path id="Trazado_1046328" data-name="Trazado 1046328" d="M1043.729,1218.764h49.112a1.744,1.744,0,1,1,0,3.488h-49.112a1.744,1.744,0,0,1,0-3.488Z" transform="translate(-721.897 -805.76)" fill="#004776"/>
        <path id="Trazado_1046329" data-name="Trazado 1046329" d="M648.221,1218.764h49.112a1.744,1.744,0,0,1,0,3.488H648.221a1.744,1.744,0,0,1,0-3.488Z" transform="translate(-414.367 -805.76)" fill="#004776"/>
        <path id="Trazado_1046330" data-name="Trazado 1046330" d="M892.919,1218.764h27.407a1.744,1.744,0,0,1,0,3.488H892.919a1.744,1.744,0,1,1,0-3.488Z" transform="translate(-604.633 -805.76)" fill="#004776"/>
        <path id="Trazado_1046331" data-name="Trazado 1046331" d="M497.8,1218.764h27.408a1.744,1.744,0,0,1,0,3.488H497.8a1.744,1.744,0,1,1,0-3.488Z" transform="translate(-297.407 -805.76)" fill="#004776"/>
        <path id="Trazado_1046332" data-name="Trazado 1046332" d="M869.025,1255.017h49.112a1.745,1.745,0,1,1,0,3.489H869.025a1.745,1.745,0,0,1,0-3.489Z" transform="translate(-586.055 -833.948)" fill="#004776"/>
        <path id="Trazado_1046333" data-name="Trazado 1046333" d="M603.9,1255.017h49.112a1.745,1.745,0,1,1,0,3.489H603.9a1.745,1.745,0,0,1,0-3.489Z" transform="translate(-379.908 -833.948)" fill="#004776"/>
        <path id="Trazado_1046334" data-name="Trazado 1046334" d="M459.545,1255.271h27.408a1.744,1.744,0,0,1,0,3.489H459.545a1.744,1.744,0,1,1,0-3.489Z" transform="translate(-267.66 -834.146)" fill="#91b508"/>
        <path id="Trazado_1046335" data-name="Trazado 1046335" d="M1043.729,1293.526h49.112a1.745,1.745,0,1,1,0,3.489h-49.112a1.745,1.745,0,0,1,0-3.489Z" transform="translate(-721.897 -863.891)" fill="#004776"/>
        <path id="Trazado_1046336" data-name="Trazado 1046336" d="M648.221,1293.526h49.112a1.745,1.745,0,0,1,0,3.489H648.221a1.745,1.745,0,0,1,0-3.489Z" transform="translate(-414.367 -863.891)" fill="#004776"/>
        <path id="Trazado_1046337" data-name="Trazado 1046337" d="M892.919,1293.526h27.407a1.745,1.745,0,0,1,0,3.489H892.919a1.745,1.745,0,1,1,0-3.489Z" transform="translate(-604.633 -863.891)" fill="#91b508"/>
        <path id="Trazado_1046338" data-name="Trazado 1046338" d="M497.8,1293.526h27.408a1.745,1.745,0,0,1,0,3.489H497.8a1.745,1.745,0,1,1,0-3.489Z" transform="translate(-297.407 -863.891)" fill="#91b508"/>
        <path id="Trazado_1046339" data-name="Trazado 1046339" d="M342.166,1293.526h27.407a1.745,1.745,0,0,1,0,3.489H342.166a1.745,1.745,0,1,1,0-3.489Z" transform="translate(-176.392 -863.891)" fill="#91b508"/>
        <path id="Trazado_1046340" data-name="Trazado 1046340" d="M670.255,715.107H621.143a1.745,1.745,0,1,1,0-3.49h49.112a1.745,1.745,0,0,1,0,3.49Z" transform="translate(-393.312 -411.424)" fill="#004776"/>
        <path id="Trazado_1046341" data-name="Trazado 1046341" d="M501.426,715.107H474.019a1.745,1.745,0,0,1,0-3.49h27.408a1.745,1.745,0,1,1,0,3.49Z" transform="translate(-278.916 -411.424)" fill="#004776"/>
        <path id="Trazado_1046342" data-name="Trazado 1046342" d="M896.54,715.107H869.133a1.745,1.745,0,0,1,0-3.49H896.54a1.745,1.745,0,0,1,0,3.49Z" transform="translate(-586.138 -411.424)" fill="#004776"/>
        <path id="Trazado_1046343" data-name="Trazado 1046343" d="M449.451,678.858H400.34a1.744,1.744,0,1,1,0-3.489h49.111a1.744,1.744,0,1,1,0,3.489Z" transform="translate(-221.625 -383.239)" fill="#004776"/>
        <path id="Trazado_1046344" data-name="Trazado 1046344" d="M714.572,678.858H665.46a1.744,1.744,0,1,1,0-3.489h49.112a1.744,1.744,0,0,1,0,3.489Z" transform="translate(-427.771 -383.239)" fill="#004776"/>
        <path id="Trazado_1046345" data-name="Trazado 1046345" d="M934.8,678.6H907.393a1.744,1.744,0,0,1,0-3.489H934.8a1.744,1.744,0,1,1,0,3.489Z" transform="translate(-615.888 -383.042)" fill="#91b508"/>
        <path id="Trazado_1046346" data-name="Trazado 1046346" d="M670.255,640.345H621.143a1.745,1.745,0,1,1,0-3.49h49.112a1.745,1.745,0,0,1,0,3.49Z" transform="translate(-393.312 -353.293)" fill="#004776"/>
        <path id="Trazado_1046347" data-name="Trazado 1046347" d="M501.426,640.345H474.019a1.745,1.745,0,0,1,0-3.49h27.408a1.745,1.745,0,1,1,0,3.49Z" transform="translate(-278.916 -353.293)" fill="#91b508"/>
        <path id="Trazado_1046348" data-name="Trazado 1046348" d="M896.54,640.345H869.133a1.745,1.745,0,0,1,0-3.49H896.54a1.745,1.745,0,0,1,0,3.49Z" transform="translate(-586.138 -353.293)" fill="#91b508"/>
        <path id="Trazado_1046349" data-name="Trazado 1046349" d="M1052.175,640.345h-27.407a1.745,1.745,0,1,1,0-3.49h27.407a1.745,1.745,0,0,1,0,3.49Z" transform="translate(-707.152 -353.293)" fill="#91b508"/>
        <path id="Trazado_1046350" data-name="Trazado 1046350" d="M927.194,749.927h49.112a1.744,1.744,0,0,1,0,3.489H927.194a1.744,1.744,0,1,1,0-3.489Z" transform="translate(-631.284 -441.212)" fill="#004776"/>
        <path id="Trazado_1046351" data-name="Trazado 1046351" d="M531.686,749.927H580.8a1.744,1.744,0,0,1,0,3.489H531.686a1.744,1.744,0,1,1,0-3.489Z" transform="translate(-323.754 -441.212)" fill="#004776"/>
        <path id="Trazado_1046352" data-name="Trazado 1046352" d="M776.388,749.927H803.8a1.744,1.744,0,0,1,0,3.489H776.388a1.744,1.744,0,1,1,0-3.489Z" transform="translate(-514.024 -441.212)" fill="#004776"/>
        <path id="Trazado_1046353" data-name="Trazado 1046353" d="M381.27,749.927h27.408a1.744,1.744,0,0,1,0,3.489H381.27a1.744,1.744,0,1,1,0-3.489Z" transform="translate(-206.797 -441.212)" fill="#004776"/>
        <path id="Trazado_1046354" data-name="Trazado 1046354" d="M752.494,786.18h49.112a1.744,1.744,0,1,1,0,3.489H752.494a1.744,1.744,0,0,1,0-3.489Z" transform="translate(-495.446 -469.401)" fill="#004776"/>
        <path id="Trazado_1046355" data-name="Trazado 1046355" d="M487.374,786.18h49.112a1.744,1.744,0,0,1,0,3.489H487.374a1.744,1.744,0,0,1,0-3.489Z" transform="translate(-289.3 -469.401)" fill="#004776"/>
        <path id="Trazado_1046356" data-name="Trazado 1046356" d="M343.014,786.433H370.42a1.744,1.744,0,1,1,0,3.489H343.014a1.744,1.744,0,1,1,0-3.489Z" transform="translate(-177.051 -469.598)" fill="#91b508"/>
        <path id="Trazado_1046357" data-name="Trazado 1046357" d="M927.194,824.689h49.112a1.744,1.744,0,0,1,0,3.489H927.194a1.744,1.744,0,1,1,0-3.489Z" transform="translate(-631.284 -499.344)" fill="#004776"/>
        <path id="Trazado_1046358" data-name="Trazado 1046358" d="M531.686,824.689H580.8a1.744,1.744,0,0,1,0,3.489H531.686a1.744,1.744,0,1,1,0-3.489Z" transform="translate(-323.754 -499.344)" fill="#004776"/>
        <path id="Trazado_1046359" data-name="Trazado 1046359" d="M776.388,824.689H803.8a1.744,1.744,0,0,1,0,3.489H776.388a1.744,1.744,0,1,1,0-3.489Z" transform="translate(-514.024 -499.344)" fill="#91b508"/>
        <path id="Trazado_1046360" data-name="Trazado 1046360" d="M381.27,824.689h27.408a1.744,1.744,0,0,1,0,3.489H381.27a1.744,1.744,0,1,1,0-3.489Z" transform="translate(-206.797 -499.344)" fill="#91b508"/>
        <path id="Trazado_1046361" data-name="Trazado 1046361" d="M649.065,984.348h49.112a1.744,1.744,0,0,1,0,3.489H649.065a1.744,1.744,0,1,1,0-3.489Z" transform="translate(-415.023 -623.488)" fill="#004776"/>
        <path id="Trazado_1046362" data-name="Trazado 1046362" d="M893.765,984.348h27.408a1.744,1.744,0,1,1,0,3.489H893.765a1.744,1.744,0,0,1,0-3.489Z" transform="translate(-605.292 -623.488)" fill="#004776"/>
        <path id="Trazado_1046363" data-name="Trazado 1046363" d="M498.647,984.348h27.407a1.744,1.744,0,1,1,0,3.489H498.647a1.744,1.744,0,0,1,0-3.489Z" transform="translate(-298.065 -623.488)" fill="#004776"/>
        <path id="Trazado_1046364" data-name="Trazado 1046364" d="M869.869,1020.6h49.112a1.745,1.745,0,0,1,0,3.49H869.869a1.745,1.745,0,0,1,0-3.49Z" transform="translate(-586.711 -651.673)" fill="#004776"/>
        <path id="Trazado_1046365" data-name="Trazado 1046365" d="M604.748,1020.6H653.86a1.745,1.745,0,0,1,0,3.49H604.748a1.745,1.745,0,1,1,0-3.49Z" transform="translate(-380.564 -651.673)" fill="#004776"/>
        <path id="Trazado_1046366" data-name="Trazado 1046366" d="M460.392,1020.85H487.8a1.744,1.744,0,1,1,0,3.489H460.392a1.744,1.744,0,0,1,0-3.489Z" transform="translate(-268.32 -651.87)" fill="#91b508"/>
        <path id="Trazado_1046367" data-name="Trazado 1046367" d="M649.065,1059.11h49.112a1.744,1.744,0,0,1,0,3.489H649.065a1.744,1.744,0,1,1,0-3.489Z" transform="translate(-415.023 -681.619)" fill="#004776"/>
        <path id="Trazado_1046368" data-name="Trazado 1046368" d="M893.765,1059.11h27.408a1.744,1.744,0,1,1,0,3.489H893.765a1.744,1.744,0,0,1,0-3.489Z" transform="translate(-605.292 -681.619)" fill="#91b508"/>
        <path id="Trazado_1046369" data-name="Trazado 1046369" d="M498.647,1059.11h27.407a1.744,1.744,0,1,1,0,3.489H498.647a1.744,1.744,0,0,1,0-3.489Z" transform="translate(-298.065 -681.619)" fill="#91b508"/>
        <path id="Trazado_1046370" data-name="Trazado 1046370" d="M343.014,1059.11H370.42a1.744,1.744,0,1,1,0,3.489H343.014a1.744,1.744,0,1,1,0-3.489Z" transform="translate(-177.051 -681.619)" fill="#91b508"/>
        <path id="Trazado_1046371" data-name="Trazado 1046371" d="M392.125,949.527H343.014a1.744,1.744,0,1,1,0-3.489h49.111a1.744,1.744,0,1,1,0,3.489Z" transform="translate(-177.051 -593.7)" fill="#004776"/>
        <path id="Trazado_1046372" data-name="Trazado 1046372" d="M787.633,949.527H738.522a1.744,1.744,0,1,1,0-3.489h49.111a1.744,1.744,0,1,1,0,3.489Z" transform="translate(-484.581 -593.7)" fill="#004776"/>
        <path id="Trazado_1046373" data-name="Trazado 1046373" d="M618.8,949.527H591.394a1.744,1.744,0,1,1,0-3.489H618.8a1.744,1.744,0,0,1,0,3.489Z" transform="translate(-370.18 -593.7)" fill="#004776"/>
        <path id="Trazado_1046374" data-name="Trazado 1046374" d="M1013.919,949.527H986.512a1.744,1.744,0,1,1,0-3.489h27.407a1.744,1.744,0,0,1,0,3.489Z" transform="translate(-677.407 -593.7)" fill="#004776"/>
        <path id="Trazado_1046375" data-name="Trazado 1046375" d="M566.829,913.274H517.717a1.744,1.744,0,0,1,0-3.489h49.112a1.744,1.744,0,1,1,0,3.489Z" transform="translate(-312.893 -565.511)" fill="#004776"/>
        <path id="Trazado_1046376" data-name="Trazado 1046376" d="M831.949,913.274H782.837a1.744,1.744,0,0,1,0-3.489h49.112a1.744,1.744,0,1,1,0,3.489Z" transform="translate(-519.039 -565.511)" fill="#004776"/>
        <path id="Trazado_1046377" data-name="Trazado 1046377" d="M1052.175,913.021h-27.407a1.744,1.744,0,1,1,0-3.489h27.407a1.744,1.744,0,0,1,0,3.489Z" transform="translate(-707.152 -565.314)" fill="#91b508"/>
        <path id="Trazado_1046378" data-name="Trazado 1046378" d="M392.125,874.765H343.014a1.744,1.744,0,1,1,0-3.489h49.111a1.744,1.744,0,1,1,0,3.489Z" transform="translate(-177.051 -535.568)" fill="#004776"/>
        <path id="Trazado_1046379" data-name="Trazado 1046379" d="M787.633,874.765H738.522a1.744,1.744,0,1,1,0-3.489h49.111a1.744,1.744,0,1,1,0,3.489Z" transform="translate(-484.581 -535.568)" fill="#004776"/>
        <path id="Trazado_1046380" data-name="Trazado 1046380" d="M618.8,874.765H591.394a1.744,1.744,0,1,1,0-3.489H618.8a1.744,1.744,0,0,1,0,3.489Z" transform="translate(-370.18 -535.568)" fill="#91b508"/>
        <path id="Trazado_1046381" data-name="Trazado 1046381" d="M1013.919,874.765H986.512a1.744,1.744,0,1,1,0-3.489h27.407a1.744,1.744,0,0,1,0,3.489Z" transform="translate(-677.407 -535.568)" fill="#91b508"/>
        <path id="Trazado_1046382" data-name="Trazado 1046382" d="M974.558,1317.9H922.193a4.108,4.108,0,0,1-4.1-4.1v-22.341a4.108,4.108,0,0,1,4.1-4.1h52.365a4.109,4.109,0,0,1,4.1,4.1v22.341A4.108,4.108,0,0,1,974.558,1317.9Z" transform="translate(-625.567 -859.103)" fill="#009dcf"/>
        <path id="Trazado_1046383" data-name="Trazado 1046383" d="M986.175,1334.668h7.957v-1.549H988.02v-12.753h-1.846Zm-4.644,0h1.8l-.891-14.3h-2.355l-2.547,6.918c-.636,1.8-1.146,3.374-1.506,4.816h-.063c-.361-1.485-.848-3.055-1.444-4.816l-2.439-6.918h-2.355l-1,14.3H970.5l.382-6.132c.127-2.143.233-4.541.275-6.323h.043c.4,1.7.975,3.543,1.655,5.558l2.313,6.812h1.4l2.525-6.938c.721-1.974,1.316-3.757,1.8-5.432h.064c-.022,1.782.105,4.18.211,6.174Zm-20.241,0h1.868v-12.731h4.371v-1.571H956.94v1.571h4.35Zm-16.548-14.3v14.3h1.846v-6.705h6.918v6.705h1.867v-14.3h-1.867v5.984h-6.918v-5.984Z" transform="translate(-646.285 -884.76)" fill="#fff"/>
        <rect id="Rectángulo_406586" data-name="Rectángulo 406586" width="60.558" height="30.532" rx="15.266" transform="translate(193.976 251.315)" fill="#009dcf"/>
        <path id="Trazado_1046384" data-name="Trazado 1046384" d="M552.881,520.123a10.233,10.233,0,0,1,2.3-.2c2.694,0,4.462,1.206,4.462,3.7,0,2.61-1.8,4.041-4.743,4.041a8.15,8.15,0,0,1-2.02-.2Zm-2.44,16.92h2.44v-7.576a8.444,8.444,0,0,0,1.965.168,7.835,7.835,0,0,0,5.78-2.077,5.568,5.568,0,0,0,1.459-4.04,5.084,5.084,0,0,0-1.655-3.957,7.772,7.772,0,0,0-5.3-1.572,28.3,28.3,0,0,0-4.685.365Zm-18.3-18.912v18.912h2.441v-8.866h9.148v8.866H546.2V518.131h-2.469v7.912h-9.148v-7.912Zm-12.49,1.992a10.231,10.231,0,0,1,2.3-.2c2.694,0,4.462,1.206,4.462,3.7,0,2.61-1.8,4.041-4.743,4.041a8.146,8.146,0,0,1-2.02-.2Zm-2.441,16.92h2.441v-7.576a8.441,8.441,0,0,0,1.965.168,7.835,7.835,0,0,0,5.78-2.077,5.568,5.568,0,0,0,1.459-4.04,5.085,5.085,0,0,0-1.655-3.957,7.772,7.772,0,0,0-5.3-1.572,28.3,28.3,0,0,0-4.685.365Z" transform="translate(-313.856 -260.868)" fill="#fff"/>
        <path id="Trazado_1046385" data-name="Trazado 1046385" d="M885.284,1343.737c-1.945,6.7-1.942,13.841-.738,21.821.919,6.1,2.061,12.155,3.283,18.2.642,3.171.794,11.8,3.858,13.644,3.393,2.036,10.91-1.711,13.99-3.206a82.179,82.179,0,0,0,12.765-8.091,350.316,350.316,0,0,0,31.722-26.471c4.987-4.687,9.808-9.543,14.558-14.468,3.695-3.829,4.218-8.14,5.229-13.316a142,142,0,0,0,2.5-33.175c-.415-9.8-2.371-28.74-11.8-34.627-9.2-5.742-19.408,11.568-24.684,17.172q-22.041,23.415-42.743,48.046A39.258,39.258,0,0,0,885.284,1343.737Z" transform="translate(-598.836 -840.072)" fill="#fff6d3"/>
        <path id="Trazado_1046386" data-name="Trazado 1046386" d="M624.747,900.415c-.367-1.128-.76-2.248-1.185-3.35a4.607,4.607,0,0,0-.685-1.317,2.985,2.985,0,0,0-1.826-.942,5.58,5.58,0,0,0-3.6.572,2.518,2.518,0,0,0-.876.708,3.246,3.246,0,0,0-.48,1.321,18.122,18.122,0,0,0,.163,5.911c.488,3.192,1.389,6.211,2.13,9.325q2.24,9.419,5.168,18.648c1.836,5.786,3.122,11.666,4.662,17.537a45.288,45.288,0,0,0,2.365,7.3,7.421,7.421,0,0,0,2.032,2.893,3.961,3.961,0,0,0,4.928-.215c5.656-4.708-.2-14.652-2.054-20.436q-4.869-15.2-8.711-30.725C626.182,905.228,625.522,902.8,624.747,900.415Z" transform="translate(-390.607 -553.799)" fill="#f08162"/>
        <path id="Trazado_1046387" data-name="Trazado 1046387" d="M597.487,1087.807c-2.188.535-4.563,1.166-7,1.865a5.642,5.642,0,0,0-.309-1.993c-1.309-4.535-2.441-9.589-4.491-13.853-1.864-3.874-2.658-8.049-3.692-12.258-2.455-.758-5.012.632-7.172,2.024q-4.562,2.941-8.9,6.215a27.69,27.69,0,0,0-5.688,5.3,13.582,13.582,0,0,0-2.42,4.063c-.453,1.586.19,2.515.932,3.993a57.08,57.08,0,0,0,5.681,9.072,28.061,28.061,0,0,0,3.167,3.574,15.323,15.323,0,0,0,2.269,1.749,11.359,11.359,0,0,0,3.8,1.525c2.195,5.641,6.624,17.071,7.051,18.541.647,2.223.95,7.7,3.871,8.193,3.037.516,8.8-3.053,11.446-4.324q6.447-3.1,12.894-6.192A194.921,194.921,0,0,1,597.487,1087.807Z" transform="translate(-345.309 -683.364)" fill="#f08162"/>
        <path id="Trazado_1046388" data-name="Trazado 1046388" d="M633.654,1052.524l.238-.09c3.165-1.216,6.464-2.333,9.043-4.533,1.158-.987,2.415-2.268,3.916-2.018,2.1.35,4.473,4.094,5.918,5.568l7.249,7.395a5.309,5.309,0,0,1,1.684,5.628c-.414,3.881-.955,7.891-3.007,11.21-1.3,2.1-3.1,6.262-5.253,7.451-2.242,1.239-4.587.451-7.324-.276a8.2,8.2,0,0,1-5.577-5.979,11.6,11.6,0,0,1,1.308-8.278,20.135,20.135,0,0,1,5.765-6.263c-.053.039-2.923-5-3.49-5.073-.38-.052-2.081,1.34-2.575,1.544a16.541,16.541,0,0,1-3.071.865c-1.553.314-2.726,1.147-4.362.565a5.854,5.854,0,0,1-3.174-3.282C629.947,1054.624,631.724,1053.25,633.654,1052.524Z" transform="translate(-402.066 -671.31)" fill="#f08162"/>
        <path id="Trazado_1046389" data-name="Trazado 1046389" d="M592.939,1022.414c2.36.738,3.9,2.952,5.2,5.06a81.257,81.257,0,0,1,7.321,14.707,3.178,3.178,0,0,1,.272,1.349c-.091,1.019-1.078,1.7-2.01,2.125-1.893.868-4.217,1.276-6,.191a8.048,8.048,0,0,1-2.239-2.4c-3.133-4.489-6.679-9.373-8.688-14.492-.653-1.662-1-2.984.159-4.477A5.711,5.711,0,0,1,592.939,1022.414Z" transform="translate(-367.496 -652.92)" fill="#f08162"/>
        <path id="Trazado_1046390" data-name="Trazado 1046390" d="M561.026,1058.312c2.36.739,3.9,2.953,5.2,5.06a81.291,81.291,0,0,1,7.321,14.707,3.187,3.187,0,0,1,.272,1.349c-.091,1.02-1.078,1.7-2.009,2.126-1.893.867-4.217,1.276-6,.189a8.03,8.03,0,0,1-2.239-2.4c-3.133-4.488-6.679-9.371-8.689-14.491-.652-1.663-1-2.985.159-4.478A5.713,5.713,0,0,1,561.026,1058.312Z" transform="translate(-342.682 -680.833)" fill="#f08162"/>
        <path id="Trazado_1046391" data-name="Trazado 1046391" d="M533.753,1103.582c2.042.184,3.679,1.709,5.1,3.191a67.426,67.426,0,0,1,8.512,10.64,2.642,2.642,0,0,1,.457,1.046,2.482,2.482,0,0,1-1.257,2.075c-1.383,1.035-3.195,1.773-4.826,1.205a6.667,6.667,0,0,1-2.236-1.552c-3.327-3.09-7.057-6.427-9.583-10.225-.82-1.233-1.333-2.245-.656-3.658A4.739,4.739,0,0,1,533.753,1103.582Z" transform="translate(-322.984 -716.187)" fill="#f08162"/>
        <path id="Trazado_1046392" data-name="Trazado 1046392" d="M640.2,1046.188a30.271,30.271,0,0,1-10.479,6.072c-.931.308-3.195.59-3.7,1.592-.372.735.131,2.082.369,2.8,1,3.012,4.217,4.518,7.245,4.285a14.366,14.366,0,0,0,5.039-1.508c.229-.109,1.05-.72,1.316-.673.294.051.759.822.969,1.076a20.627,20.627,0,0,1,2.032,3.007l.852-1.109c-1.018-.27-2.625,1.274-3.378,1.8a11.987,11.987,0,0,0-4.117,4.54c-2.277,4.772-.511,10.552,2.591,14.5.6.763,1.661-.312,1.067-1.068-2.713-3.45-4.325-8.723-2.251-12.872a10.3,10.3,0,0,1,3.376-3.727q.77-.538,1.557-1.05c.2-.132.454-.255.646-.406.377-.3.659-.107.108-.254a.764.764,0,0,0,.853-1.109,21.419,21.419,0,0,0-2.894-4.039c-1.095-1.185-1.75-.778-3.045-.13-3.13,1.565-8.571,2.861-10.376-1.335a7.605,7.605,0,0,1-.4-1.354,2.312,2.312,0,0,1-.137-.7c-.026-.206-.024-.175.008.094a5.372,5.372,0,0,1,.786-.309c1.5-.517,3-.941,4.465-1.568a32.106,32.106,0,0,0,8.57-5.476C642,1046.61,640.925,1045.546,640.2,1046.188Z" transform="translate(-398.357 -671.417)" fill="#c74e53"/>
        <path id="Trazado_1046393" data-name="Trazado 1046393" d="M593.418,1065.077a57.679,57.679,0,0,0,4.857,7.707,25.815,25.815,0,0,0,5.653,6.1c2.012,1.371,4.933,1.913,6.991.326a3.964,3.964,0,0,0,.7-5.651c-.638-.735-1.7.337-1.067,1.068,1.39,1.6-.314,3.733-2.03,4-2.3.362-4.274-1.189-5.748-2.757a52.549,52.549,0,0,1-8.05-11.56C594.27,1063.456,592.966,1064.218,593.418,1065.077Z" transform="translate(-373.038 -685.373)" fill="#c74e53"/>
        <path id="Trazado_1046394" data-name="Trazado 1046394" d="M646.324,1055.8a24.956,24.956,0,0,0-1.82-2.939.815.815,0,0,0-.451-.347.773.773,0,0,0-.582.076.763.763,0,0,0-.27,1.033,24.987,24.987,0,0,1,1.819,2.938.761.761,0,0,0,1.033.271A.771.771,0,0,0,646.324,1055.8Z" transform="translate(-411.734 -676.473)" fill="#c74e53"/>
        <path id="Trazado_1046395" data-name="Trazado 1046395" d="M567.674,1113.532a70.825,70.825,0,0,0,5.178,6.844c1.735,2.018,3.806,3.983,6.547,4.4,2.344.353,5.076-.666,5.337-3.315a7.55,7.55,0,0,0-.792-3.608c-.6-1.432-1.268-2.835-1.984-4.213-.449-.862-1.751-.1-1.3.762q.875,1.679,1.64,3.41a8.977,8.977,0,0,1,.951,3.055c.138,2.7-3.155,2.784-4.982,2.04-2.068-.844-3.572-2.655-4.964-4.327a68.554,68.554,0,0,1-4.323-5.8C568.44,1111.966,567.132,1112.721,567.674,1113.532Z" transform="translate(-352.993 -723.076)" fill="#c74e53"/>
        <path id="Trazado_1046396" data-name="Trazado 1046396" d="M579.639,1162.515c.974,1.7-1.292,3.857-2.88,4.078a4.831,4.831,0,0,1-2.878-.959,17.22,17.22,0,0,1-2.715-1.928c-.73-.634-1.8.429-1.066,1.068a18.927,18.927,0,0,0,3.483,2.419,5.172,5.172,0,0,0,3.994.758c2.39-.719,4.789-3.711,3.364-6.2A.755.755,0,0,0,579.639,1162.515Z" transform="translate(-354.788 -761.144)" fill="#c74e53"/>
        <path id="Trazado_1046397" data-name="Trazado 1046397" d="M640.607,1159.433a3.363,3.363,0,0,1,1.246.149,11.16,11.16,0,0,1,1.366.375,5.117,5.117,0,0,1,2.107,1.332.755.755,0,1,0,1.067-1.068,6.675,6.675,0,0,0-2.772-1.72,11.47,11.47,0,0,0-1.493-.4,4.669,4.669,0,0,0-1.922-.123.755.755,0,1,0,.4,1.455Z" transform="translate(-409.062 -758.448)" fill="#c74e53"/>
        <path id="Trazado_1046398" data-name="Trazado 1046398" d="M641.727,1014.788a29.563,29.563,0,0,1,6.661-2.093.762.762,0,0,0,.528-.929.771.771,0,0,0-.929-.527,31.153,31.153,0,0,0-7.022,2.245.761.761,0,0,0-.27,1.033A.772.772,0,0,0,641.727,1014.788Z" transform="translate(-409.796 -644.385)" fill="#c74e53"/>
        <path id="Trazado_1046399" data-name="Trazado 1046399" d="M627.435,950.948l5.914-1.748a.755.755,0,0,0-.4-1.456l-5.914,1.748A.755.755,0,0,0,627.435,950.948Z" transform="translate(-398.838 -594.999)" fill="#c74e53"/>
        <path id="Trazado_1046400" data-name="Trazado 1046400" d="M709.908,1348.109a8.848,8.848,0,0,0-.543-6.424c-1.936-4.674-4.96-8.772-7.2-13.286q-5.265-10.6-10.614-21.156c-4.168-8.226-8.973-15.822-13.262-23.993-3.354-6.389-7.09-12.279-10.316-18.774q-5.22-10.5-10.662-20.9c-3.419-6.531-5.561-13.8-9.474-20.045a92.683,92.683,0,0,0-35.9,18.647c2.7,8.731,5.938,17.269,9.275,25.791q2.546,6.5,5.215,12.958,1.374,3.333,2.767,6.659c.775,1.853,2.319,4.207,2.6,6.184,9.529,22.543,17.76,47.625,31.43,67.961,6.753,10.057,15.082,9.844,25.712,4.547a66.732,66.732,0,0,0,15.326-11.175C706.868,1352.687,709.059,1350.643,709.908,1348.109Z" transform="translate(-387.508 -809.468)" fill="#fff6d3"/>
        <path id="Trazado_1046401" data-name="Trazado 1046401" d="M913.1,1542.693a218.961,218.961,0,0,0-5.959,36.865c-.139,1.835,2.72,1.825,2.858,0a214.411,214.411,0,0,1,5.856-36.106C916.3,1541.667,913.548,1540.906,913.1,1542.693Z" transform="translate(-617.045 -1056.84)" fill="#edc8be"/>
        <path id="Trazado_1046402" data-name="Trazado 1046402" d="M905.183,1537.792a51.714,51.714,0,0,0-5.482,12.815,1.43,1.43,0,0,0,2.756.76,48.794,48.794,0,0,1,5.193-12.133A1.43,1.43,0,0,0,905.183,1537.792Z" transform="translate(-611.218 -1053.29)" fill="#edc8be"/>
        <path id="Trazado_1046403" data-name="Trazado 1046403" d="M1161.429,1444.795a341.63,341.63,0,0,1-.018-57.95q.705-8.278,1.816-16.514c.243-1.818-2.618-1.8-2.858,0a341.629,341.629,0,0,0-2.813,57.881q.306,8.3,1.017,16.584C1158.726,1446.613,1161.585,1446.63,1161.429,1444.795Z" transform="translate(-811.582 -922.556)" fill="#edc8be"/>
        <path id="Trazado_1046404" data-name="Trazado 1046404" d="M1134.4,1547.481c-1.283,11.369,1.751,22.573,4.778,33.426a1.43,1.43,0,0,0,2.755-.76c-2.965-10.633-5.933-21.526-4.675-32.666C1137.459,1545.658,1134.6,1545.671,1134.4,1547.481Z" transform="translate(-793.516 -1060.296)" fill="#edc8be"/>
        <path id="Trazado_1046405" data-name="Trazado 1046405" d="M1405.621,1077.181a11.79,11.79,0,0,0-2.482-8.016,20.157,20.157,0,0,0-5.71-4.178,3.94,3.94,0,0,1-1.581-1.3,3.313,3.313,0,0,1-.283-1.747c.251-13.794-2.736-29.471-15.354-38.955-6.215-4.672-14.088-7.038-21.9-8.423a95.505,95.505,0,0,0-40.9,1.363c-10.881,2.891-22.164,7.571-27.707,16.884a6.029,6.029,0,0,1-1.7,2.119,8.753,8.753,0,0,1-3.232.9,15.416,15.416,0,0,0-9.2,5.935,30.342,30.342,0,0,0-4.57,9.653,80.053,80.053,0,0,0-2.839,12.722,4.356,4.356,0,0,0,.062,2.1,5.094,5.094,0,0,0,1.084,1.574q9.838,11.046,19.679,22.093c15.837,17.781,42.869,25.307,66.391,20.679a94.477,94.477,0,0,0,25.016-8.9c7.391-3.815,14.667-7.5,21.119-12.594a9.785,9.785,0,0,0,2.291-2.262,9.181,9.181,0,0,0,1.083-3.356A37.633,37.633,0,0,0,1405.621,1077.181Z" transform="translate(-897.68 -645.759)" fill="#fff6d3"/>
        <path id="Trazado_1046406" data-name="Trazado 1046406" d="M1366.113,1040.878c.3,7.506,2.1,14.762,6.619,21.008a28.1,28.1,0,0,0,19.5,11.319c-.481,1.9-2.288,3.119-3.956,4.153q-4.437,2.752-8.874,5.5a30.928,30.928,0,0,1-16.766,6.016c-8.1.952-15.319,2.03-23.49.994-17.326-2.2-32.083-13.184-45.954-23.8,2.364,1.808,11.246-2.717,13.343-3.944,3.964-2.316,7.381-4.458,10-8.347,2.941-4.372,5.923-8.828,7.44-13.874,1.362-4.532,8.68-6.041,12.615-8.033a198.6,198.6,0,0,0,17.649-10.1c0-2.33,13.666-7.863,15.453-8.781C1367.726,1021.689,1365.74,1031.48,1366.113,1040.878Z" transform="translate(-917.227 -645.759)" fill="#f08162"/>
        <path id="Trazado_1046407" data-name="Trazado 1046407" d="M1167.906,1256.177c0,39.143-.2,78.337-1.542,117.484H1311.78a367.2,367.2,0,0,1,.552-64.549c.981-10.572,2.391-21.1,3.346-31.674,0-7.587,1.269-15.33,1.642-22.925a296.047,296.047,0,0,0-1.015-46.979c-.469-4.245.049-9.724-1.955-13.628-1.914-3.726-7.127-5.774-10.569-7.738-2.375-1.355-5.026-2.174-7.394-3.619-5.3-3.974-11.58-6.781-16.362-11.484-2.216-2.18-5.276-10.453-8.141-11.217-2.8-.746-4.622,4.092-6.989,6.337-8.306,7.877-18.259,14.458-28.285,19.911-.692.377-1.464.8-2.289,1.236-3.778,1.992-8.69,4.218-12.493,3.245-4.323-1.108-5.9-6.049-7.593-9.752-.775-1.7-5.787-11.443-3.417-13.078-6.439,4.414-13.165,8.812-20.766,11.576-5.278,1.919-13.764.7-17.714,5.24-6.112,7.023-3.11,24.406-3.361,33.337Q1168.442,1237.039,1167.906,1256.177Z" transform="translate(-818.609 -759.888)" fill="#fff6d3"/>
        <path id="Trazado_1046408" data-name="Trazado 1046408" d="M1300.612,1202.7c-1.06,4.872,1.363,10.465,3.467,14.732,2.287,4.636,5.575,10.046,10.375,12.435,1.642.817,3.091-1.647,1.442-2.466-4.283-2.132-7.135-7-9.2-11.114a37.561,37.561,0,0,1-2.814-7.3,12.24,12.24,0,0,1-.514-5.528C1303.757,1201.667,1301,1200.9,1300.612,1202.7Z" transform="translate(-922.794 -792.471)" fill="#edc8be"/>
        <path id="Trazado_1046409" data-name="Trazado 1046409" d="M1624.217,1264.915a60.608,60.608,0,0,1-16.772,10.793,1.437,1.437,0,0,0-.513,1.955,1.466,1.466,0,0,0,1.955.513,62.832,62.832,0,0,0,17.35-11.241C1627.6,1265.694,1625.575,1263.678,1624.217,1264.915Z" transform="translate(-1161.032 -841.344)" fill="#edc8be"/>
        <path id="Trazado_1046410" data-name="Trazado 1046410" d="M1389.384,834.188c-.726.166-1.458.314-2.194.44a41.307,41.307,0,0,1-18.234-.971c-6.75-1.921-7.722-11.872-8.453-17.752a236.926,236.926,0,0,1-.491-54.184c.091-.88.194-1.772.32-2.657.063-.435.126-.869.2-1.3.588-3.475,1.617-6.854,3.881-9.488,4.04-4.71,10.87-5.767,17.072-5.739,8.928.045,22.7,1.1,30.048,6.751,6.926,5.338,10.419,16.4,11.516,24.639C1426.318,798.6,1415.9,828.1,1389.384,834.188Z" transform="translate(-968.155 -435.463)" fill="#f08162"/>
        <path id="Trazado_1046411" data-name="Trazado 1046411" d="M1375.694,913.73a1.474,1.474,0,0,0-.3-.651c-1.42-2.007-3.865-3.032-6.267-3.555a3.347,3.347,0,0,0-1.317-.094.574.574,0,0,0-.328.151c-.1.113-.488.3-.5.449a7,7,0,0,0,.779,3.144,4.567,4.567,0,0,0,.857,1.265,3.042,3.042,0,0,0,1.193.607,9.489,9.489,0,0,0,3.309.544C1374.149,915.591,1375.865,915.13,1375.694,913.73Z" transform="translate(-974.599 -565.209)" fill="#fff"/>
        <path id="Trazado_1046412" data-name="Trazado 1046412" d="M1370.425,910.915l.068-.114a5.4,5.4,0,0,0,.675-1.9l.045-.109.12-.015a4.578,4.578,0,0,1,3.133,2.365,5.866,5.866,0,0,0-2.333-3.047,9.745,9.745,0,0,0-3.967-1.88,4.1,4.1,0,0,0-2.421-.112.614.614,0,0,0-.415.539,3.854,3.854,0,0,0,.545,1.928,1.694,1.694,0,0,1,.162-1.04.46.46,0,0,1,.778.049,2.949,2.949,0,0,1,.029.837c.006.3.013.6.041.9a3.227,3.227,0,0,0,.577,1.68,1.693,1.693,0,0,0,2.961-.073Z" transform="translate(-973.317 -562.521)" fill="#10254a"/>
        <path id="Trazado_1046413" data-name="Trazado 1046413" d="M1373.063,915.749a1.613,1.613,0,0,0,.581.869,4.039,4.039,0,0,0,.472.274l.559.119a15.752,15.752,0,0,1,.135-2.511c.024-.176.051-.352.057-.53s.034-.311-.108-.4a3.659,3.659,0,0,0-.9-.355c-.165-.048-.339-.057-.5-.1-.109-.03-.266-.137-.36-.011l-.04.132A6.588,6.588,0,0,0,1373.063,915.749Z" transform="translate(-979.189 -568.044)" fill="#0068ae"/>
        <path id="Trazado_1046414" data-name="Trazado 1046414" d="M1465.979,926.487c1.12,1.286,4,1.834,5.416,2.06a14.614,14.614,0,0,0,6.754-.491,3.183,3.183,0,0,0,1.461-.814c1.611-1.819-3.2-3.964-4.415-4.532a16.9,16.9,0,0,0-5.565-1.543c-1.058-.1-3.808-.735-4.308.645A5.662,5.662,0,0,0,1465.979,926.487Z" transform="translate(-1050.884 -574.181)" fill="#fff"/>
        <path id="Trazado_1046415" data-name="Trazado 1046415" d="M1467.682,920.529a39.3,39.3,0,0,1,6.381,1.27,13.168,13.168,0,0,1,5.569,3.246,5.856,5.856,0,0,0-1.719-2.85,12.958,12.958,0,0,0-6.131-3.312,13.967,13.967,0,0,0-7.019-.031l-.157.077-.067.186q-.1.709-.163,1.425c.542.054,1.024-.166,1.564-.161A13.224,13.224,0,0,1,1467.682,920.529Z" transform="translate(-1050.33 -572.223)" fill="#10254a"/>
        <path id="Trazado_1046416" data-name="Trazado 1046416" d="M1473.468,926.01a2.571,2.571,0,0,0,1.736-.885,5.867,5.867,0,0,0,1.073-1.875c.309-.789,1.088-2.225.364-2.807a6.948,6.948,0,0,0-1.88-.556q-1.027-.315-2.047-.655c-1.451-.483-2.388-.766-2.73.954C1469.526,922.479,1470.431,926.208,1473.468,926.01Z" transform="translate(-1054.603 -572.569)" fill="#10254a"/>
        <path id="Trazado_1046417" data-name="Trazado 1046417" d="M1473.654,926.991a2.9,2.9,0,0,1-.153.709,11.162,11.162,0,0,0-.092,3.445c.015.115,0,.271-.11.293l-.1-.011a2.944,2.944,0,0,1-1.208-.71,3.753,3.753,0,0,1-.835-1.639,5.828,5.828,0,0,1-.288-1.41,7.971,7.971,0,0,1,.121-1.252l.042-.1.061-.005a13.724,13.724,0,0,1,1.456.229,4.346,4.346,0,0,1,.885.171A.326.326,0,0,1,1473.654,926.991Z" transform="translate(-1055.375 -578.365)" fill="#0068ae"/>
        <path id="Trazado_1046418" data-name="Trazado 1046418" d="M1462.263,910.853c5-.348,10.718.53,13.845,4.9.531.741,1.771.029,1.234-.721-3.439-4.809-9.506-6-15.079-5.611C1461.35,909.489,1461.343,910.917,1462.263,910.853Z" transform="translate(-1048.152 -565.178)" fill="#c74e53"/>
        <path id="Trazado_1046419" data-name="Trazado 1046419" d="M1373.238,901.344a10.338,10.338,0,0,0-3.724-4.324,9.511,9.511,0,0,0-5.623-2.02.715.715,0,0,0,0,1.428,8.177,8.177,0,0,1,4.781,1.738,8.768,8.768,0,0,1,3.187,3.557.74.74,0,0,0,.879.5A.721.721,0,0,0,1373.238,901.344Z" transform="translate(-971.66 -554.013)" fill="#c74e53"/>
        <path id="Trazado_1046420" data-name="Trazado 1046420" d="M1387.9,995.312c3.789,1.1,7.811,1.393,11.519-.179a26.121,26.121,0,0,0,9.2-7.226,46.265,46.265,0,0,0,7.575-11.828,82.323,82.323,0,0,0,2.971-8.465c.749-2.407.58-7.13,1.328-9.537-.184.614,1.281,2.278,1.587,2.735a18.024,18.024,0,0,1,2.268,4.166c1.216,3.418,3.647,6.68,3.074,10.5a14.047,14.047,0,0,1-2.088,4.9c-6.81,11.541-15.225,24.245-28.5,28.908-6.192,2.175-13.81,2.312-19.592-1.112-3.24-1.917-4.849-4.554-6.336-7.886a26.058,26.058,0,0,1-2.237-9.6c-.024-.629.336-2.373.052-2.875,1.1,1.941,2.823,5.352,5.336,5.728,2.319.347,3.612-2.23,3.838-4.166a13.3,13.3,0,0,0-.478-4.424.59.59,0,0,1,0-.4c.106-.2.392-.209.622-.185a33.242,33.242,0,0,1,5.266.58,27.218,27.218,0,0,0,3.1,1.117,20.265,20.265,0,0,0-2.754.514c-2.068.7-.019,6.254,1.123,7.283a6.587,6.587,0,0,0,2.49,1.253C1387.476,995.187,1387.687,995.25,1387.9,995.312Z" transform="translate(-975.911 -603.061)" fill="#10254a"/>
        <path id="Trazado_1046421" data-name="Trazado 1046421" d="M1394.449,713.856a20.019,20.019,0,0,1,.312-5.861c.594-2.382,1.838-4.8,1.159-7.164-.492-1.71-1.9-2.97-2.92-4.428-1.411-2.017-1.339-4.291-1.359-6.629a27.216,27.216,0,0,0-1.384-8.1,1.993,1.993,0,0,0-.611-1.047,2.035,2.035,0,0,0-1.057-.287c-9.245-.73-18.8.3-27.592-2.664a60.741,60.741,0,0,1-9.108-4.211,75.109,75.109,0,0,1-9.077,3.893,1,1,0,0,1-.578.082c-1.328-.34-3.056-4.135-3.661-5.266a29.7,29.7,0,0,1-3.48-13.514,28.605,28.605,0,0,1,.166-3.514c.054-.5.762-2.857.536-3.181,1.129,1.621,2.082,3.456,3.315,4.985.331.412.224-2.9.222-2.949a27.716,27.716,0,0,1,.141-4.605,28.756,28.756,0,0,1,2.451-8.851,12.687,12.687,0,0,0,4.218,4.562,54.432,54.432,0,0,0,6.184,3.98,17.439,17.439,0,0,0,5.565,1.792c.176-1.53.486-3.057.739-4.578.078-.471,1.032-3.961.681-4.277,8.462,7.625,19.886,8.991,30.036,13.113a77.8,77.8,0,0,1,28.814,20.3,5.25,5.25,0,0,1,1.421,2.357c.386,2-1.093,4.139-1.856,5.888q-1.564,3.585-3.127,7.169c-.775,1.776-1.562,3.758-.949,5.6.268.8.789,1.508,1,2.328a6.365,6.365,0,0,1-.726,4.009,86.606,86.606,0,0,1-5.343,10.413c-1.693,2.812-3.731,6.29-6.582,8.073C1396.916,724.452,1394.854,719.006,1394.449,713.856Z" transform="translate(-949.804 -356.16)" fill="#10254a"/>
        <path id="Trazado_1046422" data-name="Trazado 1046422" d="M1344.063,714.7c-2.571-2.812-4.24-6.931-5.227-10.6-.595-2.21.371-4.43-.132-6.5.943,3.89,4.223,6.7,7.322,9.234a29.284,29.284,0,0,1,1.308-14.619c.391,2.438,2.1,4.454,3.932,6.109,4.361,3.936,9.724,6.552,15.009,9.116a20.72,20.72,0,0,1-3.35-13.776c1.342,3.1,4.336,5.131,7.327,6.694,7.737,4.045,16.736,6.316,22.736,12.658a22.561,22.561,0,0,1,5.224,9.071,1.989,1.989,0,0,0-1.224-1.009c-5.71-2.4-12.143-1.992-18.321-2.453A63.483,63.483,0,0,1,1354,711.572a19.008,19.008,0,0,1-8.277,3.7,1.854,1.854,0,0,1-.9.005A1.879,1.879,0,0,1,1344.063,714.7Z" transform="translate(-952.559 -396.34)" fill="#174174"/>
        <path id="Trazado_1046423" data-name="Trazado 1046423" d="M1628.1,934.113a9.4,9.4,0,0,0-.386-2.446,6.294,6.294,0,0,0-4.589-4.489,6.621,6.621,0,0,0-4.872,1.313,19.6,19.6,0,0,0-5.544,6.572,23.985,23.985,0,0,0-3.324,12.073c.017,2.109.4,4.915,2.4,6.108,3.231,1.932,7.823-2.067,9.937-4.235a23.369,23.369,0,0,0,5.862-10.67A15.713,15.713,0,0,0,1628.1,934.113Z" transform="translate(-1163.083 -578.974)" fill="#f08162"/>
        <path id="Trazado_1046424" data-name="Trazado 1046424" d="M1624.145,967.456a7.9,7.9,0,0,0,3.406-3.451c.686-1.786-.22-3.423-1.316-4.8.062.231.122.463.184.695a46.215,46.215,0,0,1,2.94-5.831c.744-1.249,2.332-4.522,4.236-3.314.779.494,1.5-.741.722-1.233-2.267-1.438-4.258.768-5.389,2.527a48.18,48.18,0,0,0-3.888,7.471.716.716,0,0,0,.184.695c.845,1.066,1.55,2.337.817,3.657a7.387,7.387,0,0,1-2.618,2.354C1622.654,966.718,1623.369,967.956,1624.145,967.456Z" transform="translate(-1173.742 -596.045)" fill="#c74e53"/>
        <path id="Trazado_1046425" data-name="Trazado 1046425" d="M1639.463,985.245a20.6,20.6,0,0,1,5.209.231.737.737,0,0,0,.879-.5.722.722,0,0,0-.5-.879,22.066,22.066,0,0,0-5.59-.281.733.733,0,0,0-.714.714A.72.72,0,0,0,1639.463,985.245Z" transform="translate(-1185.914 -623.023)" fill="#c74e53"/>
        <path id="Trazado_1046426" data-name="Trazado 1046426" d="M1398.768,922.055c-.853,5.637-3.068,10.87-4.831,16.254-.618,1.888-2.11,4.844-.572,6.623a5.851,5.851,0,0,0,2.49,1.457c1.422.535,2.859,1.035,4.287,1.552.866.313,1.24-1.067.38-1.378l-3.43-1.241c-.936-.339-2.572-.7-2.925-1.79-.337-1.046.493-2.771.807-3.776.375-1.2.782-2.394,1.2-3.583,1.581-4.512,3.254-8.988,3.973-13.738C1400.282,921.535,1398.9,921.147,1398.768,922.055Z" transform="translate(-994.591 -574.649)" fill="#c74e53"/>
        <path id="Trazado_1046427" data-name="Trazado 1046427" d="M1473.8,857.979a34.531,34.531,0,0,1,5.635,2.595,24.42,24.42,0,0,0-13.713-9.355,11.828,11.828,0,0,0-6.362.046,6.363,6.363,0,0,0-3.017,1.993,5.354,5.354,0,0,0-.836,1.5,14.867,14.867,0,0,0-.346,1.634,28.875,28.875,0,0,1,5.591-.446,35.571,35.571,0,0,1,13.049,2.037Z" transform="translate(-1043.162 -519.65)" fill="#10254a"/>
        <path id="Trazado_1046428" data-name="Trazado 1046428" d="M1375.735,857.668a6.06,6.06,0,0,0-1.907-3.436c-1.369-1.268-3.994-.773-5.536-.114a7.178,7.178,0,0,0-3.691,3.632c.349-.779,3.635-.91,4.362-.921a9,9,0,0,1,3.069.514,14.182,14.182,0,0,1,2.88,1.111c.19.116.429.242.619.126a.5.5,0,0,0,.194-.373A2.528,2.528,0,0,0,1375.735,857.668Z" transform="translate(-972.748 -521.704)" fill="#10254a"/>
        <path id="Trazado_1046429" data-name="Trazado 1046429" d="M1386.5,1052.676c-.123,1.454,1.267,2.232,2.547,2.261,1.7.038,3.389-.183,5.1-.069a56.455,56.455,0,0,1,10.424,1.859.715.715,0,0,0,.379-1.379,66.265,66.265,0,0,0-8.629-1.7,35.065,35.065,0,0,0-4.3-.276c-.834,0-4.206.66-4.091-.691C1388.005,1051.76,1386.575,1051.765,1386.5,1052.676Z" transform="translate(-989.77 -676.084)" fill="#c74e53"/>
        <path id="Trazado_1046430" data-name="Trazado 1046430" d="M1828.434,1892.45q.956-8.551,1.565-17.135c1.089-15.423-.767-64.506-26.341-42.958-5.2,4.383-10.626,8.527-15.592,13.145-1.345,1.251-2.656,2.536-3.921,3.87-2.719,2.871-2.932,7.224-3.024,11.178q-.116,4.454-.263,8.908c-.257,7.668-.6,15.334-1.073,22.992Z" transform="translate(-1295.578 -1278.677)" fill="#fff6d3"/>
        <path id="Trazado_1046431" data-name="Trazado 1046431" d="M1778.466,1307.456c.315-3.573,1.042-9.412-1.105-10.151.016-.245.156-1.692.436-1.684,9.263.267,23.245,4.359,30.8,9.963,9.229,6.846,11.831,19.27,13.623,29.969a466.045,466.045,0,0,1,5.84,99.583c-.2,4.033-.165,11.355-3.993,13.959-3.342,2.274-8.906.308-12.491-.152q-10.263-1.319-20.414-3.356c-2.425-.487-7.985-.624-9.888-2.166-1.695-1.373-1.168-4.75-1.293-6.9-1.408-24.168-1.486-48.387-1.441-72.587.023-12.109.078-24.218.016-36.328q-.047-9.08-.2-18.159C1778.344,1308.955,1778.394,1308.263,1778.466,1307.456Z" transform="translate(-1293.692 -865.52)" fill="#fff6d3"/>
        <path id="Trazado_1046432" data-name="Trazado 1046432" d="M1755.175,1561.8a109.529,109.529,0,0,1,4.662,15.175c.412,1.791,3.168,1.034,2.756-.76a109.466,109.466,0,0,0-4.663-15.175,1.471,1.471,0,0,0-1.757-1A1.438,1.438,0,0,0,1755.175,1561.8Z" transform="translate(-1276.387 -1071.083)" fill="#edc8be"/>
        <path id="Trazado_1046433" data-name="Trazado 1046433" d="M1774.149,1696.11c.038,5.194-.255,10.386-.5,15.572-.258,5.391-.53,10.78-.866,16.167h2.86c.244-3.882.451-7.764.644-11.643.261-5.26.563-10.524.684-15.79.122-5.3-.131-10.562-.537-15.84-.813-10.582-1.429-21.161-1.571-31.776q-.241-18.084,1.023-36.143c.127-1.835-2.731-1.827-2.858,0a437.107,437.107,0,0,0,.2,63.515C1773.636,1685.479,1774.111,1690.785,1774.149,1696.11Z" transform="translate(-1289.502 -1114.076)" fill="#edc8be"/>
        <path id="Trazado_1046434" data-name="Trazado 1046434" d="M1724.453,1275.809a61.144,61.144,0,0,1,32.065,12.324c1.464,1.113,2.889-1.368,1.443-2.468a63.783,63.783,0,0,0-33.508-12.712C1722.62,1272.806,1722.629,1275.665,1724.453,1275.809Z" transform="translate(-1251.488 -847.89)" fill="#edc8be"/>
        <path id="Trazado_1046435" data-name="Trazado 1046435" d="M1766.43,1231.365c-6.028.5-12.339,1.191-17.047,5.391-1.375,1.227.651,3.243,2.02,2.022,4.075-3.637,9.832-4.124,15.026-4.555a1.467,1.467,0,0,0,1.43-1.429A1.44,1.44,0,0,0,1766.43,1231.365Z" transform="translate(-1271.582 -815.554)" fill="#edc8be"/>
        <path id="Trazado_1046436" data-name="Trazado 1046436" d="M1256.394,1898.932a118.782,118.782,0,0,0,18.432,15.835h4.98a118.627,118.627,0,0,1-33.993-33.678,115.736,115.736,0,0,1-12.388-24.44c-.625-1.715-3.387-.974-2.756.76A120.634,120.634,0,0,0,1256.394,1898.932Z" transform="translate(-868.536 -1300.994)" fill="#edc8be"/>
      </g>
    </g>
  </g>
</svg>
