<svg xmlns="http://www.w3.org/2000/svg" xmlns:xlink="http://www.w3.org/1999/xlink" width="187" height="190" viewBox="0 0 187 190">
  <defs>
    <filter id="Rect치ngulo_406180" x="0" y="0" width="187" height="190" filterUnits="userSpaceOnUse">
      <feOffset dy="3" input="SourceAlpha"/>
      <feGaussianBlur stdDeviation="3" result="blur"/>
      <feFlood flood-opacity="0.161"/>
      <feComposite operator="in" in2="blur"/>
      <feComposite in="SourceGraphic"/>
    </filter>
  </defs>
  <g id="Grupo_1179889" data-name="Grupo 1179889" transform="translate(-192.051 -3577)">
    <g transform="matrix(1, 0, 0, 1, 192.05, 3577)" filter="url(#Rect치ngulo_406180)">
      <g id="Rect치ngulo_406180-2" data-name="Rect치ngulo 406180" transform="translate(9 6)" fill="#1bebf5" stroke="#fff" stroke-width="4">
        <rect width="169" height="172" rx="15" stroke="none"/>
        <rect x="2" y="2" width="165" height="168" rx="13" fill="none"/>
      </g>
    </g>
    <g id="_40-Coding" data-name="40-Coding" transform="translate(223.051 3606)">
      <ellipse id="Elipse_11881" data-name="Elipse 11881" cx="6" cy="6.5" rx="6" ry="6.5" transform="translate(110 35)" fill="#73c6b2"/>
      <ellipse id="Elipse_11882" data-name="Elipse 11882" cx="5.5" cy="6" rx="5.5" ry="6" transform="translate(2 69)" fill="#ffc247"/>
      <path id="Trazado_1046439" data-name="Trazado 1046439" d="M91.526,1V44.3H40.359l-9.84,9.84V44.3H1V1Z" transform="translate(0.968 0.968)" fill="#f5f5fc"/>
      <path id="Trazado_1046440" data-name="Trazado 1046440" d="M109.462,34V81.231H70.1l-9.84,9.84v-9.84H15V34Z" transform="translate(14.519 32.911)" fill="#f5f5fc"/>
      <path id="Trazado_1046441" data-name="Trazado 1046441" d="M3.352,21.712c14.956,0,14.956-3.936,29.913-3.936s14.956,3.936,29.913,3.936c14.4,0,14.978-3.639,28.348-3.91V4.026c-13.37.272-13.947,3.91-28.339,3.91C48.231,7.936,48.231,4,33.263,4S18.306,7.936,3.35,7.936c-.838,0-1.6-.02-2.35-.043V21.668c.75.024,1.511.043,2.352.043Z" transform="translate(0.968 3.872)" fill="#dfe1ea"/>
      <path id="Trazado_1046442" data-name="Trazado 1046442" d="M33.263,6.9c14.968,0,14.968,3.936,29.925,3.936,14.392,0,14.968-3.639,28.339-3.91V1H1v9.8c.75.024,1.511.043,2.352.043C18.306,10.84,18.306,6.9,33.263,6.9Z" transform="translate(0.968 0.968)" fill="#adb2c7"/>
      <path id="Trazado_1046443" data-name="Trazado 1046443" d="M23.265,54.712c14.956,0,14.956-3.936,29.913-3.936s14.956,3.936,29.913,3.936c13.662,0,14.88-3.275,26.38-3.843V37.092c-11.511.569-12.729,3.843-26.38,3.843C68.135,40.936,68.135,37,53.178,37s-14.956,3.936-29.913,3.936A57.051,57.051,0,0,1,15,40.4V54.18a57.051,57.051,0,0,0,8.265.531Z" transform="translate(14.519 35.814)" fill="#dfe1ea"/>
      <path id="Trazado_1046444" data-name="Trazado 1046444" d="M53.167,39.9c14.956,0,14.956,3.936,29.913,3.936,13.662,0,14.88-3.275,26.38-3.843V34H15v9.308a57.051,57.051,0,0,0,8.265.531C38.21,43.84,38.21,39.9,53.167,39.9Z" transform="translate(14.519 32.911)" fill="#adb2c7"/>
      <path id="Trazado_1046445" data-name="Trazado 1046445" d="M17.808,16.808H9.936V5H6V32.551H9.936V20.744h7.872V32.551h3.936V5H17.808Z" transform="translate(5.808 4.84)"/>
      <path id="Trazado_1046446" data-name="Trazado 1046446" d="M21.9,32.551H25.84V8.936h5.9V5H16V8.936h5.9Z" transform="translate(15.487 4.84)"/>
      <path id="Trazado_1046447" data-name="Trazado 1046447" d="M29.936,17.823,32.028,23.4a1.968,1.968,0,0,0,3.688,0l2.092-5.581v14.73h3.936V6.97a1.968,1.968,0,0,0-3.812-.691l-4.06,10.83L29.812,6.285A1.968,1.968,0,0,0,26,6.97V32.553h3.936Z" transform="translate(25.167 4.838)"/>
      <path id="Trazado_1046448" data-name="Trazado 1046448" d="M41.905,32.551h7.872V28.615H41.905a1.8,1.8,0,0,1-1.968-1.968V5H36V26.648a5.739,5.739,0,0,0,5.9,5.9Z" transform="translate(34.845 4.84)"/>
      <path id="Trazado_1046449" data-name="Trazado 1046449" d="M1.968,47.231H29.519V55.1a1.968,1.968,0,0,0,3.359,1.391l9.263-9.263H92.494a1.968,1.968,0,0,0,1.968-1.968V1.968A1.968,1.968,0,0,0,92.494,0H1.968A1.968,1.968,0,0,0,0,1.968v43.3a1.968,1.968,0,0,0,1.968,1.968Zm1.968-43.3h86.59V43.3h-49.2a1.968,1.968,0,0,0-1.391.576l-6.481,6.481V45.263A1.968,1.968,0,0,0,31.487,43.3H3.936Z"/>
      <path id="Trazado_1046450" data-name="Trazado 1046450" d="M110.43,33H15.968A1.968,1.968,0,0,0,14,34.968V82.2a1.968,1.968,0,0,0,1.968,1.968h43.3v7.872a1.968,1.968,0,0,0,3.359,1.391l9.263-9.263H110.43A1.968,1.968,0,0,0,112.4,82.2V34.968A1.968,1.968,0,0,0,110.43,33Zm-1.968,47.231H71.071a1.968,1.968,0,0,0-1.391.576L63.2,87.288V82.2a1.968,1.968,0,0,0-1.968-1.968h-43.3v-43.3h90.526Z" transform="translate(13.551 31.943)"/>
      <path id="Trazado_1046451" data-name="Trazado 1046451" d="M55.84,68.487a5.9,5.9,0,0,1-5.9-5.9H46a9.84,9.84,0,1,0,9.84-9.84,5.9,5.9,0,1,1,5.9-5.9H65.68a9.84,9.84,0,1,0-9.84,9.84,5.9,5.9,0,1,1,0,11.808Z" transform="translate(44.526 35.814)"/>
      <path id="Trazado_1046452" data-name="Trazado 1046452" d="M43.84,68.487a5.9,5.9,0,0,1-5.9-5.9H34a9.84,9.84,0,1,0,9.84-9.84,5.9,5.9,0,1,1,5.9-5.9H53.68a9.84,9.84,0,1,0-9.84,9.84,5.9,5.9,0,1,1,0,11.808Z" transform="translate(32.911 35.814)"/>
      <path id="Trazado_1046453" data-name="Trazado 1046453" d="M31.84,72.423a9.852,9.852,0,0,0,9.84-9.84H37.744a5.9,5.9,0,0,1-11.808,0V46.84a5.9,5.9,0,1,1,11.808,0H41.68a9.84,9.84,0,0,0-19.68,0V62.583a9.852,9.852,0,0,0,9.84,9.84Z" transform="translate(21.295 35.814)"/>
      <path id="Trazado_1046454" data-name="Trazado 1046454" d="M92.846,20.843v2.247a7.834,7.834,0,0,0,0,15.185v.279a5.615,5.615,0,0,1-5.9,5.9H22v3.936H86.943a9.488,9.488,0,0,0,9.84-9.84v-.279a7.834,7.834,0,0,0,0-15.185V20.843A9.487,9.487,0,0,0,86.943,11H77.1v3.936h9.828a5.617,5.617,0,0,1,5.916,5.9Zm5.9,9.84a3.936,3.936,0,1,1-3.936-3.936A3.936,3.936,0,0,1,98.75,30.683Z" transform="translate(21.295 10.644)"/>
      <path id="Trazado_1046455" data-name="Trazado 1046455" d="M5.9,39.812v.279a7.834,7.834,0,0,0,0,15.185v.279A11.385,11.385,0,0,0,17.711,67.363h5.9V63.427h-5.9a7.577,7.577,0,0,1-7.872-7.872v-.279a7.834,7.834,0,0,0,0-15.185v-.279a7.577,7.577,0,0,1,7.872-7.872h5.9V28h-5.9A11.385,11.385,0,0,0,5.9,39.812Zm5.9,7.872a3.936,3.936,0,1,1-3.936-3.936A3.936,3.936,0,0,1,11.807,47.684Z" transform="translate(0.001 27.099)"/>
    </g>
  </g>
</svg>
