<svg xmlns="http://www.w3.org/2000/svg" xmlns:xlink="http://www.w3.org/1999/xlink" width="108.914" height="108.914" viewBox="0 0 108.914 108.914">
  <defs>
    <filter id="Trazado_874925" x="0" y="0" width="108.914" height="108.914" filterUnits="userSpaceOnUse">
      <feOffset dy="3" input="SourceAlpha"/>
      <feGaussianBlur stdDeviation="3" result="blur"/>
      <feFlood flood-opacity="0.161"/>
      <feComposite operator="in" in2="blur"/>
      <feComposite in="SourceGraphic"/>
    </filter>
  </defs>
  <g id="Grupo_1179863" data-name="Grupo 1179863" transform="translate(-273.051 -554)">
    <g id="Grupo_1111507" data-name="Grupo 1111507" transform="translate(-526.449 -1408.211)">
      <g id="Grupo_1111314" data-name="Grupo 1111314" transform="translate(0 16)">
        <g id="Grupo_1109835" data-name="Grupo 1109835">
          <g id="Grupo_1107913" data-name="Grupo 1107913" transform="translate(808.5 1952.211)">
            <g transform="matrix(1, 0, 0, 1, -9, -6)" filter="url(#Trazado_874925)">
              <g id="Trazado_874925-2" data-name="Trazado 874925" transform="translate(9 6)" fill="#1bebf5" opacity="0.859">
                <path d="M 45.45676803588867 89.41407012939453 C 39.52198028564453 89.41407012939453 33.76551818847656 88.25206756591797 28.34726715087891 85.96034240722656 C 23.11311721801758 83.74648284912109 18.41204261779785 80.57682800292969 14.37464332580566 76.5394287109375 C 10.33724308013916 72.50202941894531 7.167593002319336 67.80095672607422 4.953730583190918 62.56679534912109 C 2.662005424499512 57.14855575561523 1.500005483627319 51.39208221435547 1.500005483627319 45.45729446411133 C 1.500005483627319 39.52198028564453 2.662005424499512 33.76551818847656 4.953730583190918 28.34726905822754 C 7.167593002319336 23.11310577392578 10.33724308013916 18.41203117370605 14.37464332580566 14.37464332580566 C 18.41204261779785 10.33724403381348 23.11311721801758 7.167593955993652 28.34726715087891 4.953731060028076 C 33.76551818847656 2.662006139755249 39.52198028564453 1.500006198883057 45.45676803588867 1.500006198883057 C 51.39155578613281 1.500006198883057 57.14802932739258 2.662006139755249 62.56626892089844 4.953731060028076 C 67.80043029785156 7.167593955993652 72.50150299072266 10.33724403381348 76.53890228271484 14.37464332580566 C 80.57630920410156 18.41203117370605 83.74595642089844 23.11310577392578 85.95981597900391 28.34726905822754 C 88.25154113769531 33.76551818847656 89.41354370117188 39.52198028564453 89.41354370117188 45.45676803588867 C 89.41354370117188 51.39208221435547 88.25154113769531 57.14855575561523 85.95981597900391 62.56679534912109 C 83.74595642089844 67.80095672607422 80.57630920410156 72.50202941894531 76.53890228271484 76.5394287109375 C 72.50150299072266 80.57682800292969 67.80043029785156 83.74648284912109 62.56626892089844 85.96034240722656 C 57.14802932739258 88.25206756591797 51.39155578613281 89.41407012939453 45.45676803588867 89.41407012939453 Z" stroke="none"/>
                <path d="M 45.45676803588867 3 C 39.72381210327148 3 34.1639404296875 4.12213134765625 28.93159484863281 6.335227966308594 C 23.87622833251953 8.473472595214844 19.33542633056641 11.53517150878906 15.43529510498047 15.435302734375 C 11.53517150878906 19.33543395996094 8.473464965820312 23.87622833251953 6.335227966308594 28.93160247802734 C 4.122123718261719 34.16394424438477 3 39.72381591796875 3 45.4572868347168 C 3 51.19024658203125 4.122123718261719 56.75011825561523 6.335227966308594 61.98246002197266 C 8.473464965820312 67.03782653808594 11.53517150878906 71.57862854003906 15.43529510498047 75.478759765625 C 19.33542633056641 79.37889099121094 23.87622833251953 82.44058990478516 28.93159484863281 84.57883453369141 C 34.1639404296875 86.79193115234375 39.72381210327148 87.9140625 45.45676803588867 87.9140625 C 51.18972396850586 87.9140625 56.74959564208984 86.79193115234375 61.98194122314453 84.57883453369141 C 67.03730773925781 82.44058990478516 71.57810974121094 79.37889099121094 75.47824096679688 75.478759765625 C 79.37837219238281 71.57862854003906 82.44007110595703 67.03782653808594 84.57830810546875 61.98246002197266 C 86.79141235351562 56.75011825561523 87.91353607177734 51.19024658203125 87.91353607177734 45.4567756652832 C 87.91353607177734 39.72381591796875 86.79141235351562 34.16394424438477 84.57830810546875 28.93160247802734 C 82.44007110595703 23.87622833251953 79.37837219238281 19.33543395996094 75.47824096679688 15.435302734375 C 71.57810974121094 11.53517150878906 67.03730773925781 8.473472595214844 61.98194122314453 6.335227966308594 C 56.74959564208984 4.12213134765625 51.18972396850586 3 45.45676803588867 3 M 45.45676803588867 0 C 70.56185150146484 0 90.91353607177734 20.35169219970703 90.91353607177734 45.4567756652832 L 90.91353607177734 45.4572868347168 C 90.91353607177734 70.5623779296875 70.56185150146484 90.9140625 45.45676803588867 90.9140625 C 20.3516845703125 90.9140625 0 70.5623779296875 0 45.4572868347168 L 0 45.4567756652832 C 0 20.35169219970703 20.3516845703125 0 45.45676803588867 0 Z" stroke="none" fill="#fff"/>
              </g>
            </g>
            <g id="Trazado_874923" data-name="Trazado 874923" transform="translate(0 0)" fill="none">
              <path d="M45.457,0A45.457,45.457,0,0,1,90.914,45.457h0A45.457,45.457,0,0,1,0,45.457H0A45.457,45.457,0,0,1,45.457,0Z" stroke="none"/>
              <path d="M 45.45676803588867 3 C 39.72381210327148 3 34.1639404296875 4.12213134765625 28.93159484863281 6.335227966308594 C 23.87622833251953 8.473472595214844 19.33542633056641 11.53517150878906 15.43529510498047 15.435302734375 C 11.53517150878906 19.33543395996094 8.473464965820312 23.87622833251953 6.335227966308594 28.93160247802734 C 4.122123718261719 34.16394424438477 3 39.72381591796875 3 45.4572868347168 C 3 51.19024658203125 4.122123718261719 56.75011825561523 6.335227966308594 61.98246002197266 C 8.473464965820312 67.03782653808594 11.53517150878906 71.57862854003906 15.43529510498047 75.478759765625 C 19.33542633056641 79.37889099121094 23.87622833251953 82.44058990478516 28.93159484863281 84.57883453369141 C 34.1639404296875 86.79193115234375 39.72381210327148 87.9140625 45.45676803588867 87.9140625 C 51.18972396850586 87.9140625 56.74959564208984 86.79193115234375 61.98194122314453 84.57883453369141 C 67.03730773925781 82.44058990478516 71.57810974121094 79.37889099121094 75.47824096679688 75.478759765625 C 79.37837219238281 71.57862854003906 82.44007110595703 67.03782653808594 84.57830810546875 61.98246002197266 C 86.79141235351562 56.75011825561523 87.91353607177734 51.19024658203125 87.91353607177734 45.4567756652832 C 87.91353607177734 39.72381591796875 86.79141235351562 34.16394424438477 84.57830810546875 28.93160247802734 C 82.44007110595703 23.87622833251953 79.37837219238281 19.33543395996094 75.47824096679688 15.435302734375 C 71.57810974121094 11.53517150878906 67.03730773925781 8.473472595214844 61.98194122314453 6.335227966308594 C 56.74959564208984 4.12213134765625 51.18972396850586 3 45.45676803588867 3 M 45.45676803588867 0 C 70.56185150146484 0 90.91353607177734 20.35169219970703 90.91353607177734 45.4567756652832 L 90.91353607177734 45.4572868347168 C 90.91353607177734 70.5623779296875 70.56185150146484 90.9140625 45.45676803588867 90.9140625 C 20.3516845703125 90.9140625 0 70.5623779296875 0 45.4572868347168 L 0 45.4567756652832 C 0 20.35169219970703 20.3516845703125 0 45.45676803588867 0 Z" stroke="none" fill="#fff"/>
            </g>
          </g>
        </g>
      </g>
    </g>
    <g id="Grupo_1179862" data-name="Grupo 1179862" transform="translate(269.554 577)">
      <g id="Grupo_1179860" data-name="Grupo 1179860" transform="translate(34.331 0.834)">
        <g id="Grupo_1179859" data-name="Grupo 1179859" transform="translate(2.864)">
          <path id="Trazado_1046184" data-name="Trazado 1046184" d="M108.995,35.112c0,14.95-.651,27.165-.651,27.165s-1.609.078-4.305.168c-3.75.124-9.6.274-16.152.274-11.259,0-20.457-.442-20.457-.442s-.651-12.215-.651-27.165.651-27.165.651-27.165,9.2-.442,20.457-.442c4.293,0,4.93.064,7.883.143l.5.013a95.83,95.83,0,0,1,12.412,12.413c.158,4.885.311,7.773.311,15.038Z" transform="translate(-66.778 -7.504)" fill="#e1fff8"/>
          <path id="Trazado_1046185" data-name="Trazado 1046185" d="M340.963,36.258c0,14.95-.651,27.165-.651,27.165s-1.609.078-4.3.168c.977-26.928-.041-42.231-.041-42.231a116.881,116.881,0,0,0-8.228-12.566l.5.013A95.83,95.83,0,0,1,340.652,21.22C340.81,26.105,340.963,28.994,340.963,36.258Z" transform="translate(-298.746 -8.651)" fill="#c5deed"/>
          <path id="Trazado_1046186" data-name="Trazado 1046186" d="M343.39,21.327c-1.6.078-3.2.12-4.686.14-4.3.059-7.726-.068-7.726-.068-.291-5.057-.111-10.115-.032-11.853.019-.408.032-.632.032-.632A95.829,95.829,0,0,1,343.39,21.327Z" transform="translate(-301.484 -8.757)" fill="#97b3bf"/>
          <path id="Trazado_1046187" data-name="Trazado 1046187" d="M344.412,21.327c-1.6.078-3.2.12-4.686.14a111.9,111.9,0,0,0-7.758-11.921c.019-.408.032-.632.032-.632A95.829,95.829,0,0,1,344.412,21.327Z" transform="translate(-302.506 -8.757)" fill="#708ea0"/>
        </g>
        <path id="Trazado_1046188" data-name="Trazado 1046188" d="M88.775,298.522c0,5.025-.218,9.091-.218,9.091-.11.006-1.563.067-3.983.144-4.255.136-11.5.319-19.685.319-12.834,0-23.355-.45-23.668-.463,0,0-.218-4.066-.218-9.091s.211-9.091.211-9.091,10.645-.463,23.675-.463c8.189,0,15.436.183,19.69.319,2.515.081,3.985.144,3.985.144S88.775,293.5,88.775,298.522Z" transform="translate(-41.003 -257.698)" fill="#8ad2ff"/>
        <path id="Trazado_1046189" data-name="Trazado 1046189" d="M437.394,301.073c0,5.025-.218,9.091-.218,9.091-.11.006-1.563.067-3.983.144.067-1.529.2-5.086.2-9.235s-.13-7.706-.2-9.235c2.515.081,3.985.144,3.985.144S437.394,296.047,437.394,301.073Z" transform="translate(-389.622 -260.249)" fill="#77b4f2"/>
      </g>
      <g id="Grupo_1179861" data-name="Grupo 1179861" transform="translate(33.497 0)">
        <path id="Trazado_1046190" data-name="Trazado 1046190" d="M147.435,1.806c3.891-.092,7.723-.139,11.389-.139,3.232,0,4.4.037,6.022.089.441.014.923.029,1.491.045-.083,1.936-.24,6.854.041,11.723a.833.833,0,0,0,.8.785c.037,0,2.309.083,5.455.083,1.85,0,4-.028,6.182-.117.018.543.036,1.064.054,1.573.026.746.051,1.467.074,2.193a.833.833,0,0,0,.832.806h.027a.833.833,0,0,0,.806-.86c-.023-.728-.048-1.45-.074-2.2-.027-.766-.054-1.559-.082-2.413a.834.834,0,0,0-.185-.5A97.588,97.588,0,0,0,167.735.343a.834.834,0,0,0-.5-.186C166.273.133,165.543.11,164.9.089,163.264.037,162.082,0,158.824,0,155.145,0,151.3.047,147.4.14a.833.833,0,1,0,.04,1.666ZM177.9,12.639c-4.257.145-8.276.069-9.9.026-.191-3.941-.109-7.81-.033-9.942a97.334,97.334,0,0,1,9.936,9.916Z" transform="translate(-134.018 0)"/>
        <path id="Trazado_1046191" data-name="Trazado 1046191" d="M82.721,52.746c.029-.577.215-4.439.215-9.061,0-4.989-.21-9.093-.212-9.134a.833.833,0,0,0-.8-.789c-.025,0-.624-.027-1.693-.066.007-1.086.01-2.168.01-3.227,0-2.433-.018-4.56-.054-6.5A.833.833,0,1,0,78.524,24c.036,1.931.053,4.048.053,6.471,0,1.04,0,2.1-.01,3.169C74.4,33.5,66.794,33.3,58.216,33.3c-8.461,0-15.978.2-20.179.335-.006-1.064-.01-2.124-.01-3.163,0-12.665.474-23.48.612-26.367.821-.035,2.276-.093,4.19-.154a.833.833,0,1,0-.053-1.666c-3.058.1-4.953.188-4.972.189a.833.833,0,0,0-.792.788c-.007.122-.652,12.408-.652,27.21,0,1.058,0,2.138.01,3.221-1.176.042-1.839.071-1.865.072a.833.833,0,0,0-.8.789c0,.041-.212,4.145-.212,9.134,0,4.547.18,8.359.213,9.031,0,.014,0,.028,0,.042a.833.833,0,0,0,.8.851c.029,0,.864.037,2.328.088.1,2.5.179,3.967.179,3.983a.833.833,0,0,0,.792.788c.058,0,5.9.28,13.843.394h.012a.833.833,0,0,0,.012-1.666c-6.262-.09-11.212-.281-13.033-.359-.031-.651-.08-1.7-.136-3.084,4.277.136,11.557.32,19.713.32,8.267,0,15.633-.189,19.885-.326-.056,1.382-.1,2.438-.136,3.09-2.417.1-10.276.407-19.663.407q-1.115,0-2.2-.006h0a.833.833,0,0,0,0,1.666q1.089.005,2.209.006c11.126,0,20.12-.425,20.5-.443a.833.833,0,0,0,.792-.788c0-.016.079-1.489.18-3.989,1.357-.048,2.127-.081,2.155-.082a.831.831,0,0,0,.794-.851s0-.008,0-.012Zm-1.632-.772c-2.67.1-11.987.432-22.872.432s-20.2-.328-22.872-.432c-.061-1.4-.181-4.6-.181-8.289s.116-6.885.175-8.289c2.663-.1,11.985-.432,22.877-.432s20.215.329,22.877.432c.06,1.4.176,4.6.176,8.289S81.15,50.571,81.088,51.974Z" transform="translate(-33.497 -2.028)"/>
        <path id="Trazado_1046192" data-name="Trazado 1046192" d="M131.354,68.688H145a.833.833,0,0,0,0-1.666H131.354a.833.833,0,0,0,0,1.666Z" transform="translate(-119.742 -59.576)"/>
        <path id="Trazado_1046193" data-name="Trazado 1046193" d="M131.354,123.688h10.308a.833.833,0,0,0,0-1.666H131.354a.833.833,0,0,0,0,1.666Z" transform="translate(-119.742 -108.466)"/>
        <path id="Trazado_1046194" data-name="Trazado 1046194" d="M120.64,327.5a.833.833,0,0,0-.833.833v3.741h-3.42v-3.741a.833.833,0,0,0-1.666,0v9.149a.833.833,0,1,0,1.666,0v-3.741h3.42v3.741a.833.833,0,1,0,1.666,0v-9.149A.833.833,0,0,0,120.64,327.5Z" transform="translate(-105.696 -291.118)"/>
        <path id="Trazado_1046195" data-name="Trazado 1046195" d="M196.891,327.067h-5.555a.833.833,0,1,0,0,1.666h1.944V337.1a.833.833,0,1,0,1.666,0v-8.364h1.944a.833.833,0,1,0,0-1.666Z" transform="translate(-173.06 -290.731)"/>
        <path id="Trazado_1046196" data-name="Trazado 1046196" d="M276.708,327.087a.833.833,0,0,0-.936.447l-2.344,4.816-2.344-4.816a.833.833,0,0,0-1.582.365v9.2a.833.833,0,0,0,1.666,0v-5.581l1.511,3.1a.833.833,0,0,0,1.5,0l1.511-3.1V337.1a.833.833,0,0,0,1.666,0v-9.2A.833.833,0,0,0,276.708,327.087Z" transform="translate(-243.282 -290.73)"/>
        <path id="Trazado_1046197" data-name="Trazado 1046197" d="M361.444,336.65h-3.586v-8.315a.833.833,0,0,0-1.667,0v9.149a.833.833,0,0,0,.833.833h4.42a.833.833,0,1,0,0-1.666Z" transform="translate(-320.341 -291.117)"/>
      </g>
    </g>
  </g>
</svg>
