<svg xmlns="http://www.w3.org/2000/svg" xmlns:xlink="http://www.w3.org/1999/xlink" width="393" height="193" viewBox="0 0 393 193">
  <defs>
    <clipPath id="clip-path">
      <rect id="Rectángulo_406594" data-name="Rectángulo 406594" width="393" height="193" rx="8" transform="translate(580.051 6271)" fill="#6d787d"/>
    </clipPath>
  </defs>
  <g id="Enmascarar_grupo_1098913" data-name="Enmascarar grupo 1098913" transform="translate(-580.051 -6271)" clip-path="url(#clip-path)">
    <rect id="Rectángulo_406191" data-name="Rectángulo 406191" width="393" height="193" rx="8" transform="translate(580.051 6271)" fill="#6d787d"/>
    <g id="Grupo_1179909" data-name="Grupo 1179909" transform="translate(530.591 6178.852)">
      <path id="Trazado_1046615" data-name="Trazado 1046615" d="M323.444,126.938V253.592A15.614,15.614,0,0,1,307.832,269.2H85.072A15.614,15.614,0,0,1,69.46,253.592V126.938c0-.372.015-.737.046-1.1a15.61,15.61,0,0,1,15.566-14.517h222.76A15.61,15.61,0,0,1,323.4,125.836C323.428,126.2,323.444,126.566,323.444,126.938Z" fill="#fff" stroke="#263238" stroke-linecap="round" stroke-linejoin="round" stroke-width="1.103"/>
      <path id="Rectángulo_406588" data-name="Rectángulo 406588" d="M0,0H239.586a0,0,0,0,1,0,0V110.828a20.8,20.8,0,0,1-20.8,20.8H20.8A20.8,20.8,0,0,1,0,110.828V0A0,0,0,0,1,0,0Z" transform="translate(77.057 131.688)" fill="#263238"/>
      <path id="Trazado_1046616" data-name="Trazado 1046616" d="M319.85,140.275v117A14.551,14.551,0,0,1,305.382,271.9H94.728A14.551,14.551,0,0,1,80.26,257.277v-117Z" transform="translate(-3.203 -8.588)" fill="#fff" opacity="0.2"/>
      <path id="Trazado_1046617" data-name="Trazado 1046617" d="M323.417,125.836H69.526a15.61,15.61,0,0,1,15.566-14.517h222.76A15.61,15.61,0,0,1,323.417,125.836Z" transform="translate(-0.02)" fill="#108d93" stroke="#263238" stroke-miterlimit="10" stroke-width="1.103"/>
      <path id="Trazado_1046618" data-name="Trazado 1046618" d="M111.549,120.472a2.765,2.765,0,1,1-2.765-2.765A2.765,2.765,0,0,1,111.549,120.472Z" transform="translate(-10.843 -1.895)" fill="#263238"/>
      <path id="Trazado_1046619" data-name="Trazado 1046619" d="M128.172,120.472a2.765,2.765,0,1,1-2.766-2.765A2.766,2.766,0,0,1,128.172,120.472Z" transform="translate(-15.773 -1.895)" fill="#263238"/>
      <circle id="Elipse_11891" data-name="Elipse 11891" cx="2.765" cy="2.765" r="2.765" transform="translate(118.56 115.812)" fill="#263238"/>
      <path id="Trazado_1046620" data-name="Trazado 1046620" d="M319.847,140.282V257.276a14.635,14.635,0,0,1-14.634,14.634H94.891a14.63,14.63,0,0,1-14.347-11.795l-.008-.008v-.031a14.507,14.507,0,0,1-.272-2.8V140.282Z" transform="translate(-3.205 -8.59)" fill="none" stroke="#263238" stroke-miterlimit="10" stroke-width="1.103"/>
      <path id="Trazado_1046621" data-name="Trazado 1046621" d="M408.848,162.965a14.872,14.872,0,0,0-3.251-1.342l-1.311-5.874H398.7l-1.3,5.874a14.426,14.426,0,0,0-3.259,1.342l-5.043-3.228-3.95,3.95,3.174,5.043a14.363,14.363,0,0,0-1.342,3.259l-5.874,1.3v5.587l5.874,1.311a14.238,14.238,0,0,0,1.342,3.282l-3.228,5.074,3.95,3.95,5.074-3.228a14.419,14.419,0,0,0,3.259,1.351l1.3,5.866h5.587l1.311-5.866a14.865,14.865,0,0,0,3.251-1.351l.256.163V162.817Zm-7.34,20.368a7.216,7.216,0,1,1,7.216-7.216A7.212,7.212,0,0,1,401.508,183.334Z" transform="translate(-92.433 -13.178)" fill="#263238"/>
      <path id="Trazado_1046622" data-name="Trazado 1046622" d="M241.216,164.034V152.255l-12.384-2.747A32,32,0,0,0,226,142.634l1.5-2.359h-58.45l1.443,2.3a30.491,30.491,0,0,0-2.825,6.867l-12.383,2.755v11.778l12.383,2.762a30.9,30.9,0,0,0,2.825,6.921l-6.805,10.7,8.334,8.325,10.692-6.8a31.457,31.457,0,0,0,6.874,2.847l2.747,12.369h11.778l2.77-12.369a31.678,31.678,0,0,0,6.852-2.847l10.7,6.8,8.325-8.325L226,173.656a32.282,32.282,0,0,0,2.832-6.86Zm-42.909,9.327a15.216,15.216,0,1,1,15.216-15.216A15.216,15.216,0,0,1,198.307,173.361Z" transform="translate(-25.455 -8.588)" fill="#263238"/>
      <path id="Trazado_1046623" data-name="Trazado 1046623" d="M140.842,271.82l.5-9.343-9.683-2.731a26.242,26.242,0,0,0-1.986-5.555l5.85-8.217-6.269-6.96-8.768,4.958a25.959,25.959,0,0,0-5.338-2.553l-1.676-9.932-9.342-.5-2.7,9.715a24.429,24.429,0,0,0-5.556,1.971l-8.209-5.851-6.968,6.27,4.966,8.776A24.246,24.246,0,0,0,83.1,257.2l-2.832.466v12.656l2.056.582a24.475,24.475,0,0,0,1.986,5.571l-4.042,5.657.272,4.849v.031l.008.008,4.167,4.625,8.783-4.958a24.333,24.333,0,0,0,5.354,2.584l1.6,9.537v.008l.077.4,9.343.5.248-.892v-.008l2.451-8.815a25,25,0,0,0,5.587-1.971l8.193,5.843,6.968-6.262-4.95-8.783a24.28,24.28,0,0,0,2.529-5.323Zm-24.815-14.6a12.1,12.1,0,1,0-.9,17.079A12.1,12.1,0,0,0,116.027,257.224Z" transform="translate(-3.205 -35.494)" fill="#263238"/>
      <path id="Trazado_1046624" data-name="Trazado 1046624" d="M253.949,256.375a19.028,19.028,0,0,0,.567-4.424l6.716-3.531-1.856-6.815-7.581.355a18.851,18.851,0,0,0-2.724-3.52l2.246-7.252L245.2,227.68l-5.121,5.589a19.831,19.831,0,0,0-4.41-.561l-3.546-6.722-6.8,1.852.359,7.591a19.264,19.264,0,0,0-3.527,2.721l-7.255-2.239-3.511,6.112L217,247.13a18.428,18.428,0,0,0-.554,4.412l-6.729,3.543,1.856,6.815,7.591-.359a18.061,18.061,0,0,0,2.714,3.524l-2.257,7.215,6.122,3.507,5.095-5.541a18.558,18.558,0,0,0,4.42.557l3.536,6.727,6.8-1.851-.3-6.484-.051-1.111a18.709,18.709,0,0,0,3.561-2.725l7.25,2.254,3-5.236.511-.886Zm-16.089,4.139a9.115,9.115,0,1,1,6.4-11.19A9.114,9.114,0,0,1,237.86,260.514Z" transform="translate(-41.6 -34.01)" fill="#263238"/>
      <path id="Trazado_1046625" data-name="Trazado 1046625" d="M354.547,267.169l1.552-9.35-9.466-3.81a25.145,25.145,0,0,0-1.358-5.835l6.812-7.588-5.517-7.713-9.4,3.988a25,25,0,0,0-5.074-3.151l-.551-10.2-9.358-1.545-3.833,9.428a26.2,26.2,0,0,0-5.811,1.365l-7.612-6.812-7.705,5.517,4,9.389a25.538,25.538,0,0,0-2.847,4.423c-.108.217-.217.434-.318.651l-10.188.567-1.552,9.342,1.536.62,7.93,3.2a24.586,24.586,0,0,0,1.358,5.811l-6.812,7.612,5.517,7.705,9.4-4a24.368,24.368,0,0,0,5.067,3.173l.528,10.149,9.35,1.544,3.826-9.357a24.59,24.59,0,0,0,5.827-1.366l7.6,6.821,7.713-5.525-4-9.4a24.478,24.478,0,0,0,3.2-5.1Zm-26.234-.419a12.245,12.245,0,1,1,2.824-17.086A12.247,12.247,0,0,1,328.313,266.749Z" transform="translate(-64.321 -32.819)" fill="#263238"/>
    </g>
    <g id="Grupo_1179908" data-name="Grupo 1179908" transform="translate(361.638 6082.279)">
      <path id="Trazado_1046564" data-name="Trazado 1046564" d="M296.863,440.465s-29,8.318-33.049,9.752c-3.684,1.3-13.667,4.8-21.157,3.717a16.148,16.148,0,0,1-2.14-.463c-7.59-2.261-11-4.368-11.991-9.145s2.78-8.284,6.42-10.535,23.386-4.6,23.386-4.6l4.765,1.4h.011Z" fill="#108d93"/>
      <path id="Trazado_1046565" data-name="Trazado 1046565" d="M242.657,453.934a16.148,16.148,0,0,1-2.14-.463c-7.59-2.261-11-4.368-11.991-9.145s2.78-8.284,6.42-10.535,23.386-4.6,23.386-4.6l4.765,1.4c-4.313,1.985-20.4,3.088-23.9,5.107s-5.207,5.824-3.133,10.965C237.163,449.4,240.119,452.048,242.657,453.934Z" fill="#fff"/>
      <path id="Trazado_1046566" data-name="Trazado 1046566" d="M292.5,441.648s-21.78,5.643-30.416,9.255S236.97,456.1,231.1,448.646s-.677-13.858,5.192-15.281,17.737-3.681,24.218-2.778" fill="none" stroke="#263238" stroke-linecap="round" stroke-linejoin="round" stroke-width="1.103"/>
      <path id="Trazado_1046567" data-name="Trazado 1046567" d="M243.094,453.538s-11.082-6.076-7.4-14.593c2.715-6.285,17.5-4.922,24.819-8.358" fill="none" stroke="#263238" stroke-linecap="round" stroke-linejoin="round" stroke-width="1.103"/>
      <path id="Trazado_1046568" data-name="Trazado 1046568" d="M385.189,455.28c-.3,2.967-1.346,5.813-4.346,7.578-2,1.181-4.843,1.887-8.913,1.843-10.171-.133-29.288-7.4-29.288-7.4l-17.9-9.9,9.31-14.738,2.548-4.037,6.586,1.478s5.449,3.089,10.932,5.549,18.785,2.978,23.474,6.773S385.7,450.338,385.189,455.28Z" fill="#108d93"/>
      <path id="Trazado_1046569" data-name="Trazado 1046569" d="M385.189,455.28c-.3,2.967-1.346,5.813-4.346,7.578a13.407,13.407,0,0,0-.508-8.935c-1.985-4.49-8.505-8.449-17.065-9.111s-15.112-4.666-18.543-6.454c-2.68-1.39-8.328-4.423-10.678-5.692l2.548-4.037,6.586,1.478s5.449,3.089,10.932,5.549,18.785,2.978,23.474,6.773S385.7,450.338,385.189,455.28Z" fill="#fff"/>
      <path id="Trazado_1046570" data-name="Trazado 1046570" d="M328.706,450.178a113.014,113.014,0,0,0,41.9,14.315c3.256.392,7.046.446,9.228-2a6.822,6.822,0,0,0,1.5-5.115c-.395-4.6-4.258-8.24-8.5-10.062s-8.918-2.256-13.419-3.265a53.054,53.054,0,0,1-12.9-4.721c-3.235-1.689-6.368-3.739-9.938-4.495s-7.825.161-9.729,3.275" fill="none" stroke="#263238" stroke-linecap="round" stroke-linejoin="round" stroke-width="1.103"/>
      <path id="Trazado_1046571" data-name="Trazado 1046571" d="M378.643,463.739a11.923,11.923,0,0,0,6.549-8.46c.649-4.332-1.818-8.686-5.294-11.351s-7.82-3.916-12.109-4.808-8.675-1.491-12.756-3.084c-6.273-2.451-12.46-7.293-18.97-5.566" fill="none" stroke="#263238" stroke-linecap="round" stroke-linejoin="round" stroke-width="1.103"/>
      <path id="Trazado_1046572" data-name="Trazado 1046572" d="M348.908,295.264l-30.292-11.528-.375-.143s.111-.806.2-1.975c.187-2.416.287-6.354-.849-7.689-1.688-1.974-6.476-.319-11.142-2.46s-13.3,1.688-13.3,1.688-6.233-1.147-8.98,3.354c-1.4,3.629-.915,9.034-.915,9.034s-.2.077-.574.21c-3.607,1.346-23.242,8.736-27.4,11.7-4.589,3.254-9.663,36.623-11.3,46.418s-4.533,18.632-3.055,22.007,22.569,19.614,34.7,23.8,55.189,2.968,55.189,2.968.706-.188,1.952-.585c7.281-2.339,33.116-11.969,46.816-34.682C379.585,357.39,366.315,313.862,348.908,295.264Zm-81.84,56.125c-2.228,1.578-1.037,7.7-1.037,7.7l-3.794-3.342,9.52-23.408,4.059,17.969S269.3,349.823,267.068,351.389Zm76.159,14.87c-1.048.541,3.011-10.711,1.081-13.259s-7.711-2.3-7.711-2.3l.5-3.078c.067-.342,3.431-17.6,3.431-17.6l1.136-1.356s11.782,20.2,13.888,27.312C355.548,355.978,342.708,366.259,343.227,366.259Z" fill="#108d93"/>
      <path id="Trazado_1046573" data-name="Trazado 1046573" d="M291.715,222.254l-15.633,16.6s-2.157,1.9-1.3,6.72,2.852,8.952,4.36,9.273a21.427,21.427,0,0,0,3.62.324s3.35,7.26,5.723,10.114c0,0,.827,11.206.386,14.318,0,0,5.617,4.906,10.907,5.53s13.465-7.482,13.465-7.482l2.027-9.923s4.8-7.28,5.123-9.219,2.519-1.441,3.6-2.4,3.571-5.232,3.982-9.273.441-8.681-4.252-7.318c-4.067-1.093-1.521-9.69-1.521-9.69l-7.146-6.3Z" fill="#fff"/>
      <path id="Trazado_1046574" data-name="Trazado 1046574" d="M318.616,283.736a15.779,15.779,0,0,1-.8,1.809c-2.581,4.865-13.822,14.131-13.822,14.131l-3.4-10.447-1.865,10.447c-3.75-1.633-15.189-11.55-15.189-11.55s-.386-.926-.861-2.371c.375-.133.574-.21.574-.21s-.485-5.4.915-9.034c2.747-4.5,8.98-3.354,8.98-3.354s8.637-3.828,13.3-1.688,9.454.486,11.142,2.46.65,9.664.65,9.664Z" fill="#fff" opacity="0.5"/>
      <path id="Trazado_1046575" data-name="Trazado 1046575" d="M348.908,295.264l-30.292-11.528-.375-.143s.111-.806.2-1.975l-.629,3.927-4.478,6.089A122.734,122.734,0,0,1,327.31,297.8a12.277,12.277,0,0,1,6.421,12.245l-5.584,47.748L325.864,384.9l6.9,7.17c7.281-2.339,33.116-11.969,46.816-34.682C379.585,357.39,366.315,313.862,348.908,295.264Zm-5.681,70.995c-1.048.541,3.011-10.711,1.081-13.259s-7.711-2.3-7.711-2.3l.5-3.078c.067-.342,3.431-17.6,3.431-17.6l1.136-1.356s11.782,20.2,13.888,27.312C355.548,355.978,342.708,366.259,343.227,366.259Z" opacity="0.2"/>
      <path id="Trazado_1046576" data-name="Trazado 1046576" d="M277.868,353l-4.711-15.741s-8.445-28.8-14.236-35.908l1.522,20.257s-4.968,24.2-9.568,31.392-5.593,8.979,0,8.979,19.194,10.844,19.194,10.844l-1.048-9.046Zm-11.837,6.089-3.794-3.342,9.52-23.408,4.059,17.969s-6.519-.485-8.748,1.081S266.031,359.089,266.031,359.089Z" opacity="0.2"/>
      <path id="Trazado_1046577" data-name="Trazado 1046577" d="M288.485,265.284s.869,8.487,0,12.366" fill="none" stroke="#263238" stroke-linecap="round" stroke-linejoin="round" stroke-width="1.103"/>
      <path id="Trazado_1046578" data-name="Trazado 1046578" d="M314.108,276.513a36.4,36.4,0,0,1,.945-8.11" fill="none" stroke="#263238" stroke-linecap="round" stroke-linejoin="round" stroke-width="1.103"/>
      <path id="Trazado_1046579" data-name="Trazado 1046579" d="M316.382,228.582s5.136,6.452,4.872,11.324-.658,10.666-.527,16.328S311.642,273.747,306.9,274.8s-8.822,1.317-11.85-1.711-6.057-7.243-10.008-12.641-3.028-17.25-3.028-17.25" fill="none" stroke="#263238" stroke-linecap="round" stroke-linejoin="round" stroke-width="1.103"/>
      <path id="Trazado_1046580" data-name="Trazado 1046580" d="M304.021,247.714a26.665,26.665,0,0,0-.4,5.367,6.106,6.106,0,0,0,1.317,4.2c.567.579,1.392,1.042,1.5,1.845a1.95,1.95,0,0,1-1.055,1.748,14.9,14.9,0,0,0-1.851,1.1" fill="none" stroke="#263238" stroke-linecap="round" stroke-linejoin="round" stroke-width="1.103"/>
      <path id="Trazado_1046581" data-name="Trazado 1046581" d="M295.866,262.6s.594,3.827,5.727,4.628" fill="none" stroke="#263238" stroke-linecap="round" stroke-linejoin="round" stroke-width="1.103"/>
      <path id="Trazado_1046582" data-name="Trazado 1046582" d="M296.4,250.632c0,1.106-.478,2-1.068,2s-1.068-.9-1.068-2,.478-2,1.068-2S296.4,249.526,296.4,250.632Z" fill="#263238"/>
      <path id="Trazado_1046583" data-name="Trazado 1046583" d="M311.709,251.113c0,1.106-.478,2-1.068,2s-1.068-.9-1.068-2,.478-2,1.068-2S311.709,250.007,311.709,251.113Z" fill="#263238"/>
      <path id="Trazado_1046584" data-name="Trazado 1046584" d="M308.621,246.265s4.978-4.978,9.19.574" fill="none" stroke="#263238" stroke-linecap="round" stroke-linejoin="round" stroke-width="2.206"/>
      <path id="Trazado_1046585" data-name="Trazado 1046585" d="M298.091,246.36s-3.159-3.541-8.137,0" fill="none" stroke="#263238" stroke-linecap="round" stroke-linejoin="round" stroke-width="2.206"/>
      <path id="Trazado_1046586" data-name="Trazado 1046586" d="M288.871,269.948s3.049,8.4,9.858,10.788,15.851-9.987,15.851-9.987l-.472-1.608s-5.925,7.7-12.515,6.384-13.108-10.241-13.108-10.241Z" fill="#263238"/>
      <path id="Trazado_1046587" data-name="Trazado 1046587" d="M282.762,254.846s-4.059,1.433-5.138-1.73-4.78-11.488-1.542-14.263,5.839,3.664,5.839,3.664" fill="none" stroke="#263238" stroke-linecap="round" stroke-linejoin="round" stroke-width="1.103"/>
      <path id="Trazado_1046588" data-name="Trazado 1046588" d="M320.72,256.57s3.773.759,4.852-2.4,4.779-11.488,1.542-14.263-5.84,3.664-5.84,3.664" fill="none" stroke="#263238" stroke-linecap="round" stroke-linejoin="round" stroke-width="1.103"/>
      <path id="Trazado_1046589" data-name="Trazado 1046589" d="M281.921,250.632a5.624,5.624,0,0,0,3.562-2.1,8.869,8.869,0,0,0,1.035-3.192,38.552,38.552,0,0,0,.565-6.434,8.661,8.661,0,0,1,.226-2.508,6.423,6.423,0,0,1,1.357-2.231c1.417-1.661,3.122-3.063,4.469-4.781a7.976,7.976,0,0,0,1.973-6.043,27.455,27.455,0,0,0,22.474,5.812c7.143-1.4,14-7.67,13.165-15.548a6.375,6.375,0,0,0-5.033-5.486c-3.532-.878-6.7,1-9.9,2.211-5.832,2.2-11.539-1.578-17.432-2.212-5.04-.542-11.226.083-13.85,5.094,0,0-9.053,1.064-13.018,8.5s3.573,17.728,3.573,17.728,3.033-3.672,6.932,3.762Z" fill="#263238"/>
      <path id="Trazado_1046590" data-name="Trazado 1046590" d="M316.952,226.681s-2.341,12.2,3.768,18.1c0,0,1.337-3.667,2.692-4.561a14.144,14.144,0,0,0-1.07-13.544C317.873,219.582,316.952,226.681,316.952,226.681Z" fill="#263238"/>
      <path id="Trazado_1046591" data-name="Trazado 1046591" d="M328.142,212.8a11.525,11.525,0,0,1-6.971,7.276c-8.48,3.454-16.716-.377-25.206-1.127-6.939-.614-14.589,5.638-15.073,12.761" fill="none" stroke="#fff" stroke-linecap="round" stroke-linejoin="round" stroke-width="1.103" opacity="0.2"/>
      <path id="Trazado_1046592" data-name="Trazado 1046592" d="M275.626,229.831a14.824,14.824,0,0,1,9.032-13.082" fill="none" stroke="#fff" stroke-linecap="round" stroke-linejoin="round" stroke-width="1.103" opacity="0.2"/>
      <path id="Trazado_1046593" data-name="Trazado 1046593" d="M286.53,276.513a38.669,38.669,0,0,0,13.2,9.034s10.151-2.944,15.318-10.022" fill="none" stroke="#263238" stroke-linecap="round" stroke-linejoin="round" stroke-width="1.103"/>
      <circle id="Elipse_11889" data-name="Elipse 11889" cx="8.983" cy="8.983" r="8.983" transform="translate(281.237 246.212) rotate(-24.636)" fill="none" stroke="#263238" stroke-linecap="round" stroke-linejoin="round" stroke-width="1.103"/>
      <circle id="Elipse_11890" data-name="Elipse 11890" cx="8.983" cy="8.983" r="8.983" transform="translate(303.205 242.812) rotate(-7.003)" fill="none" stroke="#263238" stroke-linecap="round" stroke-linejoin="round" stroke-width="1.103"/>
      <path id="Trazado_1046594" data-name="Trazado 1046594" d="M288.485,273.162a7.042,7.042,0,0,0-4.321,3.351c-1.59,2.8-.631,11.609-.631,11.609s8.208,8.123,15.2,11.549l2.062-11.594,3.2,11.594s10.823-7.654,13.82-14.124c0,0,.977-7.544,0-10.022a3.459,3.459,0,0,0-3.231-2.363" fill="none" stroke="#263238" stroke-linecap="round" stroke-linejoin="round" stroke-width="1.103"/>
      <path id="Trazado_1046595" data-name="Trazado 1046595" d="M275.626,350.7s-3.2-21.5-7.474-30.266" fill="none" stroke="#263238" stroke-linecap="round" stroke-linejoin="round" stroke-width="1.103"/>
      <path id="Trazado_1046596" data-name="Trazado 1046596" d="M258.921,301.351a87.1,87.1,0,0,1,6.639,11.111" fill="none" stroke="#263238" stroke-linecap="round" stroke-linejoin="round" stroke-width="1.103"/>
      <path id="Trazado_1046597" data-name="Trazado 1046597" d="M343.228,317.4a62.076,62.076,0,0,1,3.528-10.493" fill="none" stroke="#263238" stroke-linecap="round" stroke-linejoin="round" stroke-width="1.103"/>
      <path id="Trazado_1046598" data-name="Trazado 1046598" d="M336.6,350.7s2.315-14.736,5.069-26.881" fill="none" stroke="#263238" stroke-linecap="round" stroke-linejoin="round" stroke-width="1.103"/>
      <path id="Trazado_1046599" data-name="Trazado 1046599" d="M340.521,330.018a16.951,16.951,0,0,1,8.942-6.115" fill="none" stroke="#263238" stroke-linecap="round" stroke-linejoin="round" stroke-width="1.103"/>
      <path id="Trazado_1046600" data-name="Trazado 1046600" d="M318.245,283.592s18.639,7.445,30.668,11.673c0,0,14.8,13.919,30.667,62.126,0,0-14.545,24.461-42.2,32.3" fill="none" stroke="#263238" stroke-linecap="round" stroke-linejoin="round" stroke-width="1.103"/>
      <path id="Trazado_1046601" data-name="Trazado 1046601" d="M342.184,367.135l13.362-11.157s7.069-5.373,14.421-1.7" fill="none" stroke="#263238" stroke-linecap="round" stroke-linejoin="round" stroke-width="1.103"/>
      <path id="Trazado_1046602" data-name="Trazado 1046602" d="M341.665,328.669s11.054,16.281,13.881,27.309" fill="none" stroke="#263238" stroke-linecap="round" stroke-linejoin="round" stroke-width="1.103"/>
      <path id="Trazado_1046603" data-name="Trazado 1046603" d="M266.152,359.707l-3.911-3.729s-5.8-1.015-12.378,3.392" fill="none" stroke="#263238" stroke-linecap="round" stroke-linejoin="round" stroke-width="1.103"/>
      <path id="Trazado_1046604" data-name="Trazado 1046604" d="M262.241,355.978s4.857-15.955,9.648-24.191" fill="none" stroke="#263238" stroke-linecap="round" stroke-linejoin="round" stroke-width="1.103"/>
      <path id="Trazado_1046605" data-name="Trazado 1046605" d="M283.247,285.547s-26.811,10.06-29.44,12.989-12.62,59.2-12.883,65.637c-.235,5.756,20.649,18.689,30.965,24.14" fill="none" stroke="#263238" stroke-linecap="round" stroke-linejoin="round" stroke-width="1.103"/>
      <rect id="Rectángulo_406587" data-name="Rectángulo 406587" width="43.615" height="30.986" rx="6.532" transform="translate(343.228 245.526)" fill="#fff" stroke="#263238" stroke-linecap="round" stroke-linejoin="round" stroke-width="1.103"/>
      <path id="Trazado_1046606" data-name="Trazado 1046606" d="M357.3,254.846l-8.387,5.265,7.783,6.9" fill="none" stroke="#263238" stroke-linecap="round" stroke-linejoin="round" stroke-width="1.103"/>
      <path id="Trazado_1046607" data-name="Trazado 1046607" d="M372.582,267.515l7.537-6.423-8.7-5.7" fill="none" stroke="#263238" stroke-linecap="round" stroke-linejoin="round" stroke-width="1.103"/>
      <line id="Línea_707" data-name="Línea 707" y1="19.413" x2="6.191" transform="translate(361.377 252.054)" fill="none" stroke="#263238" stroke-linecap="round" stroke-linejoin="round" stroke-width="1.103"/>
      <path id="Trazado_1046608" data-name="Trazado 1046608" d="M303.3,304.556a1.763,1.763,0,1,1-1.763-1.763A1.763,1.763,0,0,1,303.3,304.556Z" fill="#263238"/>
      <g id="Grupo_1179907" data-name="Grupo 1179907">
        <path id="Trazado_1046609" data-name="Trazado 1046609" d="M334.32,398.776H273.3a1.431,1.431,0,0,1-1.43-1.431h0a1.43,1.43,0,0,1,1.43-1.43H334.32a1.43,1.43,0,0,1,1.43,1.43h0A1.431,1.431,0,0,1,334.32,398.776Z" fill="#263238"/>
        <path id="Trazado_1046610" data-name="Trazado 1046610" d="M336.456,394.034l8.177-38.4a4.087,4.087,0,0,0-4-4.937H269.345a4.086,4.086,0,0,0-4.009,4.878l7.331,37.121a4.085,4.085,0,0,0,3.915,3.293l55.783,1.278A4.086,4.086,0,0,0,336.456,394.034Z" fill="#fff" stroke="#263238" stroke-linecap="round" stroke-linejoin="round" stroke-width="1.103"/>
        <path id="Trazado_1046611" data-name="Trazado 1046611" d="M310.439,372.826a5.691,5.691,0,1,1-5.692-5.691A5.691,5.691,0,0,1,310.439,372.826Z" fill="#263238"/>
        <line id="Línea_708" data-name="Línea 708" x2="8.47" transform="translate(321.625 354.341)" fill="none" stroke="#263238" stroke-linecap="round" stroke-linejoin="round" stroke-width="1.103"/>
        <line id="Línea_709" data-name="Línea 709" x2="32.152" transform="translate(281.176 354.341)" fill="none" stroke="#263238" stroke-linecap="round" stroke-linejoin="round" stroke-width="1.103"/>
      </g>
      <path id="Trazado_1046612" data-name="Trazado 1046612" d="M336.6,434.771l-6.5,17.058s-16.571-4.178-37.807-8.529c-22.2-4.55-45.395-10.441-57.424-31.545-1.467-2.573-2.443-5.613-1.756-8.494,1.736-7.29,11.219-9.269,17.47-10a116.287,116.287,0,0,1,11.83-.666c2.013-.028,8.652-1.082,10.259.1a47.031,47.031,0,0,0,7.716,4.572c3.55,1.507,55.367-1.354,55.367-1.354a18.5,18.5,0,0,0,1.63-6.222c8.145-4.139,27.007-7.646,34.976-6.1,12.533,2.437,19.843,9.748,18.451,17.406S361.757,429.2,336.6,434.771Z" fill="#263238"/>
      <path id="Trazado_1046613" data-name="Trazado 1046613" d="M336.6,434.771s-15.762-4.178-28.643-12.881-22.944-18.8-40.888-16.71" fill="none" stroke="#fff" stroke-linecap="round" stroke-linejoin="round" stroke-width="1.103"/>
      <path id="Trazado_1046614" data-name="Trazado 1046614" d="M304.99,419.837c8.136-2.341,14.108-7.6,20.636-12.658a139.737,139.737,0,0,1,22.093-14.517" fill="none" stroke="#fff" stroke-linecap="round" stroke-linejoin="round" stroke-width="1.103"/>
      <line id="Línea_710" data-name="Línea 710" x2="2.387" transform="translate(302.13 252.054)" fill="none" stroke="#263238" stroke-linecap="round" stroke-linejoin="round" stroke-width="1.103"/>
    </g>
    <g id="Grupo_1179911" data-name="Grupo 1179911" transform="translate(534.712 6233.981)">
      <path id="Trazado_1046626" data-name="Trazado 1046626" d="M410.791,103.593v70.864a18.922,18.922,0,0,1-18.928,18.928H228.643a18.929,18.929,0,0,1-18.928-18.928V103.593a18.941,18.941,0,0,1,18.928-18.941h163.22A18.933,18.933,0,0,1,410.791,103.593Z" fill="#fff" stroke="#222221" stroke-miterlimit="10" stroke-width="1.103"/>
      <path id="Trazado_1046627" data-name="Trazado 1046627" d="M410.791,103.593v1.617H209.715v-1.617a18.941,18.941,0,0,1,18.928-18.941h163.22A18.933,18.933,0,0,1,410.791,103.593Z" fill="#108d93" stroke="#263238" stroke-miterlimit="10" stroke-width="1.103"/>
      <path id="Trazado_1046628" data-name="Trazado 1046628" d="M234.971,96.8a2.9,2.9,0,1,1,0-4.1A2.9,2.9,0,0,1,234.971,96.8Z" transform="translate(4.283 1.518)" fill="#263238"/>
      <path id="Trazado_1046629" data-name="Trazado 1046629" d="M246.091,96.8a2.9,2.9,0,1,1,0-4.1A2.9,2.9,0,0,1,246.091,96.8Z" transform="translate(6.629 1.518)" fill="#263238"/>
      <path id="Trazado_1046630" data-name="Trazado 1046630" d="M257.211,96.8a2.9,2.9,0,1,1,0-4.1A2.9,2.9,0,0,1,257.211,96.8Z" transform="translate(8.975 1.518)" fill="#263238"/>
      <rect id="Rectángulo_406589" data-name="Rectángulo 406589" width="65.728" height="56.815" transform="translate(222.536 118.241)" fill="none" stroke="#263238" stroke-linecap="round" stroke-linejoin="round" stroke-width="1.103" stroke-dasharray="4.412"/>
      <g id="Grupo_1179910" data-name="Grupo 1179910" transform="translate(298.405 118.241)">
        <rect id="Rectángulo_406590" data-name="Rectángulo 406590" width="75.644" height="3.99" fill="#263238"/>
        <rect id="Rectángulo_406591" data-name="Rectángulo 406591" width="58.024" height="3.99" transform="translate(0 8.274)" fill="#263238"/>
        <rect id="Rectángulo_406592" data-name="Rectángulo 406592" width="86.404" height="4.037" transform="translate(0 16.502)" fill="#263238"/>
        <rect id="Rectángulo_406593" data-name="Rectángulo 406593" width="73.575" height="4.037" transform="translate(0 24.54)" fill="#263238"/>
      </g>
    </g>
  </g>
</svg>
