<svg xmlns="http://www.w3.org/2000/svg" xmlns:xlink="http://www.w3.org/1999/xlink" width="108.914" height="108.914" viewBox="0 0 108.914 108.914">
  <defs>
    <filter id="Trazado_874925" x="0" y="0" width="108.914" height="108.914" filterUnits="userSpaceOnUse">
      <feOffset dy="3" input="SourceAlpha"/>
      <feGaussianBlur stdDeviation="3" result="blur"/>
      <feFlood flood-opacity="0.161"/>
      <feComposite operator="in" in2="blur"/>
      <feComposite in="SourceGraphic"/>
    </filter>
  </defs>
  <g id="Grupo_1179936" data-name="Grupo 1179936" transform="translate(-745.051 -6632)">
    <g id="Grupo_1179035" data-name="Grupo 1179035" transform="translate(754.051 6638)">
      <g id="Grupo_1111314" data-name="Grupo 1111314">
        <g id="Grupo_1109835" data-name="Grupo 1109835">
          <g id="Grupo_1107913" data-name="Grupo 1107913" transform="translate(0 0)">
            <g transform="matrix(1, 0, 0, 1, -9, -6)" filter="url(#Trazado_874925)">
              <g id="Trazado_874925-2" data-name="Trazado 874925" transform="translate(9 6)" fill="#c7b622" opacity="0.859">
                <path d="M 45.45676803588867 89.41407012939453 C 39.52198028564453 89.41407012939453 33.76551818847656 88.25206756591797 28.34726715087891 85.96034240722656 C 23.11311721801758 83.74648284912109 18.41204261779785 80.57682800292969 14.37464332580566 76.5394287109375 C 10.33724308013916 72.50202941894531 7.167593002319336 67.80095672607422 4.953730583190918 62.56679534912109 C 2.662005424499512 57.14855575561523 1.500005483627319 51.39208221435547 1.500005483627319 45.45729446411133 C 1.500005483627319 39.52198028564453 2.662005424499512 33.76551818847656 4.953730583190918 28.34726905822754 C 7.167593002319336 23.11310577392578 10.33724308013916 18.41203117370605 14.37464332580566 14.37464332580566 C 18.41204261779785 10.33724403381348 23.11311721801758 7.167593955993652 28.34726715087891 4.953731060028076 C 33.76551818847656 2.662006139755249 39.52198028564453 1.500006198883057 45.45676803588867 1.500006198883057 C 51.39155578613281 1.500006198883057 57.14802932739258 2.662006139755249 62.56626892089844 4.953731060028076 C 67.80043029785156 7.167593955993652 72.50150299072266 10.33724403381348 76.53890228271484 14.37464332580566 C 80.57630920410156 18.41203117370605 83.74595642089844 23.11310577392578 85.95981597900391 28.34726905822754 C 88.25154113769531 33.76551818847656 89.41354370117188 39.52198028564453 89.41354370117188 45.45676803588867 C 89.41354370117188 51.39208221435547 88.25154113769531 57.14855575561523 85.95981597900391 62.56679534912109 C 83.74595642089844 67.80095672607422 80.57630920410156 72.50202941894531 76.53890228271484 76.5394287109375 C 72.50150299072266 80.57682800292969 67.80043029785156 83.74648284912109 62.56626892089844 85.96034240722656 C 57.14802932739258 88.25206756591797 51.39155578613281 89.41407012939453 45.45676803588867 89.41407012939453 Z" stroke="none"/>
                <path d="M 45.45676803588867 3 C 39.72381210327148 3 34.1639404296875 4.12213134765625 28.93159484863281 6.335227966308594 C 23.87622833251953 8.473472595214844 19.33542633056641 11.53517150878906 15.43529510498047 15.435302734375 C 11.53517150878906 19.33543395996094 8.473464965820312 23.87622833251953 6.335227966308594 28.93160247802734 C 4.122123718261719 34.16394424438477 3 39.72381591796875 3 45.4572868347168 C 3 51.19024658203125 4.122123718261719 56.75011825561523 6.335227966308594 61.98246002197266 C 8.473464965820312 67.03782653808594 11.53517150878906 71.57862854003906 15.43529510498047 75.478759765625 C 19.33542633056641 79.37889099121094 23.87622833251953 82.44058990478516 28.93159484863281 84.57883453369141 C 34.1639404296875 86.79193115234375 39.72381210327148 87.9140625 45.45676803588867 87.9140625 C 51.18972396850586 87.9140625 56.74959564208984 86.79193115234375 61.98194122314453 84.57883453369141 C 67.03730773925781 82.44058990478516 71.57810974121094 79.37889099121094 75.47824096679688 75.478759765625 C 79.37837219238281 71.57862854003906 82.44007110595703 67.03782653808594 84.57830810546875 61.98246002197266 C 86.79141235351562 56.75011825561523 87.91353607177734 51.19024658203125 87.91353607177734 45.4567756652832 C 87.91353607177734 39.72381591796875 86.79141235351562 34.16394424438477 84.57830810546875 28.93160247802734 C 82.44007110595703 23.87622833251953 79.37837219238281 19.33543395996094 75.47824096679688 15.435302734375 C 71.57810974121094 11.53517150878906 67.03730773925781 8.473472595214844 61.98194122314453 6.335227966308594 C 56.74959564208984 4.12213134765625 51.18972396850586 3 45.45676803588867 3 M 45.45676803588867 0 C 70.56185150146484 0 90.91353607177734 20.35169219970703 90.91353607177734 45.4567756652832 L 90.91353607177734 45.4572868347168 C 90.91353607177734 70.5623779296875 70.56185150146484 90.9140625 45.45676803588867 90.9140625 C 20.3516845703125 90.9140625 0 70.5623779296875 0 45.4572868347168 L 0 45.4567756652832 C 0 20.35169219970703 20.3516845703125 0 45.45676803588867 0 Z" stroke="none" fill="#fff"/>
              </g>
            </g>
            <g id="Trazado_874923" data-name="Trazado 874923" fill="none">
              <path d="M45.457,0A45.457,45.457,0,0,1,90.914,45.457h0A45.457,45.457,0,0,1,0,45.457H0A45.457,45.457,0,0,1,45.457,0Z" stroke="none"/>
              <path d="M 45.45676803588867 3 C 39.72381210327148 3 34.1639404296875 4.12213134765625 28.93159484863281 6.335227966308594 C 23.87622833251953 8.473472595214844 19.33542633056641 11.53517150878906 15.43529510498047 15.435302734375 C 11.53517150878906 19.33543395996094 8.473464965820312 23.87622833251953 6.335227966308594 28.93160247802734 C 4.122123718261719 34.16394424438477 3 39.72381591796875 3 45.4572868347168 C 3 51.19024658203125 4.122123718261719 56.75011825561523 6.335227966308594 61.98246002197266 C 8.473464965820312 67.03782653808594 11.53517150878906 71.57862854003906 15.43529510498047 75.478759765625 C 19.33542633056641 79.37889099121094 23.87622833251953 82.44058990478516 28.93159484863281 84.57883453369141 C 34.1639404296875 86.79193115234375 39.72381210327148 87.9140625 45.45676803588867 87.9140625 C 51.18972396850586 87.9140625 56.74959564208984 86.79193115234375 61.98194122314453 84.57883453369141 C 67.03730773925781 82.44058990478516 71.57810974121094 79.37889099121094 75.47824096679688 75.478759765625 C 79.37837219238281 71.57862854003906 82.44007110595703 67.03782653808594 84.57830810546875 61.98246002197266 C 86.79141235351562 56.75011825561523 87.91353607177734 51.19024658203125 87.91353607177734 45.4567756652832 C 87.91353607177734 39.72381591796875 86.79141235351562 34.16394424438477 84.57830810546875 28.93160247802734 C 82.44007110595703 23.87622833251953 79.37837219238281 19.33543395996094 75.47824096679688 15.435302734375 C 71.57810974121094 11.53517150878906 67.03730773925781 8.473472595214844 61.98194122314453 6.335227966308594 C 56.74959564208984 4.12213134765625 51.18972396850586 3 45.45676803588867 3 M 45.45676803588867 0 C 70.56185150146484 0 90.91353607177734 20.35169219970703 90.91353607177734 45.4567756652832 L 90.91353607177734 45.4572868347168 C 90.91353607177734 70.5623779296875 70.56185150146484 90.9140625 45.45676803588867 90.9140625 C 20.3516845703125 90.9140625 0 70.5623779296875 0 45.4572868347168 L 0 45.4567756652832 C 0 20.35169219970703 20.3516845703125 0 45.45676803588867 0 Z" stroke="none" fill="#fff"/>
            </g>
          </g>
        </g>
      </g>
    </g>
    <g id="Grupo_1179935" data-name="Grupo 1179935" transform="translate(768.051 6651.73)">
      <g id="Grupo_1179915" data-name="Grupo 1179915" transform="translate(1 2.27)">
        <path id="Trazado_1046636" data-name="Trazado 1046636" d="M58.278,51.429H4.717A3.22,3.22,0,0,1,1.5,48.213V5.987A3.22,3.22,0,0,1,4.717,2.77H58.265a3.22,3.22,0,0,1,3.217,3.217V48.2a3.2,3.2,0,0,1-3.2,3.229Z" transform="translate(-0.862 -2.132)" fill="#ddedeb"/>
        <path id="Trazado_1046637" data-name="Trazado 1046637" d="M58.416,52.206H4.855A3.871,3.871,0,0,1,1,48.338V6.125A3.86,3.86,0,0,1,4.855,2.27H58.4a3.86,3.86,0,0,1,3.855,3.855V48.338a3.852,3.852,0,0,1-3.842,3.868ZM4.855,3.546A2.579,2.579,0,0,0,2.276,6.125V48.338a2.579,2.579,0,0,0,2.578,2.578H58.4a2.579,2.579,0,0,0,2.578-2.578V6.125A2.579,2.579,0,0,0,58.4,3.546Z" transform="translate(-1 -2.27)"/>
      </g>
      <g id="Grupo_1179916" data-name="Grupo 1179916" transform="translate(4.242 5.538)">
        <circle id="Elipse_11892" data-name="Elipse 11892" cx="1.762" cy="1.762" r="1.762" transform="translate(0.638 0.638)" fill="#fa4968"/>
        <path id="Trazado_1046638" data-name="Trazado 1046638" d="M5.94,9.63a2.4,2.4,0,1,1,2.4-2.4A2.4,2.4,0,0,1,5.94,9.63Zm0-3.523A1.123,1.123,0,1,0,7.063,7.23,1.125,1.125,0,0,0,5.94,6.106Z" transform="translate(-3.54 -4.83)"/>
      </g>
      <g id="Grupo_1179917" data-name="Grupo 1179917" transform="translate(10.369 5.538)">
        <circle id="Elipse_11893" data-name="Elipse 11893" cx="1.762" cy="1.762" r="1.762" transform="translate(0.638 0.638)" fill="#c6cc4a"/>
        <path id="Trazado_1046639" data-name="Trazado 1046639" d="M10.74,9.63a2.4,2.4,0,1,1,2.4-2.4A2.4,2.4,0,0,1,10.74,9.63Zm0-3.523A1.123,1.123,0,1,0,11.863,7.23,1.125,1.125,0,0,0,10.74,6.106Z" transform="translate(-8.34 -4.83)"/>
      </g>
      <g id="Grupo_1179918" data-name="Grupo 1179918" transform="translate(16.509 5.538)">
        <circle id="Elipse_11894" data-name="Elipse 11894" cx="1.762" cy="1.762" r="1.762" transform="translate(0.638 0.638)" fill="#fecd04"/>
        <path id="Trazado_1046640" data-name="Trazado 1046640" d="M15.55,9.63a2.4,2.4,0,1,1,2.4-2.4A2.4,2.4,0,0,1,15.55,9.63Zm0-3.523A1.123,1.123,0,1,0,16.673,7.23,1.125,1.125,0,0,0,15.55,6.106Z" transform="translate(-13.15 -4.83)"/>
      </g>
      <g id="Grupo_1179919" data-name="Grupo 1179919" transform="translate(23.887 5.538)">
        <path id="Trazado_1046641" data-name="Trazado 1046641" d="M50.4,5.33H21.14a1.711,1.711,0,0,0-1.71,1.71v.115a1.711,1.711,0,0,0,1.71,1.71H50.4a1.711,1.711,0,0,0,1.71-1.71V7.04A1.711,1.711,0,0,0,50.4,5.33Z" transform="translate(-18.792 -4.692)" fill="#9ab2a5"/>
        <path id="Trazado_1046642" data-name="Trazado 1046642" d="M50.536,9.63H21.279A2.351,2.351,0,0,1,18.93,7.281,2.367,2.367,0,0,1,21.279,4.83H50.536a2.351,2.351,0,0,1,2.349,2.349A2.375,2.375,0,0,1,50.536,9.63ZM21.279,6.106a1.079,1.079,0,0,0-1.072,1.072,1.1,1.1,0,0,0,1.072,1.174H50.536a1.079,1.079,0,0,0,1.072-1.072,1.1,1.1,0,0,0-1.072-1.174Z" transform="translate(-18.93 -4.83)"/>
      </g>
      <g id="Grupo_1179920" data-name="Grupo 1179920" transform="translate(16.548 18.877)">
        <path id="Trazado_1046643" data-name="Trazado 1046643" d="M34.87,15.78H17.063a3.389,3.389,0,0,0-3.383,3.383v33.38a3.389,3.389,0,0,0,3.383,3.383H39.21a3.389,3.389,0,0,0,3.383-3.383V23.5H36.963a2.081,2.081,0,0,1-2.081-2.081V15.78Z" transform="translate(-13.042 -15.142)" fill="#9ab2a5"/>
        <path id="Trazado_1046644" data-name="Trazado 1046644" d="M39.335,56.7H17.2a4.02,4.02,0,0,1-4.021-4.021V19.3A4.02,4.02,0,0,1,17.2,15.28h17.82a.632.632,0,0,1,.638.638v5.629A1.449,1.449,0,0,0,37.1,22.99h5.629a.632.632,0,0,1,.638.638V52.681A4.04,4.04,0,0,1,39.335,56.7ZM17.2,16.556A2.748,2.748,0,0,0,14.456,19.3v33.38A2.74,2.74,0,0,0,17.2,55.425H39.348a2.748,2.748,0,0,0,2.744-2.744v-28.4H37.1a2.721,2.721,0,0,1-2.719-2.719V16.569H17.2Z" transform="translate(-13.18 -15.28)"/>
      </g>
      <g id="Grupo_1179921" data-name="Grupo 1179921" transform="translate(37.737 18.892)">
        <path id="Trazado_1046645" data-name="Trazado 1046645" d="M30.28,15.78v5.629a2.081,2.081,0,0,0,2.081,2.081H37.99Z" transform="translate(-29.642 -15.157)" fill="#56826c"/>
        <path id="Trazado_1046646" data-name="Trazado 1046646" d="M38.128,24.276H32.5a2.721,2.721,0,0,1-2.719-2.719V15.928a.637.637,0,0,1,.4-.587.627.627,0,0,1,.689.14l7.71,7.71a.632.632,0,0,1,.14.689A.657.657,0,0,1,38.128,24.276ZM31.056,17.46v4.085A1.449,1.449,0,0,0,32.5,22.987h4.085Z" transform="translate(-29.78 -15.292)"/>
      </g>
      <g id="Grupo_1179922" data-name="Grupo 1179922" transform="translate(25.33 23.715)">
        <path id="Trazado_1046647" data-name="Trazado 1046647" d="M25.217,20.346H20.7a.638.638,0,1,1,0-1.276h4.519a.638.638,0,0,1,0,1.276Z" transform="translate(-20.06 -19.07)" fill="#56826c"/>
      </g>
      <g id="Grupo_1179923" data-name="Grupo 1179923" transform="translate(20.032 23.715)">
        <path id="Trazado_1046648" data-name="Trazado 1046648" d="M19.918,20.346h-3.37a.638.638,0,1,1,0-1.276h3.37a.632.632,0,0,1,.638.638A.64.64,0,0,1,19.918,20.346Z" transform="translate(-15.91 -19.07)" fill="#56826c"/>
      </g>
      <g id="Grupo_1179924" data-name="Grupo 1179924" transform="translate(28.508 26.472)">
        <path id="Trazado_1046649" data-name="Trazado 1046649" d="M27.362,22.506H23.188a.638.638,0,0,1,0-1.276h4.174a.638.638,0,1,1,0,1.276Z" transform="translate(-22.55 -21.23)" fill="#56826c"/>
      </g>
      <g id="Grupo_1179925" data-name="Grupo 1179925" transform="translate(20.032 26.472)">
        <path id="Trazado_1046650" data-name="Trazado 1046650" d="M23.02,22.506H16.548a.638.638,0,1,1,0-1.276H23.02a.638.638,0,0,1,0,1.276Z" transform="translate(-15.91 -21.23)" fill="#56826c"/>
      </g>
      <g id="Grupo_1179926" data-name="Grupo 1179926" transform="translate(25.623 29.229)">
        <path id="Trazado_1046651" data-name="Trazado 1046651" d="M24.834,24.666H20.928a.638.638,0,1,1,0-1.276h3.906a.638.638,0,1,1,0,1.276Z" transform="translate(-20.29 -23.39)" fill="#56826c"/>
      </g>
      <g id="Grupo_1179927" data-name="Grupo 1179927" transform="translate(20.02 29.229)">
        <path id="Trazado_1046652" data-name="Trazado 1046652" d="M20.176,24.666H16.538a.638.638,0,0,1,0-1.276h3.638a.638.638,0,0,1,0,1.276Z" transform="translate(-15.9 -23.39)" fill="#56826c"/>
      </g>
      <g id="Grupo_1179928" data-name="Grupo 1179928" transform="translate(28.776 31.986)">
        <path id="Trazado_1046653" data-name="Trazado 1046653" d="M27.3,26.826H23.4a.638.638,0,1,1,0-1.276H27.3a.638.638,0,0,1,0,1.276Z" transform="translate(-22.76 -25.55)" fill="#56826c"/>
      </g>
      <g id="Grupo_1179929" data-name="Grupo 1179929" transform="translate(20.032 31.986)">
        <path id="Trazado_1046654" data-name="Trazado 1046654" d="M23.314,26.826H16.548a.638.638,0,0,1,0-1.276h6.765a.632.632,0,0,1,.638.638A.64.64,0,0,1,23.314,26.826Z" transform="translate(-15.91 -25.55)" fill="#56826c"/>
      </g>
      <g id="Grupo_1179930" data-name="Grupo 1179930" transform="translate(20.032 34.744)">
        <path id="Trazado_1046655" data-name="Trazado 1046655" d="M20.85,28.986h-4.3a.638.638,0,0,1,0-1.276h4.3a.632.632,0,0,1,.638.638.64.64,0,0,1-.638.638Z" transform="translate(-15.91 -27.71)" fill="#56826c"/>
      </g>
      <g id="Grupo_1179934" data-name="Grupo 1179934" transform="translate(22.828 41.819)">
        <g id="Grupo_1179931" data-name="Grupo 1179931" transform="translate(0 2.039)">
          <path id="Trazado_1046656" data-name="Trazado 1046656" d="M22.146,42.956a.6.6,0,0,1-.447-.191l-3.408-3.408a.632.632,0,0,1,0-.906L21.7,35.041a.641.641,0,1,1,.906.906l-2.961,2.961,2.961,2.961a.632.632,0,0,1,0,.906.693.693,0,0,1-.46.179Z" transform="translate(-18.1 -34.85)"/>
        </g>
        <g id="Grupo_1179932" data-name="Grupo 1179932" transform="translate(12.931 2.026)">
          <path id="Trazado_1046657" data-name="Trazado 1046657" d="M28.868,42.958a.6.6,0,0,1-.447-.191.632.632,0,0,1,0-.906L31.383,38.9l-2.961-2.961a.641.641,0,0,1,.906-.906l3.408,3.408a.632.632,0,0,1,0,.906l-3.408,3.408A.612.612,0,0,1,28.868,42.958Z" transform="translate(-28.23 -34.84)"/>
        </g>
        <g id="Grupo_1179933" data-name="Grupo 1179933" transform="translate(6.56)">
          <path id="Trazado_1046658" data-name="Trazado 1046658" d="M23.878,45.427A.862.862,0,0,1,23.7,45.4a.645.645,0,0,1-.434-.791l3.217-10.9a.638.638,0,0,1,1.225.357l-3.217,10.9a.628.628,0,0,1-.613.46Z" transform="translate(-23.239 -33.253)"/>
        </g>
      </g>
    </g>
  </g>
</svg>
