<svg xmlns="http://www.w3.org/2000/svg" width="73" height="73" viewBox="0 0 73 73">
  <g id="Grupo_1179961" data-name="Grupo 1179961" transform="translate(-612.051 -9799)">
    <g id="Elipse_11812" data-name="Elipse 11812" transform="translate(612.051 9799)" fill="#fcf3aa" stroke="#f8e32a" stroke-width="3">
      <circle cx="36.5" cy="36.5" r="36.5" stroke="none"/>
      <circle cx="36.5" cy="36.5" r="35" fill="none"/>
    </g>
    <g id="Grupo_1179960" data-name="Grupo 1179960" transform="translate(621.551 9810.5)">
      <rect id="Rectángulo_406596" data-name="Rectángulo 406596" width="5.518" height="5.518" rx="0.75" transform="translate(15.915 11.397)" fill="#ccc"/>
      <path id="Trazado_1046732" data-name="Trazado 1046732" d="M9.518,32.589A5.534,5.534,0,0,1,4,27.071V10.518A5.534,5.534,0,0,1,9.518,5H37.107a5.534,5.534,0,0,1,5.518,5.518V27.071a5.534,5.534,0,0,1-5.518,5.518H17.795L9.518,38.107Z" transform="translate(0.879 0.879)" fill="#deffff"/>
      <path id="Trazado_1046733" data-name="Trazado 1046733" d="M33.795,7V23.553a5.534,5.534,0,0,1-5.518,5.518H9.02a5.522,5.522,0,0,0,5.463,5.518H25.518l8.277,5.518V34.589a5.534,5.534,0,0,0,5.518-5.518V12.518A5.551,5.551,0,0,0,33.795,7Z" transform="translate(9.709 4.397)" fill="#3ae4de"/>
      <path id="Trazado_1046734" data-name="Trazado 1046734" d="M9.018,38.986V34.71A6.9,6.9,0,0,1,3.5,27.951V11.4a6.9,6.9,0,0,1,6.9-6.9H37.986a6.9,6.9,0,0,1,6.9,6.9V27.951a6.9,6.9,0,0,1-6.9,6.9h-18.9l-7.918,5.3A1.383,1.383,0,0,1,9.018,38.986ZM10.4,7.259A4.133,4.133,0,0,0,6.259,11.4V27.951A4.133,4.133,0,0,0,10.4,32.089a1.366,1.366,0,0,1,1.379,1.379v2.952L17.9,32.337a1.483,1.483,0,0,1,.772-.221H37.986a4.133,4.133,0,0,0,4.138-4.138V11.425a4.133,4.133,0,0,0-4.138-4.138H10.4Z" transform="translate(0)"/>
      <path id="Trazado_1046735" data-name="Trazado 1046735" d="M33.937,42.163l-7.918-5.3H15.4a6.9,6.9,0,0,1-6.9-6.9,1.379,1.379,0,1,1,2.759,0A4.133,4.133,0,0,0,15.4,34.107H26.433a1.483,1.483,0,0,1,.772.221l6.125,4.083V35.458a1.366,1.366,0,0,1,1.379-1.379,4.133,4.133,0,0,0,4.138-4.138V13.387A4.133,4.133,0,0,0,34.71,9.249a1.379,1.379,0,0,1,0-2.759,6.9,6.9,0,0,1,6.9,6.9V29.941A6.9,6.9,0,0,1,36.089,36.7v4.276a1.391,1.391,0,0,1-2.152,1.159Z" transform="translate(8.795 3.5)"/>
      <path id="Trazado_1046736" data-name="Trazado 1046736" d="M6.879,14.777A1.366,1.366,0,0,1,5.5,13.4V7.879a1.379,1.379,0,1,1,2.759,0V13.4A1.366,1.366,0,0,1,6.879,14.777Z" transform="translate(3.518 3.518)"/>
      <path id="Trazado_1046737" data-name="Trazado 1046737" d="M12.328,14.777H10.949A3.45,3.45,0,0,1,7.5,11.328V9.949A3.45,3.45,0,0,1,10.949,6.5h1.379a3.45,3.45,0,0,1,3.449,3.449v1.379A3.45,3.45,0,0,1,12.328,14.777ZM10.949,9.259a.683.683,0,0,0-.69.69v1.379a.683.683,0,0,0,.69.69h1.379a.683.683,0,0,0,.69-.69V9.949a.683.683,0,0,0-.69-.69Z" transform="translate(7.036 3.518)"/>
      <path id="Trazado_1046738" data-name="Trazado 1046738" d="M12.879,14.777A1.366,1.366,0,0,1,11.5,13.4V7.879a1.379,1.379,0,1,1,2.759,0V13.4A1.366,1.366,0,0,1,12.879,14.777Z" transform="translate(14.071 3.518)"/>
      <path id="Trazado_1046739" data-name="Trazado 1046739" d="M10.879,18.777A1.366,1.366,0,0,1,9.5,17.4V11.879a1.379,1.379,0,1,1,2.759,0V17.4A1.366,1.366,0,0,1,10.879,18.777Z" transform="translate(10.553 10.553)"/>
      <path id="Trazado_1046740" data-name="Trazado 1046740" d="M12.879,18.777A1.366,1.366,0,0,1,11.5,17.4V11.879a1.379,1.379,0,1,1,2.759,0V17.4A1.366,1.366,0,0,1,12.879,18.777Z" transform="translate(14.071 10.553)"/>
      <path id="Trazado_1046741" data-name="Trazado 1046741" d="M18.328,14.777H16.949A3.45,3.45,0,0,1,13.5,11.328V9.949A3.45,3.45,0,0,1,16.949,6.5h1.379a3.45,3.45,0,0,1,3.449,3.449v1.379A3.45,3.45,0,0,1,18.328,14.777ZM16.949,9.259a.683.683,0,0,0-.69.69v1.379a.683.683,0,0,0,.69.69h1.379a.683.683,0,0,0,.69-.69V9.949a.683.683,0,0,0-.69-.69Z" transform="translate(17.589 3.518)"/>
      <path id="Trazado_1046742" data-name="Trazado 1046742" d="M10.328,18.777H8.949A3.45,3.45,0,0,1,5.5,15.328V13.949A3.45,3.45,0,0,1,8.949,10.5h1.379a3.45,3.45,0,0,1,3.449,3.449v1.379A3.45,3.45,0,0,1,10.328,18.777ZM8.949,13.259a.683.683,0,0,0-.69.69v1.379a.683.683,0,0,0,.69.69h1.379a.683.683,0,0,0,.69-.69V13.949a.683.683,0,0,0-.69-.69Z" transform="translate(3.518 10.553)"/>
      <path id="Trazado_1046743" data-name="Trazado 1046743" d="M18.328,18.777H16.949A3.45,3.45,0,0,1,13.5,15.328V13.949A3.45,3.45,0,0,1,16.949,10.5h1.379a3.45,3.45,0,0,1,3.449,3.449v1.379A3.45,3.45,0,0,1,18.328,18.777Zm-1.379-5.518a.683.683,0,0,0-.69.69v1.379a.683.683,0,0,0,.69.69h1.379a.683.683,0,0,0,.69-.69V13.949a.683.683,0,0,0-.69-.69Z" transform="translate(17.589 10.553)"/>
    </g>
  </g>
</svg>
