<svg xmlns="http://www.w3.org/2000/svg" width="73" height="73" viewBox="0 0 73 73">
  <g id="Grupo_1179965" data-name="Grupo 1179965" transform="translate(-612.051 -10052)">
    <g id="Elipse_11814" data-name="Elipse 11814" transform="translate(612.051 10052)" fill="#fcf3aa" stroke="#f8e32a" stroke-width="3">
      <circle cx="36.5" cy="36.5" r="36.5" stroke="none"/>
      <circle cx="36.5" cy="36.5" r="35" fill="none"/>
    </g>
    <g id="Grupo_1179964" data-name="Grupo 1179964" transform="translate(623.917 10063.5)">
      <rect id="Rectángulo_406597" data-name="Rectángulo 406597" width="42" height="42" rx="2.5" transform="translate(3.5 3.5)" fill="#ccc"/>
      <path id="Trazado_1046761" data-name="Trazado 1046761" d="M4,11.459V8.973A4.987,4.987,0,0,1,8.973,4H38.809a4.987,4.987,0,0,1,4.973,4.973v2.486Z" transform="translate(0.743 0.743)" fill="#f2f2f2"/>
      <path id="Trazado_1046762" data-name="Trazado 1046762" d="M8.973,39.323A4.987,4.987,0,0,1,4,34.35V7H43.782V34.35a4.987,4.987,0,0,1-4.973,4.973Z" transform="translate(0.743 5.202)" fill="#ccc"/>
      <path id="Trazado_1046763" data-name="Trazado 1046763" d="M39.552,45.768H9.716A6.218,6.218,0,0,1,3.5,39.552V9.716A6.218,6.218,0,0,1,9.716,3.5H39.552a6.218,6.218,0,0,1,6.216,6.216V39.552A6.218,6.218,0,0,1,39.552,45.768ZM9.716,5.986a3.725,3.725,0,0,0-3.73,3.73V39.552a3.725,3.725,0,0,0,3.73,3.73H39.552a3.725,3.725,0,0,0,3.73-3.73V9.716a3.725,3.725,0,0,0-3.73-3.73Z"/>
      <path id="Trazado_1046764" data-name="Trazado 1046764" d="M12.7,27.032,7.007,21.338a3.752,3.752,0,0,1,0-5.271L12.7,10.373a1.248,1.248,0,0,1,1.765,1.765L8.772,17.832a1.231,1.231,0,0,0,0,1.765l5.694,5.694A1.248,1.248,0,1,1,12.7,27.056Z" transform="translate(3.604 9.661)"/>
      <path id="Trazado_1046765" data-name="Trazado 1046765" d="M14.873,27.046a1.231,1.231,0,0,1,0-1.765l5.694-5.694a1.231,1.231,0,0,0,0-1.765l-5.694-5.694a1.248,1.248,0,1,1,1.765-1.765l5.694,5.694a3.752,3.752,0,0,1,0,5.271l-5.694,5.694a1.231,1.231,0,0,1-1.765,0Z" transform="translate(16.35 9.647)"/>
      <path id="Trazado_1046766" data-name="Trazado 1046766" d="M12.041,27.392a1.232,1.232,0,0,1-1.019-1.442l2.486-14.918a1.258,1.258,0,0,1,1.442-1.019,1.232,1.232,0,0,1,1.019,1.442L13.483,26.372A1.239,1.239,0,0,1,12.041,27.392Z" transform="translate(11.151 9.649)"/>
      <path id="Trazado_1046767" data-name="Trazado 1046767" d="M44.525,8.986H4.743a1.243,1.243,0,1,1,0-2.486H44.525a1.243,1.243,0,0,1,0,2.486Z" transform="translate(0 4.459)"/>
    </g>
  </g>
</svg>
