<svg xmlns="http://www.w3.org/2000/svg" xmlns:xlink="http://www.w3.org/1999/xlink" width="108.914" height="108.914" viewBox="0 0 108.914 108.914">
  <defs>
    <filter id="Trazado_874925" x="0" y="0" width="108.914" height="108.914" filterUnits="userSpaceOnUse">
      <feOffset dy="3" input="SourceAlpha"/>
      <feGaussianBlur stdDeviation="3" result="blur"/>
      <feFlood flood-opacity="0.161"/>
      <feComposite operator="in" in2="blur"/>
      <feComposite in="SourceGraphic"/>
    </filter>
  </defs>
  <g id="Grupo_1179872" data-name="Grupo 1179872" transform="translate(-902.051 -554)">
    <g id="Grupo_1111507" data-name="Grupo 1111507" transform="translate(102.551 -1408.211)">
      <g id="Grupo_1111314" data-name="Grupo 1111314" transform="translate(0 16)">
        <g id="Grupo_1109835" data-name="Grupo 1109835">
          <g id="Grupo_1107913" data-name="Grupo 1107913" transform="translate(808.5 1952.211)">
            <g transform="matrix(1, 0, 0, 1, -9, -6)" filter="url(#Trazado_874925)">
              <g id="Trazado_874925-2" data-name="Trazado 874925" transform="translate(9 6)" fill="#1bebf5" opacity="0.859">
                <path d="M 45.45676803588867 89.41407012939453 C 39.52198028564453 89.41407012939453 33.76551818847656 88.25206756591797 28.34726715087891 85.96034240722656 C 23.11311721801758 83.74648284912109 18.41204261779785 80.57682800292969 14.37464332580566 76.5394287109375 C 10.33724308013916 72.50202941894531 7.167593002319336 67.80095672607422 4.953730583190918 62.56679534912109 C 2.662005424499512 57.14855575561523 1.500005483627319 51.39208221435547 1.500005483627319 45.45729446411133 C 1.500005483627319 39.52198028564453 2.662005424499512 33.76551818847656 4.953730583190918 28.34726905822754 C 7.167593002319336 23.11310577392578 10.33724308013916 18.41203117370605 14.37464332580566 14.37464332580566 C 18.41204261779785 10.33724403381348 23.11311721801758 7.167593955993652 28.34726715087891 4.953731060028076 C 33.76551818847656 2.662006139755249 39.52198028564453 1.500006198883057 45.45676803588867 1.500006198883057 C 51.39155578613281 1.500006198883057 57.14802932739258 2.662006139755249 62.56626892089844 4.953731060028076 C 67.80043029785156 7.167593955993652 72.50150299072266 10.33724403381348 76.53890228271484 14.37464332580566 C 80.57630920410156 18.41203117370605 83.74595642089844 23.11310577392578 85.95981597900391 28.34726905822754 C 88.25154113769531 33.76551818847656 89.41354370117188 39.52198028564453 89.41354370117188 45.45676803588867 C 89.41354370117188 51.39208221435547 88.25154113769531 57.14855575561523 85.95981597900391 62.56679534912109 C 83.74595642089844 67.80095672607422 80.57630920410156 72.50202941894531 76.53890228271484 76.5394287109375 C 72.50150299072266 80.57682800292969 67.80043029785156 83.74648284912109 62.56626892089844 85.96034240722656 C 57.14802932739258 88.25206756591797 51.39155578613281 89.41407012939453 45.45676803588867 89.41407012939453 Z" stroke="none"/>
                <path d="M 45.45676803588867 3 C 39.72381210327148 3 34.1639404296875 4.12213134765625 28.93159484863281 6.335227966308594 C 23.87622833251953 8.473472595214844 19.33542633056641 11.53517150878906 15.43529510498047 15.435302734375 C 11.53517150878906 19.33543395996094 8.473464965820312 23.87622833251953 6.335227966308594 28.93160247802734 C 4.122123718261719 34.16394424438477 3 39.72381591796875 3 45.4572868347168 C 3 51.19024658203125 4.122123718261719 56.75011825561523 6.335227966308594 61.98246002197266 C 8.473464965820312 67.03782653808594 11.53517150878906 71.57862854003906 15.43529510498047 75.478759765625 C 19.33542633056641 79.37889099121094 23.87622833251953 82.44058990478516 28.93159484863281 84.57883453369141 C 34.1639404296875 86.79193115234375 39.72381210327148 87.9140625 45.45676803588867 87.9140625 C 51.18972396850586 87.9140625 56.74959564208984 86.79193115234375 61.98194122314453 84.57883453369141 C 67.03730773925781 82.44058990478516 71.57810974121094 79.37889099121094 75.47824096679688 75.478759765625 C 79.37837219238281 71.57862854003906 82.44007110595703 67.03782653808594 84.57830810546875 61.98246002197266 C 86.79141235351562 56.75011825561523 87.91353607177734 51.19024658203125 87.91353607177734 45.4567756652832 C 87.91353607177734 39.72381591796875 86.79141235351562 34.16394424438477 84.57830810546875 28.93160247802734 C 82.44007110595703 23.87622833251953 79.37837219238281 19.33543395996094 75.47824096679688 15.435302734375 C 71.57810974121094 11.53517150878906 67.03730773925781 8.473472595214844 61.98194122314453 6.335227966308594 C 56.74959564208984 4.12213134765625 51.18972396850586 3 45.45676803588867 3 M 45.45676803588867 0 C 70.56185150146484 0 90.91353607177734 20.35169219970703 90.91353607177734 45.4567756652832 L 90.91353607177734 45.4572868347168 C 90.91353607177734 70.5623779296875 70.56185150146484 90.9140625 45.45676803588867 90.9140625 C 20.3516845703125 90.9140625 0 70.5623779296875 0 45.4572868347168 L 0 45.4567756652832 C 0 20.35169219970703 20.3516845703125 0 45.45676803588867 0 Z" stroke="none" fill="#fff"/>
              </g>
            </g>
            <g id="Trazado_874923" data-name="Trazado 874923" transform="translate(0 0)" fill="none">
              <path d="M45.457,0A45.457,45.457,0,0,1,90.914,45.457h0A45.457,45.457,0,0,1,0,45.457H0A45.457,45.457,0,0,1,45.457,0Z" stroke="none"/>
              <path d="M 45.45676803588867 3 C 39.72381210327148 3 34.1639404296875 4.12213134765625 28.93159484863281 6.335227966308594 C 23.87622833251953 8.473472595214844 19.33542633056641 11.53517150878906 15.43529510498047 15.435302734375 C 11.53517150878906 19.33543395996094 8.473464965820312 23.87622833251953 6.335227966308594 28.93160247802734 C 4.122123718261719 34.16394424438477 3 39.72381591796875 3 45.4572868347168 C 3 51.19024658203125 4.122123718261719 56.75011825561523 6.335227966308594 61.98246002197266 C 8.473464965820312 67.03782653808594 11.53517150878906 71.57862854003906 15.43529510498047 75.478759765625 C 19.33542633056641 79.37889099121094 23.87622833251953 82.44058990478516 28.93159484863281 84.57883453369141 C 34.1639404296875 86.79193115234375 39.72381210327148 87.9140625 45.45676803588867 87.9140625 C 51.18972396850586 87.9140625 56.74959564208984 86.79193115234375 61.98194122314453 84.57883453369141 C 67.03730773925781 82.44058990478516 71.57810974121094 79.37889099121094 75.47824096679688 75.478759765625 C 79.37837219238281 71.57862854003906 82.44007110595703 67.03782653808594 84.57830810546875 61.98246002197266 C 86.79141235351562 56.75011825561523 87.91353607177734 51.19024658203125 87.91353607177734 45.4567756652832 C 87.91353607177734 39.72381591796875 86.79141235351562 34.16394424438477 84.57830810546875 28.93160247802734 C 82.44007110595703 23.87622833251953 79.37837219238281 19.33543395996094 75.47824096679688 15.435302734375 C 71.57810974121094 11.53517150878906 67.03730773925781 8.473472595214844 61.98194122314453 6.335227966308594 C 56.74959564208984 4.12213134765625 51.18972396850586 3 45.45676803588867 3 M 45.45676803588867 0 C 70.56185150146484 0 90.91353607177734 20.35169219970703 90.91353607177734 45.4567756652832 L 90.91353607177734 45.4572868347168 C 90.91353607177734 70.5623779296875 70.56185150146484 90.9140625 45.45676803588867 90.9140625 C 20.3516845703125 90.9140625 0 70.5623779296875 0 45.4572868347168 L 0 45.4567756652832 C 0 20.35169219970703 20.3516845703125 0 45.45676803588867 0 Z" stroke="none" fill="#fff"/>
            </g>
          </g>
        </g>
      </g>
    </g>
    <g id="Grupo_1179871" data-name="Grupo 1179871" transform="translate(927.051 551.005)">
      <path id="Trazado_1046223" data-name="Trazado 1046223" d="M61.922,35.495H9.306A1.8,1.8,0,0,0,7.5,37.3v8.3H63.728V37.3a1.805,1.805,0,0,0-1.805-1.805Z" transform="translate(-6.652 -6.652)" fill="#ffe177"/>
      <path id="Trazado_1046224" data-name="Trazado 1046224" d="M462.826,35.495h-3.281a1.8,1.8,0,0,1,1.8,1.805v8.3h3.281V37.3A1.805,1.805,0,0,0,462.826,35.495Z" transform="translate(-407.556 -6.652)" fill="#ffd15b"/>
      <path id="Trazado_1046225" data-name="Trazado 1046225" d="M27.478,79.311l-.92-1.993a1.024,1.024,0,0,0-.93-.595H16.292a1.024,1.024,0,0,0-.93.595l-.92,1.993a1.024,1.024,0,0,1-.93.595H7.5v40.241a1.8,1.8,0,0,0,1.805,1.805H61.921a1.8,1.8,0,0,0,1.805-1.805V79.905H28.408a1.024,1.024,0,0,1-.93-.595Z" transform="translate(-6.651 -43.215)" fill="#f5f8f9"/>
      <g id="Grupo_1179869" data-name="Grupo 1179869" transform="translate(51.989 36.69)">
        <path id="Trazado_1046226" data-name="Trazado 1046226" d="M461.35,104.853v40.241a1.8,1.8,0,0,1-1.8,1.805h3.281a1.8,1.8,0,0,0,1.8-1.805V104.853Z" transform="translate(-459.545 -104.853)" fill="#e8edf2"/>
      </g>
      <g id="Grupo_1179870" data-name="Grupo 1179870" transform="translate(0 27.995)">
        <path id="Trazado_1046227" data-name="Trazado 1046227" d="M55.27,28H8a.848.848,0,1,0,0,1.7H55.27a.958.958,0,0,1,.957.957v5.193H21.756a.176.176,0,0,1-.159-.1l-.92-1.993a1.878,1.878,0,0,0-1.7-1.088H9.641a1.878,1.878,0,0,0-1.7,1.088l-.92,1.993a.176.176,0,0,1-.159.1H1.7V30.649a.958.958,0,0,1,.957-.957H4.715a.848.848,0,1,0,0-1.7H2.654A2.657,2.657,0,0,0,0,30.649V76.931a2.657,2.657,0,0,0,2.654,2.654H55.27a2.656,2.656,0,0,0,2.654-2.654v-5.2a.848.848,0,1,0-1.7,0v5.2a.958.958,0,0,1-.957.957H2.654a.958.958,0,0,1-.957-.957V37.539H6.862a1.878,1.878,0,0,0,1.7-1.088l.92-1.993a.176.176,0,0,1,.159-.1h9.336a.176.176,0,0,1,.159.1l.92,1.993a1.878,1.878,0,0,0,1.7,1.088H56.227V68.454a.848.848,0,0,0,1.7,0V30.649A2.656,2.656,0,0,0,55.27,28Z" transform="translate(0 -27.995)"/>
        <path id="Trazado_1046228" data-name="Trazado 1046228" d="M359.934,64.371a.848.848,0,0,0,0-1.7h-.822a.848.848,0,0,0,0,1.7Z" transform="translate(-317.732 -58.751)"/>
        <path id="Trazado_1046229" data-name="Trazado 1046229" d="M395.934,64.371a.848.848,0,0,0,0-1.7h-.822a.848.848,0,0,0,0,1.7Z" transform="translate(-349.659 -58.751)"/>
        <path id="Trazado_1046230" data-name="Trazado 1046230" d="M431.934,64.371a.848.848,0,0,0,0-1.7h-.822a.848.848,0,1,0,0,1.7Z" transform="translate(-381.587 -58.751)"/>
        <path id="Trazado_1046231" data-name="Trazado 1046231" d="M89.528,285.379a.848.848,0,1,0,0,1.7H90.4a.848.848,0,1,0,0-1.7Z" transform="translate(-78.647 -256.261)"/>
        <path id="Trazado_1046232" data-name="Trazado 1046232" d="M137.594,286.228a.848.848,0,0,0,.848.848h5.4a.848.848,0,1,0,0-1.7h-5.4A.848.848,0,0,0,137.594,286.228Z" transform="translate(-122.028 -256.261)"/>
        <path id="Trazado_1046233" data-name="Trazado 1046233" d="M235.865,286.228a.848.848,0,0,0-.848-.849h-7.66a.848.848,0,1,0,0,1.7h7.66A.848.848,0,0,0,235.865,286.228Z" transform="translate(-200.883 -256.261)"/>
        <path id="Trazado_1046234" data-name="Trazado 1046234" d="M335.423,286.228a.848.848,0,0,0,.848.848h3.135a.848.848,0,0,0,0-1.7h-3.135A.848.848,0,0,0,335.423,286.228Z" transform="translate(-297.476 -256.261)"/>
        <path id="Trazado_1046235" data-name="Trazado 1046235" d="M411.431,286.228a.848.848,0,0,0-.848-.849h-5.4a.848.848,0,1,0,0,1.7h5.4A.848.848,0,0,0,411.431,286.228Z" transform="translate(-358.594 -256.261)"/>
        <path id="Trazado_1046236" data-name="Trazado 1046236" d="M89.528,324.133h4.266a.848.848,0,0,0,0-1.7H89.528a.848.848,0,1,0,0,1.7Z" transform="translate(-78.647 -289.125)"/>
        <path id="Trazado_1046237" data-name="Trazado 1046237" d="M176.1,322.436h-7.66a.848.848,0,1,0,0,1.7h7.66a.848.848,0,1,0,0-1.7Z" transform="translate(-148.634 -289.125)"/>
        <path id="Trazado_1046238" data-name="Trazado 1046238" d="M280.491,322.436h-3.135a.848.848,0,1,0,0,1.7h3.135a.848.848,0,0,0,0-1.7Z" transform="translate(-245.226 -289.125)"/>
        <path id="Trazado_1046239" data-name="Trazado 1046239" d="M345.423,323.284a.848.848,0,0,0,.848.849h5.4a.848.848,0,0,0,0-1.7h-5.4A.848.848,0,0,0,345.423,323.284Z" transform="translate(-306.345 -289.125)"/>
        <path id="Trazado_1046240" data-name="Trazado 1046240" d="M437.189,322.436h-2a.848.848,0,0,0,0,1.7h2a.848.848,0,0,0,0-1.7Z" transform="translate(-385.2 -289.125)"/>
        <path id="Trazado_1046241" data-name="Trazado 1046241" d="M48.68,361.24a.848.848,0,0,0,.848.849h7.66a.848.848,0,1,0,0-1.7h-7.66A.848.848,0,0,0,48.68,361.24Z" transform="translate(-43.173 -322.787)"/>
        <path id="Trazado_1046242" data-name="Trazado 1046242" d="M164.971,362.089a.848.848,0,1,0,0-1.7h-6.529a.848.848,0,1,0,0,1.7Z" transform="translate(-139.765 -322.787)"/>
        <path id="Trazado_1046243" data-name="Trazado 1046243" d="M257.357,362.089h4.266a.848.848,0,1,0,0-1.7h-4.266a.848.848,0,1,0,0,1.7Z" transform="translate(-227.489 -322.787)"/>
        <path id="Trazado_1046244" data-name="Trazado 1046244" d="M343.931,360.392h-7.66a.848.848,0,0,0,0,1.7h7.66a.848.848,0,0,0,0-1.7Z" transform="translate(-297.476 -322.787)"/>
        <path id="Trazado_1046245" data-name="Trazado 1046245" d="M49.528,399.145H60.582a.848.848,0,1,0,0-1.7H49.528a.848.848,0,1,0,0,1.7Z" transform="translate(-43.173 -355.651)"/>
        <path id="Trazado_1046246" data-name="Trazado 1046246" d="M188.443,399.145h5.4a.848.848,0,1,0,0-1.7h-5.4a.848.848,0,1,0,0,1.7Z" transform="translate(-166.371 -355.651)"/>
        <path id="Trazado_1046247" data-name="Trazado 1046247" d="M277.357,399.145h3.135a.848.848,0,0,0,0-1.7h-3.135a.848.848,0,1,0,0,1.7Z" transform="translate(-245.226 -355.651)"/>
        <path id="Trazado_1046248" data-name="Trazado 1046248" d="M352.8,397.448h-6.529a.848.848,0,0,0,0,1.7H352.8a.848.848,0,1,0,0-1.7Z" transform="translate(-306.345 -355.651)"/>
        <path id="Trazado_1046249" data-name="Trazado 1046249" d="M36.919,264.5a1.521,1.521,0,0,1,1.52-1.52.848.848,0,1,0,0-1.7,3.22,3.22,0,0,0-3.217,3.217.14.14,0,0,1-.047.1l-.983.867a.849.849,0,0,0,0,1.273l.983.867a.139.139,0,0,1,.047.1,3.22,3.22,0,0,0,3.217,3.216.848.848,0,0,0,0-1.7,1.521,1.521,0,0,1-1.52-1.519,1.837,1.837,0,0,0-.622-1.377l-.261-.23.262-.231A1.837,1.837,0,0,0,36.919,264.5Z" transform="translate(-30.069 -234.89)"/>
        <path id="Trazado_1046250" data-name="Trazado 1046250" d="M432.89,351.226a1.521,1.521,0,0,1-1.519,1.52.848.848,0,1,0,0,1.7,3.22,3.22,0,0,0,3.216-3.217.139.139,0,0,1,.047-.1l.983-.867a.849.849,0,0,0,0-1.273l-.983-.867a.139.139,0,0,1-.047-.1,3.22,3.22,0,0,0-3.216-3.217.848.848,0,1,0,0,1.7,1.521,1.521,0,0,1,1.519,1.52,1.837,1.837,0,0,0,.622,1.377l.261.231-.261.23A1.837,1.837,0,0,0,432.89,351.226Z" transform="translate(-381.816 -308.954)"/>
        <path id="Trazado_1046251" data-name="Trazado 1046251" d="M105.834,155.413a.848.848,0,0,0,0,1.7h.182l-.394,1.9a.848.848,0,1,0,1.661.345l.466-2.242h1.012l-.394,1.9a.848.848,0,1,0,1.661.345l.466-2.242h.544a.848.848,0,1,0,0-1.7h-.191l.278-1.339h.54a.848.848,0,1,0,0-1.7h-.188l.384-1.848a.848.848,0,1,0-1.661-.345l-.456,2.193h-1.012l.384-1.848a.848.848,0,1,0-1.661-.345L107,152.378h-.538a.848.848,0,1,0,0,1.7h.185l-.278,1.339h-.535Zm2.546-1.339h1.012l-.278,1.339H108.1Z" transform="translate(-93.109 -135.762)"/>
        <path id="Trazado_1046252" data-name="Trazado 1046252" d="M187.342,148.128a3.889,3.889,0,0,1,2.186.667.849.849,0,0,0,.95-1.406,5.608,5.608,0,1,0-3.136,10.257A4.593,4.593,0,0,0,190.99,156a.848.848,0,0,0-1.3-1.09,2.9,2.9,0,0,1-2.348,1.04,3.911,3.911,0,1,1,0-7.821Z" transform="translate(-161.174 -133.032)"/>
        <path id="Trazado_1046253" data-name="Trazado 1046253" d="M285.251,170.729a.848.848,0,0,0-.848-.848h-1.495v-1.495a.848.848,0,1,0-1.7,0v1.495h-1.551a.848.848,0,1,0,0,1.7h1.551v1.551a.848.848,0,1,0,1.7,0v-1.551H284.4A.848.848,0,0,0,285.251,170.729Z" transform="translate(-247.269 -151.75)"/>
        <path id="Trazado_1046254" data-name="Trazado 1046254" d="M353.337,167.537a.848.848,0,0,0-.848.848v1.495h-1.551a.848.848,0,1,0,0,1.7h1.551v1.551a.848.848,0,1,0,1.7,0v-1.551h1.495a.848.848,0,1,0,0-1.7h-1.495v-1.495A.849.849,0,0,0,353.337,167.537Z" transform="translate(-310.483 -151.75)"/>
      </g>
    </g>
  </g>
</svg>
