<svg xmlns="http://www.w3.org/2000/svg" xmlns:xlink="http://www.w3.org/1999/xlink" width="108.914" height="108.914" viewBox="0 0 108.914 108.914">
  <defs>
    <filter id="Trazado_874925" x="0" y="0" width="108.914" height="108.914" filterUnits="userSpaceOnUse">
      <feOffset dy="3" input="SourceAlpha"/>
      <feGaussianBlur stdDeviation="3" result="blur"/>
      <feFlood flood-opacity="0.161"/>
      <feComposite operator="in" in2="blur"/>
      <feComposite in="SourceGraphic"/>
    </filter>
  </defs>
  <g id="Grupo_1179887" data-name="Grupo 1179887" transform="translate(-1218.051 -554)">
    <g id="Grupo_1111507" data-name="Grupo 1111507" transform="translate(418.551 -1408.211)">
      <g id="Grupo_1111314" data-name="Grupo 1111314" transform="translate(0 16)">
        <g id="Grupo_1109835" data-name="Grupo 1109835">
          <g id="Grupo_1107913" data-name="Grupo 1107913" transform="translate(808.5 1952.211)">
            <g transform="matrix(1, 0, 0, 1, -9, -6)" filter="url(#Trazado_874925)">
              <g id="Trazado_874925-2" data-name="Trazado 874925" transform="translate(9 6)" fill="#1bebf5" opacity="0.859">
                <path d="M 45.45676803588867 89.41407012939453 C 39.52198028564453 89.41407012939453 33.76551818847656 88.25206756591797 28.34726715087891 85.96034240722656 C 23.11311721801758 83.74648284912109 18.41204261779785 80.57682800292969 14.37464332580566 76.5394287109375 C 10.33724308013916 72.50202941894531 7.167593002319336 67.80095672607422 4.953730583190918 62.56679534912109 C 2.662005424499512 57.14855575561523 1.500005483627319 51.39208221435547 1.500005483627319 45.45729446411133 C 1.500005483627319 39.52198028564453 2.662005424499512 33.76551818847656 4.953730583190918 28.34726905822754 C 7.167593002319336 23.11310577392578 10.33724308013916 18.41203117370605 14.37464332580566 14.37464332580566 C 18.41204261779785 10.33724403381348 23.11311721801758 7.167593955993652 28.34726715087891 4.953731060028076 C 33.76551818847656 2.662006139755249 39.52198028564453 1.500006198883057 45.45676803588867 1.500006198883057 C 51.39155578613281 1.500006198883057 57.14802932739258 2.662006139755249 62.56626892089844 4.953731060028076 C 67.80043029785156 7.167593955993652 72.50150299072266 10.33724403381348 76.53890228271484 14.37464332580566 C 80.57630920410156 18.41203117370605 83.74595642089844 23.11310577392578 85.95981597900391 28.34726905822754 C 88.25154113769531 33.76551818847656 89.41354370117188 39.52198028564453 89.41354370117188 45.45676803588867 C 89.41354370117188 51.39208221435547 88.25154113769531 57.14855575561523 85.95981597900391 62.56679534912109 C 83.74595642089844 67.80095672607422 80.57630920410156 72.50202941894531 76.53890228271484 76.5394287109375 C 72.50150299072266 80.57682800292969 67.80043029785156 83.74648284912109 62.56626892089844 85.96034240722656 C 57.14802932739258 88.25206756591797 51.39155578613281 89.41407012939453 45.45676803588867 89.41407012939453 Z" stroke="none"/>
                <path d="M 45.45676803588867 3 C 39.72381210327148 3 34.1639404296875 4.12213134765625 28.93159484863281 6.335227966308594 C 23.87622833251953 8.473472595214844 19.33542633056641 11.53517150878906 15.43529510498047 15.435302734375 C 11.53517150878906 19.33543395996094 8.473464965820312 23.87622833251953 6.335227966308594 28.93160247802734 C 4.122123718261719 34.16394424438477 3 39.72381591796875 3 45.4572868347168 C 3 51.19024658203125 4.122123718261719 56.75011825561523 6.335227966308594 61.98246002197266 C 8.473464965820312 67.03782653808594 11.53517150878906 71.57862854003906 15.43529510498047 75.478759765625 C 19.33542633056641 79.37889099121094 23.87622833251953 82.44058990478516 28.93159484863281 84.57883453369141 C 34.1639404296875 86.79193115234375 39.72381210327148 87.9140625 45.45676803588867 87.9140625 C 51.18972396850586 87.9140625 56.74959564208984 86.79193115234375 61.98194122314453 84.57883453369141 C 67.03730773925781 82.44058990478516 71.57810974121094 79.37889099121094 75.47824096679688 75.478759765625 C 79.37837219238281 71.57862854003906 82.44007110595703 67.03782653808594 84.57830810546875 61.98246002197266 C 86.79141235351562 56.75011825561523 87.91353607177734 51.19024658203125 87.91353607177734 45.4567756652832 C 87.91353607177734 39.72381591796875 86.79141235351562 34.16394424438477 84.57830810546875 28.93160247802734 C 82.44007110595703 23.87622833251953 79.37837219238281 19.33543395996094 75.47824096679688 15.435302734375 C 71.57810974121094 11.53517150878906 67.03730773925781 8.473472595214844 61.98194122314453 6.335227966308594 C 56.74959564208984 4.12213134765625 51.18972396850586 3 45.45676803588867 3 M 45.45676803588867 0 C 70.56185150146484 0 90.91353607177734 20.35169219970703 90.91353607177734 45.4567756652832 L 90.91353607177734 45.4572868347168 C 90.91353607177734 70.5623779296875 70.56185150146484 90.9140625 45.45676803588867 90.9140625 C 20.3516845703125 90.9140625 0 70.5623779296875 0 45.4572868347168 L 0 45.4567756652832 C 0 20.35169219970703 20.3516845703125 0 45.45676803588867 0 Z" stroke="none" fill="#fff"/>
              </g>
            </g>
            <g id="Trazado_874923" data-name="Trazado 874923" transform="translate(0 0)" fill="none">
              <path d="M45.457,0A45.457,45.457,0,0,1,90.914,45.457h0A45.457,45.457,0,0,1,0,45.457H0A45.457,45.457,0,0,1,45.457,0Z" stroke="none"/>
              <path d="M 45.45676803588867 3 C 39.72381210327148 3 34.1639404296875 4.12213134765625 28.93159484863281 6.335227966308594 C 23.87622833251953 8.473472595214844 19.33542633056641 11.53517150878906 15.43529510498047 15.435302734375 C 11.53517150878906 19.33543395996094 8.473464965820312 23.87622833251953 6.335227966308594 28.93160247802734 C 4.122123718261719 34.16394424438477 3 39.72381591796875 3 45.4572868347168 C 3 51.19024658203125 4.122123718261719 56.75011825561523 6.335227966308594 61.98246002197266 C 8.473464965820312 67.03782653808594 11.53517150878906 71.57862854003906 15.43529510498047 75.478759765625 C 19.33542633056641 79.37889099121094 23.87622833251953 82.44058990478516 28.93159484863281 84.57883453369141 C 34.1639404296875 86.79193115234375 39.72381210327148 87.9140625 45.45676803588867 87.9140625 C 51.18972396850586 87.9140625 56.74959564208984 86.79193115234375 61.98194122314453 84.57883453369141 C 67.03730773925781 82.44058990478516 71.57810974121094 79.37889099121094 75.47824096679688 75.478759765625 C 79.37837219238281 71.57862854003906 82.44007110595703 67.03782653808594 84.57830810546875 61.98246002197266 C 86.79141235351562 56.75011825561523 87.91353607177734 51.19024658203125 87.91353607177734 45.4567756652832 C 87.91353607177734 39.72381591796875 86.79141235351562 34.16394424438477 84.57830810546875 28.93160247802734 C 82.44007110595703 23.87622833251953 79.37837219238281 19.33543395996094 75.47824096679688 15.435302734375 C 71.57810974121094 11.53517150878906 67.03730773925781 8.473472595214844 61.98194122314453 6.335227966308594 C 56.74959564208984 4.12213134765625 51.18972396850586 3 45.45676803588867 3 M 45.45676803588867 0 C 70.56185150146484 0 90.91353607177734 20.35169219970703 90.91353607177734 45.4567756652832 L 90.91353607177734 45.4572868347168 C 90.91353607177734 70.5623779296875 70.56185150146484 90.9140625 45.45676803588867 90.9140625 C 20.3516845703125 90.9140625 0 70.5623779296875 0 45.4572868347168 L 0 45.4567756652832 C 0 20.35169219970703 20.3516845703125 0 45.45676803588867 0 Z" stroke="none" fill="#fff"/>
            </g>
          </g>
        </g>
      </g>
    </g>
    <g id="Grupo_1179886" data-name="Grupo 1179886" transform="translate(1241.486 547.729)">
      <g id="Grupo_1179877" data-name="Grupo 1179877" transform="translate(0.923 30.194)">
        <g id="Grupo_1179873" data-name="Grupo 1179873" transform="translate(0 7.915)">
          <path id="Trazado_1046255" data-name="Trazado 1046255" d="M66.495,147.124H9.684A2.185,2.185,0,0,1,7.5,144.939V101.064H68.68v43.875a2.185,2.185,0,0,1-2.185,2.185Z" transform="translate(-7.499 -101.064)" fill="#f8f6f6"/>
        </g>
        <g id="Grupo_1179874" data-name="Grupo 1179874" transform="translate(56.534 7.915)">
          <path id="Trazado_1046256" data-name="Trazado 1046256" d="M471.4,101.066v43.875a2.186,2.186,0,0,1-2.186,2.185h-2.462a2.186,2.186,0,0,0,2.186-2.185V101.066Z" transform="translate(-466.748 -101.066)" fill="#ebebeb"/>
        </g>
        <g id="Grupo_1179875" data-name="Grupo 1179875" transform="translate(0 0)">
          <path id="Trazado_1046257" data-name="Trazado 1046257" d="M68.682,44.684H7.5V38.954a2.185,2.185,0,0,1,2.185-2.185H66.5a2.185,2.185,0,0,1,2.185,2.185v5.729Z" transform="translate(-7.501 -36.769)" fill="#b3dafe"/>
        </g>
        <g id="Grupo_1179876" data-name="Grupo 1179876" transform="translate(56.534 0)">
          <path id="Trazado_1046258" data-name="Trazado 1046258" d="M471.4,38.958v5.73h-2.462v-5.73a2.186,2.186,0,0,0-2.186-2.185h2.462A2.186,2.186,0,0,1,471.4,38.958Z" transform="translate(-466.748 -36.773)" fill="#8ac9fe"/>
        </g>
      </g>
      <g id="Grupo_1179878" data-name="Grupo 1179878" transform="translate(6.913 43.404)">
        <path id="Trazado_1046259" data-name="Trazado 1046259" d="M56.156,144.08h49.2v8.364h-49.2Z" transform="translate(-56.156 -144.08)" fill="#b0e7c9"/>
      </g>
      <g id="Grupo_1179879" data-name="Grupo 1179879" transform="translate(33.238 34.151)">
        <circle id="Elipse_11879" data-name="Elipse 11879" cx="12.362" cy="12.362" r="12.362" transform="translate(0 0)" fill="#9c9c9c"/>
      </g>
      <g id="Grupo_1179880" data-name="Grupo 1179880" transform="translate(39.904 34.581)">
        <path id="Trazado_1046260" data-name="Trazado 1046260" d="M342.212,84.342a12.365,12.365,0,0,1-18.058,10.973,12.365,12.365,0,0,0,8.935-22.905A12.365,12.365,0,0,1,342.212,84.342Z" transform="translate(-324.154 -72.41)" fill="#838383"/>
      </g>
      <g id="Grupo_1179881" data-name="Grupo 1179881" transform="translate(42.673 64.329)">
        <path id="Trazado_1046261" data-name="Trazado 1046261" d="M349.576,330a2.926,2.926,0,0,1-2.926-2.927V314.058H352.5v13.018A2.926,2.926,0,0,1,349.576,330Z" transform="translate(-346.65 -314.058)" fill="#fedba6"/>
      </g>
      <g id="Grupo_1179882" data-name="Grupo 1179882" transform="translate(44.416 64.328)">
        <path id="Trazado_1046262" data-name="Trazado 1046262" d="M364.92,314.054v13.019a2.927,2.927,0,0,1-4.11,2.676,2.924,2.924,0,0,0,1.743-2.676V314.054Z" transform="translate(-360.81 -314.054)" fill="#fece85"/>
      </g>
      <g id="Grupo_1179883" data-name="Grupo 1179883" transform="translate(37.109 38.023)">
        <circle id="Elipse_11880" data-name="Elipse 11880" cx="8.49" cy="8.49" r="8.49" transform="translate(0 0)" fill="#f8f6f6"/>
      </g>
      <g id="Grupo_1179884" data-name="Grupo 1179884" transform="translate(41.433 38.194)">
        <path id="Trazado_1046263" data-name="Trazado 1046263" d="M349.23,110.076a8.492,8.492,0,0,1-12.657,7.4,8.492,8.492,0,0,0,5.87-15.718A8.492,8.492,0,0,1,349.23,110.076Z" transform="translate(-336.573 -101.756)" fill="#ebebeb"/>
      </g>
      <g id="Grupo_1179885" data-name="Grupo 1179885" transform="translate(0 29.271)">
        <path id="Trazado_1046264" data-name="Trazado 1046264" d="M303.367,92.868a9.413,9.413,0,1,0,0,18.827c5.433,0,9.573-5.048,9.219-10.361a8.9,8.9,0,0,0-2.567-5.707A9.461,9.461,0,0,0,303.367,92.868Zm0,16.97a7.242,7.242,0,0,1-6.5-3.764,8.281,8.281,0,0,1-.954-4.987,7.559,7.559,0,1,1,7.457,8.751Z" transform="translate(-257.768 -85.039)"/>
        <path id="Trazado_1046265" data-name="Trazado 1046265" d="M358.1,138.877a.923.923,0,0,0-1.2.517l-2.255,5.669a.923.923,0,1,0,1.716.682l2.255-5.669A.923.923,0,0,0,358.1,138.877Z" transform="translate(-310.936 -125.327)"/>
        <path id="Trazado_1046266" data-name="Trazado 1046266" d="M393.069,141.154a.923.923,0,0,0-.314,1.267l1.232,2.044-1.24,2.142a.923.923,0,1,0,1.6.925l1.514-2.614a.923.923,0,0,0-.008-.939l-1.514-2.511A.923.923,0,0,0,393.069,141.154Z" transform="translate(-344.29 -127.265)"/>
        <path id="Trazado_1046267" data-name="Trazado 1046267" d="M322.92,144.464l1.232-2.044a.923.923,0,0,0-1.581-.953l-1.514,2.511a.923.923,0,0,0-.008.939l1.514,2.614a.923.923,0,1,0,1.6-.925Z" transform="translate(-281.418 -127.264)"/>
        <path id="Trazado_1046268" data-name="Trazado 1046268" d="M52.8,59.207a1.236,1.236,0,1,0,1.236-1.236A1.236,1.236,0,0,0,52.8,59.207Z" transform="translate(-46.299 -54.438)"/>
        <path id="Trazado_1046269" data-name="Trazado 1046269" d="M91.19,59.207a1.236,1.236,0,1,0,1.236-1.236A1.236,1.236,0,0,0,91.19,59.207Z" transform="translate(-79.964 -54.438)"/>
        <path id="Trazado_1046270" data-name="Trazado 1046270" d="M129.582,59.207a1.236,1.236,0,1,0,1.236-1.236A1.236,1.236,0,0,0,129.582,59.207Z" transform="translate(-113.63 -54.438)"/>
        <path id="Trazado_1046271" data-name="Trazado 1046271" d="M59.919,29.271H54.845a.923.923,0,0,0,0,1.846h5.074a1.263,1.263,0,0,1,1.262,1.262v4.806H55.049a13.262,13.262,0,0,0-18.9,0H1.847V32.379a1.263,1.263,0,0,1,1.262-1.262H50.552a.923.923,0,1,0,0-1.846H3.109A3.112,3.112,0,0,0,0,32.379V67.265a.923.923,0,0,0,1.846,0V39.032H34.627a13.251,13.251,0,0,0-1.686,3.449H6.913a.923.923,0,0,0-.923.923v8.364a.923.923,0,0,0,.923.923H33.841a13.306,13.306,0,0,0,10.835,7.075v3.64h-2a.923.923,0,0,0-.923.923V77.347a3.85,3.85,0,0,0,7.7,0V64.329a.923.923,0,0,0-.923-.923h-2v-3.64A13.278,13.278,0,0,0,56.572,39.032h4.609V81.984a1.263,1.263,0,0,1-1.262,1.262H3.108a1.263,1.263,0,0,1-1.262-1.262V71.548a.923.923,0,1,0-1.846,0V81.984a3.112,3.112,0,0,0,3.108,3.108H59.919a3.112,3.112,0,0,0,3.108-3.108v-49.6a3.112,3.112,0,0,0-3.108-3.108ZM7.836,50.845V44.327H32.5a13.27,13.27,0,0,0,.544,6.518ZM47.6,65.252v12.1a2,2,0,0,1-4.007,0v-12.1Zm9.435-18.739a11.43,11.43,0,0,1-.7,3.947,11.444,11.444,0,0,1-22.176-3.947,11.439,11.439,0,1,1,22.877,0Z" transform="translate(0 -29.271)"/>
        <path id="Trazado_1046272" data-name="Trazado 1046272" d="M130.445,260.025V235.18a.923.923,0,0,0-1.846,0v24.845a.923.923,0,0,0,1.846,0Z" transform="translate(-112.768 -209.023)"/>
        <path id="Trazado_1046273" data-name="Trazado 1046273" d="M49.58,254.912h5.088a.923.923,0,1,0,0-1.846H49.58a.923.923,0,1,0,0,1.846Z" transform="translate(-42.667 -225.517)"/>
        <path id="Trazado_1046274" data-name="Trazado 1046274" d="M49.58,287.755h5.088a.923.923,0,1,0,0-1.846H49.58a.923.923,0,1,0,0,1.846Z" transform="translate(-42.667 -254.317)"/>
        <path id="Trazado_1046275" data-name="Trazado 1046275" d="M49.58,320.6h5.088a.923.923,0,1,0,0-1.846H49.58a.923.923,0,1,0,0,1.846Z" transform="translate(-42.667 -283.116)"/>
        <path id="Trazado_1046276" data-name="Trazado 1046276" d="M49.58,353.439h5.088a.923.923,0,1,0,0-1.846H49.58a.923.923,0,1,0,0,1.846Z" transform="translate(-42.667 -311.915)"/>
        <path id="Trazado_1046277" data-name="Trazado 1046277" d="M49.58,386.281h5.088a.923.923,0,1,0,0-1.846H49.58a.923.923,0,1,0,0,1.846Z" transform="translate(-42.667 -340.714)"/>
        <path id="Trazado_1046278" data-name="Trazado 1046278" d="M49.58,419.124h5.088a.923.923,0,1,0,0-1.846H49.58a.923.923,0,1,0,0,1.846Z" transform="translate(-42.667 -369.514)"/>
      </g>
    </g>
  </g>
</svg>
