<svg xmlns="http://www.w3.org/2000/svg" width="60.223" height="68.482" viewBox="0 0 60.223 68.482">
  <g id="Grupo_1181085" data-name="Grupo 1181085" transform="translate(-195 -2044)">
    <path id="Rect치ngulo_401315" data-name="Rect치ngulo 401315" d="M5,0H25a5,5,0,0,1,5,5V66a0,0,0,0,1,0,0H0a0,0,0,0,1,0,0V5A5,5,0,0,1,5,0Z" transform="translate(195.73 2044)" fill="#1bebf5"/>
    <g id="programmer_360487" transform="translate(195 2052.245)">
      <g id="Grupo_1178853" data-name="Grupo 1178853" transform="translate(48.425 27.104)">
        <path id="Trazado_1043762" data-name="Trazado 1043762" d="M422.269,231.839v1.473H411.7v-1.473a1.552,1.552,0,0,1,1.552-1.553h7.464a1.553,1.553,0,0,1,1.552,1.553Z" transform="translate(-411.7 -230.286)" fill="#ecebed"/>
        <path id="Trazado_1043763" data-name="Trazado 1043763" d="M413.308,347.646h8.96v1.891a1.553,1.553,0,0,1-1.552,1.553h-7.464a1.552,1.552,0,0,1-1.552-1.553v-1.891Z" transform="translate(-411.699 -333.842)" fill="#ecebed"/>
      </g>
      <g id="Grupo_1178854" data-name="Grupo 1178854" transform="translate(1.235 26.046)">
        <rect id="Rect치ngulo_406082" data-name="Rect치ngulo 406082" width="10.569" height="10.779" transform="translate(47.19 4.083)" fill="#27b5f7"/>
        <path id="Trazado_1043764" data-name="Trazado 1043764" d="M39.6,222.954v18.852H10.5V222.954a1.626,1.626,0,0,1,1.586-1.662H38.016a1.626,1.626,0,0,1,1.586,1.662Z" transform="translate(-10.499 -221.292)" fill="#27b5f7"/>
      </g>
      <path id="Trazado_1043765" data-name="Trazado 1043765" d="M124.687,319.126v2.394a1.982,1.982,0,0,1-1.219,1.829l-7.909,3.3a4.853,4.853,0,0,0-2.759,4.4v9.538H146.48v-9.538a4.853,4.853,0,0,0-2.759-4.4l-7.909-3.3a1.981,1.981,0,0,1-1.219-1.829v-2.394Z" transform="translate(-99.531 -281.573)" fill="#febba0"/>
      <path id="Trazado_1043766" data-name="Trazado 1043766" d="M143.719,346.357l-7.909-3.3a1.98,1.98,0,0,1-1.2-1.6v1.507a4.985,4.985,0,0,1-4.97,4.97h0a4.985,4.985,0,0,1-4.97-4.97V341.5a1.981,1.981,0,0,1-1.2,1.564l-7.909,3.3a4.853,4.853,0,0,0-2.759,4.4v9.538h33.681v-9.538A4.853,4.853,0,0,0,143.719,346.357Z" transform="translate(-99.53 -301.286)" fill="#89cd37"/>
      <path id="Trazado_1043767" data-name="Trazado 1043767" d="M163.412,89.5V85.919a11.039,11.039,0,1,0-22.077,0h-.043V89.5a2.753,2.753,0,1,0,0,5.505V97.06a5.4,5.4,0,0,0,2.257,4.121l6.654,3.8a3.818,3.818,0,0,0,4.3,0l6.634-3.8a5.418,5.418,0,0,0,2.277-4.121V95a2.753,2.753,0,1,0,0-5.505Z" transform="translate(-122.244 -66.056)" fill="#febba0"/>
      <path id="Trazado_1043768" data-name="Trazado 1043768" d="M167.448,35.178c-2.082-2.654-4.285-3.22-5.92-2.424a9.407,9.407,0,0,0-6.483-2.214c-7.328,0-11.337,5.622-11.337,10.618a17.568,17.568,0,0,0,2.145,8.73s.8-5.609,6.29-5.609a9.155,9.155,0,0,0,7.426-3.245c.656,1.709,3.832,2.427,5.08,3.53a14.745,14.745,0,0,1,3.323,3.891S171.863,40.8,167.448,35.178Z" transform="translate(-126.805 -26.93)" fill="#703e41"/>
      <path id="Trazado_1043769" data-name="Trazado 1043769" d="M104.226,252.2h-.016a1.229,1.229,0,0,1,0-2.458h.016a1.229,1.229,0,0,1,0,2.458Z" transform="translate(-90.868 -220.346)"/>
      <path id="Trazado_1043770" data-name="Trazado 1043770" d="M44.1,252.2H40.6a1.229,1.229,0,1,1,0-2.458H44.1a1.229,1.229,0,0,1,0,2.458Z" transform="translate(-34.737 -220.346)"/>
      <path id="Trazado_1043771" data-name="Trazado 1043771" d="M50.524,313.142H40.6a1.229,1.229,0,0,1,0-2.458h9.927a1.229,1.229,0,0,1,0,2.458Z" transform="translate(-34.737 -274.124)"/>
      <path id="Trazado_1043772" data-name="Trazado 1043772" d="M104.226,282.668h-.016a1.229,1.229,0,0,1,0-2.458h.016a1.229,1.229,0,0,1,0,2.458Z" transform="translate(-90.868 -247.234)"/>
      <path id="Trazado_1043773" data-name="Trazado 1043773" d="M44.1,282.669H40.6a1.229,1.229,0,1,1,0-2.458H44.1a1.229,1.229,0,1,1,0,2.458Z" transform="translate(-34.737 -247.235)"/>
      <path id="Trazado_1043774" data-name="Trazado 1043774" d="M134.743,282.669h-.115a1.229,1.229,0,1,1,0-2.458h.115a1.229,1.229,0,1,1,0,2.458Z" transform="translate(-117.708 -247.235)"/>
      <path id="Trazado_1043775" data-name="Trazado 1043775" d="M1.245,493.543H1.229a1.229,1.229,0,0,1,0-2.458h.016a1.229,1.229,0,0,1,0,2.458Z" transform="translate(0 -433.306)"/>
      <path id="Trazado_1043776" data-name="Trazado 1043776" d="M492.161,493.543h-.016a1.229,1.229,0,0,1,0-2.458h.016a1.229,1.229,0,1,1,0,2.458Z" transform="translate(-433.173 -433.306)"/>
      <path id="Trazado_1043777" data-name="Trazado 1043777" d="M283.772,214.872a1.374,1.374,0,1,1,1.374-1.374A1.375,1.375,0,0,1,283.772,214.872Z" transform="translate(-249.182 -187.158)"/>
      <path id="Trazado_1043778" data-name="Trazado 1043778" d="M207.567,214.872a1.374,1.374,0,1,1,1.374-1.374A1.375,1.375,0,0,1,207.567,214.872Z" transform="translate(-181.94 -187.158)"/>
      <path id="Trazado_1043779" data-name="Trazado 1043779" d="M237.79,265.009a2.433,2.433,0,0,1-2.43-2.43,1.229,1.229,0,0,1,1.229-1.229h2.4a1.229,1.229,0,0,1,1.229,1.229A2.432,2.432,0,0,1,237.79,265.009Z" transform="translate(-207.676 -230.593)"/>
      <path id="Trazado_1043780" data-name="Trazado 1043780" d="M193,419.269a1.225,1.225,0,0,1-.869-.36l-2.76-2.76a1.229,1.229,0,0,1,0-1.738l2.76-2.76a1.229,1.229,0,0,1,1.738,1.738l-1.891,1.891,1.891,1.891a1.229,1.229,0,0,1-.869,2.1Z" transform="translate(-166.776 -362.897)"/>
      <path id="Trazado_1043781" data-name="Trazado 1043781" d="M279.511,419.268a1.229,1.229,0,0,1-.869-2.1l1.891-1.891-1.891-1.891a1.229,1.229,0,0,1,1.738-1.738l2.76,2.76a1.229,1.229,0,0,1,0,1.738l-2.76,2.76A1.225,1.225,0,0,1,279.511,419.268Z" transform="translate(-245.55 -362.896)"/>
      <path id="Trazado_1043782" data-name="Trazado 1043782" d="M242.6,419.058a1.246,1.246,0,0,1-.224-.02,1.229,1.229,0,0,1-.986-1.431l1.021-5.548a1.229,1.229,0,0,1,2.417.445l-1.021,5.548A1.23,1.23,0,0,1,242.6,419.058Z" transform="translate(-212.978 -362.686)"/>
      <path id="Trazado_1043783" data-name="Trazado 1043783" d="M53.893,74.263a3.711,3.711,0,0,1-3.707-3.707V68.139a3.707,3.707,0,1,1,7.414,0v2.417A3.711,3.711,0,0,1,53.893,74.263Zm0-7.374a1.251,1.251,0,0,0-1.249,1.249v2.417a1.249,1.249,0,1,0,2.5,0V68.139A1.251,1.251,0,0,0,53.893,66.89Z" transform="translate(-44.283 -56.837)"/>
      <path id="Trazado_1043784" data-name="Trazado 1043784" d="M3.776,74.264a1.229,1.229,0,0,1-1.229-1.229V68.628l-.4.4A1.229,1.229,0,0,1,.41,67.289l2.5-2.5a1.229,1.229,0,0,1,2.1.869v7.374A1.229,1.229,0,0,1,3.776,74.264Z" transform="translate(-0.044 -56.837)"/>
      <path id="Trazado_1043785" data-name="Trazado 1043785" d="M403.043,9.85a3.711,3.711,0,0,1-3.707-3.707V3.726a3.707,3.707,0,0,1,7.414,0V6.143A3.711,3.711,0,0,1,403.043,9.85Zm0-7.373a1.251,1.251,0,0,0-1.249,1.249V6.143a1.249,1.249,0,0,0,2.5,0V3.726A1.251,1.251,0,0,0,403.043,2.477Z" transform="translate(-352.365)"/>
      <path id="Trazado_1043786" data-name="Trazado 1043786" d="M473.6,9.85a1.229,1.229,0,0,1-1.229-1.229V4.215l-.4.4a1.229,1.229,0,0,1-1.738-1.738l2.5-2.5a1.229,1.229,0,0,1,2.1.869V8.622A1.229,1.229,0,0,1,473.6,9.85Z" transform="translate(-414.606 0)"/>
      <path id="Trazado_1043787" data-name="Trazado 1043787" d="M411.5,219.838h-7.464a2.785,2.785,0,0,0-2.781,2.782v14.142a2.785,2.785,0,0,0,2.781,2.782H411.5a2.785,2.785,0,0,0,2.781-2.782V222.62A2.785,2.785,0,0,0,411.5,219.838Zm-7.787,5.483h8.111v8.321h-8.111Zm0-2.7a.324.324,0,0,1,.323-.324H411.5a.324.324,0,0,1,.323.324v.244h-8.111v-.244Zm8.111,14.142a.324.324,0,0,1-.323.324h-7.464a.324.324,0,0,1-.323-.324V236.1h8.111v.662Z" transform="translate(-354.055 -193.963)"/>
      <path id="Trazado_1043788" data-name="Trazado 1043788" d="M55.041,75.49H48.223V67.18a6.056,6.056,0,0,0-3.515-5.533l-7.909-3.3a.75.75,0,0,1-.454-.578c0-.006,0-.012,0-.018a.739.739,0,0,1-.007-.1V55.744L39.548,53.9l.066-.041a6.637,6.637,0,0,0,2.825-5.053c0-.031,0-.062,0-.094v-1.02a3.982,3.982,0,0,0,0-7.575v-.61c.7-1.526,3.612-8.7-.788-14.31-2.033-2.591-4.472-3.692-6.668-3.062a10.862,10.862,0,0,0-6.7-2.047c-7.866,0-12.566,6.024-12.566,11.847a19.848,19.848,0,0,0,1.774,8.324,4,4,0,0,0-2.133,2.265H2.866A2.857,2.857,0,0,0,.051,45.418V64.269A1.229,1.229,0,0,0,1.28,65.5H8.208v2.495H7.3a1.229,1.229,0,0,0,0,2.458h4.782v5.039H5.266a1.229,1.229,0,1,0,0,2.458H55.041a1.229,1.229,0,1,0,0-2.458Zm-12.3-31.583a1.525,1.525,0,0,1-1.524,1.524,1.229,1.229,0,0,0-1.229,1.229v2.005a4.23,4.23,0,0,1-1.7,3.126l-6.6,3.783-.066.041a2.6,2.6,0,0,1-2.943,0c-.022-.015-.044-.028-.067-.041L22,51.79a4.165,4.165,0,0,1-1.676-3.125V46.659a1.229,1.229,0,0,0-1.229-1.229,1.523,1.523,0,0,1-.249-3.025l1.361.688a5.1,5.1,0,0,0,9.947,2.235,5.1,5.1,0,0,0,9.95-2.22l1.365-.7A1.525,1.525,0,0,1,42.737,43.907Zm-8.86,13.247V59.4a3.724,3.724,0,1,1-7.449,0V57.155l.934.534a5.054,5.054,0,0,0,5.582,0ZM35.122,39.1a5.106,5.106,0,0,0-4.97,3.966,5.094,5.094,0,0,0-8.85-2.17l-.905-.458a5.09,5.09,0,0,1,4.987-4.148,10.506,10.506,0,0,0,7.308-2.6A11.728,11.728,0,0,0,35.375,35.3a8.973,8.973,0,0,1,1.7.963,15.362,15.362,0,0,1,2.909,3.3V40.4l-.973.5A5.088,5.088,0,0,0,35.122,39.1Zm2.641,5.1a2.641,2.641,0,1,1-2.641-2.64A2.643,2.643,0,0,1,37.762,44.2Zm-9.94,0a2.641,2.641,0,1,1-2.641-2.64A2.643,2.643,0,0,1,27.822,44.2Zm.463-21.648a8.137,8.137,0,0,1,5.684,1.92,1.229,1.229,0,0,0,1.336.171c1.262-.614,2.912.163,4.415,2.078h0c2.581,3.289,1.909,7.485,1.165,9.932A20.861,20.861,0,0,0,38.7,34.422a10.118,10.118,0,0,0-2.251-1.331c-1.006-.49-2.258-1.1-2.5-1.718a1.229,1.229,0,0,0-2.078-.363,7.983,7.983,0,0,1-6.5,2.82,7.04,7.04,0,0,0-6.243,3.377c-.043.068-.085.136-.125.2a18.029,18.029,0,0,1-.838-5.474C18.177,27.322,21.958,22.548,28.286,22.548ZM12.084,67.18v.813H10.666V65.5h1.656A6.141,6.141,0,0,0,12.084,67.18Zm1.586-4.14H2.509V45.418a.406.406,0,0,1,.357-.433h12.4a4,4,0,0,0,2.6,2.709v1.02c0,.031,0,.063,0,.094a6.629,6.629,0,0,0,2.806,5.053l.067.041,3.231,1.847v1.908a.75.75,0,0,1-.463.694l-7.909,3.3A5.389,5.389,0,0,0,13.67,63.041Zm32.1,12.449H14.541V67.18a3.643,3.643,0,0,1,2-3.264l7.562-3.151a6.2,6.2,0,0,0,12.091,0l7.565,3.152a3.643,3.643,0,0,1,2,3.264V75.49Z" transform="translate(-0.045 -17.71)"/>
    </g>
  </g>
</svg>
