<svg xmlns="http://www.w3.org/2000/svg" width="76.345" height="76.345" viewBox="0 0 76.345 76.345">
  <g id="Grupo_1181031" data-name="Grupo 1181031" transform="translate(-714 -404)">
    <g id="Grupo_1178888" data-name="Grupo 1178888" transform="translate(-311.037 -2688.655)">
      <g id="Grupo_1111311" data-name="Grupo 1111311">
        <g id="Grupo_1098742" data-name="Grupo 1098742" transform="translate(1025.482 3093.101)">
          <g id="Rect치ngulo_400898" data-name="Rect치ngulo 400898" transform="translate(-0.445 -0.445)" fill="#f8e32a" stroke="#c7b622" stroke-width="2" opacity="0.859">
            <rect width="76.345" height="76.345" rx="38.172" stroke="none"/>
            <rect x="1" y="1" width="74.345" height="74.345" rx="37.172" fill="none"/>
          </g>
          <g id="Rect치ngulo_400907" data-name="Rect치ngulo 400907" transform="translate(-0.446 -0.445)" fill="none" stroke="#c7b622" stroke-width="2">
            <rect width="76.345" height="76.345" rx="38.172" stroke="none"/>
            <rect x="1" y="1" width="74.345" height="74.345" rx="37.172" fill="none"/>
          </g>
        </g>
      </g>
    </g>
    <g id="Grupo_1181030" data-name="Grupo 1181030" transform="translate(729 418.5)">
      <path id="Trazado_1048698" data-name="Trazado 1048698" d="M49.168,44.586H9.748a2.255,2.255,0,0,1-2.255-2.255V10.248A2.255,2.255,0,0,1,9.748,7.992h39.42a2.255,2.255,0,0,1,2.255,2.255V42.331A2.255,2.255,0,0,1,49.168,44.586Zm0,0" transform="translate(-6.829 -6.829)" fill="#ffd86e"/>
      <path id="Trazado_1048699" data-name="Trazado 1048699" d="M452.334,10.251V42.335a2.255,2.255,0,0,1-2.255,2.255h-2.755a2.255,2.255,0,0,0,2.255-2.255V10.251A2.255,2.255,0,0,0,447.324,8h2.755A2.255,2.255,0,0,1,452.334,10.251Zm0,0" transform="translate(-407.74 -6.833)" fill="#ffb509"/>
      <path id="Trazado_1048700" data-name="Trazado 1048700" d="M51.423,360.129H7.492v3.178a2.255,2.255,0,0,0,2.255,2.255h39.42a2.255,2.255,0,0,0,2.255-2.255Zm0,0" transform="translate(-6.829 -327.805)" fill="#838383"/>
      <path id="Trazado_1048701" data-name="Trazado 1048701" d="M452.334,360.129v3.178a2.255,2.255,0,0,1-2.255,2.255h-2.755a2.255,2.255,0,0,0,2.255-2.255v-3.178Zm0,0" transform="translate(-407.74 -327.805)" fill="#5a5a5a"/>
      <path id="Trazado_1048702" data-name="Trazado 1048702" d="M51.979,15.686H8.047V10.247A2.255,2.255,0,0,1,10.3,7.992H49.724a2.255,2.255,0,0,1,2.255,2.255Zm0,0" transform="translate(-7.335 -6.829)" fill="#acacac"/>
      <path id="Trazado_1048703" data-name="Trazado 1048703" d="M452.385,10.251V15.69h-2.805V10.251A2.255,2.255,0,0,0,447.324,8h2.805A2.255,2.255,0,0,1,452.385,10.251Zm0,0" transform="translate(-407.74 -6.833)" fill="#9c9c9c"/>
      <path id="Trazado_1048704" data-name="Trazado 1048704" d="M186.277,421.531h12.289v3.7H186.277Zm0,0" transform="translate(-169.794 -383.774)" fill="#5a5a5a"/>
      <path id="Trazado_1048705" data-name="Trazado 1048705" d="M156.977,467.024H136.723a.442.442,0,0,1-.442-.442V465.15a1.759,1.759,0,0,1,1.759-1.759h17.62a1.759,1.759,0,0,1,1.759,1.759v1.432A.442.442,0,0,1,156.977,467.024Zm0,0" transform="translate(-124.222 -421.929)" fill="#838383"/>
      <path id="Trazado_1048706" data-name="Trazado 1048706" d="M336.409,465.153v1.433a.442.442,0,0,1-.442.442h-1.56v-1.875a1.759,1.759,0,0,0-1.758-1.758h2A1.759,1.759,0,0,1,336.409,465.153Zm0,0" transform="translate(-303.212 -421.933)" fill="#5a5a5a"/>
      <path id="Trazado_1048707" data-name="Trazado 1048707" d="M295.477,275.613h14.358v2.721H295.477Zm0,0" transform="translate(-269.33 -250.768)" fill="#64dcfc"/>
      <path id="Trazado_1048708" data-name="Trazado 1048708" d="M295.477,357.273h14.358V360H295.477Zm0,0" transform="translate(-269.33 -325.202)" fill="#64dcfc"/>
      <path id="Trazado_1048709" data-name="Trazado 1048709" d="M438.551,275.613h1.7v2.721h-1.7Zm0,0" transform="translate(-399.743 -250.768)" fill="#00d1fc"/>
      <path id="Trazado_1048710" data-name="Trazado 1048710" d="M438.551,357.273h1.7V360h-1.7Zm0,0" transform="translate(-399.743 -325.202)" fill="#00d1fc"/>
      <g id="Grupo_1181029" data-name="Grupo 1181029" transform="translate(24.317 20.34)">
        <path id="Trazado_1048711" data-name="Trazado 1048711" d="M292.174,229.212H275.438a.641.641,0,0,1-.641-.641v-3.223a.641.641,0,0,1,.641-.641h16.736a.641.641,0,0,1,.641.641v3.223A.641.641,0,0,1,292.174,229.212Zm0,0" transform="translate(-274.797 -224.707)" fill="#0396fd"/>
        <path id="Trazado_1048712" data-name="Trazado 1048712" d="M292.174,310.872H275.438a.641.641,0,0,1-.641-.641v-3.223a.641.641,0,0,1,.641-.641h16.736a.641.641,0,0,1,.641.641v3.223A.641.641,0,0,1,292.174,310.872Zm0,0" transform="translate(-274.797 -299.141)" fill="#0396fd"/>
        <path id="Trazado_1048713" data-name="Trazado 1048713" d="M292.174,392.532H275.438a.641.641,0,0,1-.641-.641v-3.223a.641.641,0,0,1,.641-.641h16.736a.641.641,0,0,1,.641.641v3.223A.641.641,0,0,1,292.174,392.532Zm0,0" transform="translate(-274.797 -373.575)" fill="#0396fd"/>
      </g>
      <path id="Trazado_1048714" data-name="Trazado 1048714" d="M456.5,225.352v3.223a.641.641,0,0,1-.641.641h-1.487a.641.641,0,0,0,.641-.641v-3.223a.641.641,0,0,0-.641-.641h1.487A.641.641,0,0,1,456.5,225.352Zm0,0" transform="translate(-414.16 -204.37)" fill="#0077f0"/>
      <path id="Trazado_1048715" data-name="Trazado 1048715" d="M456.5,307.008v3.223a.64.64,0,0,1-.641.641h-1.487a.64.64,0,0,0,.641-.641v-3.223a.641.641,0,0,0-.641-.641h1.487A.641.641,0,0,1,456.5,307.008Zm0,0" transform="translate(-414.16 -278.801)" fill="#0077f0"/>
      <path id="Trazado_1048716" data-name="Trazado 1048716" d="M456.5,388.672v3.222a.641.641,0,0,1-.641.641h-1.487a.641.641,0,0,0,.641-.641v-3.222a.64.64,0,0,0-.641-.641h1.487A.64.64,0,0,1,456.5,388.672Zm0,0" transform="translate(-414.16 -353.238)" fill="#0077f0"/>
      <path id="Trazado_1048717" data-name="Trazado 1048717" d="M43.331,38.037a1.283,1.283,0,1,1-1.283-1.283A1.283,1.283,0,0,1,43.331,38.037Zm0,0" transform="translate(-37.158 -33.046)" fill="#ff6b81"/>
      <path id="Trazado_1048718" data-name="Trazado 1048718" d="M99.316,38.037a1.283,1.283,0,1,1-1.283-1.283A1.283,1.283,0,0,1,99.316,38.037Zm0,0" transform="translate(-88.189 -33.046)" fill="#ffd86e"/>
      <path id="Trazado_1048719" data-name="Trazado 1048719" d="M155.3,38.037a1.283,1.283,0,1,1-1.283-1.283A1.283,1.283,0,0,1,155.3,38.037Zm0,0" transform="translate(-139.222 -33.046)" fill="#80e0dc"/>
      <path id="Trazado_1048720" data-name="Trazado 1048720" d="M47.433,38.041a1.282,1.282,0,0,1-2.167.927,1.282,1.282,0,0,0,.855-2.209h.03A1.282,1.282,0,0,1,47.433,38.041Zm0,0" transform="translate(-41.26 -33.049)" fill="#ff435f"/>
      <path id="Trazado_1048721" data-name="Trazado 1048721" d="M103.414,38.041a1.283,1.283,0,0,1-2.168.927,1.282,1.282,0,0,0,.856-2.209h.029A1.282,1.282,0,0,1,103.414,38.041Zm0,0" transform="translate(-92.287 -33.049)" fill="#ffb509"/>
      <path id="Trazado_1048722" data-name="Trazado 1048722" d="M159.4,38.041a1.283,1.283,0,0,1-2.168.927,1.282,1.282,0,0,0,.855-2.209h.03A1.283,1.283,0,0,1,159.4,38.041Zm0,0" transform="translate(-143.321 -33.049)" fill="#00a8b0"/>
      <path id="Trazado_1048723" data-name="Trazado 1048723" d="M35.547,132.56a.663.663,0,0,0,.938-.938l-1.61-1.61,1.61-1.61a.663.663,0,0,0-.938-.938l-2.079,2.079a.663.663,0,0,0,0,.938Zm0,0" transform="translate(-30.329 -115.553)"/>
      <path id="Trazado_1048724" data-name="Trazado 1048724" d="M114.735,130.009l-1.61,1.61a.663.663,0,1,0,.938.938l2.079-2.079a.663.663,0,0,0,0-.937l-2.079-2.079a.663.663,0,1,0-.937.938Zm0,0" transform="translate(-102.938 -115.549)"/>
      <path id="Trazado_1048725" data-name="Trazado 1048725" d="M76.838,132.7a.663.663,0,0,0,.86-.375l1.633-4.158a.663.663,0,1,0-1.234-.485l-1.634,4.158A.663.663,0,0,0,76.838,132.7Zm0,0" transform="translate(-69.655 -115.547)"/>
      <path id="Trazado_1048726" data-name="Trazado 1048726" d="M38.179,219.541h4.467a.663.663,0,0,0,0-1.326H38.179a.663.663,0,0,0,0,1.326Zm0,0" transform="translate(-34.196 -198.449)"/>
      <path id="Trazado_1048727" data-name="Trazado 1048727" d="M124.028,218.215h-7.854a.663.663,0,0,0,0,1.326h7.854a.663.663,0,1,0,0-1.326Zm0,0" transform="translate(-105.29 -198.449)"/>
      <path id="Trazado_1048728" data-name="Trazado 1048728" d="M38.179,251.147h1.9a.663.663,0,0,0,0-1.326h-1.9a.663.663,0,0,0,0,1.326Zm0,0" transform="translate(-34.196 -227.258)"/>
      <path id="Trazado_1048729" data-name="Trazado 1048729" d="M177.511,249.82a.663.663,0,0,0,0,1.326h1.159a.663.663,0,1,0,0-1.326Zm0,0" transform="translate(-161.198 -227.258)"/>
      <path id="Trazado_1048730" data-name="Trazado 1048730" d="M92.33,250.483a.663.663,0,0,0-.663-.663H85.975a.663.663,0,0,0,0,1.326h5.692A.663.663,0,0,0,92.33,250.483Zm0,0" transform="translate(-77.763 -227.258)"/>
      <path id="Trazado_1048731" data-name="Trazado 1048731" d="M213.7,250.483a.663.663,0,0,0,.663.663h2.17a.663.663,0,1,0,0-1.326h-2.17A.663.663,0,0,0,213.7,250.483Zm0,0" transform="translate(-194.792 -227.258)"/>
      <path id="Trazado_1048732" data-name="Trazado 1048732" d="M166.062,150.6h2.289a.663.663,0,1,0,0-1.326h-2.289a.663.663,0,1,0,0,1.326Zm0,0" transform="translate(-150.762 -135.612)"/>
      <path id="Trazado_1048733" data-name="Trazado 1048733" d="M220.909,150.6h13.969a.663.663,0,0,0,0-1.326H220.909a.663.663,0,1,0,0,1.326Zm0,0" transform="translate(-200.756 -135.612)"/>
      <path id="Trazado_1048734" data-name="Trazado 1048734" d="M296.505,182.246h-5.659a.663.663,0,0,0,0,1.326h5.659a.663.663,0,0,0,0-1.326Zm0,0" transform="translate(-264.505 -165.663)"/>
      <path id="Trazado_1048735" data-name="Trazado 1048735" d="M246.835,182.246H244.89a.663.663,0,0,0,0,1.326h1.945a.663.663,0,0,0,0-1.326Zm0,0" transform="translate(-222.615 -165.663)"/>
      <path id="Trazado_1048736" data-name="Trazado 1048736" d="M166.062,183.572h4.765a.663.663,0,0,0,0-1.326h-4.765a.663.663,0,1,0,0,1.326Zm0,0" transform="translate(-150.762 -165.663)"/>
      <path id="Trazado_1048737" data-name="Trazado 1048737" d="M104.376,281.16H99.909a.663.663,0,1,0,0,1.326h4.467a.663.663,0,1,0,0-1.326Zm0,0" transform="translate(-90.464 -255.824)"/>
      <path id="Trazado_1048738" data-name="Trazado 1048738" d="M41.61,281.16H38.179a.663.663,0,1,0,0,1.326H41.61a.663.663,0,1,0,0-1.326Zm0,0" transform="translate(-34.196 -255.824)"/>
      <path id="Trazado_1048739" data-name="Trazado 1048739" d="M181.787,281.16h-5.835a.663.663,0,0,0,0,1.326h5.835a.663.663,0,1,0,0-1.326Zm0,0" transform="translate(-159.778 -255.824)"/>
      <path id="Trazado_1048740" data-name="Trazado 1048740" d="M298.2,242.668h-3.191a.663.663,0,0,0,0,1.326H298.2a.663.663,0,0,0,0-1.326Zm0,0" transform="translate(-268.301 -220.738)"/>
      <path id="Trazado_1048741" data-name="Trazado 1048741" d="M393.64,243.994h4.5a.663.663,0,1,0,0-1.326h-4.5a.663.663,0,0,0,0,1.326Zm0,0" transform="translate(-358.202 -220.738)"/>
      <path id="Trazado_1048742" data-name="Trazado 1048742" d="M357.551,242.668h-1.032a.663.663,0,1,0,0,1.326h1.032a.663.663,0,0,0,0-1.326Zm0,0" transform="translate(-324.366 -220.738)"/>
      <path id="Trazado_1048743" data-name="Trazado 1048743" d="M295.011,325.654H298.2a.663.663,0,1,0,0-1.326h-3.191a.663.663,0,0,0,0,1.326Zm0,0" transform="translate(-268.301 -295.173)"/>
      <path id="Trazado_1048744" data-name="Trazado 1048744" d="M393.64,325.654h4.5a.663.663,0,1,0,0-1.326h-4.5a.663.663,0,1,0,0,1.326Zm0,0" transform="translate(-358.202 -295.173)"/>
      <path id="Trazado_1048745" data-name="Trazado 1048745" d="M356.522,325.654h1.032a.663.663,0,1,0,0-1.326h-1.032a.663.663,0,0,0,0,1.326Zm0,0" transform="translate(-324.369 -295.173)"/>
      <path id="Trazado_1048746" data-name="Trazado 1048746" d="M298.2,405.988h-3.191a.663.663,0,0,0,0,1.326H298.2a.663.663,0,1,0,0-1.326Zm0,0" transform="translate(-268.301 -369.607)"/>
      <path id="Trazado_1048747" data-name="Trazado 1048747" d="M398.144,405.988h-4.5a.663.663,0,1,0,0,1.326h4.5a.663.663,0,1,0,0-1.326Zm0,0" transform="translate(-358.202 -369.607)"/>
      <path id="Trazado_1048748" data-name="Trazado 1048748" d="M357.551,405.988h-1.032a.663.663,0,1,0,0,1.326h1.032a.663.663,0,1,0,0-1.326Zm0,0" transform="translate(-324.366 -369.607)"/>
      <path id="Trazado_1048749" data-name="Trazado 1048749" d="M42.389.5H2.918A2.922,2.922,0,0,0,0,3.418V35.5A2.922,2.922,0,0,0,2.918,38.42h2.5a.663.663,0,1,0,0-1.326h-2.5A1.594,1.594,0,0,1,1.326,35.5V32.987H25.484v1.143h-.526a1.305,1.305,0,0,0-1.3,1.3v1.661H9.445a.663.663,0,1,0,0,1.326h6.375V40.8h-2A2.425,2.425,0,0,0,11.4,43.22v1.432A1.106,1.106,0,0,0,12.5,45.758H32.755a1.106,1.106,0,0,0,1.105-1.105V43.22A2.425,2.425,0,0,0,31.438,40.8h-2V39.96H41.694a1.305,1.305,0,0,0,1.3-1.3v-.312A2.922,2.922,0,0,0,45.257,35.5l.05-32.084A2.921,2.921,0,0,0,42.389.5ZM24.98,31.408V28.23H41.672v3.178Zm1.83-4.5v-1.4H39.842v1.4Zm13.032,5.831v1.4H26.81v-1.4Zm-22.7,5.686h6.507v.236a1.305,1.305,0,0,0,1.3,1.3H28.11V40.8H17.147Zm14.292,3.7a1.1,1.1,0,0,1,1.1,1.1v1.212H12.723V43.22a1.1,1.1,0,0,1,1.1-1.1Zm10.234-3.491H24.98V35.456H41.672ZM43.931,35.5A1.592,1.592,0,0,1,43,36.949V35.433a1.306,1.306,0,0,0-1.3-1.3h-.526V32.987h2.762Zm0-3.841h-.954c.013-.075.022-3.453.022-3.453a1.306,1.306,0,0,0-1.3-1.3h-.526v-1.4h.526A1.306,1.306,0,0,0,43,24.2V20.981a1.306,1.306,0,0,0-1.3-1.3H37.949a.663.663,0,0,0,0,1.326h3.723v3.178H24.98V21h8.843a.663.663,0,0,0,0-1.326H24.958a1.306,1.306,0,0,0-1.3,1.3V24.2a1.306,1.306,0,0,0,1.3,1.3h.526v1.4h-.526a1.306,1.306,0,0,0-1.3,1.3s.008,3.378.022,3.453H1.326V9.52h42.6Zm0-23.467H1.375V3.418A1.594,1.594,0,0,1,2.967,1.826H42.338a1.594,1.594,0,0,1,1.592,1.592Zm0,0"/>
      <path id="Trazado_1048750" data-name="Trazado 1048750" d="M35.219,29.262a1.946,1.946,0,1,0,1.946,1.946A1.948,1.948,0,0,0,35.219,29.262Zm0,2.566a.62.62,0,1,1,.62-.62A.621.621,0,0,1,35.219,31.827Zm0,0" transform="translate(-30.329 -26.217)"/>
      <path id="Trazado_1048751" data-name="Trazado 1048751" d="M91.2,29.262a1.946,1.946,0,1,0,1.946,1.946A1.948,1.948,0,0,0,91.2,29.262Zm0,2.566a.62.62,0,1,1,.62-.62A.62.62,0,0,1,91.2,31.827Zm0,0" transform="translate(-81.359 -26.217)"/>
      <path id="Trazado_1048752" data-name="Trazado 1048752" d="M147.192,29.262a1.946,1.946,0,1,0,1.946,1.946A1.948,1.948,0,0,0,147.192,29.262Zm0,2.566a.62.62,0,1,1,.62-.62A.621.621,0,0,1,147.192,31.827Zm0,0" transform="translate(-132.393 -26.217)"/>
    </g>
  </g>
</svg>
