<svg xmlns="http://www.w3.org/2000/svg" width="73" height="73" viewBox="0 0 73 73">
  <g id="Grupo_1179895" data-name="Grupo 1179895" transform="translate(-612.051 -4797)">
    <g id="Elipse_11807" data-name="Elipse 11807" transform="translate(612.051 4797)" fill="#a4f7fb" stroke="#1bebf5" stroke-width="3">
      <circle cx="36.5" cy="36.5" r="36.5" stroke="none"/>
      <circle cx="36.5" cy="36.5" r="35" fill="none"/>
    </g>
    <g id="Grupo_1179894" data-name="Grupo 1179894" transform="translate(624.051 4742.25)">
      <g id="Grupo_1179892" data-name="Grupo 1179892" transform="translate(0.732 74.389)">
        <path id="Trazado_1046490" data-name="Trazado 1046490" d="M56.024,106.6v14.828a1.172,1.172,0,0,1-1.172,1.172H8.672A1.172,1.172,0,0,1,7.5,121.428V106.6l2.954-3.049,38.293-.42Z" transform="translate(-7.5 -100.9)" fill="#f2fbff"/>
        <path id="Trazado_1046491" data-name="Trazado 1046491" d="M11.114,123.306H8.672A1.172,1.172,0,0,1,7.5,122.134V107.306l.916-3.393,1.526,3.393v14.828A1.172,1.172,0,0,0,11.114,123.306Z" transform="translate(-7.5 -101.606)" fill="#d8ecfe"/>
        <path id="Trazado_1046492" data-name="Trazado 1046492" d="M56.024,81.465v4.528H7.5V81.465a1.172,1.172,0,0,1,1.172-1.172h46.18A1.173,1.173,0,0,1,56.024,81.465Z" transform="translate(-7.5 -80.293)" fill="#b3dafe"/>
        <path id="Trazado_1046493" data-name="Trazado 1046493" d="M11.114,80.293a1.172,1.172,0,0,0-1.172,1.172v4.528H7.5V81.465a1.172,1.172,0,0,1,1.172-1.172Z" transform="translate(-7.5 -80.293)" fill="#8ac9fe"/>
        <path id="Trazado_1046494" data-name="Trazado 1046494" d="M98.084,223.02H62.4a1.172,1.172,0,0,1-1.172-1.172V201.622A1.172,1.172,0,0,1,62.4,200.45H98.084a1.172,1.172,0,0,1,1.172,1.172v20.226A1.172,1.172,0,0,1,98.084,223.02Z" transform="translate(-55.979 -188.715)" fill="#b3dafe"/>
        <path id="Trazado_1046495" data-name="Trazado 1046495" d="M64.836,223.015H62.394a1.172,1.172,0,0,1-1.172-1.172V201.617a1.173,1.173,0,0,1,1.172-1.172h2.442a1.173,1.173,0,0,0-1.172,1.172v20.226A1.172,1.172,0,0,0,64.836,223.015Z" transform="translate(-55.975 -188.71)" fill="#8ac9fe"/>
      </g>
      <g id="Grupo_1179893" data-name="Grupo 1179893" transform="translate(0 73.75)">
        <path id="Trazado_1046496" data-name="Trazado 1046496" d="M140.18,236.876a.733.733,0,0,0,.681-.462l1.668-4.193a.732.732,0,0,0-1.361-.541l-1.668,4.193a.733.733,0,0,0,.68,1Z" transform="translate(-125.829 -215.839)"/>
        <path id="Trazado_1046497" data-name="Trazado 1046497" d="M185.516,238.436a.732.732,0,0,0,1-.267l1.12-1.933a.732.732,0,0,0-.007-.745l-1.12-1.857a.732.732,0,1,0-1.255.756l.9,1.487-.9,1.559a.732.732,0,0,0,.267,1Z" transform="translate(-167.068 -217.698)"/>
        <path id="Trazado_1046498" data-name="Trazado 1046498" d="M101.586,233.383a.732.732,0,0,0-1.005.249l-1.12,1.857a.732.732,0,0,0-.007.745l1.12,1.933a.732.732,0,1,0,1.268-.734l-.9-1.559.9-1.487A.732.732,0,0,0,101.586,233.383Z" transform="translate(-89.652 -217.698)"/>
        <path id="Trazado_1046499" data-name="Trazado 1046499" d="M100.087,301.336h16.889a.732.732,0,1,0,0-1.465H100.087a.732.732,0,1,0,0,1.465Z" transform="translate(-89.652 -277.787)"/>
        <path id="Trazado_1046500" data-name="Trazado 1046500" d="M314.7,299.871h-9.039a.732.732,0,1,0,0,1.465H314.7a.732.732,0,0,0,0-1.465Z" transform="translate(-275.152 -277.787)"/>
        <path id="Trazado_1046501" data-name="Trazado 1046501" d="M100.087,329.336h9.942a.732.732,0,0,0,0-1.465h-9.942a.732.732,0,1,0,0,1.465Z" transform="translate(-89.652 -303.052)"/>
        <path id="Trazado_1046502" data-name="Trazado 1046502" d="M228.666,328.6a.733.733,0,0,0,.732.732h7.012a.732.732,0,0,0,0-1.465H229.4A.732.732,0,0,0,228.666,328.6Z" transform="translate(-206.333 -303.052)"/>
        <path id="Trazado_1046503" data-name="Trazado 1046503" d="M336.1,327.871h-6.724a.732.732,0,1,0,0,1.465H336.1a.732.732,0,0,0,0-1.465Z" transform="translate(-296.545 -303.052)"/>
        <path id="Trazado_1046504" data-name="Trazado 1046504" d="M100.087,357.336h12.629a.732.732,0,1,0,0-1.465H100.088a.732.732,0,0,0,0,1.465Z" transform="translate(-89.652 -328.318)"/>
        <path id="Trazado_1046505" data-name="Trazado 1046505" d="M272.4,355.871H258.783a.732.732,0,1,0,0,1.465H272.4a.732.732,0,0,0,0-1.465Z" transform="translate(-232.849 -328.318)"/>
        <path id="Trazado_1046506" data-name="Trazado 1046506" d="M105.422,384.6a.732.732,0,0,0-.732-.732h-4.6a.732.732,0,1,0,0,1.465h4.6A.732.732,0,0,0,105.422,384.6Z" transform="translate(-89.652 -353.583)"/>
        <path id="Trazado_1046507" data-name="Trazado 1046507" d="M183.543,383.871h-6.815a.732.732,0,1,0,0,1.465h6.815a.732.732,0,1,0,0-1.465Z" transform="translate(-158.807 -353.583)"/>
        <path id="Trazado_1046508" data-name="Trazado 1046508" d="M292.061,383.871h-11.49a.732.732,0,1,0,0,1.465h11.49a.732.732,0,0,0,0-1.465Z" transform="translate(-252.509 -353.583)"/>
        <path id="Trazado_1046509" data-name="Trazado 1046509" d="M49.256,83.346a.733.733,0,0,0,.732-.732V75.654a1.907,1.907,0,0,0-1.9-1.9H1.9a1.907,1.907,0,0,0-1.9,1.9V95.011a1.907,1.907,0,0,0,1.9,1.9H5.247v10.514a1.907,1.907,0,0,0,1.9,1.9H9.084a.732.732,0,0,0,0-1.465H7.151a.44.44,0,0,1-.439-.439V87.2a.44.44,0,0,1,.439-.439H42.838a.44.44,0,0,1,.439.439v20.225a.44.44,0,0,1-.439.439H12.5a.732.732,0,0,0,0,1.465H42.838a1.907,1.907,0,0,0,1.9-1.9V96.915h3.342a1.907,1.907,0,0,0,1.9-1.9V86.031a.732.732,0,0,0-1.465,0v8.979a.44.44,0,0,1-.439.439H44.742V87.2a1.907,1.907,0,0,0-1.9-1.9H7.151a1.907,1.907,0,0,0-1.9,1.9V95.45H1.9a.44.44,0,0,1-.439-.439v-14.1H48.524v1.7A.732.732,0,0,0,49.256,83.346Zm-47.791-3.9V75.654a.44.44,0,0,1,.439-.439h46.18a.44.44,0,0,1,.439.439v3.795Z" transform="translate(0 -73.75)"/>
        <path id="Trazado_1046510" data-name="Trazado 1046510" d="M69.4,102.925H43.723a.732.732,0,1,0,0,1.465H69.4a.732.732,0,1,0,0-1.465Z" transform="translate(-38.792 -100.076)"/>
        <path id="Trazado_1046511" data-name="Trazado 1046511" d="M451.522,102.925h-.331a.732.732,0,1,0,0,1.465h.331a.732.732,0,1,0,0-1.465Z" transform="translate(-406.464 -100.076)"/>
        <path id="Trazado_1046512" data-name="Trazado 1046512" d="M423.131,102.925H422.8a.732.732,0,0,0,0,1.465h.331a.732.732,0,0,0,0-1.465Z" transform="translate(-380.846 -100.076)"/>
        <path id="Trazado_1046513" data-name="Trazado 1046513" d="M394.739,102.925h-.331a.732.732,0,1,0,0,1.465h.331a.732.732,0,0,0,0-1.465Z" transform="translate(-355.227 -100.076)"/>
      </g>
    </g>
  </g>
</svg>
