<svg xmlns="http://www.w3.org/2000/svg" width="73" height="73" viewBox="0 0 73 73">
  <g id="Grupo_1179897" data-name="Grupo 1179897" transform="translate(-612.051 -4917)">
    <g id="Elipse_11808" data-name="Elipse 11808" transform="translate(612.051 4917)" fill="#a4f7fb" stroke="#1bebf5" stroke-width="3">
      <circle cx="36.5" cy="36.5" r="36.5" stroke="none"/>
      <circle cx="36.5" cy="36.5" r="35" fill="none"/>
    </g>
    <g id="Grupo_1179896" data-name="Grupo 1179896" transform="translate(623.884 4915.067)">
      <path id="Trazado_1046514" data-name="Trazado 1046514" d="M49.065,53.453v31.7a.9.9,0,0,1-.9.9H5.567a.9.9,0,0,1-.9-.9v-31.7Z" transform="translate(-2.05 -28.307)" fill="#72c1e8"/>
      <path id="Trazado_1046515" data-name="Trazado 1046515" d="M49.065,22.332V27.2H4.667V22.332a.9.9,0,0,1,.9-.9h42.6A.9.9,0,0,1,49.065,22.332Z" transform="translate(-2.05 -2.049)" fill="#afafaf"/>
      <circle id="Elipse_11883" data-name="Elipse 11883" cx="1.104" cy="1.104" r="1.104" transform="translate(32.815 21.161)" fill="#fc5d3d"/>
      <circle id="Elipse_11884" data-name="Elipse 11884" cx="1.104" cy="1.104" r="1.104" transform="translate(37.071 21.161)" fill="#f0c020"/>
      <circle id="Elipse_11885" data-name="Elipse 11885" cx="1.104" cy="1.104" r="1.104" transform="translate(41.327 21.161)" fill="#13bf6d"/>
      <path id="Trazado_1046516" data-name="Trazado 1046516" d="M55.108,91.153H15.262a.45.45,0,1,1,0-.9h39.4V62.576a.45.45,0,0,1,.9,0V90.7A.45.45,0,0,1,55.108,91.153Z" transform="translate(-10.369 -35.419)" fill="#c5e5ff"/>
      <path id="Trazado_1046517" data-name="Trazado 1046517" d="M60.47,92.966H82.12a1.622,1.622,0,0,0,1.622-1.622V77.67a1.622,1.622,0,0,0-1.622-1.622H74.245l-2.95-4.359-2.95,4.359H60.47a1.622,1.622,0,0,0-1.622,1.622V91.344a1.622,1.622,0,0,0,1.622,1.622Z" transform="translate(-46.479 -43.26)" fill="#fc5d3d"/>
      <path id="Trazado_1046518" data-name="Trazado 1046518" d="M171.494,31.916a1.553,1.553,0,1,0-1.555-1.553A1.556,1.556,0,0,0,171.494,31.916Zm0-2.207a.654.654,0,1,1-.655.653A.656.656,0,0,1,171.494,29.709Z" transform="translate(-137.575 -8.098)"/>
      <path id="Trazado_1046519" data-name="Trazado 1046519" d="M195.143,31.916a1.553,1.553,0,1,0-1.553-1.553A1.555,1.555,0,0,0,195.143,31.916Zm0-2.207a.654.654,0,1,1-.653.653A.654.654,0,0,1,195.143,29.709Z" transform="translate(-156.969 -8.098)"/>
      <path id="Trazado_1046520" data-name="Trazado 1046520" d="M218.793,31.916a1.553,1.553,0,1,0-1.553-1.553A1.555,1.555,0,0,0,218.793,31.916Zm0-2.207a.653.653,0,1,1-.655.653A.654.654,0,0,1,218.793,29.709Z" transform="translate(-176.362 -8.098)"/>
      <path id="Trazado_1046521" data-name="Trazado 1046521" d="M15.574,35.843H39.949a.45.45,0,1,0,0-.9H15.574a.45.45,0,0,0,0,.9Z" transform="translate(-10.625 -13.128)"/>
      <path id="Trazado_1046522" data-name="Trazado 1046522" d="M2.167,20.283V56.845a1.351,1.351,0,0,0,1.35,1.35h42.6a1.351,1.351,0,0,0,1.35-1.35V20.283a1.351,1.351,0,0,0-1.35-1.35H3.517a1.351,1.351,0,0,0-1.35,1.35Zm44.4,0V24.7h-4.95a.45.45,0,1,0,0,.9h4.95V56.845a.45.45,0,0,1-.45.45H3.517a.45.45,0,0,1-.45-.45V25.6H38.015a.45.45,0,0,0,0-.9H3.067V20.283a.45.45,0,0,1,.45-.45h42.6A.45.45,0,0,1,46.565,20.283Z"/>
      <circle id="Elipse_11886" data-name="Elipse 11886" cx="0.45" cy="0.45" r="0.45" transform="translate(39.364 24.696)"/>
      <circle id="Elipse_11887" data-name="Elipse 11887" cx="0.45" cy="0.45" r="0.45" transform="translate(34.215 32.338)"/>
      <path id="Trazado_1046523" data-name="Trazado 1046523" d="M81.078,73.81a.461.461,0,0,0-.612.173.452.452,0,0,0,.173.614,1.172,1.172,0,0,1,.6,1.024V89.295a1.175,1.175,0,0,1-1.172,1.172H58.421a1.175,1.175,0,0,1-1.172-1.172V75.621a1.173,1.173,0,0,1,1.172-1.172H66.3a.449.449,0,0,0,.373-.2l2.578-3.808,2.577,3.809a.448.448,0,0,0,.373.2h5.1a.45.45,0,0,0,0-.9H72.435l-2.817-4.161a.45.45,0,0,0-.745,0l-2.817,4.161H58.421a2.073,2.073,0,0,0-2.072,2.072V89.295a2.074,2.074,0,0,0,2.072,2.072H80.07a2.074,2.074,0,0,0,2.072-2.072V75.621a2.071,2.071,0,0,0-1.064-1.811Z" transform="translate(-44.43 -41.211)"/>
      <path id="Trazado_1046524" data-name="Trazado 1046524" d="M85.651,117.17a.45.45,0,0,0-.636,0l-4.222,4.222a.45.45,0,0,0,0,.636l4.222,4.222a.45.45,0,1,0,.636-.636l-3.9-3.9,3.9-3.9A.45.45,0,0,0,85.651,117.17Z" transform="translate(-64.366 -80.447)"/>
      <path id="Trazado_1046525" data-name="Trazado 1046525" d="M147.014,126.25a.45.45,0,0,0,.636,0l4.222-4.222a.45.45,0,0,0,0-.636l-4.222-4.222a.45.45,0,1,0-.636.636l3.9,3.9-3.9,3.9A.45.45,0,0,0,147.014,126.25Z" transform="translate(-118.668 -80.447)"/>
      <path id="Trazado_1046526" data-name="Trazado 1046526" d="M120.549,117.389l-1.873,8.444a.45.45,0,0,0,.878.195l1.873-8.444a.45.45,0,1,0-.878-.195Z" transform="translate(-95.53 -80.446)"/>
    </g>
  </g>
</svg>
