<svg xmlns="http://www.w3.org/2000/svg" width="73" height="73" viewBox="0 0 73 73">
  <g id="Grupo_1179899" data-name="Grupo 1179899" transform="translate(-612.051 -5045)">
    <g id="Elipse_11809" data-name="Elipse 11809" transform="translate(612.051 5045)" fill="#a4f7fb" stroke="#1bebf5" stroke-width="3">
      <circle cx="36.5" cy="36.5" r="36.5" stroke="none"/>
      <circle cx="36.5" cy="36.5" r="35" fill="none"/>
    </g>
    <g id="Grupo_1179898" data-name="Grupo 1179898" transform="translate(625.051 5040)">
      <path id="Trazado_1046527" data-name="Trazado 1046527" d="M10,428v1.29a3.684,3.684,0,0,0,3.684,3.684H51.633a3.684,3.684,0,0,0,3.684-3.684V428Z" transform="translate(-9.079 -370.419)" fill="#78d2fa"/>
      <path id="Trazado_1046528" data-name="Trazado 1046528" d="M31.053,124.012h-.368A3.684,3.684,0,0,0,27,127.7v24.171a.145.145,0,0,0,.145.145h41.9a.145.145,0,0,0,.145-.145V127.7a3.684,3.684,0,0,0-3.684-3.684H31.053Z" transform="translate(-24.513 -94.432)" fill="#f0f0fa"/>
      <path id="Trazado_1046529" data-name="Trazado 1046529" d="M74,58.738V32.947A2.948,2.948,0,0,1,76.947,30H104.58a2.948,2.948,0,0,1,2.947,2.947V58.738a2.948,2.948,0,0,1-2.947,2.947H76.947A2.948,2.948,0,0,1,74,58.738Z" transform="translate(-67.184 -9.079)" fill="#fff"/>
      <path id="Trazado_1046530" data-name="Trazado 1046530" d="M107.528,32.947A2.948,2.948,0,0,0,104.58,30H76.947A2.948,2.948,0,0,0,74,32.947v3.684h33.528Z" transform="translate(-67.184 -9.079)" fill="#ff5a5a"/>
      <path id="Trazado_1046531" data-name="Trazado 1046531" d="M82.141,102h32.407" transform="translate(-74.575 -74.447)" fill="#231f20"/>
      <path id="Trazado_1046532" data-name="Trazado 1046532" d="M46.239,56.66h-.645V33.265a4.611,4.611,0,0,0-4.329-4.6v-4.8A3.873,3.873,0,0,0,37.4,20H9.764a3.873,3.873,0,0,0-3.869,3.869v4.8a4.611,4.611,0,0,0-4.329,4.6v4.42a.921.921,0,1,0,1.842,0v-4.42a2.767,2.767,0,0,1,2.487-2.749V49.659a3.873,3.873,0,0,0,3.869,3.869H37.4a3.873,3.873,0,0,0,3.869-3.869V30.515a2.767,2.767,0,0,1,2.487,2.749V56.66H3.408V45.215a.921.921,0,1,0-1.842,0V56.66H.921A.921.921,0,0,0,0,57.581v1.29a4.611,4.611,0,0,0,4.605,4.605H42.554A4.611,4.611,0,0,0,47.16,58.87v-1.29A.921.921,0,0,0,46.239,56.66ZM9.764,21.842H37.4a2.029,2.029,0,0,1,2.026,2.026v2.763H7.737V23.869A2.029,2.029,0,0,1,9.764,21.842ZM37.4,51.686H9.764a2.029,2.029,0,0,1-2.026-2.026V28.474H39.423V49.659A2.029,2.029,0,0,1,37.4,51.686Zm7.921,7.185a2.766,2.766,0,0,1-2.763,2.763H4.605A2.766,2.766,0,0,1,1.842,58.87V58.5H45.318Z"/>
      <path id="Trazado_1046533" data-name="Trazado 1046533" d="M232.162,445h-3.324a.921.921,0,1,0,0,1.842h3.324a.921.921,0,1,0,0-1.842Z" transform="translate(-206.924 -385.854)"/>
      <path id="Trazado_1046534" data-name="Trazado 1046534" d="M17.921,243.342a.921.921,0,1,0-.651-.27A.928.928,0,0,0,17.921,243.342Z" transform="translate(-15.434 -201.098)"/>
      <path id="Trazado_1046535" data-name="Trazado 1046535" d="M221.815,57.842h15.4a.921.921,0,1,0,0-1.842h-15.4a.921.921,0,0,0,0,1.842Z" transform="translate(-200.548 -32.684)"/>
      <path id="Trazado_1046536" data-name="Trazado 1046536" d="M134.461,57.842a.921.921,0,1,0-.651-.27A.926.926,0,0,0,134.461,57.842Z" transform="translate(-121.24 -32.684)"/>
      <path id="Trazado_1046537" data-name="Trazado 1046537" d="M104.871,57.842a.921.921,0,1,0-.651-.27A.928.928,0,0,0,104.871,57.842Z" transform="translate(-94.375 -32.684)"/>
      <path id="Trazado_1046538" data-name="Trazado 1046538" d="M164.061,57.842a.921.921,0,1,0-.651-.27A.928.928,0,0,0,164.061,57.842Z" transform="translate(-148.113 -32.684)"/>
      <path id="Trazado_1046539" data-name="Trazado 1046539" d="M154.835,151.948a.921.921,0,1,0,1.3-1.3l-2.457-2.457,2.457-2.457a.921.921,0,0,0-1.3-1.3l-3.108,3.108a.921.921,0,0,0,0,1.3Z" transform="translate(-137.507 -112.723)"/>
      <path id="Trazado_1046540" data-name="Trazado 1046540" d="M307.066,151.948a.921.921,0,0,0,1.3,0l3.108-3.108a.921.921,0,0,0,0-1.3l-3.108-3.108a.921.921,0,0,0-1.3,1.3l2.457,2.457-2.457,2.457A.921.921,0,0,0,307.066,151.948Z" transform="translate(-278.538 -112.723)"/>
      <path id="Trazado_1046541" data-name="Trazado 1046541" d="M222.629,146.548a.921.921,0,0,0,1.261-.327l4.389-7.468a.921.921,0,1,0-1.588-.933l-4.389,7.468A.921.921,0,0,0,222.629,146.548Z" transform="translate(-201.71 -106.554)"/>
      <path id="Trazado_1046542" data-name="Trazado 1046542" d="M202.212,266.933a.921.921,0,0,0,.921.921h15.314a.921.921,0,1,0,0-1.842H203.133A.921.921,0,0,0,202.212,266.933Z" transform="translate(-183.586 -223.352)"/>
      <path id="Trazado_1046543" data-name="Trazado 1046543" d="M115.081,267.854h4.511a.921.921,0,1,0,0-1.842h-4.511a.921.921,0,0,0,0,1.842Z" transform="translate(-103.645 -223.352)"/>
      <path id="Trazado_1046544" data-name="Trazado 1046544" d="M134.984,314.01h-19.9a.921.921,0,1,0,0,1.842h19.9a.921.921,0,1,0,0-1.842Z" transform="translate(-103.645 -266.929)"/>
      <path id="Trazado_1046545" data-name="Trazado 1046545" d="M369.391,314.01a.921.921,0,1,0,.651.27A.926.926,0,0,0,369.391,314.01Z" transform="translate(-334.53 -266.929)"/>
    </g>
  </g>
</svg>
