<svg xmlns="http://www.w3.org/2000/svg" xmlns:xlink="http://www.w3.org/1999/xlink" width="176" height="176" viewBox="0 0 176 176">
  <defs>
    <clipPath id="clip-path">
      <rect id="Rectángulo_406134" data-name="Rectángulo 406134" width="176" height="176" rx="29" transform="translate(305.051 7173)" fill="#fff"/>
    </clipPath>
  </defs>
  <g id="Enmascarar_grupo_1098910" data-name="Enmascarar grupo 1098910" transform="translate(-305.051 -7173)" clip-path="url(#clip-path)">
    <g id="Grupo_1179791" data-name="Grupo 1179791" transform="translate(305.165 7168.07)">
      <path id="Trazado_1046013" data-name="Trazado 1046013" d="M.1-1.07V64.7L95.023,51.178,102.487-1.07Z" transform="translate(-0.196)" fill="#fca01f"/>
      <path id="Trazado_1046014" data-name="Trazado 1046014" d="M1023.528,1460.466l-96.265-12.033-6.355,57.427h102.619Z" transform="translate(-842.294 -1325.602)" fill="#fca01f"/>
      <path id="Trazado_1046015" data-name="Trazado 1046015" d="M84.829,1341.614l-6.4,57.571H-.036l-.078-67.4Z" transform="translate(0 -1218.927)" fill="#10254a"/>
      <path id="Trazado_1046016" data-name="Trazado 1046016" d="M1119.861-1.07l-7.333,53.061,86.24-11.947V-1.07Z" transform="translate(-1017.535)" fill="#10254a"/>
      <path id="Trazado_1046017" data-name="Trazado 1046017" d="M993.614,560.957l96.379,12.367v-95.1l-86.144,11.941Z" transform="translate(-908.786 -438.326)" fill="#5e4b8f"/>
      <path id="Trazado_1046018" data-name="Trazado 1046018" d="M.8,631.138V678.9l84.865,9.808L95.9,617.918Z" transform="translate(-0.833 -566.078)" fill="#174174"/>
      <path id="Trazado_1046019" data-name="Trazado 1046019" d="M907.9,1.071,883.88,182.4h5.591L913.49,1.071Z" transform="translate(-808.431 -1.958)" fill="#fff"/>
      <path id="Trazado_1046020" data-name="Trazado 1046020" d="M.106,475.839v5.529l181.327-25.318V450.52Z" transform="translate(-0.201 -412.989)" fill="#fff"/>
      <path id="Rectángulo_406568" data-name="Rectángulo 406568" d="M19.069,0H35.58A19.069,19.069,0,0,1,54.649,19.069v0A19.069,19.069,0,0,1,35.58,38.138H19.069A19.069,19.069,0,0,1,0,19.069v0A19.069,19.069,0,0,1,19.069,0Z" transform="translate(46.778 8.188)" fill="#244190"/>
      <path id="Trazado_1046021" data-name="Trazado 1046021" d="M640.255,154.67q-4.948,7.4-9.277,15.416l-.411.762.411.762a109.311,109.311,0,0,0,9.673,14.938l2.54-1.962a106.106,106.106,0,0,1-9.388-14.5l-1.412.762,1.412.763q4.251-7.873,9.121-15.157l-2.668-1.784Z" transform="translate(-576.77 -142.428)" fill="#fff"/>
      <path id="Trazado_1046022" data-name="Trazado 1046022" d="M958.284,156.455q4.861,7.271,9.121,15.157l1.412-.763-1.412-.762a106.141,106.141,0,0,1-9.388,14.5l2.54,1.962a109.36,109.36,0,0,0,9.673-14.938l.411-.762-.412-.762q-4.322-8-9.277-15.416l-2.668,1.784Z" transform="translate(-876.231 -142.429)" fill="#fff"/>
      <path id="Trazado_1046023" data-name="Trazado 1046023" d="M810.86,232.254q-4.789,9.546-8.685,19.507l2.649,1.036q3.842-9.825,8.578-19.267l-2.542-1.275Z" transform="translate(-733.71 -213.38)" fill="#fff"/>
      <path id="Trazado_1046024" data-name="Trazado 1046024" d="M185.261,436.643a3.356,3.356,0,0,1,.706-2.28,5.737,5.737,0,0,1,1.625-1.189,1.119,1.119,0,0,0,.45-.369.941.941,0,0,0,.08-.5c-.072-3.924.778-8.384,4.368-11.082a14.531,14.531,0,0,1,6.229-2.4,27.166,27.166,0,0,1,11.636.388c3.1.822,6.306,2.154,7.882,4.8a1.713,1.713,0,0,0,.484.6,2.49,2.49,0,0,0,.919.255,4.385,4.385,0,0,1,2.618,1.688,8.631,8.631,0,0,1,1.3,2.746,22.775,22.775,0,0,1,.808,3.619,1.246,1.246,0,0,1-.018.6,1.453,1.453,0,0,1-.309.447l-5.6,6.285c-4.506,5.059-12.2,7.2-18.887,5.883a26.863,26.863,0,0,1-7.116-2.531,36.325,36.325,0,0,1-6.008-3.582,2.8,2.8,0,0,1-.652-.644,2.612,2.612,0,0,1-.308-.955A10.669,10.669,0,0,1,185.261,436.643Z" transform="translate(-169.529 -383.598)" fill="#fff6d3"/>
      <path id="Trazado_1046025" data-name="Trazado 1046025" d="M237.865,1282.825c4.829.313,9.609.739,14.418,1.274,5.052.561,10.156-.009,15.2.527.912.1,1.809.24,2.7.418.03-5.344.052-9.174.052-9.389H229.269l-.759,4.764A32.534,32.534,0,0,0,237.865,1282.825Z" transform="translate(-209.081 -1167.592)" fill="#10254a"/>
      <path id="Trazado_1046026" data-name="Trazado 1046026" d="M302.3,426.314a10.678,10.678,0,0,1-1.883,5.976,7.994,7.994,0,0,1-5.548,3.22A2.214,2.214,0,0,0,296,436.692l2.525,1.565a8.8,8.8,0,0,0,4.769,1.711,26.457,26.457,0,0,0,6.683.283c4.929-.624,9.127-3.751,13.073-6.769-.672.514-3.2-.773-3.8-1.122a7.881,7.881,0,0,1-2.844-2.375,15.015,15.015,0,0,1-2.116-3.947c-.388-1.289-2.47-1.718-3.589-2.285a56.513,56.513,0,0,1-5.02-2.874c0-.663-3.888-2.237-4.4-2.5A31.2,31.2,0,0,1,302.3,426.314Z" transform="translate(-269.772 -383.597)" fill="#f08162"/>
      <path id="Trazado_1046027" data-name="Trazado 1046027" d="M215.015,583.489c.272,3.008.673,6,.952,9.011a102.006,102.006,0,0,1-.2,21.872,22.44,22.44,0,0,0-.242,4.362,32.816,32.816,0,0,0,9.449,2.443c4.829.313,9.609.739,14.418,1.274,5.052.561,10.156-.009,15.2.527.769.082,1.527.2,2.279.34a4.42,4.42,0,0,0,1.335-2.385,9.569,9.569,0,0,0-.182-3.126c-2.885-17.411-1.06-34.528-1-52.01.008-2.131.28-6.981-1.236-8.727-.959-1.1-4.434-1.111-5.84-1.532-2.181-.654-2.733,1.085-4.423,2.216a18.022,18.022,0,0,1-4.389,2.139,4.427,4.427,0,0,1-3.594-.533c-.207-.109-.413-.226-.619-.347a98.093,98.093,0,0,1-9.178-5.758,8.753,8.753,0,0,1-1.261-1.09q-1.958,1.461-3.926,2.909c-.672.495-1.347.989-2.061,1.424-.674.411-1.428.644-2.1,1.029-.979.559-2.462,1.141-3.006,2.2-.57,1.11-.423,2.669-.556,3.877a84.23,84.23,0,0,0-.289,13.364C214.654,579.128,215.015,581.33,215.015,583.489Z" transform="translate(-196.19 -505.943)" fill="#fff6d3"/>
      <path id="Trazado_1046028" data-name="Trazado 1046028" d="M550.568,595.237a23.938,23.938,0,0,1-6.959,5.536c-.468.235-.057.937.41.7a24.563,24.563,0,0,0,7.124-5.663C551.492,595.424,550.919,594.847,550.568,595.237Z" transform="translate(-497.058 -545.217)" fill="#edc8be"/>
      <path id="Trazado_1046029" data-name="Trazado 1046029" d="M326.115,605.282a17.882,17.882,0,0,0,4.936,3.2.42.42,0,0,0,.556-.146.409.409,0,0,0-.146-.556,17.236,17.236,0,0,1-4.771-3.071C326.3,604.355,325.727,604.928,326.115,605.282Z" transform="translate(-298.226 -553.895)" fill="#edc8be"/>
      <path id="Trazado_1046030" data-name="Trazado 1046030" d="M369.617,244.237c.207.047.415.089.624.125a11.75,11.75,0,0,0,5.187-.276c1.92-.546,2.2-3.377,2.4-5.05a67.425,67.425,0,0,0,.14-15.414c-.026-.251-.055-.5-.091-.756-.018-.124-.036-.247-.057-.371a5.429,5.429,0,0,0-1.1-2.7c-1.149-1.34-3.092-1.641-4.856-1.632-2.54.013-6.457.312-8.548,1.92-1.971,1.519-2.964,4.665-3.276,7.01C359.11,234.112,362.074,242.505,369.617,244.237Z" transform="translate(-329.217 -200.493)" fill="#f08162"/>
      <path id="Trazado_1046031" data-name="Trazado 1046031" d="M540.819,342.923a.422.422,0,0,1,.085-.185,2.864,2.864,0,0,1,1.783-1.011.952.952,0,0,1,.375-.027l.093.043c.03.032.139.084.141.127a1.988,1.988,0,0,1-.222.894,1.293,1.293,0,0,1-.244.36.863.863,0,0,1-.339.173,2.7,2.7,0,0,1-.942.155C541.259,343.453,540.771,343.322,540.819,342.923Z" transform="translate(-494.692 -313.462)" fill="#fff"/>
      <path id="Trazado_1046032" data-name="Trazado 1046032" d="M541.815,340.548l-.02-.032a1.532,1.532,0,0,1-.192-.542l-.013-.031-.034,0a1.3,1.3,0,0,0-.892.673,1.671,1.671,0,0,1,.664-.867,2.766,2.766,0,0,1,1.128-.535,1.164,1.164,0,0,1,.689-.032.175.175,0,0,1,.118.153,1.1,1.1,0,0,1-.155.548.477.477,0,0,0-.046-.3.13.13,0,0,0-.221.014.819.819,0,0,0-.008.238c0,.085,0,.171-.012.255a.915.915,0,0,1-.164.478.564.564,0,0,1-.668.167A.571.571,0,0,1,541.815,340.548Z" transform="translate(-494.554 -311.123)" fill="#10254a"/>
      <path id="Trazado_1046033" data-name="Trazado 1046033" d="M559.372,345.344a.458.458,0,0,1-.165.247,1.124,1.124,0,0,1-.135.078l-.159.034a4.5,4.5,0,0,0-.038-.714c-.007-.05-.015-.1-.017-.151s-.01-.088.031-.114a1.046,1.046,0,0,1,.257-.1c.048-.014.1-.016.144-.029l.1,0,.011.037A1.872,1.872,0,0,1,559.372,345.344Z" transform="translate(-511.191 -316.115)" fill="#0068ae"/>
      <path id="Trazado_1046034" data-name="Trazado 1046034" d="M451.778,351.813a2.965,2.965,0,0,1-1.54.586,4.164,4.164,0,0,1-1.922-.14.908.908,0,0,1-.416-.232c-.458-.517.91-1.128,1.256-1.289a4.8,4.8,0,0,1,1.583-.439c.3-.027,1.084-.209,1.226.184A1.611,1.611,0,0,1,451.778,351.813Z" transform="translate(-409.634 -321.275)" fill="#fff"/>
      <path id="Trazado_1046035" data-name="Trazado 1046035" d="M450.375,348.97a11.218,11.218,0,0,0-1.815.361,3.75,3.75,0,0,0-1.585.924,1.667,1.667,0,0,1,.489-.811,3.685,3.685,0,0,1,1.744-.942,3.971,3.971,0,0,1,2-.009l.045.022.019.053c.019.135.035.27.046.406-.154.016-.292-.047-.445-.046A3.711,3.711,0,0,0,450.375,348.97Z" transform="translate(-408.872 -319.569)" fill="#10254a"/>
      <path id="Trazado_1046036" data-name="Trazado 1046036" d="M471.146,350.731a.73.73,0,0,1-.494-.252,1.66,1.66,0,0,1-.305-.533c-.088-.225-.31-.633-.1-.8a1.965,1.965,0,0,1,.535-.158q.292-.09.582-.186c.413-.137.679-.218.777.271C472.267,349.726,472.01,350.787,471.146,350.731Z" transform="translate(-430.074 -319.87)" fill="#10254a"/>
      <path id="Trazado_1046037" data-name="Trazado 1046037" d="M483.658,354.408a.842.842,0,0,0,.043.2,3.171,3.171,0,0,1,.026.98l.032.083.028,0a.835.835,0,0,0,.344-.2,1.067,1.067,0,0,0,.237-.466,1.65,1.65,0,0,0,.082-.4,2.258,2.258,0,0,0-.035-.356l-.012-.027-.017,0a3.871,3.871,0,0,0-.414.065,1.236,1.236,0,0,0-.252.048A.092.092,0,0,0,483.658,354.408Z" transform="translate(-442.419 -324.917)" fill="#0068ae"/>
      <path id="Trazado_1046038" data-name="Trazado 1046038" d="M451.243,341.682a4.671,4.671,0,0,0-4.29,1.6c-.152.213.2.416.351.205a4.3,4.3,0,0,1,3.939-1.395C451.5,342.106,451.5,341.7,451.243,341.682Z" transform="translate(-408.818 -313.436)" fill="#c74e53"/>
      <path id="Trazado_1046039" data-name="Trazado 1046039" d="M539.523,332.944a2.5,2.5,0,0,1,.907-1.012,2.327,2.327,0,0,1,1.36-.495.2.2,0,0,0,0-.406,2.708,2.708,0,0,0-1.6.575,2.944,2.944,0,0,0-1.059,1.23.2.2,0,0,0,.142.25A.208.208,0,0,0,539.523,332.944Z" transform="translate(-493.142 -303.713)" fill="#c74e53"/>
      <path id="Trazado_1046040" data-name="Trazado 1046040" d="M384.051,388.322a4.857,4.857,0,0,1-3.277-.051,7.431,7.431,0,0,1-2.616-2.056A13.142,13.142,0,0,1,376,382.85a23.4,23.4,0,0,1-.846-2.408c-.213-.685-.165-2.028-.378-2.713.052.175-.364.648-.451.778a5.147,5.147,0,0,0-.646,1.185c-.346.972-1.037,1.9-.875,2.986a4,4,0,0,0,.594,1.4c1.937,3.283,4.331,6.9,8.107,8.223a6.806,6.806,0,0,0,5.574-.316,4.431,4.431,0,0,0,1.8-2.244,7.42,7.42,0,0,0,.545-1.825,7.328,7.328,0,0,0,.091-.9c.007-.179-.1-.675-.015-.818-.312.552-.8,1.522-1.518,1.629-.66.1-1.028-.635-1.092-1.185a3.789,3.789,0,0,1,.136-1.259v-.113c-.03-.058-.112-.06-.177-.053a9.454,9.454,0,0,0-1.5.165,7.733,7.733,0,0,1-.881.318,5.775,5.775,0,0,1,.783.146c.588.2.005,1.779-.319,2.072a1.872,1.872,0,0,1-.708.356Z" transform="translate(-341.023 -346.42)" fill="#10254a"/>
      <path id="Trazado_1046041" data-name="Trazado 1046041" d="M319.228,163.513a5.7,5.7,0,0,0-.089-1.668,4.047,4.047,0,0,1-.33-2.038,4.641,4.641,0,0,1,.831-1.26,3.118,3.118,0,0,0,.386-1.886,7.743,7.743,0,0,1,.394-2.305.568.568,0,0,1,.174-.3.575.575,0,0,1,.3-.081c2.63-.208,5.349.085,7.849-.758a17.319,17.319,0,0,0,2.591-1.2,21.319,21.319,0,0,0,2.582,1.108.289.289,0,0,0,.164.023c.377-.1.869-1.176,1.041-1.5a8.437,8.437,0,0,0,.99-3.844,8.163,8.163,0,0,0-.047-1,3.993,3.993,0,0,1-.152-.9c-.322.461-.593.983-.943,1.418-.094.117-.064-.826-.063-.839a7.829,7.829,0,0,0-.04-1.31,8.177,8.177,0,0,0-.7-2.518,3.6,3.6,0,0,1-1.2,1.3,15.428,15.428,0,0,1-1.759,1.132,4.956,4.956,0,0,1-1.583.51c-.05-.435-.138-.87-.21-1.3-.023-.134-.294-1.127-.194-1.217-2.407,2.169-5.657,2.558-8.545,3.73a22.134,22.134,0,0,0-8.2,5.775,1.494,1.494,0,0,0-.4.671c-.11.569.311,1.177.528,1.675l.889,2.039a2.287,2.287,0,0,1,.27,1.593c-.076.228-.224.429-.285.662a1.811,1.811,0,0,0,.207,1.14,24.618,24.618,0,0,0,1.52,2.962,6.733,6.733,0,0,0,1.872,2.3C318.527,166.527,319.113,164.978,319.228,163.513Z" transform="translate(-285.49 -131.442)" fill="#10254a"/>
      <path id="Trazado_1046042" data-name="Trazado 1046042" d="M407.972,187.309a7.461,7.461,0,0,0,1.487-3.014c.169-.628-.106-1.26.038-1.85a5.336,5.336,0,0,1-2.083,2.627,8.331,8.331,0,0,0-.372-4.159,3.145,3.145,0,0,1-1.119,1.738,17.8,17.8,0,0,1-4.269,2.594,5.9,5.9,0,0,0,.953-3.919,4.281,4.281,0,0,1-2.084,1.9c-2.2,1.151-4.761,1.8-6.468,3.6a6.415,6.415,0,0,0-1.486,2.58.564.564,0,0,1,.348-.287c1.625-.683,3.455-.567,5.212-.7a18.061,18.061,0,0,0,7.018-2.008,5.409,5.409,0,0,0,2.355,1.052.528.528,0,0,0,.256,0A.535.535,0,0,0,407.972,187.309Z" transform="translate(-359.116 -166.427)" fill="#174174"/>
      <path id="Trazado_1046043" data-name="Trazado 1046043" d="M328.093,356.793a2.665,2.665,0,0,1,.11-.7,1.79,1.79,0,0,1,1.306-1.277,1.882,1.882,0,0,1,1.386.373,5.573,5.573,0,0,1,1.578,1.87,6.824,6.824,0,0,1,.945,3.434,1.992,1.992,0,0,1-.681,1.738c-.919.55-2.225-.588-2.827-1.2A6.652,6.652,0,0,1,328.242,358,4.488,4.488,0,0,1,328.093,356.793Z" transform="translate(-300.151 -325.449)" fill="#f08162"/>
      <path id="Trazado_1046044" data-name="Trazado 1046044" d="M344.981,375.933a2.1,2.1,0,0,1-.745-.67.92.92,0,0,1,.233-1.04.2.2,0,0,0,.052-.2,13.657,13.657,0,0,0-1.106-2.125c-.322-.5-.888-1.128-1.533-.719-.22.14-.017.492.2.351.542-.344.994.588,1.205.943a13.069,13.069,0,0,1,.837,1.659l.052-.2a1.387,1.387,0,0,0-.374,1.367,2.246,2.246,0,0,0,.969.982C345,376.426,345.2,376.074,344.981,375.933Z" transform="translate(-312.676 -340.311)" fill="#c74e53"/>
      <path id="Trazado_1046045" data-name="Trazado 1046045" d="M347.684,396.756a6.284,6.284,0,0,0-1.59.08.205.205,0,0,0-.142.25.208.208,0,0,0,.25.142,5.854,5.854,0,0,1,1.482-.065.205.205,0,0,0,.2-.2A.207.207,0,0,0,347.684,396.756Z" transform="translate(-316.478 -363.804)" fill="#c74e53"/>
      <path id="Trazado_1046046" data-name="Trazado 1046046" d="M523.384,350.936a21.736,21.736,0,0,0,1.13,3.908c.112.318.22.637.322.958a2.84,2.84,0,0,1,.256,1.049c-.047.36-.486.467-.778.573l-1.036.375c-.245.089-.139.481.108.392.386-.14.773-.279,1.159-.419a1.9,1.9,0,0,0,.74-.4c.485-.5.045-1.373-.134-1.919a28.965,28.965,0,0,1-1.374-4.624C523.737,350.571,523.345,350.68,523.384,350.936Z" transform="translate(-478.526 -321.684)" fill="#c74e53"/>
      <path id="Trazado_1046047" data-name="Trazado 1046047" d="M430.572,290.761a9.819,9.819,0,0,0-1.469.978,6.948,6.948,0,0,1,3.44-3.235,3.371,3.371,0,0,1,1.79-.268,1.812,1.812,0,0,1,.936.427,1.521,1.521,0,0,1,.3.383l.17.444a8.193,8.193,0,0,0-1.591.122,10.1,10.1,0,0,0-3.577,1.149Z" transform="translate(-392.528 -264.546)" fill="#10254a"/>
      <path id="Trazado_1046048" data-name="Trazado 1046048" d="M539.034,308.525a1.722,1.722,0,0,1-.816.764c-.481.224-1.149-.139-1.509-.452a2.042,2.042,0,0,1-.682-1.305c.026.241.9.564,1.1.63a2.559,2.559,0,0,0,.876.129,4.014,4.014,0,0,0,.877-.049c.062-.015.137-.028.179.02a.142.142,0,0,1,.02.118A.706.706,0,0,1,539.034,308.525Z" transform="translate(-490.312 -282.222)" fill="#10254a"/>
      <path id="Trazado_1046049" data-name="Trazado 1046049" d="M497.268,447.45c.033.385-.932.2-1.164.2a10.018,10.018,0,0,0-1.224.079,18.833,18.833,0,0,0-2.455.485.2.2,0,0,0,.108.392,16.084,16.084,0,0,1,2.965-.529c.474-.031.936.014,1.409.019.375,0,.8-.207.768-.642C497.652,447.191,497.246,447.189,497.268,447.45Z" transform="translate(-450.305 -410.003)" fill="#c74e53"/>
      <path id="Trazado_1046050" data-name="Trazado 1046050" d="M656.747,626.371c.4,3.375-3.338,6.919-6.3,7.843-4.527,1.412-9.482-.795-13.4-2.911a7.448,7.448,0,0,1-2.032-1.426,7.092,7.092,0,0,1-1.366-2.765,40.3,40.3,0,0,1-1.744-13.548c.118-2.788.675-8.176,3.357-9.851,2.617-1.633,5.521,3.291,7.022,4.885q6.27,6.661,12.159,13.668a9.821,9.821,0,0,1,2.193,3.55A3.834,3.834,0,0,1,656.747,626.371Z" transform="translate(-577.963 -552.787)" fill="#fff6d3"/>
      <path id="Trazado_1046051" data-name="Trazado 1046051" d="M425.992,381.475a1.944,1.944,0,0,1,.1-1.286,1.918,1.918,0,0,1,.509-.677c.175-.148.484-.188.626-.325.362-.349.074-.957.448-1.3a1.5,1.5,0,0,1,.566-.285,22.248,22.248,0,0,1,6.586-1.12,3.394,3.394,0,0,0,2.389-.484,4.369,4.369,0,0,0,1.378-2.383c.144-.749.061-1.525.244-2.266a2,2,0,0,1,1.584-1.59,1.072,1.072,0,0,1,.744.164c.649.475.4,2.268.364,2.951a36.734,36.734,0,0,0,0,3.908,18.772,18.772,0,0,0,1.05,5.369c.261.706,1.124,1.761,1.116,2.485-.008.638-.939,1.41-1.421,1.8a3.382,3.382,0,0,1-1.2.72,3.69,3.69,0,0,1-1.276.041c-1.317-.111-2.585-.435-3.892-.476a21.892,21.892,0,0,1-4.348-.576,3.371,3.371,0,0,1-1.485-.64c-.137-.12-.256-.26-.4-.369a2.123,2.123,0,0,0-.519-.262,8.773,8.773,0,0,1-1.266-.526,1.868,1.868,0,0,1-.892-1c-.088-.278-.082-.576-.15-.859-.133-.554-.673-.463-.816-.868C426.018,381.569,426,381.522,425.992,381.475Z" transform="translate(-389.623 -339.118)" fill="#f08162"/>
      <path id="Trazado_1046052" data-name="Trazado 1046052" d="M546.87,403.482a5.17,5.17,0,0,1-2.209,3.946c-.214.147-.011.5.205.351a5.6,5.6,0,0,0,2.411-4.3C547.291,403.22,546.884,403.221,546.87,403.482Z" transform="translate(-498.125 -369.792)" fill="#c74e53"/>
      <path id="Trazado_1046053" data-name="Trazado 1046053" d="M449.761,443.786c-2.094.385-4.232.352-6.339.628-1.468.192-3.363.674-3.495,2.456-.019.261.387.26.407,0,.145-1.959,2.894-2.059,4.332-2.182,1.738-.149,3.484-.194,5.2-.51C450.126,444.131,450.017,443.739,449.761,443.786Z" transform="translate(-402.426 -406.827)" fill="#c74e53"/>
      <path id="Trazado_1046054" data-name="Trazado 1046054" d="M443.633,474.335a28.63,28.63,0,0,0-6.5.453c-.255.061-.147.453.108.392a28.159,28.159,0,0,1,6.388-.439A.2.2,0,0,0,443.633,474.335Z" transform="translate(-399.742 -434.768)" fill="#c74e53"/>
      <path id="Trazado_1046055" data-name="Trazado 1046055" d="M441.412,510.442c-2.051.127-4.123.064-6.162.34-.258.035-.148.427.108.392,2-.272,4.041-.2,6.055-.326C441.672,510.832,441.673,510.426,441.412,510.442Z" transform="translate(-398.014 -467.788)" fill="#c74e53"/>
      <path id="Trazado_1046056" data-name="Trazado 1046056" d="M464.352,541.449c-1.579-.041-3.155.1-4.735.1a.2.2,0,0,0,0,.406c1.579,0,3.156-.138,4.735-.1A.2.2,0,0,0,464.352,541.449Z" transform="translate(-420.254 -496.138)" fill="#c74e53"/>
      <path id="Trazado_1046057" data-name="Trazado 1046057" d="M463.039,543.585a4.444,4.444,0,0,0,2.623,1.643,16.711,16.711,0,0,0,3.753.416.2.2,0,0,0,0-.407,17.281,17.281,0,0,1-3.428-.35,4.177,4.177,0,0,1-2.6-1.507C463.24,543.169,462.887,543.372,463.039,543.585Z" transform="translate(-423.529 -497.83)" fill="#c74e53"/>
      <path id="Trazado_1046058" data-name="Trazado 1046058" d="M435.888,517.378a3.206,3.206,0,0,1-1.032-.183,1.835,1.835,0,0,1-.816-.437,1.518,1.518,0,0,1-.38-1.467.2.2,0,0,0-.392-.108,1.934,1.934,0,0,0,.461,1.838,2.159,2.159,0,0,0,.939.542c.187.058.379.1.57.142a2.413,2.413,0,0,0,.651.079C436.148,517.768,436.15,517.362,435.888,517.378Z" transform="translate(-396.273 -471.994)" fill="#c74e53"/>
      <path id="Trazado_1046059" data-name="Trazado 1046059" d="M424.194,482.363a.826.826,0,0,1-.577-.529,2.722,2.722,0,0,1-.225-.963,1.147,1.147,0,0,1,.888-1.167c.255-.059.147-.451-.108-.392a1.555,1.555,0,0,0-1.187,1.559,3.135,3.135,0,0,0,.291,1.192,1.186,1.186,0,0,0,.809.692C424.342,482.805,424.451,482.413,424.194,482.363Z" transform="translate(-386.933 -439.314)" fill="#c74e53"/>
      <path id="Trazado_1046060" data-name="Trazado 1046060" d="M558.955,531.474a11.822,11.822,0,0,0-.6-1.8,25.072,25.072,0,0,0-3.85-5.844q-6.86-8.5-14.218-16.575-1.913-2.1-3.86-4.173c-.423-.45-1.273-1.772-1.845-1.955-.7-.223-1.194.249-1.847.674a26.468,26.468,0,0,0-6.745,6.319c1.313,2.244,2.764,4.4,4.24,6.543q1.127,1.637,2.284,3.252.6.834,1.2,1.665a8.549,8.549,0,0,1,1.122,1.545c4.1,5.627,8,12.041,13.109,16.788,2.6,2.422,6.145,1.16,8.794-.455,1.242-.757,2.1-1.17,2.376-2.671A8.029,8.029,0,0,0,558.955,531.474Z" transform="translate(-481.138 -459.22)" fill="#fff6d3"/>
      <path id="Trazado_1046061" data-name="Trazado 1046061" d="M553.83,631.168c4.061,6.554,8.063,13.145,12.1,19.714q1.511,2.459,3.034,4.91c.276.443.98.036.7-.41-3.852-6.193-7.63-12.431-11.447-18.645q-1.838-2.993-3.688-5.98C554.258,630.313,553.554,630.721,553.83,631.168Z" transform="translate(-506.536 -577.645)" fill="#edc8be"/>
      <path id="Trazado_1046062" data-name="Trazado 1046062" d="M681.918,847.632a28.414,28.414,0,0,0,2.358,7.332c.226.472.927.06.7-.41a27.666,27.666,0,0,1-2.277-7.138C682.611,846.9,681.827,847.12,681.918,847.632Z" transform="translate(-623.726 -775.69)" fill="#edc8be"/>
      <path id="Trazado_1046063" data-name="Trazado 1046063" d="M704.2,875.08c.248-.578.872-.951,1.184-1.512a3.4,3.4,0,0,0,.252-1.823c-.005-.112-.022-.243-.12-.3a.331.331,0,0,0-.271.019,12.02,12.02,0,0,1-1.94.794,13.514,13.514,0,0,1-2.189.229,11.216,11.216,0,0,1-4.188-.662,5.892,5.892,0,0,1-2.531-1.679,17.369,17.369,0,0,1-1.576-3.084,4.727,4.727,0,0,0-2.419-2.49,1.19,1.19,0,0,0-1.255.151,1,1,0,0,0-.2.876,3.512,3.512,0,0,0,.349.863,10.542,10.542,0,0,1,.639,6.833c-.169.812-.416,1.61-.507,2.434-.232,2.1.2,6.509,3.211,6.192.824-.087,1.646-.064,2.472-.193a32.085,32.085,0,0,0,4.766-1.226,5.165,5.165,0,0,0,1.392-.6,1.787,1.787,0,0,0,.811-1.233.935.935,0,0,1,.07-.367.629.629,0,0,1,.287-.234c.569-.285,1.278-.465,1.549-1.04.258-.546-.009-1.209.157-1.789A1.314,1.314,0,0,1,704.2,875.08Z" transform="translate(-630.136 -791.554)" fill="#f08162"/>
      <path id="Trazado_1046064" data-name="Trazado 1046064" d="M247.912,960.031q.367-.544.768-1.061a4.934,4.934,0,0,1,1.482-1.4,5.537,5.537,0,0,1,1.986-.5q8.586-1.035,17.192-1.9,4.3-.434,8.609-.827a33.257,33.257,0,0,0,4.489-.9c.747-.174,1.185-.5,1.493.265a16.422,16.422,0,0,1,.633,2.249,31.687,31.687,0,0,1,.887,7.414c0,.412.142,1.263-.164,1.548a5.808,5.808,0,0,1-1.842.533c-1.255.349-2.516.675-3.779.994-5.536,1.4-11.112,2.623-16.689,3.87-1.273.285-2.547.569-3.835.778a66.076,66.076,0,0,1-11.922.478,2.6,2.6,0,0,1-1.146-.2,2.392,2.392,0,0,1-.98-2.089A15.1,15.1,0,0,1,247.912,960.031Z" transform="translate(-224.228 -872.718)" fill="#fff6d3"/>
      <path id="Trazado_1046065" data-name="Trazado 1046065" d="M139.174,637.956q-.479-1.208-.954-2.415c-.049-.123.376-.408.254-.458s-.148-.409-.262-.364a18.029,18.029,0,0,0-7.3,5.617c-2.51,3.754-.929,9.547.243,13.488q3.023,10.158,6.544,20.158c.466,1.323,1.094,2.578,1.58,3.884.285.766.32,1.927,1.259,2.221,1.568.493,3.331-2.006,4.357-2.851,2.353-1.939,5.15-3.6,5.378-6.913a14.938,14.938,0,0,0-.693-4.852,109.333,109.333,0,0,0-4.9-13.979C142.8,647.018,140.97,642.489,139.174,637.956Z" transform="translate(-118.605 -581.438)" fill="#fff6d3"/>
      <path id="Trazado_1046066" data-name="Trazado 1046066" d="M298.459,988.461a38.226,38.226,0,0,0-5.5,7.469.407.407,0,0,0,.7.41,37.326,37.326,0,0,1,5.368-7.3C299.393,988.656,298.819,988.08,298.459,988.461Z" transform="translate(-267.975 -904.833)" fill="#edc8be"/>
      <path id="Trazado_1046067" data-name="Trazado 1046067" d="M294.131,811.39a145.871,145.871,0,0,0-6.09-16.194c-.212-.477-.913-.064-.7.41a144.1,144.1,0,0,1,6.007,16C293.5,812.1,294.286,811.892,294.131,811.39Z" transform="translate(-262.846 -728.009)" fill="#edc8be"/>
      <path id="Trazado_1046068" data-name="Trazado 1046068" d="M324.5,832.25a25.3,25.3,0,0,0,1.486-3.359.407.407,0,1,0-.784-.216,23.858,23.858,0,0,1-1.4,3.165.415.415,0,0,0,.146.556A.411.411,0,0,0,324.5,832.25Z" transform="translate(-296.174 -758.545)" fill="#edc8be"/>
      <path id="Trazado_1046069" data-name="Trazado 1046069" d="M388.653,948.977q-10.833,1.783-21.78,2.659-3.19.254-6.384.448c-.52.032-.523.845,0,.813,7.344-.456,14.67-1.124,21.957-2.151q3.217-.454,6.423-.985C389.384,949.676,389.166,948.893,388.653,948.977Z" transform="translate(-329.422 -868.833)" fill="#edc8be"/>
      <path id="Trazado_1046070" data-name="Trazado 1046070" d="M314.583,1087.125a167.308,167.308,0,0,1-27.813,6.207c-2.745.36-5.5.651-8.256.894-.517.046-.522.859,0,.813a168.516,168.516,0,0,0,28.213-4.806c2.708-.713,5.4-1.494,8.073-2.324C315.3,1087.755,315.085,1086.97,314.583,1087.125Z" transform="translate(-254.454 -995.159)" fill="#edc8be"/>
      <path id="Trazado_1046071" data-name="Trazado 1046071" d="M360.461,1271.774a67.726,67.726,0,0,1-25.469-3.854q-.843-.3-1.676-.623c-.369-.143-.817-.413-1.217-.228-.746.345.024,1.464.578.878.359-.38-.214-.956-.575-.575l-.047.05.4-.1.151.268-.187.243c.12-.073.928.346,1.055.395q.65.247,1.305.48,1.357.483,2.734.908,2.7.835,5.474,1.442a68.7,68.7,0,0,0,11.023,1.5q3.225.173,6.455.037C360.983,1272.566,360.985,1271.752,360.461,1271.774Z" transform="translate(-303.533 -1159.684)" fill="#edc8be"/>
      <path id="Trazado_1046072" data-name="Trazado 1046072" d="M197.842,610.829a18.175,18.175,0,0,0-9.532,3.617c-.411.312-.007,1.019.41.7a17.421,17.421,0,0,1,9.122-3.506C198.36,611.6,198.365,610.787,197.842,610.829Z" transform="translate(-172.161 -559.594)" fill="#edc8be"/>
      <path id="Trazado_1046073" data-name="Trazado 1046073" d="M224.665,580.85c1.478.123,3.116.261,4.275,1.3.389.347.966-.225.575-.575-1.339-1.2-3.135-1.391-4.85-1.534C224.144,579.994,224.147,580.807,224.665,580.85Z" transform="translate(-205.209 -531.433)" fill="#edc8be"/>
      <path id="Trazado_1046074" data-name="Trazado 1046074" d="M.106,1295.876v5.52l181.327,22.877v-5.52Z" transform="translate(-0.201 -1186.085)" fill="#fff"/>
      <path id="Rectángulo_406569" data-name="Rectángulo 406569" d="M15.951,0H47.322A15.951,15.951,0,0,1,63.273,15.951v0A15.95,15.95,0,0,1,47.323,31.9H15.949A15.949,15.949,0,0,1,0,15.952v0A15.951,15.951,0,0,1,15.951,0Z" transform="translate(71.646 82.097)" fill="#009dcf"/>
      <path id="Trazado_1046075" data-name="Trazado 1046075" d="M955.1,1076.575h8.311v-1.618h-6.383v-13.32H955.1Zm-4.856,0h1.884l-.931-14.938h-2.46l-2.66,7.225c-.665,1.884-1.2,3.524-1.573,5.031h-.067c-.377-1.552-.886-3.192-1.507-5.031l-2.549-7.225h-2.46l-1.042,14.938h1.839l.4-6.405c.133-2.239.244-4.743.288-6.6h.044c.421,1.773,1.02,3.7,1.729,5.807l2.416,7.114h1.463l2.637-7.247c.754-2.061,1.374-3.923,1.884-5.674h.067c-.022,1.862.111,4.366.222,6.449Zm-21.145,0h1.95v-13.3h4.566v-1.64H924.553v1.64H929.1Zm-17.289-14.938v14.938h1.928v-7h7.225v7h1.95v-14.938h-1.95v6.25h-7.225v-6.25Z" transform="translate(-833.971 -971.868)" fill="#fff"/>
      <path id="Rectángulo_406570" data-name="Rectángulo 406570" d="M23.387,0h20.25A23.387,23.387,0,0,1,67.024,23.387v0A23.386,23.386,0,0,1,43.638,46.774H23.387A23.387,23.387,0,0,1,0,23.387v0A23.387,23.387,0,0,1,23.387,0Z" transform="translate(38.134 129.214)" fill="#98559a"/>
      <path id="Trazado_1046076" data-name="Trazado 1046076" d="M589.65,1672.911a11.322,11.322,0,0,0,5.591,1.4c5.168,0,7.671-2.926,7.671-6.306,0-3.218-1.885-5.006-5.591-6.436-3.023-1.17-4.355-2.178-4.355-4.225,0-1.5,1.137-3.283,4.128-3.283a8.721,8.721,0,0,1,4.16,1.04l.78-2.308a9.956,9.956,0,0,0-4.843-1.073c-4.258,0-7.086,2.535-7.086,5.948,0,3.088,2.21,4.94,5.786,6.208,2.958,1.137,4.128,2.308,4.128,4.355,0,2.21-1.69,3.738-4.583,3.738a10.022,10.022,0,0,1-5.07-1.43Zm-16.023,0a11.322,11.322,0,0,0,5.591,1.4c5.168,0,7.671-2.926,7.671-6.306,0-3.218-1.885-5.006-5.591-6.436-3.023-1.17-4.355-2.178-4.355-4.225,0-1.5,1.137-3.283,4.128-3.283a8.722,8.722,0,0,1,4.16,1.04l.78-2.308a9.956,9.956,0,0,0-4.843-1.073c-4.258,0-7.086,2.535-7.086,5.948,0,3.088,2.21,4.94,5.785,6.208,2.958,1.137,4.128,2.308,4.128,4.355,0,2.21-1.69,3.738-4.583,3.738a10.022,10.022,0,0,1-5.07-1.43Zm-3.021-1.885a11.317,11.317,0,0,1-4.616.91c-5.331,0-8.418-3.445-8.418-8.808,0-5.753,3.413-9.036,8.548-9.036a10.3,10.3,0,0,1,4.421.91l.683-2.308a11.739,11.739,0,0,0-5.2-.975c-6.793,0-11.441,4.648-11.441,11.506,0,7.183,4.648,11.084,10.823,11.084a14.038,14.038,0,0,0,5.786-1.04Z" transform="translate(-507.281 -1511.511)" fill="#fff"/>
      <path id="Trazado_1046077" data-name="Trazado 1046077" d="M1193.635,1471.89a20.536,20.536,0,0,0-.681,4.272,3.49,3.49,0,0,0,.339,2.029,3.316,3.316,0,0,0,2.54,1.251,19.335,19.335,0,0,0,7.559-.944,30.108,30.108,0,0,0,5.679-2.859,7.812,7.812,0,0,0,2.131-1.495,7.433,7.433,0,0,0,1.432-2.9,42.25,42.25,0,0,0,1.829-14.207c-.123-2.923-.707-8.573-3.521-10.33-3.21-2-6.639,4.681-7.919,6.678-2.311,3.6-4.284,7.411-6.252,11.209a41,41,0,0,0-2.905,6.5Q1193.743,1471.491,1193.635,1471.89Z" transform="translate(-1091.073 -1323.685)" fill="#fff6d3"/>
      <path id="Trazado_1046078" data-name="Trazado 1046078" d="M1474.463,1271.808a3.518,3.518,0,0,0-.741-2.391,6.006,6.006,0,0,0-1.7-1.246,1.178,1.178,0,0,1-.472-.387.993.993,0,0,1-.084-.521c.075-4.115-.816-8.791-4.58-11.621a15.235,15.235,0,0,0-6.532-2.512,28.486,28.486,0,0,0-12.2.407c-3.246.863-6.612,2.258-8.265,5.036a1.794,1.794,0,0,1-.508.632,2.611,2.611,0,0,1-.964.268,4.6,4.6,0,0,0-2.746,1.77,9.053,9.053,0,0,0-1.363,2.88,23.9,23.9,0,0,0-.847,3.8,1.307,1.307,0,0,0,.018.626,1.531,1.531,0,0,0,.324.469l5.87,6.59c4.725,5.3,12.789,7.549,19.805,6.169a28.179,28.179,0,0,0,7.463-2.654,38.132,38.132,0,0,0,6.3-3.757,2.926,2.926,0,0,0,.683-.675,2.734,2.734,0,0,0,.323-1A11.232,11.232,0,0,0,1474.463,1271.808Z" transform="translate(-1311.004 -1146.563)" fill="#fff6d3"/>
      <path id="Trazado_1046079" data-name="Trazado 1046079" d="M1474.693,1260.979a11.2,11.2,0,0,0,1.974,6.267,8.384,8.384,0,0,0,5.817,3.377,2.322,2.322,0,0,1-1.18,1.239l-2.647,1.641a9.226,9.226,0,0,1-5,1.795,27.738,27.738,0,0,1-7.007.3c-5.168-.655-9.57-3.933-13.708-7.1.705.539,3.355-.811,3.981-1.177a8.268,8.268,0,0,0,2.983-2.49,15.758,15.758,0,0,0,2.219-4.138c.406-1.352,2.589-1.8,3.763-2.4a59.2,59.2,0,0,0,5.265-3.014c0-.695,4.077-2.345,4.609-2.619A32.725,32.725,0,0,0,1474.693,1260.979Z" transform="translate(-1328.85 -1146.563)" fill="#f08162"/>
      <path id="Trazado_1046080" data-name="Trazado 1046080" d="M1355.368,1400.2q-.357,9.966-.965,19.921h43.446a109.015,109.015,0,0,1,.1-19.963c.292-3.154.713-6.294,1-9.449,0-2.263.378-4.573.49-6.839a88.284,88.284,0,0,0-.3-14.014c-.14-1.266.014-2.9-.583-4.065-.571-1.112-2.126-1.723-3.153-2.308-.708-.4-1.5-.648-2.206-1.079-.833-.508-7.246-7.829-7.254-7.823a83.547,83.547,0,0,1-11.617,9.155l-.037.025c-.615.417-2.4,1.952-3.067,1.774s-1.364-2.09-1.646-2.67a23.19,23.19,0,0,1-2.034-6.3c0,.018-5.328,3.917-5.818,4.34-1.525,1.319-4.178.546-5.532,2.1-1.59,1.83-1.3,6.916-1.3,9.151C1354.928,1381.5,1355.7,1390.868,1355.368,1400.2Z" transform="translate(-1238.735 -1239.771)" fill="#fff6d3"/>
      <path id="Trazado_1046081" data-name="Trazado 1046081" d="M1360.564,1629.075a51.876,51.876,0,0,1,.114-9.135c.055-.545-.8-.542-.853,0a51.864,51.864,0,0,0-.114,9.135C1359.753,1629.619,1360.606,1629.623,1360.564,1629.075Z" transform="translate(-1243.454 -1482.076)" fill="#edc8be"/>
      <path id="Trazado_1046082" data-name="Trazado 1046082" d="M1441.79,1438.714a25.751,25.751,0,0,0,7.47,5.938c.489.246.921-.489.43-.736a25.1,25.1,0,0,1-7.3-5.8C1442.025,1437.7,1441.424,1438.306,1441.79,1438.714Z" transform="translate(-1318.548 -1316.037)" fill="#edc8be"/>
      <path id="Trazado_1046083" data-name="Trazado 1046083" d="M1701.562,1448.039a18.074,18.074,0,0,1-5,3.22.429.429,0,0,0-.153.583.437.437,0,0,0,.583.153,18.745,18.745,0,0,0,5.176-3.353C1702.571,1448.272,1701.967,1447.67,1701.562,1448.039Z" transform="translate(-1551.453 -1325.136)" fill="#edc8be"/>
      <path id="Trazado_1046084" data-name="Trazado 1046084" d="M1512.943,1070.05c-.216.049-.435.094-.655.131a12.323,12.323,0,0,1-5.439-.29c-2.014-.573-2.3-3.541-2.522-5.3a70.714,70.714,0,0,1-.147-16.163c.027-.263.058-.529.1-.793.019-.13.037-.259.06-.389a5.7,5.7,0,0,1,1.158-2.83c1.205-1.4,3.243-1.72,5.093-1.712,2.663.014,6.77.327,8.963,2.013,2.067,1.593,3.108,4.892,3.436,7.35C1523.961,1059.433,1520.853,1068.234,1512.943,1070.05Z" transform="translate(-1375.351 -954.559)" fill="#f08162"/>
      <path id="Trazado_1046085" data-name="Trazado 1046085" d="M1512.82,1173.533a.447.447,0,0,0-.09-.194,3,3,0,0,0-1.87-1.061,1,1,0,0,0-.393-.028l-.1.045c-.031.033-.145.089-.148.134a2.088,2.088,0,0,0,.232.938,1.356,1.356,0,0,0,.256.377.906.906,0,0,0,.356.181,2.836,2.836,0,0,0,.987.162C1512.36,1174.088,1512.871,1173.951,1512.82,1173.533Z" transform="translate(-1381.234 -1073.018)" fill="#fff"/>
      <path id="Trazado_1046086" data-name="Trazado 1046086" d="M1510.46,1171.044l.021-.034a1.61,1.61,0,0,0,.2-.568l.014-.033.035,0a1.365,1.365,0,0,1,.935.706,1.751,1.751,0,0,0-.7-.909,2.9,2.9,0,0,0-1.183-.561,1.224,1.224,0,0,0-.722-.033.183.183,0,0,0-.124.161,1.143,1.143,0,0,0,.163.575.5.5,0,0,1,.048-.31.137.137,0,0,1,.232.015.875.875,0,0,1,.009.249c0,.089,0,.179.012.268a.96.96,0,0,0,.172.5.5.5,0,0,0,.883-.022Z" transform="translate(-1380.063 -1070.567)" fill="#10254a"/>
      <path id="Trazado_1046087" data-name="Trazado 1046087" d="M1514.855,1176.073a.479.479,0,0,0,.173.259,1.193,1.193,0,0,0,.141.082l.166.035a4.739,4.739,0,0,1,.04-.749c.007-.052.015-.105.017-.158s.01-.093-.032-.12a1.091,1.091,0,0,0-.27-.106c-.05-.014-.1-.017-.15-.03l-.108,0-.012.039A1.958,1.958,0,0,0,1514.855,1176.073Z" transform="translate(-1385.422 -1075.801)" fill="#0068ae"/>
      <path id="Trazado_1046088" data-name="Trazado 1046088" d="M1586.646,1182.855a3.106,3.106,0,0,0,1.615.615,4.365,4.365,0,0,0,2.015-.146.951.951,0,0,0,.436-.243c.48-.542-.954-1.183-1.317-1.352a5.035,5.035,0,0,0-1.66-.461c-.316-.029-1.136-.219-1.285.192A1.689,1.689,0,0,0,1586.646,1182.855Z" transform="translate(-1450.883 -1081.211)" fill="#fff"/>
      <path id="Trazado_1046089" data-name="Trazado 1046089" d="M1586.814,1179.874a11.751,11.751,0,0,1,1.9.379,3.931,3.931,0,0,1,1.662.968,1.745,1.745,0,0,0-.513-.85,3.866,3.866,0,0,0-1.829-.988,4.168,4.168,0,0,0-2.094-.009l-.047.023-.02.056q-.031.212-.049.425c.162.017.306-.049.467-.048A3.953,3.953,0,0,1,1586.814,1179.874Z" transform="translate(-1450.378 -1079.422)" fill="#10254a"/>
      <path id="Trazado_1046090" data-name="Trazado 1046090" d="M1591.165,1181.721a.768.768,0,0,0,.518-.264,1.74,1.74,0,0,0,.32-.559c.093-.235.325-.664.109-.837a2.055,2.055,0,0,0-.561-.166q-.306-.094-.611-.2c-.433-.144-.712-.228-.814.285C1589.989,1180.668,1590.259,1181.78,1591.165,1181.721Z" transform="translate(-1454.277 -1079.738)" fill="#10254a"/>
      <path id="Trazado_1046091" data-name="Trazado 1046091" d="M1591.7,1185.578a.9.9,0,0,1-.046.211,3.336,3.336,0,0,0-.027,1.028l-.033.087-.029,0a.879.879,0,0,1-.361-.212,1.123,1.123,0,0,1-.249-.489,1.735,1.735,0,0,1-.086-.421,2.334,2.334,0,0,1,.036-.373l.012-.028.018,0a4.065,4.065,0,0,1,.434.068,1.3,1.3,0,0,1,.264.051A.1.1,0,0,1,1591.7,1185.578Z" transform="translate(-1454.984 -1085.03)" fill="#0068ae"/>
      <path id="Trazado_1046092" data-name="Trazado 1046092" d="M1583.858,1172.657c1.493-.1,3.2.158,4.13,1.462.158.221.528.009.368-.215a4.9,4.9,0,0,0-4.5-1.674C1583.586,1172.25,1583.584,1172.676,1583.858,1172.657Z" transform="translate(-1448.389 -1072.99)" fill="#c74e53"/>
      <path id="Trazado_1046093" data-name="Trazado 1046093" d="M1510.278,1162.956a3.08,3.08,0,0,0-1.11-1.29,2.842,2.842,0,0,0-1.678-.6.213.213,0,0,0,0,.426,2.438,2.438,0,0,1,1.426.519,2.615,2.615,0,0,1,.951,1.061.22.22,0,0,0,.262.149A.214.214,0,0,0,1510.278,1162.956Z" transform="translate(-1378.547 -1062.796)" fill="#c74e53"/>
      <path id="Trazado_1046094" data-name="Trazado 1046094" d="M1517.267,1221.139a5.1,5.1,0,0,0,3.437-.053,7.794,7.794,0,0,0,2.743-2.156,13.8,13.8,0,0,0,2.26-3.528,24.569,24.569,0,0,0,.887-2.525c.223-.718.173-2.127.4-2.845-.055.183.382.68.473.816a5.365,5.365,0,0,1,.677,1.243c.363,1.02,1.088,1.993.917,3.131a4.182,4.182,0,0,1-.623,1.463c-2.031,3.443-4.542,7.232-8.5,8.623a7.136,7.136,0,0,1-5.844-.331,4.646,4.646,0,0,1-1.89-2.353,7.8,7.8,0,0,1-.667-2.862c-.007-.187.1-.708.016-.858.327.579.842,1.6,1.591,1.708.692.1,1.078-.665,1.145-1.242a3.978,3.978,0,0,0-.142-1.32.175.175,0,0,1,0-.118c.032-.061.117-.062.186-.055a9.923,9.923,0,0,1,1.571.173,8.082,8.082,0,0,0,.924.333,6.047,6.047,0,0,0-.821.153c-.617.208-.006,1.865.335,2.173a1.965,1.965,0,0,0,.743.374Z" transform="translate(-1382.431 -1107.579)" fill="#10254a"/>
      <path id="Trazado_1046095" data-name="Trazado 1046095" d="M1503.173,985.4a5.969,5.969,0,0,1,.093-1.749,4.243,4.243,0,0,0,.346-2.137,4.861,4.861,0,0,0-.871-1.321,3.275,3.275,0,0,1-.405-1.978,8.125,8.125,0,0,0-.413-2.417.594.594,0,0,0-.182-.312.6.6,0,0,0-.315-.085c-2.758-.218-5.609.089-8.231-.795a18.153,18.153,0,0,1-2.717-1.256,22.324,22.324,0,0,1-2.707,1.161.3.3,0,0,1-.173.025c-.4-.1-.911-1.233-1.092-1.571a8.856,8.856,0,0,1-1.038-4.031,8.513,8.513,0,0,1,.05-1.048,4.2,4.2,0,0,0,.16-.949c.337.483.621,1.031.989,1.487.1.123.067-.866.067-.88a8.235,8.235,0,0,1,.042-1.374,8.59,8.59,0,0,1,.731-2.64,3.788,3.788,0,0,0,1.259,1.361,16.2,16.2,0,0,0,1.845,1.187,5.2,5.2,0,0,0,1.66.535c.052-.456.144-.912.22-1.366.023-.141.308-1.182.2-1.276,2.524,2.275,5.932,2.682,8.96,3.911a23.213,23.213,0,0,1,8.6,6.056,1.565,1.565,0,0,1,.424.7c.115.6-.326,1.235-.554,1.756l-.933,2.138a2.4,2.4,0,0,0-.283,1.67c.08.24.235.45.3.695a1.9,1.9,0,0,1-.216,1.2,25.8,25.8,0,0,1-1.594,3.106,7.058,7.058,0,0,1-1.963,2.408C1503.909,988.565,1503.294,986.941,1503.173,985.4Z" transform="translate(-1358.595 -882.152)" fill="#10254a"/>
      <path id="Trazado_1046096" data-name="Trazado 1046096" d="M1489.835,1010.354a7.822,7.822,0,0,1-1.559-3.16c-.177-.659.111-1.321-.04-1.94a5.594,5.594,0,0,0,2.184,2.755,8.738,8.738,0,0,1,.39-4.361,3.3,3.3,0,0,0,1.173,1.823,18.651,18.651,0,0,0,4.477,2.719,6.182,6.182,0,0,1-1-4.109,4.488,4.488,0,0,0,2.186,2c2.308,1.207,4.992,1.884,6.782,3.776a6.728,6.728,0,0,1,1.558,2.706.592.592,0,0,0-.365-.3c-1.7-.716-3.622-.595-5.465-.732a18.936,18.936,0,0,1-7.359-2.105,5.673,5.673,0,0,1-2.469,1.1.555.555,0,0,1-.268,0A.563.563,0,0,1,1489.835,1010.354Z" transform="translate(-1361.11 -918.835)" fill="#174174"/>
      <path id="Trazado_1046097" data-name="Trazado 1046097" d="M1703.978,1188.077a2.778,2.778,0,0,0-.115-.73,1.876,1.876,0,0,0-1.369-1.339,1.974,1.974,0,0,0-1.453.391,5.842,5.842,0,0,0-1.654,1.961,7.155,7.155,0,0,0-.992,3.6,2.09,2.09,0,0,0,.715,1.822c.964.576,2.333-.617,2.964-1.263a6.976,6.976,0,0,0,1.749-3.183A4.691,4.691,0,0,0,1703.978,1188.077Z" transform="translate(-1553.323 -1085.587)" fill="#f08162"/>
      <path id="Trazado_1046098" data-name="Trazado 1046098" d="M1709.352,1208.516a2.355,2.355,0,0,0,1.016-1.029,1.454,1.454,0,0,0-.393-1.433l.055.207a13.846,13.846,0,0,1,.877-1.74c.222-.372.7-1.349,1.264-.989.232.148.446-.221.215-.368-.676-.429-1.27.229-1.608.754a14.378,14.378,0,0,0-1.16,2.229.214.214,0,0,0,.055.207.965.965,0,0,1,.243,1.091,2.2,2.2,0,0,1-.781.7C1708.907,1208.3,1709.12,1208.665,1709.352,1208.516Z" transform="translate(-1563.056 -1101.172)" fill="#c74e53"/>
      <path id="Trazado_1046099" data-name="Trazado 1046099" d="M1721.4,1230.408a6.151,6.151,0,0,1,1.554.069.219.219,0,0,0,.262-.149.215.215,0,0,0-.149-.262,6.589,6.589,0,0,0-1.667-.084.219.219,0,0,0-.213.213A.215.215,0,0,0,1721.4,1230.408Z" transform="translate(-1574.169 -1125.806)" fill="#c74e53"/>
      <path id="Trazado_1046100" data-name="Trazado 1046100" d="M1531.992,1181.821a30.348,30.348,0,0,1-1.441,4.849c-.185.563-.63,1.445-.171,1.975a1.747,1.747,0,0,0,.743.434c.424.16.853.309,1.279.463.258.094.369-.318.113-.411l-1.023-.37c-.28-.1-.767-.208-.873-.534s.147-.827.241-1.126c.112-.359.233-.714.358-1.069a22.821,22.821,0,0,0,1.185-4.1C1532.443,1181.666,1532.033,1181.55,1531.992,1181.821Z" transform="translate(-1399.486 -1081.638)" fill="#c74e53"/>
      <path id="Trazado_1046101" data-name="Trazado 1046101" d="M1581.133,1133.759a10.278,10.278,0,0,1,1.723.674,7.281,7.281,0,0,0-4.247-2.548,3.53,3.53,0,0,0-1.894.124,1.9,1.9,0,0,0-.864.646,1.6,1.6,0,0,0-.223.46,4.36,4.36,0,0,0-.075.493,8.573,8.573,0,0,1,1.657-.23,10.6,10.6,0,0,1,3.921.38Z" transform="translate(-1440.981 -1036.048)" fill="#10254a"/>
      <path id="Trazado_1046102" data-name="Trazado 1046102" d="M1512.156,1130.889a1.8,1.8,0,0,0-.285-1.137c-.3-.47-1.092-.53-1.587-.458a2.141,2.141,0,0,0-1.343.762c.16-.2,1.118.017,1.328.07a2.686,2.686,0,0,1,.845.384,4.2,4.2,0,0,1,.745.542c.046.048.1.1.169.084a.147.147,0,0,0,.085-.093A.757.757,0,0,0,1512.156,1130.889Z" transform="translate(-1380.063 -1033.719)" fill="#10254a"/>
      <path id="Trazado_1046103" data-name="Trazado 1046103" d="M1163.274,1751.008a8.084,8.084,0,0,0,.265,5.155,3.494,3.494,0,0,0,2.276,1.415,71.3,71.3,0,0,0,22.286,2.786,104.4,104.4,0,0,0,11.037-1.222c1.038-.145,1.9-.021,2.551-.948.83-1.185.577-3.43.7-4.8.072-.828.832-5.876-.453-6.169-2.564-.586-5.37-.519-8.007-.808-3.086-.338-6.166-.732-9.244-1.133-2.95-.384-5.9-.777-8.853-1.137-2.8-.341-5.889-1.134-8.672-1.162a1.728,1.728,0,0,0-.834.154,2.008,2.008,0,0,0-.782,1.072A37.493,37.493,0,0,0,1163.274,1751.008Z" transform="translate(-1063.686 -1594.972)" fill="#fff6d3"/>
      <path id="Trazado_1046104" data-name="Trazado 1046104" d="M1360.77,1939.623q3.922.294,7.829.744c.544.063.539-.79,0-.852q-3.907-.451-7.829-.744C1360.223,1938.73,1360.225,1939.582,1360.77,1939.623Z" transform="translate(-1244.183 -1774.025)" fill="#edc8be"/>
      <path id="Trazado_1046105" data-name="Trazado 1046105" d="M1374.176,1760.777q10.38,1.584,20.857,2.408l-.411-.313.172.6a.427.427,0,0,0,.822-.226q-.086-.3-.173-.6a.439.439,0,0,0-.411-.313q-10.355-.812-20.63-2.378C1373.866,1759.873,1373.634,1760.694,1374.176,1760.777Z" transform="translate(-1256.535 -1610.49)" fill="#edc8be"/>
      <path id="Trazado_1046106" data-name="Trazado 1046106" d="M1274.532,1730.9c-.446-.778-1.483-1.088-2.26-1.418a28.686,28.686,0,0,0-3-1.082,29.118,29.118,0,0,0-6.354-1.135c-.547-.037-.545.815,0,.853a28.026,28.026,0,0,1,8.491,1.924q.664.264,1.313.565a2.174,2.174,0,0,1,1.074.722A.426.426,0,0,0,1274.532,1730.9Z" transform="translate(-1154.694 -1580.599)" fill="#edc8be"/>
      <path id="Trazado_1046107" data-name="Trazado 1046107" d="M1313,1710.942c2.878.149,5.094,2.259,6.648,4.506.31.448,1.049.022.736-.43-1.737-2.513-4.181-4.762-7.385-4.929C1312.447,1710.061,1312.449,1710.913,1313,1710.942Z" transform="translate(-1200.491 -1564.891)" fill="#edc8be"/>
      <path id="Trazado_1046108" data-name="Trazado 1046108" d="M1283,1749.745c-1.181-.8-3.878-2.263-3.714-3.618.087-.719.991-1.015,1.714-.959a4.416,4.416,0,0,0,2.146,0c.269-.121.5-.323.78-.417a2.18,2.18,0,0,1,.928-.031c1.412.157,3.283.241,4.341,1.25a30.038,30.038,0,0,1,3.115,4.408,7.663,7.663,0,0,1,1.1,1.918,6.407,6.407,0,0,1-.648,4.653.963.963,0,0,1-.337.452.944.944,0,0,1-.731.005,9.046,9.046,0,0,1-3.672-2.061c-1.762-1.633-2.839-3.937-4.743-5.4C1283.193,1749.881,1283.1,1749.816,1283,1749.745Z" transform="translate(-1170.028 -1596.528)" fill="#f08162"/>
      <path id="Trazado_1046109" data-name="Trazado 1046109" d="M1457.747,1831.932q-.385-.571-.806-1.113a5.179,5.179,0,0,0-1.554-1.468,5.8,5.8,0,0,0-2.082-.52q-9-1.086-18.028-2-2.22-.224-4.442-.438c-1.473-.142-3.941-1.31-4.887.252-1.31,2.164-1.58,5.652-1.678,8.116a1.4,1.4,0,0,0,.144.831,1.422,1.422,0,0,0,.629.45,91.65,91.65,0,0,0,30.065,7.786c2.307.212,5.4.847,5.592-2.2A15.838,15.838,0,0,0,1457.747,1831.932Z" transform="translate(-1302.626 -1670.753)" fill="#fff6d3"/>
      <path id="Trazado_1046110" data-name="Trazado 1046110" d="M1729.41,1482.907q.5-1.266,1-2.533c.051-.129-.395-.428-.267-.48s.155-.428.274-.382a18.9,18.9,0,0,1,7.653,5.89c2.632,3.936.975,10.011-.255,14.144q-3.17,10.651-6.862,21.138c-.489,1.388-1.148,2.7-1.657,4.073-.3.8-.336,2.02-1.32,2.329-1.644.517-3.493-2.1-4.569-2.99-2.468-2.033-5.4-3.77-5.639-7.25a15.67,15.67,0,0,1,.726-5.088,114.637,114.637,0,0,1,5.143-14.658C1725.608,1492.409,1727.526,1487.66,1729.41,1482.907Z" transform="translate(-1571.022 -1354.02)" fill="#fff6d3"/>
      <path id="Trazado_1046111" data-name="Trazado 1046111" d="M1724.2,1851.05a39.144,39.144,0,0,1,5.629,7.659.427.427,0,0,0,.736-.43,40.064,40.064,0,0,0-5.763-7.832C1724.428,1850.048,1723.825,1850.651,1724.2,1851.05Z" transform="translate(-1576.815 -1693.133)" fill="#edc8be"/>
      <path id="Trazado_1046112" data-name="Trazado 1046112" d="M1723.31,1664.995a150.966,150.966,0,0,1,6.3-16.777c.221-.5-.513-.931-.736-.43a152.771,152.771,0,0,0-6.385,16.981C1722.325,1665.293,1723.148,1665.518,1723.31,1664.995Z" transform="translate(-1575.337 -1507.713)" fill="#edc8be"/>
      <path id="Trazado_1046113" data-name="Trazado 1046113" d="M1742.909,1686.215a24.971,24.971,0,0,1-1.472-3.319.437.437,0,0,0-.524-.3.43.43,0,0,0-.3.524,26.611,26.611,0,0,0,1.558,3.523.427.427,0,0,0,.736-.431Z" transform="translate(-1591.916 -1539.737)" fill="#edc8be"/>
      <path id="Trazado_1046114" data-name="Trazado 1046114" d="M1442.43,1821.786c3.2.526,6.405,1.006,9.631,1.332,2.734.277,5.479.435,8.223.588,2.016.112,4.033.225,6.05.349.548.034.546-.819,0-.852-5.916-.365-11.844-.566-17.726-1.341-1.989-.262-3.972-.572-5.951-.9C1442.119,1820.876,1441.889,1821.7,1442.43,1821.786Z" transform="translate(-1318.955 -1666.283)" fill="#edc8be"/>
      <path id="Trazado_1046115" data-name="Trazado 1046115" d="M1418.694,1890.734a20.871,20.871,0,0,0-.01,2.668,5.884,5.884,0,0,0,.161,1.188c.1.344.368.408.676.542,1.1.479,2.2.957,3.307,1.426,2.3.975,4.615,1.909,6.969,2.742a86.778,86.778,0,0,0,17.493,4.154q1.519.2,3.043.362.8.083,1.593.156a3.1,3.1,0,0,0,1.512.009,5.894,5.894,0,0,0,2.739-3.817.426.426,0,0,0-.822-.226,5.072,5.072,0,0,1-2.142,3.19,2.079,2.079,0,0,1-1.084.01q-.652-.058-1.3-.123-1.209-.121-2.416-.269c-2.906-.356-5.8-.841-8.658-1.474A87.97,87.97,0,0,1,1426.12,1897c-2.229-.891-4.43-1.85-6.631-2.808l.2.255a14.79,14.79,0,0,1-.139-3.716C1419.573,1890.185,1418.721,1890.187,1418.694,1890.734Z" transform="translate(-1297.485 -1729.719)" fill="#edc8be"/>
      <path id="Trazado_1046116" data-name="Trazado 1046116" d="M1787.064,1455.312a18.265,18.265,0,0,1,9.566,3.676c.437.332.862-.408.43-.736a19.058,19.058,0,0,0-10-3.792C1786.518,1454.416,1786.521,1455.268,1787.064,1455.312Z" transform="translate(-1634.039 -1331.112)" fill="#edc8be"/>
      <path id="Trazado_1046117" data-name="Trazado 1046117" d="M1811.94,1422.178c-1.8.149-3.681.355-5.085,1.609-.41.366.194.967.6.6,1.215-1.085,2.933-1.23,4.482-1.359a.437.437,0,0,0,.426-.426A.429.429,0,0,0,1811.94,1422.178Z" transform="translate(-1652.386 -1301.59)" fill="#edc8be"/>
      <path id="Trazado_1046118" data-name="Trazado 1046118" d="M1531.7,1282.25a8.456,8.456,0,0,0,2.287.428,2.973,2.973,0,0,1,.548.145,1.647,1.647,0,0,1,.253.12l.118.093,0-.031a5.442,5.442,0,0,1-1.092-.6c-.22-.164-.433.206-.215.368a4.746,4.746,0,0,0,.677.424,1.525,1.525,0,0,0,.69.239.39.39,0,0,0,.361-.48c-.057-.256-.311-.387-.53-.483-.915-.4-1.979-.161-2.88-.589C1531.665,1281.765,1531.449,1282.132,1531.7,1282.25Z" transform="translate(-1400.773 -1173.267)" fill="#c74e53"/>
      <path id="Trazado_1046119" data-name="Trazado 1046119" d="M1628.652,1789.28c.774-.083,1.235-.268,1.746.3.591.659,1.15,1.358,1.73,2.03l3.693,4.277c.28.324.578.746.417,1.143a.791.791,0,0,1-.837.415,2.066,2.066,0,0,1-.9-.421,12.406,12.406,0,0,1-1.585-1.331c-.59-.586-1.281-1.095-1.911-1.643.773,1.841,1.65,3.648,2.507,5.459.116.246.225.56.049.767s-.531.14-.793.031a8.67,8.67,0,0,1-2.285-1.459c-.531-.458-1.269-.837-1.517-1.536a5.73,5.73,0,0,1,.111,1.424,19.774,19.774,0,0,1,.157,2.256.71.71,0,0,1-.185.541.488.488,0,0,1-.558-.008,1.306,1.306,0,0,1-.381-.452,20.73,20.73,0,0,1-.951-2.1,1.663,1.663,0,0,0-1.3-.966,10.69,10.69,0,0,1-4.393-2.432,5.117,5.117,0,0,1-1.2-1.573c-.28-.619-.638-3.757.152-3.842Z" transform="translate(-1481.571 -1637.226)" fill="#f08162"/>
    </g>
  </g>
</svg>
