<svg xmlns="http://www.w3.org/2000/svg" width="73" height="73" viewBox="0 0 73 73">
  <g id="Grupo_1179906" data-name="Grupo 1179906" transform="translate(-612.051 -5189)">
    <g id="Elipse_11810" data-name="Elipse 11810" transform="translate(612.051 5189)" fill="#a4f7fb" stroke="#1bebf5" stroke-width="3">
      <circle cx="36.5" cy="36.5" r="36.5" stroke="none"/>
      <circle cx="36.5" cy="36.5" r="35" fill="none"/>
    </g>
    <g id="Grupo_1179905" data-name="Grupo 1179905" transform="translate(613.8 5203)">
      <g id="Grupo_1179903" data-name="Grupo 1179903" transform="translate(14.131 10.432)">
        <g id="Grupo_1179900" data-name="Grupo 1179900">
          <path id="Trazado_1046546" data-name="Trazado 1046546" d="M61.314,118.5H26.166a2.915,2.915,0,0,0-2.915,2.915v20.548H64.229V121.419a2.915,2.915,0,0,0-2.915-2.915Z" transform="translate(-23.251 -118.504)" fill="#cbe558" fill-rule="evenodd"/>
        </g>
        <g id="Grupo_1179901" data-name="Grupo 1179901" transform="translate(0 23.463)">
          <path id="Trazado_1046547" data-name="Trazado 1046547" d="M23.252,385.036v2.53a2.915,2.915,0,0,0,2.915,2.915H61.315a2.915,2.915,0,0,0,2.915-2.915v-2.53H23.252Z" transform="translate(-23.252 -385.036)" fill="#c1dbfe" fill-rule="evenodd"/>
        </g>
        <g id="Grupo_1179902" data-name="Grupo 1179902" transform="translate(12.993 28.908)">
          <path id="Trazado_1046548" data-name="Trazado 1046548" d="M170.848,446.888H185.84v4.852H170.848Z" transform="translate(-170.848 -446.888)" fill="#8690af" fill-rule="evenodd"/>
        </g>
      </g>
      <g id="Grupo_1179904" data-name="Grupo 1179904" transform="translate(13.251 0)">
        <path id="Trazado_1046549" data-name="Trazado 1046549" d="M84.949,177.038v-4.631a.88.88,0,0,0-1.761,0v4.631a.88.88,0,0,0,1.761,0Z" transform="translate(-77.031 -156.428)"/>
        <path id="Trazado_1046550" data-name="Trazado 1046550" d="M129.595,174.168a2.641,2.641,0,1,0-5.282,0v1.11a2.641,2.641,0,1,0,5.282,0Zm-1.761,1.11a.88.88,0,1,1-1.761,0v-1.11a.88.88,0,0,1,1.761,0Z" transform="translate(-114.536 -156.428)"/>
        <path id="Trazado_1046551" data-name="Trazado 1046551" d="M207.2,177.038v-4.631a.88.88,0,0,0-1.761,0v4.631a.88.88,0,0,0,1.761,0Z" transform="translate(-188.52 -156.428)"/>
        <path id="Trazado_1046552" data-name="Trazado 1046552" d="M251.844,174.168a2.641,2.641,0,1,0-5.282,0v1.11a2.641,2.641,0,1,0,5.282,0Zm-1.761,1.11a.88.88,0,1,1-1.761,0v-1.11a.88.88,0,1,1,1.761,0Z" transform="translate(-226.024 -156.428)"/>
        <path id="Trazado_1046553" data-name="Trazado 1046553" d="M329.448,177.038v-4.631a.88.88,0,0,0-1.761,0v4.631a.88.88,0,0,0,1.761,0Z" transform="translate(-300.007 -156.428)"/>
        <path id="Trazado_1046554" data-name="Trazado 1046554" d="M374.094,174.168a2.641,2.641,0,1,0-5.282,0v1.11a2.641,2.641,0,1,0,5.282,0Zm-1.761,1.11a.88.88,0,1,1-1.761,0v-1.11a.88.88,0,1,1,1.761,0Z" transform="translate(-337.512 -156.428)"/>
        <path id="Trazado_1046555" data-name="Trazado 1046555" d="M408.812,260.287v4.631a.88.88,0,1,0,1.761,0v-4.631a.88.88,0,1,0-1.761,0Z" transform="translate(-373.991 -236.571)"/>
        <path id="Trazado_1046556" data-name="Trazado 1046556" d="M327.687,263.158a2.641,2.641,0,0,0,5.282,0v-1.11a2.641,2.641,0,0,0-5.282,0Zm1.761-1.11a.88.88,0,1,1,1.761,0v1.11a.88.88,0,1,1-1.761,0Z" transform="translate(-300.007 -236.571)"/>
        <path id="Trazado_1046557" data-name="Trazado 1046557" d="M286.562,260.287v4.631a.88.88,0,1,0,1.761,0v-4.631a.88.88,0,0,0-1.761,0Z" transform="translate(-262.503 -236.571)"/>
        <path id="Trazado_1046558" data-name="Trazado 1046558" d="M205.438,263.158a2.641,2.641,0,1,0,5.282,0v-1.11a2.641,2.641,0,0,0-5.282,0Zm1.761-1.11a.88.88,0,1,1,1.761,0v1.11a.88.88,0,1,1-1.761,0Z" transform="translate(-188.52 -236.571)"/>
        <path id="Trazado_1046559" data-name="Trazado 1046559" d="M164.313,260.287v4.631a.88.88,0,1,0,1.761,0v-4.631a.88.88,0,1,0-1.761,0Z" transform="translate(-151.015 -236.571)"/>
        <path id="Trazado_1046560" data-name="Trazado 1046560" d="M83.188,263.158a2.641,2.641,0,1,0,5.282,0v-1.11a2.641,2.641,0,1,0-5.282,0Zm1.761-1.11a.88.88,0,1,1,1.761,0v1.11a.88.88,0,1,1-1.761,0Z" transform="translate(-77.031 -236.571)"/>
        <path id="Trazado_1046561" data-name="Trazado 1046561" d="M171.714,3.785l.779-.779V6.912a.88.88,0,1,0,1.761,0V3.006l.779.779a.88.88,0,1,0,1.245-1.245L174,.259a.881.881,0,0,0-1.245,0L170.469,2.54a.88.88,0,1,0,1.245,1.245Z" transform="translate(-156.394 -0.001)"/>
        <path id="Trazado_1046562" data-name="Trazado 1046562" d="M272.494,7.534a.88.88,0,0,0,1.245,0l2.281-2.281a.88.88,0,0,0-1.245-1.245L274,4.786V.88a.88.88,0,1,0-1.761,0V4.786l-.779-.779a.88.88,0,1,0-1.245,1.245Z" transform="translate(-247.357 0)"/>
        <path id="Trazado_1046563" data-name="Trazado 1046563" d="M55.989,112.3a3.8,3.8,0,0,0-3.8-3.8H17.046a3.8,3.8,0,0,0-3.8,3.8v23.077a3.8,3.8,0,0,0,3.8,3.8h9.2v3.091H23.018a.88.88,0,1,0,0,1.761h23.2a.88.88,0,0,0,0-1.761H43v-3.091h9.2a3.8,3.8,0,0,0,3.8-3.8v-8.695a.88.88,0,0,0-1.761,0v5.285H15.012V112.3a2.037,2.037,0,0,1,2.035-2.035H52.194a2.037,2.037,0,0,1,2.035,2.035v6.46a.88.88,0,1,0,1.761,0V112.3ZM41.236,142.263H28v-3.091H41.236Zm12.993-8.536v1.649a2.035,2.035,0,0,1-2.035,2.035H17.046a2.037,2.037,0,0,1-2.035-2.035v-1.65Z" transform="translate(-13.251 -98.952)"/>
        <circle id="Elipse_11888" data-name="Elipse 11888" cx="0.88" cy="0.88" r="0.88" transform="translate(40.978 22.888)"/>
      </g>
    </g>
  </g>
</svg>
