<svg xmlns="http://www.w3.org/2000/svg" xmlns:xlink="http://www.w3.org/1999/xlink" width="108.914" height="108.914" viewBox="0 0 108.914 108.914">
  <defs>
    <filter id="Trazado_874925" x="0" y="0" width="108.914" height="108.914" filterUnits="userSpaceOnUse">
      <feOffset dy="3" input="SourceAlpha"/>
      <feGaussianBlur stdDeviation="3" result="blur"/>
      <feFlood flood-opacity="0.161"/>
      <feComposite operator="in" in2="blur"/>
      <feComposite in="SourceGraphic"/>
    </filter>
  </defs>
  <g id="Grupo_1179914" data-name="Grupo 1179914" transform="translate(-325.051 -6632)">
    <g id="Grupo_1179036" data-name="Grupo 1179036" transform="translate(334.051 6638)">
      <g id="Grupo_1111314" data-name="Grupo 1111314">
        <g id="Grupo_1109835" data-name="Grupo 1109835">
          <g id="Grupo_1107913" data-name="Grupo 1107913" transform="translate(0 0)">
            <g transform="matrix(1, 0, 0, 1, -9, -6)" filter="url(#Trazado_874925)">
              <g id="Trazado_874925-2" data-name="Trazado 874925" transform="translate(9 6)" fill="#c7b622" opacity="0.859">
                <path d="M 45.45676803588867 89.41407012939453 C 39.52198028564453 89.41407012939453 33.76551818847656 88.25206756591797 28.34726715087891 85.96034240722656 C 23.11311721801758 83.74648284912109 18.41204261779785 80.57682800292969 14.37464332580566 76.5394287109375 C 10.33724308013916 72.50202941894531 7.167593002319336 67.80095672607422 4.953730583190918 62.56679534912109 C 2.662005424499512 57.14855575561523 1.500005483627319 51.39208221435547 1.500005483627319 45.45729446411133 C 1.500005483627319 39.52198028564453 2.662005424499512 33.76551818847656 4.953730583190918 28.34726905822754 C 7.167593002319336 23.11310577392578 10.33724308013916 18.41203117370605 14.37464332580566 14.37464332580566 C 18.41204261779785 10.33724403381348 23.11311721801758 7.167593955993652 28.34726715087891 4.953731060028076 C 33.76551818847656 2.662006139755249 39.52198028564453 1.500006198883057 45.45676803588867 1.500006198883057 C 51.39155578613281 1.500006198883057 57.14802932739258 2.662006139755249 62.56626892089844 4.953731060028076 C 67.80043029785156 7.167593955993652 72.50150299072266 10.33724403381348 76.53890228271484 14.37464332580566 C 80.57630920410156 18.41203117370605 83.74595642089844 23.11310577392578 85.95981597900391 28.34726905822754 C 88.25154113769531 33.76551818847656 89.41354370117188 39.52198028564453 89.41354370117188 45.45676803588867 C 89.41354370117188 51.39208221435547 88.25154113769531 57.14855575561523 85.95981597900391 62.56679534912109 C 83.74595642089844 67.80095672607422 80.57630920410156 72.50202941894531 76.53890228271484 76.5394287109375 C 72.50150299072266 80.57682800292969 67.80043029785156 83.74648284912109 62.56626892089844 85.96034240722656 C 57.14802932739258 88.25206756591797 51.39155578613281 89.41407012939453 45.45676803588867 89.41407012939453 Z" stroke="none"/>
                <path d="M 45.45676803588867 3 C 39.72381210327148 3 34.1639404296875 4.12213134765625 28.93159484863281 6.335227966308594 C 23.87622833251953 8.473472595214844 19.33542633056641 11.53517150878906 15.43529510498047 15.435302734375 C 11.53517150878906 19.33543395996094 8.473464965820312 23.87622833251953 6.335227966308594 28.93160247802734 C 4.122123718261719 34.16394424438477 3 39.72381591796875 3 45.4572868347168 C 3 51.19024658203125 4.122123718261719 56.75011825561523 6.335227966308594 61.98246002197266 C 8.473464965820312 67.03782653808594 11.53517150878906 71.57862854003906 15.43529510498047 75.478759765625 C 19.33542633056641 79.37889099121094 23.87622833251953 82.44058990478516 28.93159484863281 84.57883453369141 C 34.1639404296875 86.79193115234375 39.72381210327148 87.9140625 45.45676803588867 87.9140625 C 51.18972396850586 87.9140625 56.74959564208984 86.79193115234375 61.98194122314453 84.57883453369141 C 67.03730773925781 82.44058990478516 71.57810974121094 79.37889099121094 75.47824096679688 75.478759765625 C 79.37837219238281 71.57862854003906 82.44007110595703 67.03782653808594 84.57830810546875 61.98246002197266 C 86.79141235351562 56.75011825561523 87.91353607177734 51.19024658203125 87.91353607177734 45.4567756652832 C 87.91353607177734 39.72381591796875 86.79141235351562 34.16394424438477 84.57830810546875 28.93160247802734 C 82.44007110595703 23.87622833251953 79.37837219238281 19.33543395996094 75.47824096679688 15.435302734375 C 71.57810974121094 11.53517150878906 67.03730773925781 8.473472595214844 61.98194122314453 6.335227966308594 C 56.74959564208984 4.12213134765625 51.18972396850586 3 45.45676803588867 3 M 45.45676803588867 0 C 70.56185150146484 0 90.91353607177734 20.35169219970703 90.91353607177734 45.4567756652832 L 90.91353607177734 45.4572868347168 C 90.91353607177734 70.5623779296875 70.56185150146484 90.9140625 45.45676803588867 90.9140625 C 20.3516845703125 90.9140625 0 70.5623779296875 0 45.4572868347168 L 0 45.4567756652832 C 0 20.35169219970703 20.3516845703125 0 45.45676803588867 0 Z" stroke="none" fill="#fff"/>
              </g>
            </g>
            <g id="Trazado_874923" data-name="Trazado 874923" fill="none">
              <path d="M45.457,0A45.457,45.457,0,0,1,90.914,45.457h0A45.457,45.457,0,0,1,0,45.457H0A45.457,45.457,0,0,1,45.457,0Z" stroke="none"/>
              <path d="M 45.45676803588867 3 C 39.72381210327148 3 34.1639404296875 4.12213134765625 28.93159484863281 6.335227966308594 C 23.87622833251953 8.473472595214844 19.33542633056641 11.53517150878906 15.43529510498047 15.435302734375 C 11.53517150878906 19.33543395996094 8.473464965820312 23.87622833251953 6.335227966308594 28.93160247802734 C 4.122123718261719 34.16394424438477 3 39.72381591796875 3 45.4572868347168 C 3 51.19024658203125 4.122123718261719 56.75011825561523 6.335227966308594 61.98246002197266 C 8.473464965820312 67.03782653808594 11.53517150878906 71.57862854003906 15.43529510498047 75.478759765625 C 19.33542633056641 79.37889099121094 23.87622833251953 82.44058990478516 28.93159484863281 84.57883453369141 C 34.1639404296875 86.79193115234375 39.72381210327148 87.9140625 45.45676803588867 87.9140625 C 51.18972396850586 87.9140625 56.74959564208984 86.79193115234375 61.98194122314453 84.57883453369141 C 67.03730773925781 82.44058990478516 71.57810974121094 79.37889099121094 75.47824096679688 75.478759765625 C 79.37837219238281 71.57862854003906 82.44007110595703 67.03782653808594 84.57830810546875 61.98246002197266 C 86.79141235351562 56.75011825561523 87.91353607177734 51.19024658203125 87.91353607177734 45.4567756652832 C 87.91353607177734 39.72381591796875 86.79141235351562 34.16394424438477 84.57830810546875 28.93160247802734 C 82.44007110595703 23.87622833251953 79.37837219238281 19.33543395996094 75.47824096679688 15.435302734375 C 71.57810974121094 11.53517150878906 67.03730773925781 8.473472595214844 61.98194122314453 6.335227966308594 C 56.74959564208984 4.12213134765625 51.18972396850586 3 45.45676803588867 3 M 45.45676803588867 0 C 70.56185150146484 0 90.91353607177734 20.35169219970703 90.91353607177734 45.4567756652832 L 90.91353607177734 45.4572868347168 C 90.91353607177734 70.5623779296875 70.56185150146484 90.9140625 45.45676803588867 90.9140625 C 20.3516845703125 90.9140625 0 70.5623779296875 0 45.4572868347168 L 0 45.4567756652832 C 0 20.35169219970703 20.3516845703125 0 45.45676803588867 0 Z" stroke="none" fill="#fff"/>
            </g>
          </g>
        </g>
      </g>
    </g>
    <g id="Grupo_1179913" data-name="Grupo 1179913" transform="translate(291.78 6638)">
      <path id="Trazado_1046631" data-name="Trazado 1046631" d="M103.673,71.173v3.4a.79.79,0,0,1-.79.79H65.061a.79.79,0,0,1-.79-.79V25.186a.79.79,0,0,1,.79-.79h3.4V21a.79.79,0,0,1,.79-.79h3.037V16.79a.79.79,0,0,1,.79-.79h29.3a.787.787,0,0,1,.564.237l8.512,8.513a.788.788,0,0,1,.238.565v40.86a.79.79,0,0,1-.79.79h-3.037v3.419a.79.79,0,0,1-.79.79Z" fill-rule="evenodd"/>
      <g id="Grupo_1179912" data-name="Grupo 1179912" transform="translate(65.851 18.697)">
        <path id="Trazado_1046632" data-name="Trazado 1046632" d="M79.66,96.67H77.047v47.8h36.242v-2.607H80.45a.79.79,0,0,1-.79-.79Z" transform="translate(-77.047 -89.391)" fill="#b2cbff" fill-rule="evenodd"/>
        <path id="Trazado_1046633" data-name="Trazado 1046633" d="M113.2,62.813H110.95v47.8h36.242v-2.629h-33.2a.79.79,0,0,1-.79-.79Z" transform="translate(-106.757 -59.721)" fill="#b2cbff" fill-rule="evenodd"/>
        <path id="Trazado_1046634" data-name="Trazado 1046634" d="M384.625,43.638,378.8,37.811v5.827Z" transform="translate(-341.48 -37.811)" fill="#b2cbff" fill-rule="evenodd"/>
      </g>
      <path id="Trazado_1046635" data-name="Trazado 1046635" d="M141.9,76.582h36.241V37.3h-7.735a.79.79,0,0,1-.79-.79V28.778H141.9Zm5.829-37.644a.79.79,0,0,1,0-1.58h11.645a.79.79,0,1,1,0,1.58Zm0-3.393a.79.79,0,0,1,0-1.58h11.645a.79.79,0,1,1,0,1.58Zm0,36.959a.79.79,0,1,1,0-1.58h15.924a.79.79,0,1,1,0,1.58Zm21.3,0a.79.79,0,1,1,0-1.58h3.285a.79.79,0,1,1,0,1.58Zm-21.3-3.61a.79.79,0,0,1,0-1.58h3.852a.79.79,0,1,1,0,1.58Zm8.858,0a.79.79,0,1,1,0-1.58h15.725a.79.79,0,0,1,0,1.58Zm-8.858-3.61a.79.79,0,0,1,0-1.58h12.833a.79.79,0,0,1,0,1.58Zm19.679,0a.79.79,0,1,1,0-1.58h4.9a.79.79,0,0,1,0,1.58Zm-1.747-9.313a.79.79,0,0,1-1.117-1.117l3.533-3.533-3.533-3.533a.79.79,0,0,1,1.117-1.117l4.092,4.092a.79.79,0,0,1,0,1.117l-4.092,4.092ZM155.5,54.854a.79.79,0,1,1-1.117,1.117l-4.092-4.092a.79.79,0,0,1,0-1.117l4.092-4.092a.79.79,0,1,1,1.117,1.117l-3.533,3.533Zm5.451-10.041a.789.789,0,0,1,1.524.407l-3.378,12.608a.789.789,0,0,1-1.525-.407Z" transform="translate(-68.029 -11.198)" fill="#fff" fill-rule="evenodd"/>
    </g>
  </g>
</svg>
