<svg xmlns="http://www.w3.org/2000/svg" xmlns:xlink="http://www.w3.org/1999/xlink" width="108.914" height="108.914" viewBox="0 0 108.914 108.914">
  <defs>
    <filter id="Trazado_874925" x="0" y="0" width="108.914" height="108.914" filterUnits="userSpaceOnUse">
      <feOffset dy="3" input="SourceAlpha"/>
      <feGaussianBlur stdDeviation="3" result="blur"/>
      <feFlood flood-opacity="0.161"/>
      <feComposite operator="in" in2="blur"/>
      <feComposite in="SourceGraphic"/>
    </filter>
  </defs>
  <g id="Grupo_1179952" data-name="Grupo 1179952" transform="translate(-1166.051 -6632)">
    <g id="Grupo_1179034" data-name="Grupo 1179034" transform="translate(1175.051 6638)">
      <g id="Grupo_1111314" data-name="Grupo 1111314">
        <g id="Grupo_1109835" data-name="Grupo 1109835">
          <g id="Grupo_1107913" data-name="Grupo 1107913" transform="translate(0 0)">
            <g transform="matrix(1, 0, 0, 1, -9, -6)" filter="url(#Trazado_874925)">
              <g id="Trazado_874925-2" data-name="Trazado 874925" transform="translate(9 6)" fill="#c7b622" opacity="0.859">
                <path d="M 45.45676803588867 89.41407012939453 C 39.52198028564453 89.41407012939453 33.76551818847656 88.25206756591797 28.34726715087891 85.96034240722656 C 23.11311721801758 83.74648284912109 18.41204261779785 80.57682800292969 14.37464332580566 76.5394287109375 C 10.33724308013916 72.50202941894531 7.167593002319336 67.80095672607422 4.953730583190918 62.56679534912109 C 2.662005424499512 57.14855575561523 1.500005483627319 51.39208221435547 1.500005483627319 45.45729446411133 C 1.500005483627319 39.52198028564453 2.662005424499512 33.76551818847656 4.953730583190918 28.34726905822754 C 7.167593002319336 23.11310577392578 10.33724308013916 18.41203117370605 14.37464332580566 14.37464332580566 C 18.41204261779785 10.33724403381348 23.11311721801758 7.167593955993652 28.34726715087891 4.953731060028076 C 33.76551818847656 2.662006139755249 39.52198028564453 1.500006198883057 45.45676803588867 1.500006198883057 C 51.39155578613281 1.500006198883057 57.14802932739258 2.662006139755249 62.56626892089844 4.953731060028076 C 67.80043029785156 7.167593955993652 72.50150299072266 10.33724403381348 76.53890228271484 14.37464332580566 C 80.57630920410156 18.41203117370605 83.74595642089844 23.11310577392578 85.95981597900391 28.34726905822754 C 88.25154113769531 33.76551818847656 89.41354370117188 39.52198028564453 89.41354370117188 45.45676803588867 C 89.41354370117188 51.39208221435547 88.25154113769531 57.14855575561523 85.95981597900391 62.56679534912109 C 83.74595642089844 67.80095672607422 80.57630920410156 72.50202941894531 76.53890228271484 76.5394287109375 C 72.50150299072266 80.57682800292969 67.80043029785156 83.74648284912109 62.56626892089844 85.96034240722656 C 57.14802932739258 88.25206756591797 51.39155578613281 89.41407012939453 45.45676803588867 89.41407012939453 Z" stroke="none"/>
                <path d="M 45.45676803588867 3 C 39.72381210327148 3 34.1639404296875 4.12213134765625 28.93159484863281 6.335227966308594 C 23.87622833251953 8.473472595214844 19.33542633056641 11.53517150878906 15.43529510498047 15.435302734375 C 11.53517150878906 19.33543395996094 8.473464965820312 23.87622833251953 6.335227966308594 28.93160247802734 C 4.122123718261719 34.16394424438477 3 39.72381591796875 3 45.4572868347168 C 3 51.19024658203125 4.122123718261719 56.75011825561523 6.335227966308594 61.98246002197266 C 8.473464965820312 67.03782653808594 11.53517150878906 71.57862854003906 15.43529510498047 75.478759765625 C 19.33542633056641 79.37889099121094 23.87622833251953 82.44058990478516 28.93159484863281 84.57883453369141 C 34.1639404296875 86.79193115234375 39.72381210327148 87.9140625 45.45676803588867 87.9140625 C 51.18972396850586 87.9140625 56.74959564208984 86.79193115234375 61.98194122314453 84.57883453369141 C 67.03730773925781 82.44058990478516 71.57810974121094 79.37889099121094 75.47824096679688 75.478759765625 C 79.37837219238281 71.57862854003906 82.44007110595703 67.03782653808594 84.57830810546875 61.98246002197266 C 86.79141235351562 56.75011825561523 87.91353607177734 51.19024658203125 87.91353607177734 45.4567756652832 C 87.91353607177734 39.72381591796875 86.79141235351562 34.16394424438477 84.57830810546875 28.93160247802734 C 82.44007110595703 23.87622833251953 79.37837219238281 19.33543395996094 75.47824096679688 15.435302734375 C 71.57810974121094 11.53517150878906 67.03730773925781 8.473472595214844 61.98194122314453 6.335227966308594 C 56.74959564208984 4.12213134765625 51.18972396850586 3 45.45676803588867 3 M 45.45676803588867 0 C 70.56185150146484 0 90.91353607177734 20.35169219970703 90.91353607177734 45.4567756652832 L 90.91353607177734 45.4572868347168 C 90.91353607177734 70.5623779296875 70.56185150146484 90.9140625 45.45676803588867 90.9140625 C 20.3516845703125 90.9140625 0 70.5623779296875 0 45.4572868347168 L 0 45.4567756652832 C 0 20.35169219970703 20.3516845703125 0 45.45676803588867 0 Z" stroke="none" fill="#fff"/>
              </g>
            </g>
            <g id="Trazado_874923" data-name="Trazado 874923" fill="none">
              <path d="M45.457,0A45.457,45.457,0,0,1,90.914,45.457h0A45.457,45.457,0,0,1,0,45.457H0A45.457,45.457,0,0,1,45.457,0Z" stroke="none"/>
              <path d="M 45.45676803588867 3 C 39.72381210327148 3 34.1639404296875 4.12213134765625 28.93159484863281 6.335227966308594 C 23.87622833251953 8.473472595214844 19.33542633056641 11.53517150878906 15.43529510498047 15.435302734375 C 11.53517150878906 19.33543395996094 8.473464965820312 23.87622833251953 6.335227966308594 28.93160247802734 C 4.122123718261719 34.16394424438477 3 39.72381591796875 3 45.4572868347168 C 3 51.19024658203125 4.122123718261719 56.75011825561523 6.335227966308594 61.98246002197266 C 8.473464965820312 67.03782653808594 11.53517150878906 71.57862854003906 15.43529510498047 75.478759765625 C 19.33542633056641 79.37889099121094 23.87622833251953 82.44058990478516 28.93159484863281 84.57883453369141 C 34.1639404296875 86.79193115234375 39.72381210327148 87.9140625 45.45676803588867 87.9140625 C 51.18972396850586 87.9140625 56.74959564208984 86.79193115234375 61.98194122314453 84.57883453369141 C 67.03730773925781 82.44058990478516 71.57810974121094 79.37889099121094 75.47824096679688 75.478759765625 C 79.37837219238281 71.57862854003906 82.44007110595703 67.03782653808594 84.57830810546875 61.98246002197266 C 86.79141235351562 56.75011825561523 87.91353607177734 51.19024658203125 87.91353607177734 45.4567756652832 C 87.91353607177734 39.72381591796875 86.79141235351562 34.16394424438477 84.57830810546875 28.93160247802734 C 82.44007110595703 23.87622833251953 79.37837219238281 19.33543395996094 75.47824096679688 15.435302734375 C 71.57810974121094 11.53517150878906 67.03730773925781 8.473472595214844 61.98194122314453 6.335227966308594 C 56.74959564208984 4.12213134765625 51.18972396850586 3 45.45676803588867 3 M 45.45676803588867 0 C 70.56185150146484 0 90.91353607177734 20.35169219970703 90.91353607177734 45.4567756652832 L 90.91353607177734 45.4572868347168 C 90.91353607177734 70.5623779296875 70.56185150146484 90.9140625 45.45676803588867 90.9140625 C 20.3516845703125 90.9140625 0 70.5623779296875 0 45.4572868347168 L 0 45.4567756652832 C 0 20.35169219970703 20.3516845703125 0 45.45676803588867 0 Z" stroke="none" fill="#fff"/>
            </g>
          </g>
        </g>
      </g>
    </g>
    <g id="Grupo_1179951" data-name="Grupo 1179951" transform="translate(1143.038 6652)">
      <g id="Grupo_1179949" data-name="Grupo 1179949" transform="translate(53.924 0.911)">
        <g id="Grupo_1179948" data-name="Grupo 1179948" transform="translate(0)">
          <g id="Grupo_1179947" data-name="Grupo 1179947">
            <g id="Grupo_1179946" data-name="Grupo 1179946">
              <g id="Grupo_1179945" data-name="Grupo 1179945">
                <g id="Grupo_1179944" data-name="Grupo 1179944">
                  <g id="Grupo_1179943" data-name="Grupo 1179943">
                    <g id="Grupo_1179942" data-name="Grupo 1179942">
                      <g id="Grupo_1179941" data-name="Grupo 1179941">
                        <g id="Grupo_1179940" data-name="Grupo 1179940">
                          <g id="Grupo_1179939" data-name="Grupo 1179939">
                            <g id="Grupo_1179938" data-name="Grupo 1179938">
                              <g id="Grupo_1179937" data-name="Grupo 1179937">
                                <path id="Trazado_1046659" data-name="Trazado 1046659" d="M60.513,10.714V64.626a3.214,3.214,0,0,0,3.214,3.214h41.039a3.214,3.214,0,0,0,3.214-3.214V21.674L93.806,7.5H63.727a3.214,3.214,0,0,0-3.214,3.214Z" transform="translate(-60.513 -7.5)" fill="#eaecf0"/>
                                <path id="Trazado_1046660" data-name="Trazado 1046660" d="M366.861,89a3.214,3.214,0,0,0,3.214-3.214V42.839l-11.25-11.25v14.99a2.427,2.427,0,0,0,2.427,2.427h2.43V89Z" transform="translate(-322.607 -28.664)" fill="#d3d7de"/>
                                <path id="Trazado_1046661" data-name="Trazado 1046661" d="M334.736,7.5l14.174,14.174H337.165a2.429,2.429,0,0,1-2.429-2.429V7.5Z" transform="translate(-301.443 -7.5)" fill="#df705d"/>
                              </g>
                            </g>
                          </g>
                        </g>
                      </g>
                    </g>
                  </g>
                  <path id="Trazado_1046662" data-name="Trazado 1046662" d="M141.909,232.35H111a2.445,2.445,0,0,1-2.445-2.445V208.188A2.445,2.445,0,0,1,111,205.743h30.914a2.445,2.445,0,0,1,2.445,2.445v21.718A2.445,2.445,0,0,1,141.909,232.35Z" transform="translate(-102.719 -181.675)" fill="#aed180"/>
                  <path id="Trazado_1046663" data-name="Trazado 1046663" d="M354.736,205.743h-3.949V232.35h3.949a2.445,2.445,0,0,0,2.445-2.445V208.188A2.445,2.445,0,0,0,354.736,205.743Z" transform="translate(-315.545 -181.675)" fill="#8dae5c"/>
                </g>
              </g>
            </g>
          </g>
        </g>
      </g>
      <g id="Grupo_1179950" data-name="Grupo 1179950" transform="translate(53.013 0)">
        <path id="Trazado_1046664" data-name="Trazado 1046664" d="M101.962,69.337H120.3a.911.911,0,1,0,0-1.821H101.962a.911.911,0,1,0,0,1.821Z" transform="translate(-95.219 -59.319)"/>
        <path id="Trazado_1046665" data-name="Trazado 1046665" d="M101.962,118.674H120.3a.911.911,0,1,0,0-1.821H101.962a.911.911,0,1,0,0,1.821Z" transform="translate(-95.219 -102.666)"/>
        <path id="Trazado_1046666" data-name="Trazado 1046666" d="M165,295.4a1.1,1.1,0,0,0-1.013-1.085.583.583,0,0,0-.3.071l-4.587,3a1.05,1.05,0,0,0-.48.853,1.074,1.074,0,0,0,.48.853l4.587,2.987a.465.465,0,0,0,.3.089A1.116,1.116,0,0,0,165,301.094a.711.711,0,0,0-.284-.6l-3.431-2.24,3.431-2.258A.677.677,0,0,0,165,295.4Z" transform="translate(-145.8 -258.587)"/>
        <path id="Trazado_1046667" data-name="Trazado 1046667" d="M221.09,268.371l6.383-12.907a.7.7,0,0,0,.071-.32.863.863,0,0,0-.889-.8.692.692,0,0,0-.64.373l-6.383,12.961a.6.6,0,0,0-.089.3.83.83,0,0,0,.853.782.77.77,0,0,0,.693-.391Z" transform="translate(-199.325 -223.464)"/>
        <path id="Trazado_1046668" data-name="Trazado 1046668" d="M293.641,301.095a1.132,1.132,0,0,0,1.031,1.085.392.392,0,0,0,.285-.089l4.6-2.987a1.05,1.05,0,0,0,.462-.853,1.028,1.028,0,0,0-.462-.853l-4.6-3a.486.486,0,0,0-.285-.071,1.117,1.117,0,0,0-1.031,1.085.724.724,0,0,0,.284.587l3.449,2.258-3.449,2.24A.759.759,0,0,0,293.641,301.095Z" transform="translate(-264.427 -258.588)"/>
        <path id="Trazado_1046669" data-name="Trazado 1046669" d="M102.035,14.441,87.861.267A.91.91,0,0,0,87.217,0H57.138a4.129,4.129,0,0,0-4.125,4.125V58.037a4.129,4.129,0,0,0,4.125,4.125H98.177a4.129,4.129,0,0,0,4.125-4.125V15.085a.91.91,0,0,0-.267-.644ZM88.127,3.109,99.193,14.174H89.645a1.52,1.52,0,0,1-1.518-1.518ZM98.177,60.34H57.138a2.306,2.306,0,0,1-2.3-2.3V4.125a2.306,2.306,0,0,1,2.3-2.3H86.306V12.657A3.343,3.343,0,0,0,89.645,16h10.835V58.037a2.306,2.306,0,0,1-2.3,2.3Z" transform="translate(-53.013 0)"/>
        <path id="Trazado_1046670" data-name="Trazado 1046670" d="M137.765,325.281a.911.911,0,0,0-.911.911v8.727a1.536,1.536,0,0,1-1.534,1.534H104.406a1.536,1.536,0,0,1-1.534-1.534v-8.74a.911.911,0,0,0-1.821,0v8.74a3.359,3.359,0,0,0,3.355,3.355H135.32a3.359,3.359,0,0,0,3.355-3.355v-8.727A.911.911,0,0,0,137.765,325.281Z" transform="translate(-95.219 -285.778)"/>
        <path id="Trazado_1046671" data-name="Trazado 1046671" d="M135.32,198.243H104.406a3.359,3.359,0,0,0-3.355,3.355v8.726a.911.911,0,1,0,1.821,0V201.6a1.536,1.536,0,0,1,1.534-1.534H135.32a1.536,1.536,0,0,1,1.534,1.534v8.756a.911.911,0,1,0,1.821,0V201.6A3.359,3.359,0,0,0,135.32,198.243Z" transform="translate(-95.219 -174.175)"/>
      </g>
    </g>
  </g>
</svg>
