<svg xmlns="http://www.w3.org/2000/svg" xmlns:xlink="http://www.w3.org/1999/xlink" width="88.914" height="88.914" viewBox="0 0 88.914 88.914">
  <defs>
    <filter id="Trazado_874925" x="0" y="0" width="88.914" height="88.914" filterUnits="userSpaceOnUse">
      <feOffset dy="3" input="SourceAlpha"/>
      <feGaussianBlur stdDeviation="3" result="blur"/>
      <feFlood flood-opacity="0.161"/>
      <feComposite operator="in" in2="blur"/>
      <feComposite in="SourceGraphic"/>
    </filter>
  </defs>
  <g id="Grupo_1179954" data-name="Grupo 1179954" transform="translate(-1077.051 -7919)">
    <g id="Grupo_1179042" data-name="Grupo 1179042" transform="translate(1086.051 7925)">
      <g id="Grupo_1111314" data-name="Grupo 1111314" transform="translate(0 0)">
        <g id="Grupo_1109835" data-name="Grupo 1109835">
          <g id="Grupo_1107913" data-name="Grupo 1107913">
            <g transform="matrix(1, 0, 0, 1, -9, -6)" filter="url(#Trazado_874925)">
              <g id="Trazado_874925-2" data-name="Trazado 874925" transform="translate(9 6)" fill="#c7b622" opacity="0.859">
                <path d="M 35.45683670043945 69.41408538818359 C 30.87202644348145 69.41408538818359 26.42516708374023 68.5164794921875 22.23976707458496 66.74620056152344 C 18.19638633728027 65.03600311279297 14.56474685668945 62.58738327026367 11.44572639465332 59.46835327148438 C 8.326706886291504 56.34933090209961 5.878086566925049 52.71770095825195 4.167876720428467 48.67432403564453 C 2.397596597671509 44.48891448974609 1.499996662139893 40.04205322265625 1.499996662139893 35.45724105834961 C 1.499996662139893 30.87203216552734 2.397596597671509 26.42516326904297 4.167876720428467 22.2397632598877 C 5.878086566925049 18.19638252258301 8.326706886291504 14.56474304199219 11.44572639465332 11.44572257995605 C 14.56474685668945 8.326703071594238 18.19638633728027 5.878082752227783 22.23976707458496 4.167882919311523 C 26.42516708374023 2.397602796554565 30.87203598022461 1.50000274181366 35.45683670043945 1.50000274181366 C 40.0416374206543 1.50000274181366 44.48850631713867 2.397602796554565 48.67390823364258 4.167882919311523 C 52.71728515625 5.878082752227783 56.34892654418945 8.326703071594238 59.46794509887695 11.44572257995605 C 62.58696746826172 14.56474304199219 65.03558349609375 18.19638252258301 66.74579620361328 22.2397632598877 C 68.51607513427734 26.42516326904297 69.41367340087891 30.87203216552734 69.41367340087891 35.45683288574219 C 69.41367340087891 40.04205322265625 68.51607513427734 44.48891448974609 66.74579620361328 48.67432403564453 C 65.03558349609375 52.71770095825195 62.58696746826172 56.34933090209961 59.46794509887695 59.46835327148438 C 56.34892654418945 62.58738327026367 52.71728515625 65.03600311279297 48.67390823364258 66.74620056152344 C 44.48850631713867 68.5164794921875 40.04164505004883 69.41408538818359 35.45683670043945 69.41408538818359 Z" stroke="none"/>
                <path d="M 35.45683670043945 2.999992370605469 C 31.07387161254883 2.999992370605469 26.82360076904297 3.857734680175781 22.8240966796875 5.549385070800781 C 18.95950698852539 7.1839599609375 15.48813247680664 9.524631500244141 12.50638961791992 12.50638198852539 C 9.524635314941406 15.48812484741211 7.183967590332031 18.95950317382812 5.549392700195312 22.82408905029297 C 3.857742309570312 26.8235969543457 3 31.07386779785156 3 35.45724105834961 C 3 39.8402099609375 3.857742309570312 44.09049224853516 5.549392700195312 48.08999633789062 C 7.183967590332031 51.95457458496094 9.524635314941406 55.42594909667969 12.50638961791992 58.40769958496094 C 15.48813247680664 61.38945388793945 18.95950698852539 63.73012542724609 22.8240966796875 65.36470031738281 C 26.82360076904297 67.05635070800781 31.07387161254883 67.91409301757812 35.45683670043945 67.91409301757812 C 39.83980178833008 67.91409301757812 44.09007263183594 67.05635070800781 48.08957672119141 65.36470031738281 C 51.95416641235352 63.73012542724609 55.42554473876953 61.38945388793945 58.40728378295898 58.40769958496094 C 61.3890380859375 55.42594909667969 63.72970581054688 51.95457458496094 65.36428070068359 48.08999633789062 C 67.05593109130859 44.09049224853516 67.91367340087891 39.8402099609375 67.91367340087891 35.45682907104492 C 67.91367340087891 31.07386779785156 67.05593109130859 26.8235969543457 65.36428070068359 22.82408905029297 C 63.72970581054688 18.95950317382812 61.3890380859375 15.48812484741211 58.40728378295898 12.50638198852539 C 55.42554473876953 9.524631500244141 51.95416641235352 7.1839599609375 48.08957672119141 5.549385070800781 C 44.09007263183594 3.857734680175781 39.83980178833008 2.999992370605469 35.45683670043945 2.999992370605469 M 35.45683670043945 -7.62939453125e-06 C 55.03910827636719 -7.62939453125e-06 70.91367340087891 15.87456130981445 70.91367340087891 35.45682907104492 L 70.91367340087891 35.45724105834961 C 70.91367340087891 55.03952407836914 55.03910827636719 70.91409301757812 35.45683670043945 70.91409301757812 C 15.87456512451172 70.91409301757812 0 55.03952407836914 0 35.45724105834961 L 0 35.45682907104492 C 0 15.87456130981445 15.87456512451172 -7.62939453125e-06 35.45683670043945 -7.62939453125e-06 Z" stroke="none" fill="#fff"/>
              </g>
            </g>
            <g id="Trazado_874923" data-name="Trazado 874923" fill="none">
              <path d="M35.457,0A35.457,35.457,0,0,1,70.914,35.457h0A35.457,35.457,0,1,1,0,35.457H0A35.457,35.457,0,0,1,35.457,0Z" stroke="none"/>
              <path d="M 35.45683670043945 2.999992370605469 C 31.07387161254883 2.999992370605469 26.82360076904297 3.857734680175781 22.8240966796875 5.549385070800781 C 18.95950698852539 7.1839599609375 15.48813247680664 9.524631500244141 12.50638961791992 12.50638198852539 C 9.524635314941406 15.48812484741211 7.183967590332031 18.95950317382812 5.549392700195312 22.82408905029297 C 3.857742309570312 26.8235969543457 3 31.07386779785156 3 35.45724105834961 C 3 39.8402099609375 3.857742309570312 44.09049224853516 5.549392700195312 48.08999633789062 C 7.183967590332031 51.95457458496094 9.524635314941406 55.42594909667969 12.50638961791992 58.40769958496094 C 15.48813247680664 61.38945388793945 18.95950698852539 63.73012542724609 22.8240966796875 65.36470031738281 C 26.82360076904297 67.05635070800781 31.07387161254883 67.91409301757812 35.45683670043945 67.91409301757812 C 39.83980178833008 67.91409301757812 44.09007263183594 67.05635070800781 48.08957672119141 65.36470031738281 C 51.95416641235352 63.73012542724609 55.42554473876953 61.38945388793945 58.40728378295898 58.40769958496094 C 61.3890380859375 55.42594909667969 63.72970581054688 51.95457458496094 65.36428070068359 48.08999633789062 C 67.05593109130859 44.09049224853516 67.91367340087891 39.8402099609375 67.91367340087891 35.45682907104492 C 67.91367340087891 31.07386779785156 67.05593109130859 26.8235969543457 65.36428070068359 22.82408905029297 C 63.72970581054688 18.95950317382812 61.3890380859375 15.48812484741211 58.40728378295898 12.50638198852539 C 55.42554473876953 9.524631500244141 51.95416641235352 7.1839599609375 48.08957672119141 5.549385070800781 C 44.09007263183594 3.857734680175781 39.83980178833008 2.999992370605469 35.45683670043945 2.999992370605469 M 35.45683670043945 -7.62939453125e-06 C 55.03910827636719 -7.62939453125e-06 70.91367340087891 15.87456130981445 70.91367340087891 35.45682907104492 L 70.91367340087891 35.45724105834961 C 70.91367340087891 55.03952407836914 55.03910827636719 70.91409301757812 35.45683670043945 70.91409301757812 C 15.87456512451172 70.91409301757812 0 55.03952407836914 0 35.45724105834961 L 0 35.45682907104492 C 0 15.87456130981445 15.87456512451172 -7.62939453125e-06 35.45683670043945 -7.62939453125e-06 Z" stroke="none" fill="#fff"/>
            </g>
          </g>
        </g>
      </g>
    </g>
    <g id="Grupo_1179953" data-name="Grupo 1179953" transform="translate(1097.551 7936.5)">
      <rect id="Rectángulo_406595" data-name="Rectángulo 406595" width="38.515" height="38.515" rx="2" transform="translate(4.704 4.704)" fill="#958919"/>
      <circle id="Elipse_11895" data-name="Elipse 11895" cx="12.036" cy="12.036" r="12.036" transform="translate(14.332 14.332)" fill="#deffff"/>
      <path id="Trazado_1046672" data-name="Trazado 1046672" d="M20.739,33.979A13.239,13.239,0,1,1,33.979,20.739,13.263,13.263,0,0,1,20.739,33.979Zm0-24.072A10.832,10.832,0,1,0,31.572,20.739,10.849,10.849,0,0,0,20.739,9.907Z" transform="translate(5.629 5.629)"/>
      <path id="Trazado_1046673" data-name="Trazado 1046673" d="M24.434,26.133,16.611,18.31A1.209,1.209,0,0,1,18.32,16.6l7.823,7.823a1.209,1.209,0,0,1-1.709,1.709Z" transform="translate(17.941 17.927)"/>
      <path id="Trazado_1046674" data-name="Trazado 1046674" d="M17.487,21.7l-1.974-6.283-.578,1.541a1.206,1.206,0,0,1-1.131.77H10.194a1.2,1.2,0,1,1,0-2.407h2.768l1.517-4.044a1.212,1.212,0,0,1,2.287.072l2.022,6.475,1.733-4.164a1.2,1.2,0,0,1,2.07-.265l1.444,1.926h3.009a1.2,1.2,0,1,1,0,2.407H23.433a1.154,1.154,0,0,1-.963-.481l-.554-.722-2.191,5.272a1.209,1.209,0,0,1-2.263-.1Z" transform="translate(7.725 9.846)"/>
      <path id="Trazado_1046675" data-name="Trazado 1046675" d="M4.7,10.722a1.192,1.192,0,0,1-1.2-1.2V4.7a1.2,1.2,0,0,1,2.407,0V9.518A1.192,1.192,0,0,1,4.7,10.722Z" transform="translate(0 0)"/>
      <path id="Trazado_1046676" data-name="Trazado 1046676" d="M4.7,14.722a1.192,1.192,0,0,1-1.2-1.2V8.7a1.2,1.2,0,1,1,2.407,0v4.814A1.192,1.192,0,0,1,4.7,14.722Z" transform="translate(0 5.629)"/>
      <path id="Trazado_1046677" data-name="Trazado 1046677" d="M9.713,10.722h-1.2A3.01,3.01,0,0,1,5.5,7.713v-1.2A3.01,3.01,0,0,1,8.509,3.5h1.2a3.01,3.01,0,0,1,3.009,3.009v1.2A3.01,3.01,0,0,1,9.713,10.722Zm-1.2-4.814a.6.6,0,0,0-.6.6v1.2a.6.6,0,0,0,.6.6h1.2a.6.6,0,0,0,.6-.6v-1.2a.6.6,0,0,0-.6-.6Z" transform="translate(2.814 0)"/>
      <path id="Trazado_1046678" data-name="Trazado 1046678" d="M10.7,10.722a1.192,1.192,0,0,1-1.2-1.2V4.7a1.2,1.2,0,0,1,2.407,0V9.518A1.192,1.192,0,0,1,10.7,10.722Z" transform="translate(8.443 0)"/>
      <path id="Trazado_1046679" data-name="Trazado 1046679" d="M15.713,10.722h-1.2A3.01,3.01,0,0,1,11.5,7.713v-1.2A3.01,3.01,0,0,1,14.509,3.5h1.2a3.01,3.01,0,0,1,3.009,3.009v1.2A3.01,3.01,0,0,1,15.713,10.722Zm-1.2-4.814a.6.6,0,0,0-.6.6v1.2a.6.6,0,0,0,.6.6h1.2a.6.6,0,0,0,.6-.6v-1.2a.6.6,0,0,0-.6-.6Z" transform="translate(11.257 0)"/>
      <path id="Trazado_1046680" data-name="Trazado 1046680" d="M16.7,10.722a1.192,1.192,0,0,1-1.2-1.2V4.7a1.2,1.2,0,0,1,2.407,0V9.518A1.192,1.192,0,0,1,16.7,10.722Z" transform="translate(16.886 0)"/>
      <path id="Trazado_1046681" data-name="Trazado 1046681" d="M21.713,10.722h-1.2A3.01,3.01,0,0,1,17.5,7.713v-1.2A3.01,3.01,0,0,1,20.509,3.5h1.2a3.01,3.01,0,0,1,3.009,3.009v1.2A3.01,3.01,0,0,1,21.713,10.722Zm-1.2-4.814a.6.6,0,0,0-.6.6v1.2a.6.6,0,0,0,.6.6h1.2a.6.6,0,0,0,.6-.6v-1.2a.6.6,0,0,0-.6-.6Z" transform="translate(19.7 0)"/>
      <path id="Trazado_1046682" data-name="Trazado 1046682" d="M21.713,14.722h-.6a1.2,1.2,0,0,1,0-2.407h.6a.6.6,0,0,0,.6-.6v-1.2a.6.6,0,0,0-.6-.6h-1.2a.6.6,0,0,0-.6.6v.6a1.2,1.2,0,1,1-2.407,0v-.6A3.01,3.01,0,0,1,20.509,7.5h1.2a3.01,3.01,0,0,1,3.009,3.009v1.2A3.01,3.01,0,0,1,21.713,14.722Z" transform="translate(19.7 5.629)"/>
      <path id="Trazado_1046683" data-name="Trazado 1046683" d="M9.111,14.722h-.6A3.01,3.01,0,0,1,5.5,11.713v-1.2A3.01,3.01,0,0,1,8.509,7.5h1.2a3.01,3.01,0,0,1,3.009,3.009v.6a1.2,1.2,0,0,1-2.407,0v-.6a.6.6,0,0,0-.6-.6h-1.2a.6.6,0,0,0-.6.6v1.2a.6.6,0,0,0,.6.6h.6a1.2,1.2,0,0,1,0,2.407Z" transform="translate(2.814 5.629)"/>
      <path id="Trazado_1046684" data-name="Trazado 1046684" d="M9.713,22.722h-1.2A3.01,3.01,0,0,1,5.5,19.713v-1.2A3.01,3.01,0,0,1,8.509,15.5h.6a1.2,1.2,0,0,1,0,2.407h-.6a.6.6,0,0,0-.6.6v1.2a.6.6,0,0,0,.6.6h1.2a.6.6,0,0,0,.6-.6v-.6a1.2,1.2,0,0,1,2.407,0v.6A3.01,3.01,0,0,1,9.713,22.722Z" transform="translate(2.814 16.886)"/>
      <path id="Trazado_1046685" data-name="Trazado 1046685" d="M7.713,18.722h-1.2A3.01,3.01,0,0,1,3.5,15.713v-1.2A3.01,3.01,0,0,1,6.509,11.5h1.2a3.01,3.01,0,0,1,3.009,3.009v1.2A3.01,3.01,0,0,1,7.713,18.722Zm-1.2-4.814a.6.6,0,0,0-.6.6v1.2a.6.6,0,0,0,.6.6h1.2a.6.6,0,0,0,.6-.6v-1.2a.6.6,0,0,0-.6-.6Z" transform="translate(0 11.257)"/>
      <path id="Trazado_1046686" data-name="Trazado 1046686" d="M20.7,18.722a1.192,1.192,0,0,1-1.2-1.2V12.7a1.2,1.2,0,1,1,2.407,0v4.814A1.192,1.192,0,0,1,20.7,18.722Z" transform="translate(22.515 11.257)"/>
      <path id="Trazado_1046687" data-name="Trazado 1046687" d="M22.111,20.314a1.192,1.192,0,0,1-1.2-1.2v-.6a.6.6,0,0,0-.6-.6h-.6a1.2,1.2,0,1,1,0-2.407h.6a3.01,3.01,0,0,1,3.009,3.009v.6A1.192,1.192,0,0,1,22.111,20.314Z" transform="translate(21.108 16.886)"/>
      <path id="Trazado_1046688" data-name="Trazado 1046688" d="M4.7,22.722a1.192,1.192,0,0,1-1.2-1.2V16.7a1.2,1.2,0,1,1,2.407,0v4.814A1.192,1.192,0,0,1,4.7,22.722Z" transform="translate(0 16.886)"/>
    </g>
  </g>
</svg>
