<svg xmlns="http://www.w3.org/2000/svg" width="398.533" height="301.65" viewBox="0 0 398.533 301.65">
  <g id="Grupo_1179484" data-name="Grupo 1179484" transform="translate(-181.467 -1069)">
    <rect id="Rectángulo_406093" data-name="Rectángulo 406093" width="368.949" height="301.501" rx="14" transform="translate(211.051 1069)" fill="#fcf3aa"/>
    <g id="Grupo_1179483" data-name="Grupo 1179483" transform="translate(106.012 1078.667)">
      <g id="Gears" transform="translate(400.131 127.069)">
        <g id="Grupo_1179458" data-name="Grupo 1179458" opacity="0.3">
          <path id="Trazado_1044698" data-name="Trazado 1044698" d="M667.375,222.844v-6.088l6.079-.676a14.5,14.5,0,0,1,1.491-3.623l-3.84-4.8,4.3-4.3,4.78,3.823a14.507,14.507,0,0,1,3.613-1.513l.679-6.108h6.088l.676,6.079a14.5,14.5,0,0,1,3.623,1.491l4.8-3.84,4.3,4.3-3.823,4.78a14.494,14.494,0,0,1,1.513,3.613l6.108.679v6.088l-6.079.676a14.5,14.5,0,0,1-1.491,3.623l3.84,4.8-4.3,4.3-4.78-3.823a14.5,14.5,0,0,1-3.613,1.513l-.679,6.107h-6.088l-.676-6.079a14.494,14.494,0,0,1-3.623-1.491l-4.8,3.84-4.3-4.3,3.823-4.78a14.482,14.482,0,0,1-1.514-3.613Zm20.2,4.174a7.265,7.265,0,1,0-7.266-7.265A7.266,7.266,0,0,0,687.573,227.017Z" transform="translate(-643.452 -197.1)" fill="none" stroke="#000" stroke-linecap="round" stroke-linejoin="round" stroke-width="1"/>
          <path id="Trazado_1044699" data-name="Trazado 1044699" d="M626.73,208.91l.674-4.031,4.1.226a9.747,9.747,0,0,1,1.388-2.234l-2.01-3.6,3.327-2.373,2.741,3.061a9.718,9.718,0,0,1,2.56-.6l1.126-3.968,4.03.675-.226,4.1a9.723,9.723,0,0,1,2.234,1.388l3.6-2.01,2.373,3.327-3.061,2.741a9.722,9.722,0,0,1,.6,2.56l3.968,1.127-.675,4.03-4.1-.226A9.727,9.727,0,0,1,648,215.33l2.011,3.6-3.327,2.373-2.741-3.061a9.738,9.738,0,0,1-2.56.6l-1.127,3.968-4.03-.674.226-4.1a9.722,9.722,0,0,1-2.234-1.388l-3.6,2.011-2.373-3.327L631.3,212.6a9.694,9.694,0,0,1-.6-2.56Zm12.91,5a4.877,4.877,0,1,0-4.005-5.615A4.877,4.877,0,0,0,639.64,213.911Z" transform="translate(-626.73 -195.386)" fill="none" stroke="#000" stroke-linecap="round" stroke-linejoin="round" stroke-width="1"/>
        </g>
      </g>
      <g id="Clouds" transform="translate(369.046 29.333)">
        <g id="Grupo_1179459" data-name="Grupo 1179459" transform="translate(50.467 29.981)" opacity="0.3">
          <path id="Trazado_1044700" data-name="Trazado 1044700" d="M697.229,93.917a7.693,7.693,0,0,0-3.859,1.038A10.653,10.653,0,0,0,672.4,91.167a9.417,9.417,0,1,0-3.324,18.226h28.149a7.738,7.738,0,1,0,0-15.476Z" transform="translate(-659.66 -81.179)" fill="none" stroke="#000" stroke-linecap="round" stroke-linejoin="round" stroke-width="1"/>
          <line id="Línea_678" data-name="Línea 678" x2="2.354" transform="translate(32.598 30.206)" fill="none" stroke="#000" stroke-linecap="round" stroke-linejoin="round" stroke-width="1"/>
          <line id="Línea_679" data-name="Línea 679" x2="8.24" transform="translate(21.12 30.206)" fill="none" stroke="#000" stroke-linecap="round" stroke-linejoin="round" stroke-width="1"/>
          <path id="Trazado_1044701" data-name="Trazado 1044701" d="M682.308,82.046a7.642,7.642,0,0,1,4.261-1.775" transform="translate(-668.978 -80.271)" fill="none" stroke="#000" stroke-linecap="round" stroke-linejoin="round" stroke-width="1"/>
          <path id="Trazado_1044702" data-name="Trazado 1044702" d="M677.544,88.792a6.99,6.99,0,0,1,1.155-2.576" transform="translate(-667.018 -82.717)" fill="none" stroke="#000" stroke-linecap="round" stroke-linejoin="round" stroke-width="1"/>
        </g>
        <g id="Grupo_1179460" data-name="Grupo 1179460" opacity="0.3">
          <path id="Trazado_1044703" data-name="Trazado 1044703" d="M599.924,38.78a5.325,5.325,0,0,0-2.672.719,7.375,7.375,0,0,0-14.514-2.622,6.519,6.519,0,1,0-2.3,12.617h19.487a5.357,5.357,0,0,0,0-10.714Z" transform="translate(-573.916 -29.962)" fill="none" stroke="#000" stroke-linecap="round" stroke-linejoin="round" stroke-width="1"/>
          <line id="Línea_680" data-name="Línea 680" x2="1.63" transform="translate(22.567 20.911)" fill="none" stroke="#000" stroke-linecap="round" stroke-linejoin="round" stroke-width="1"/>
          <line id="Línea_681" data-name="Línea 681" x2="5.704" transform="translate(14.621 20.911)" fill="none" stroke="#000" stroke-linecap="round" stroke-linejoin="round" stroke-width="1"/>
          <path id="Trazado_1044704" data-name="Trazado 1044704" d="M589.6,30.562a5.291,5.291,0,0,1,2.949-1.229" transform="translate(-580.367 -29.333)" fill="none" stroke="#000" stroke-linecap="round" stroke-linejoin="round" stroke-width="1"/>
          <path id="Trazado_1044705" data-name="Trazado 1044705" d="M586.3,35.232a4.834,4.834,0,0,1,.8-1.783" transform="translate(-579.01 -31.026)" fill="none" stroke="#000" stroke-linecap="round" stroke-linejoin="round" stroke-width="1"/>
        </g>
      </g>
      <g id="Dotted_Lines" data-name="Dotted Lines" transform="translate(177.876 38.846)">
        <path id="Trazado_1044706" data-name="Trazado 1044706" d="M535.112,176.673h20.32a11.382,11.382,0,0,1,11.382,11.382V259.3" transform="translate(-366.782 -99.464)" fill="none" stroke="#263238" stroke-miterlimit="10" stroke-width="1" stroke-dasharray="4"/>
        <path id="Trazado_1044707" data-name="Trazado 1044707" d="M387.539,63.494V56.876a11.381,11.381,0,0,0-11.381-11.381h-118.9a8.143,8.143,0,0,0-8.142,8.142h0" transform="translate(-249.119 -45.495)" fill="none" stroke="#263238" stroke-miterlimit="10" stroke-width="1" stroke-dasharray="4"/>
      </g>
      <g id="Server" transform="translate(346.527 145.773)">
        <g id="Grupo_1179462" data-name="Grupo 1179462">
          <g id="Grupo_1179461" data-name="Grupo 1179461" transform="translate(0.507 2.142)">
            <rect id="Rectángulo_406367" data-name="Rectángulo 406367" width="2.796" height="7.391" transform="translate(75.203 46.862)" fill="#263238" stroke="#263238" stroke-miterlimit="10" stroke-width="1"/>
            <rect id="Rectángulo_406368" data-name="Rectángulo 406368" width="2.796" height="7.391" transform="translate(75.203 90.474)" fill="#263238" stroke="#263238" stroke-miterlimit="10" stroke-width="1"/>
            <rect id="Rectángulo_406369" data-name="Rectángulo 406369" width="2.796" height="7.391" transform="translate(0 4.089)" fill="#263238" stroke="#263238" stroke-miterlimit="10" stroke-width="1"/>
            <rect id="Rectángulo_406370" data-name="Rectángulo 406370" width="2.796" height="7.391" transform="translate(0 68.948)" fill="#263238" stroke="#263238" stroke-miterlimit="10" stroke-width="1"/>
            <rect id="Rectángulo_406371" data-name="Rectángulo 406371" width="73.589" height="15.939" transform="translate(2.531)" fill="#fff" stroke="#263238" stroke-miterlimit="10" stroke-width="1"/>
            <rect id="Rectángulo_406372" data-name="Rectángulo 406372" width="50.717" height="7.807" transform="translate(6.07 4.066)" fill="#62e1f2" stroke="#263238" stroke-miterlimit="10" stroke-width="1"/>
            <circle id="Elipse_11815" data-name="Elipse 11815" cx="1.967" cy="1.967" r="1.967" transform="translate(61.69 5.663)" fill="#fff" stroke="#263238" stroke-miterlimit="10" stroke-width="1"/>
            <path id="Trazado_1044708" data-name="Trazado 1044708" d="M658.35,242.392a1.967,1.967,0,1,0-1.967,1.967A1.967,1.967,0,0,0,658.35,242.392Z" transform="translate(-585.023 -234.762)" fill="#0abdff" stroke="#263238" stroke-miterlimit="10" stroke-width="1"/>
            <circle id="Elipse_11816" data-name="Elipse 11816" cx="1.967" cy="1.967" r="1.967" transform="translate(50.217 5.663)" fill="#fff" stroke="#263238" stroke-miterlimit="10" stroke-width="1"/>
            <rect id="Rectángulo_406373" data-name="Rectángulo 406373" width="68.004" height="5.458" transform="translate(5.323 15.94)" fill="#263238" stroke="#263238" stroke-miterlimit="10" stroke-width="1"/>
            <rect id="Rectángulo_406374" data-name="Rectángulo 406374" width="73.589" height="15.939" transform="translate(2.531 21.398)" fill="#fff" stroke="#263238" stroke-miterlimit="10" stroke-width="1"/>
            <rect id="Rectángulo_406375" data-name="Rectángulo 406375" width="50.717" height="7.807" transform="translate(6.07 25.464)" fill="#62e1f2" stroke="#263238" stroke-miterlimit="10" stroke-width="1"/>
            <circle id="Elipse_11817" data-name="Elipse 11817" cx="1.967" cy="1.967" r="1.967" transform="translate(61.69 27.061)" fill="#0abdff" stroke="#263238" stroke-miterlimit="10" stroke-width="1"/>
            <path id="Trazado_1044709" data-name="Trazado 1044709" d="M658.35,278.747a1.967,1.967,0,1,0-1.967,1.967A1.967,1.967,0,0,0,658.35,278.747Z" transform="translate(-585.023 -249.719)" fill="#fff" stroke="#263238" stroke-miterlimit="10" stroke-width="1"/>
            <circle id="Elipse_11818" data-name="Elipse 11818" cx="1.967" cy="1.967" r="1.967" transform="translate(50.217 27.061)" fill="#fff" stroke="#263238" stroke-miterlimit="10" stroke-width="1"/>
            <rect id="Rectángulo_406376" data-name="Rectángulo 406376" width="68.004" height="5.458" transform="translate(5.323 37.337)" fill="#263238" stroke="#263238" stroke-miterlimit="10" stroke-width="1"/>
            <rect id="Rectángulo_406377" data-name="Rectángulo 406377" width="73.589" height="15.939" transform="translate(2.531 42.796)" fill="#fff" stroke="#263238" stroke-miterlimit="10" stroke-width="1"/>
            <rect id="Rectángulo_406378" data-name="Rectángulo 406378" width="50.717" height="7.807" transform="translate(6.07 46.862)" fill="#62e1f2" stroke="#263238" stroke-miterlimit="10" stroke-width="1"/>
            <circle id="Elipse_11819" data-name="Elipse 11819" cx="1.967" cy="1.967" r="1.967" transform="translate(61.69 48.459)" fill="#fff" stroke="#263238" stroke-miterlimit="10" stroke-width="1"/>
            <path id="Trazado_1044710" data-name="Trazado 1044710" d="M658.35,315.1a1.967,1.967,0,1,0-1.967,1.967A1.967,1.967,0,0,0,658.35,315.1Z" transform="translate(-585.023 -264.676)" fill="#0abdff" stroke="#263238" stroke-miterlimit="10" stroke-width="1"/>
            <circle id="Elipse_11820" data-name="Elipse 11820" cx="1.967" cy="1.967" r="1.967" transform="translate(50.217 48.459)" fill="#fff" stroke="#263238" stroke-miterlimit="10" stroke-width="1"/>
            <rect id="Rectángulo_406379" data-name="Rectángulo 406379" width="68.004" height="5.458" transform="translate(5.323 58.735)" fill="#263238" stroke="#263238" stroke-miterlimit="10" stroke-width="1"/>
            <rect id="Rectángulo_406380" data-name="Rectángulo 406380" width="73.589" height="15.939" transform="translate(2.531 64.194)" fill="#fff" stroke="#263238" stroke-miterlimit="10" stroke-width="1"/>
            <rect id="Rectángulo_406381" data-name="Rectángulo 406381" width="50.717" height="7.807" transform="translate(6.07 68.26)" fill="#62e1f2" stroke="#263238" stroke-miterlimit="10" stroke-width="1"/>
            <circle id="Elipse_11821" data-name="Elipse 11821" cx="1.967" cy="1.967" r="1.967" transform="translate(61.69 69.857)" fill="#0abdff" stroke="#263238" stroke-miterlimit="10" stroke-width="1"/>
            <path id="Trazado_1044711" data-name="Trazado 1044711" d="M658.35,351.457a1.967,1.967,0,1,0-1.967,1.967A1.967,1.967,0,0,0,658.35,351.457Z" transform="translate(-585.023 -279.633)" fill="#fff" stroke="#263238" stroke-miterlimit="10" stroke-width="1"/>
            <circle id="Elipse_11822" data-name="Elipse 11822" cx="1.967" cy="1.967" r="1.967" transform="translate(50.217 69.857)" fill="#fff" stroke="#263238" stroke-miterlimit="10" stroke-width="1"/>
            <rect id="Rectángulo_406382" data-name="Rectángulo 406382" width="68.004" height="5.458" transform="translate(5.323 80.133)" fill="#263238" stroke="#263238" stroke-miterlimit="10" stroke-width="1"/>
            <rect id="Rectángulo_406383" data-name="Rectángulo 406383" width="73.589" height="15.939" transform="translate(2.531 85.592)" fill="#fff" stroke="#263238" stroke-miterlimit="10" stroke-width="1"/>
            <rect id="Rectángulo_406384" data-name="Rectángulo 406384" width="50.717" height="7.807" transform="translate(6.07 89.658)" fill="#62e1f2" stroke="#263238" stroke-miterlimit="10" stroke-width="1"/>
            <circle id="Elipse_11823" data-name="Elipse 11823" cx="1.967" cy="1.967" r="1.967" transform="translate(61.69 91.255)" fill="#fff" stroke="#263238" stroke-miterlimit="10" stroke-width="1"/>
            <path id="Trazado_1044712" data-name="Trazado 1044712" d="M658.35,387.812a1.967,1.967,0,1,0-1.967,1.967A1.967,1.967,0,0,0,658.35,387.812Z" transform="translate(-585.023 -294.591)" fill="#0abdff" stroke="#263238" stroke-miterlimit="10" stroke-width="1"/>
            <circle id="Elipse_11824" data-name="Elipse 11824" cx="1.967" cy="1.967" r="1.967" transform="translate(50.217 91.255)" fill="#fff" stroke="#263238" stroke-miterlimit="10" stroke-width="1"/>
          </g>
          <line id="Línea_682" data-name="Línea 682" x2="4.12" transform="translate(44.732)" fill="none" stroke="#263238" stroke-linecap="round" stroke-linejoin="round" stroke-width="1"/>
          <line id="Línea_683" data-name="Línea 683" x2="23.838" transform="translate(16.186)" fill="none" stroke="#263238" stroke-linecap="round" stroke-linejoin="round" stroke-width="1"/>
          <line id="Línea_684" data-name="Línea 684" y2="2.943" transform="translate(0 96.822)" fill="none" stroke="#263238" stroke-linecap="round" stroke-linejoin="round" stroke-width="1"/>
          <line id="Línea_685" data-name="Línea 685" y2="6.18" transform="translate(0 87.699)" fill="none" stroke="#263238" stroke-linecap="round" stroke-linejoin="round" stroke-width="1"/>
        </g>
      </g>
      <g id="Codes_2" data-name="Codes 2" transform="translate(208.244 54.747)">
        <g id="Grupo_1179463" data-name="Grupo 1179463">
          <rect id="Rectángulo_406385" data-name="Rectángulo 406385" width="147.857" height="198.799" transform="translate(4.606)" fill="#a3a3a3" stroke="#263238" stroke-miterlimit="10" stroke-width="1"/>
          <rect id="Rectángulo_406386" data-name="Rectángulo 406386" width="147.857" height="198.799" fill="#263238" stroke="#263238" stroke-miterlimit="10" stroke-width="1"/>
        </g>
        <g id="Grupo_1179468" data-name="Grupo 1179468" transform="translate(68.548 29.327)">
          <g id="Grupo_1179465" data-name="Grupo 1179465">
            <g id="Grupo_1179464" data-name="Grupo 1179464">
              <path id="Trazado_1044713" data-name="Trazado 1044713" d="M419.94,123.518h-2.216a.547.547,0,0,1,0-1.094h2.216a.547.547,0,0,1,0,1.094Zm.546,1.986a.546.546,0,0,0-.546-.547h-2.216a.547.547,0,0,0,0,1.094h2.216A.546.546,0,0,0,420.486,125.5Zm0,2.533a.546.546,0,0,0-.546-.546h-2.216a.546.546,0,1,0,0,1.093h2.216A.546.546,0,0,0,420.486,128.037Zm0,2.533a.546.546,0,0,0-.546-.547h-2.216a.547.547,0,0,0,0,1.094h2.216A.546.546,0,0,0,420.486,130.569Zm0,2.533a.546.546,0,0,0-.546-.546h-2.216a.546.546,0,1,0,0,1.093h2.216A.546.546,0,0,0,420.486,133.1Zm0,2.533a.546.546,0,0,0-.546-.546h-2.216a.546.546,0,1,0,0,1.093h2.216A.546.546,0,0,0,420.486,135.635Zm0,2.533a.546.546,0,0,0-.546-.546h-2.216a.547.547,0,1,0,0,1.093h2.216A.546.546,0,0,0,420.486,138.168Zm0,2.533a.546.546,0,0,0-.546-.546h-2.216a.547.547,0,1,0,0,1.093h2.216A.546.546,0,0,0,420.486,140.7Zm8.291-17.729a.547.547,0,0,0-.547-.547h-5.818a.547.547,0,0,0,0,1.094h5.818A.547.547,0,0,0,428.777,122.971Zm0,2.533a.547.547,0,0,0-.547-.547h-5.818a.547.547,0,0,0,0,1.094h5.818A.547.547,0,0,0,428.777,125.5Zm0,2.533a.546.546,0,0,0-.547-.546h-5.818a.546.546,0,0,0,0,1.093h5.818A.547.547,0,0,0,428.777,128.037Zm0,2.533a.547.547,0,0,0-.547-.547h-5.818a.547.547,0,0,0,0,1.094h5.818A.546.546,0,0,0,428.777,130.569Zm0,2.533a.546.546,0,0,0-.547-.546h-5.818a.546.546,0,0,0,0,1.093h5.818A.546.546,0,0,0,428.777,133.1Zm6.965,2.533a.546.546,0,0,0-.547-.546h-5.818a.546.546,0,1,0,0,1.093H435.2A.546.546,0,0,0,435.743,135.635Zm0,2.533a.546.546,0,0,0-.547-.546h-5.818a.547.547,0,1,0,0,1.093H435.2A.547.547,0,0,0,435.743,138.168Zm0,2.533a.546.546,0,0,0-.547-.546h-5.818a.547.547,0,1,0,0,1.093H435.2A.546.546,0,0,0,435.743,140.7Zm-4.4-17.729a.633.633,0,1,0-.633.633A.634.634,0,0,0,431.338,122.971Zm1.9,0a.633.633,0,1,0-.633.633A.634.634,0,0,0,433.237,122.971Zm1.9,0a.633.633,0,1,0-.633.633A.633.633,0,0,0,435.136,122.971Zm1.9,0a.633.633,0,1,0-.633.633A.634.634,0,0,0,437.036,122.971Zm1.9,0a.633.633,0,1,0-.633.633A.633.633,0,0,0,438.936,122.971Zm1.9,0a.633.633,0,1,0-.633.633A.634.634,0,0,0,440.836,122.971Zm-9.5,5.065a.633.633,0,1,0-.633.633A.634.634,0,0,0,431.338,128.037Zm1.9,0a.633.633,0,1,0-.633.633A.634.634,0,0,0,433.237,128.037Zm1.9,0a.633.633,0,1,0-.633.633A.633.633,0,0,0,435.136,128.037Zm1.9,0a.633.633,0,1,0-.633.633A.634.634,0,0,0,437.036,128.037Zm1.9,0a.633.633,0,1,0-.633.633A.633.633,0,0,0,438.936,128.037Zm1.9,0a.633.633,0,1,0-.633.633A.633.633,0,0,0,440.836,128.037Zm-3.008,7.282a.633.633,0,1,0-.633.633A.633.633,0,0,0,437.828,135.319Zm1.9,0a.633.633,0,1,0-.633.633A.633.633,0,0,0,439.727,135.319Zm1.9,0a.633.633,0,1,0-.633.633A.633.633,0,0,0,441.627,135.319Zm1.9,0a.633.633,0,1,0-.633.633A.634.634,0,0,0,443.527,135.319Zm1.9,0a.633.633,0,1,0-.633.633A.633.633,0,0,0,445.426,135.319Zm1.9,0a.633.633,0,1,0-.633.633A.634.634,0,0,0,447.326,135.319Zm-9.5,5.224a.633.633,0,1,0-.633.633A.633.633,0,0,0,437.828,140.542Zm1.9,0a.633.633,0,1,0-.633.633A.634.634,0,0,0,439.727,140.542Zm1.9,0a.633.633,0,1,0-.633.633A.633.633,0,0,0,441.627,140.542Zm1.9,0a.633.633,0,1,0-.633.633A.634.634,0,0,0,443.527,140.542Zm1.9,0a.633.633,0,1,0-.633.633A.633.633,0,0,0,445.426,140.542Zm1.9,0a.633.633,0,1,0-.633.633A.634.634,0,0,0,447.326,140.542Z" transform="translate(-417.177 -122.338)" fill="#958919"/>
              <path id="Trazado_1044714" data-name="Trazado 1044714" d="M419.94,157.952h-2.216a.546.546,0,1,1,0-1.093h2.216a.546.546,0,0,1,0,1.093Zm.546,1.986a.546.546,0,0,0-.546-.547h-2.216a.547.547,0,1,0,0,1.093h2.216A.546.546,0,0,0,420.486,159.939Zm0,2.533a.546.546,0,0,0-.546-.547h-2.216a.546.546,0,1,0,0,1.093h2.216A.546.546,0,0,0,420.486,162.472Zm0,2.533a.546.546,0,0,0-.546-.547h-2.216a.547.547,0,1,0,0,1.093h2.216A.546.546,0,0,0,420.486,165Zm0,2.533a.546.546,0,0,0-.546-.547h-2.216a.547.547,0,1,0,0,1.093h2.216A.546.546,0,0,0,420.486,167.537Zm0,2.533a.546.546,0,0,0-.546-.547h-2.216a.547.547,0,0,0,0,1.094h2.216A.546.546,0,0,0,420.486,170.07Zm0,2.533a.546.546,0,0,0-.546-.547h-2.216a.546.546,0,1,0,0,1.093h2.216A.546.546,0,0,0,420.486,172.6Zm0,2.533a.546.546,0,0,0-.546-.547h-2.216a.547.547,0,1,0,0,1.094h2.216A.546.546,0,0,0,420.486,175.136Zm8.291-17.729a.546.546,0,0,0-.547-.547h-5.818a.546.546,0,0,0,0,1.093h5.818A.546.546,0,0,0,428.777,157.406Zm0,2.533a.546.546,0,0,0-.547-.547h-5.818a.547.547,0,0,0,0,1.093h5.818A.546.546,0,0,0,428.777,159.939Zm0,2.533a.546.546,0,0,0-.547-.547h-5.818a.546.546,0,0,0,0,1.093h5.818A.546.546,0,0,0,428.777,162.472Zm0,2.533a.547.547,0,0,0-.547-.547h-5.818a.547.547,0,0,0,0,1.093h5.818A.546.546,0,0,0,428.777,165Zm0,2.533a.547.547,0,0,0-.547-.547h-5.818a.547.547,0,0,0,0,1.093h5.818A.546.546,0,0,0,428.777,167.537Zm6.965,2.533a.546.546,0,0,0-.547-.547h-5.818a.547.547,0,0,0,0,1.094H435.2A.547.547,0,0,0,435.743,170.07Zm0,2.533a.546.546,0,0,0-.547-.547h-5.818a.546.546,0,1,0,0,1.093H435.2A.546.546,0,0,0,435.743,172.6Zm0,2.533a.547.547,0,0,0-.547-.547h-5.818a.547.547,0,1,0,0,1.094H435.2A.547.547,0,0,0,435.743,175.136Zm-4.4-17.729a.633.633,0,1,0-.633.633A.633.633,0,0,0,431.338,157.406Zm1.9,0a.633.633,0,1,0-.633.633A.633.633,0,0,0,433.237,157.406Zm1.9,0a.633.633,0,1,0-.633.633A.633.633,0,0,0,435.136,157.406Zm1.9,0a.633.633,0,1,0-.633.633A.633.633,0,0,0,437.036,157.406Zm1.9,0a.633.633,0,1,0-.633.633A.633.633,0,0,0,438.936,157.406Zm1.9,0a.633.633,0,1,0-.633.633A.633.633,0,0,0,440.836,157.406Zm-9.5,5.065a.633.633,0,1,0-.633.633A.634.634,0,0,0,431.338,162.472Zm1.9,0a.633.633,0,1,0-.633.633A.634.634,0,0,0,433.237,162.472Zm1.9,0a.633.633,0,1,0-.633.633A.633.633,0,0,0,435.136,162.472Zm1.9,0a.633.633,0,1,0-.633.633A.634.634,0,0,0,437.036,162.472Zm1.9,0a.633.633,0,1,0-.633.633A.633.633,0,0,0,438.936,162.472Zm1.9,0a.633.633,0,1,0-.633.633A.634.634,0,0,0,440.836,162.472Zm-3.008,7.282a.633.633,0,1,0-.633.633A.633.633,0,0,0,437.828,169.754Zm1.9,0a.633.633,0,1,0-.633.633A.634.634,0,0,0,439.727,169.754Zm1.9,0a.633.633,0,1,0-.633.633A.633.633,0,0,0,441.627,169.754Zm1.9,0a.633.633,0,1,0-.633.633A.634.634,0,0,0,443.527,169.754Zm1.9,0a.633.633,0,1,0-.633.633A.633.633,0,0,0,445.426,169.754Zm1.9,0a.633.633,0,1,0-.633.633A.634.634,0,0,0,447.326,169.754Zm-9.5,5.224a.633.633,0,1,0-.633.633A.633.633,0,0,0,437.828,174.977Zm1.9,0a.633.633,0,1,0-.633.633A.634.634,0,0,0,439.727,174.977Zm1.9,0a.633.633,0,1,0-.633.633A.633.633,0,0,0,441.627,174.977Zm1.9,0a.633.633,0,1,0-.633.633A.634.634,0,0,0,443.527,174.977Zm1.9,0a.633.633,0,1,0-.633.633A.633.633,0,0,0,445.426,174.977Zm1.9,0a.633.633,0,1,0-.633.633A.634.634,0,0,0,447.326,174.977Z" transform="translate(-417.177 -136.505)" fill="#958919"/>
              <path id="Trazado_1044715" data-name="Trazado 1044715" d="M419.94,193.219h-2.216a.546.546,0,1,1,0-1.093h2.216a.546.546,0,0,1,0,1.093Zm.546,1.986a.546.546,0,0,0-.546-.546h-2.216a.547.547,0,1,0,0,1.093h2.216A.546.546,0,0,0,420.486,195.2Zm0,2.533a.546.546,0,0,0-.546-.547h-2.216a.546.546,0,1,0,0,1.093h2.216A.546.546,0,0,0,420.486,197.738Zm0,2.533a.546.546,0,0,0-.546-.547h-2.216a.546.546,0,1,0,0,1.093h2.216A.546.546,0,0,0,420.486,200.27Zm0,2.533a.546.546,0,0,0-.546-.547h-2.216a.547.547,0,1,0,0,1.094h2.216A.546.546,0,0,0,420.486,202.8Zm0,2.533a.546.546,0,0,0-.546-.547h-2.216a.547.547,0,1,0,0,1.093h2.216A.546.546,0,0,0,420.486,205.336Zm0,2.533a.546.546,0,0,0-.546-.547h-2.216a.546.546,0,1,0,0,1.093h2.216A.546.546,0,0,0,420.486,207.869Zm0,2.533a.546.546,0,0,0-.546-.547h-2.216a.547.547,0,0,0,0,1.094h2.216A.546.546,0,0,0,420.486,210.4Zm8.291-17.73a.546.546,0,0,0-.547-.546h-5.818a.546.546,0,0,0,0,1.093h5.818A.546.546,0,0,0,428.777,192.672Zm0,2.533a.546.546,0,0,0-.547-.546h-5.818a.547.547,0,0,0,0,1.093h5.818A.546.546,0,0,0,428.777,195.2Zm0,2.533a.546.546,0,0,0-.547-.547h-5.818a.546.546,0,0,0,0,1.093h5.818A.546.546,0,0,0,428.777,197.738Zm0,2.533a.546.546,0,0,0-.547-.547h-5.818a.546.546,0,0,0,0,1.093h5.818A.546.546,0,0,0,428.777,200.27Zm0,2.533a.547.547,0,0,0-.547-.547h-5.818a.547.547,0,0,0,0,1.094h5.818A.547.547,0,0,0,428.777,202.8Zm6.965,2.533a.546.546,0,0,0-.547-.547h-5.818a.547.547,0,1,0,0,1.093H435.2A.546.546,0,0,0,435.743,205.336Zm0,2.533a.547.547,0,0,0-.547-.547h-5.818a.546.546,0,1,0,0,1.093H435.2A.546.546,0,0,0,435.743,207.869Zm0,2.533a.547.547,0,0,0-.547-.547h-5.818a.547.547,0,0,0,0,1.094H435.2A.547.547,0,0,0,435.743,210.4Zm-4.4-17.73a.633.633,0,1,0-.633.633A.633.633,0,0,0,431.338,192.672Zm1.9,0a.633.633,0,1,0-.633.633A.633.633,0,0,0,433.237,192.672Zm1.9,0a.633.633,0,1,0-.633.633A.632.632,0,0,0,435.136,192.672Zm1.9,0a.633.633,0,1,0-.633.633A.633.633,0,0,0,437.036,192.672Zm1.9,0a.633.633,0,1,0-.633.633A.633.633,0,0,0,438.936,192.672Zm1.9,0a.633.633,0,1,0-.633.633A.633.633,0,0,0,440.836,192.672Zm-9.5,5.066a.633.633,0,1,0-.633.633A.634.634,0,0,0,431.338,197.738Zm1.9,0a.633.633,0,1,0-.633.633A.634.634,0,0,0,433.237,197.738Zm1.9,0a.633.633,0,1,0-.633.633A.633.633,0,0,0,435.136,197.738Zm1.9,0a.633.633,0,1,0-.633.633A.634.634,0,0,0,437.036,197.738Zm1.9,0a.633.633,0,1,0-.633.633A.633.633,0,0,0,438.936,197.738Zm1.9,0a.633.633,0,1,0-.633.633A.633.633,0,0,0,440.836,197.738Zm-3.008,7.281a.633.633,0,1,0-.633.633A.633.633,0,0,0,437.828,205.019Zm1.9,0a.633.633,0,1,0-.633.633A.633.633,0,0,0,439.727,205.019Zm1.9,0a.633.633,0,1,0-.633.633A.633.633,0,0,0,441.627,205.019Zm1.9,0a.633.633,0,1,0-.633.633A.633.633,0,0,0,443.527,205.019Zm1.9,0a.633.633,0,1,0-.633.633A.633.633,0,0,0,445.426,205.019Zm1.9,0a.633.633,0,1,0-.633.633A.633.633,0,0,0,447.326,205.019Zm-9.5,5.224a.633.633,0,1,0-.633.633A.633.633,0,0,0,437.828,210.243Zm1.9,0a.633.633,0,1,0-.633.633A.633.633,0,0,0,439.727,210.243Zm1.9,0a.633.633,0,1,0-.633.633A.633.633,0,0,0,441.627,210.243Zm1.9,0a.633.633,0,1,0-.633.633A.634.634,0,0,0,443.527,210.243Zm1.9,0a.633.633,0,1,0-.633.633A.633.633,0,0,0,445.426,210.243Zm1.9,0a.633.633,0,1,0-.633.633A.634.634,0,0,0,447.326,210.243Z" transform="translate(-417.177 -151.014)" fill="#958919"/>
              <path id="Trazado_1044716" data-name="Trazado 1044716" d="M477.749,123.518h-2.217a.547.547,0,0,1,0-1.094h2.217a.547.547,0,0,1,0,1.094Zm.546,1.986a.546.546,0,0,0-.546-.547h-2.217a.547.547,0,0,0,0,1.094h2.217A.546.546,0,0,0,478.295,125.5Zm0,2.533a.546.546,0,0,0-.546-.546h-2.217a.546.546,0,0,0,0,1.093h2.217A.546.546,0,0,0,478.295,128.037Zm0,2.533a.546.546,0,0,0-.546-.547h-2.217a.547.547,0,0,0,0,1.094h2.217A.546.546,0,0,0,478.295,130.569Zm0,2.533a.546.546,0,0,0-.546-.546h-2.217a.546.546,0,0,0,0,1.093h2.217A.546.546,0,0,0,478.295,133.1Zm0,2.533a.546.546,0,0,0-.546-.546h-2.217a.546.546,0,0,0,0,1.093h2.217A.546.546,0,0,0,478.295,135.635Zm0,2.533a.546.546,0,0,0-.546-.546h-2.217a.547.547,0,0,0,0,1.093h2.217A.546.546,0,0,0,478.295,138.168Zm0,2.533a.546.546,0,0,0-.546-.546h-2.217a.547.547,0,0,0,0,1.093h2.217A.546.546,0,0,0,478.295,140.7Zm8.291-17.729a.547.547,0,0,0-.547-.547h-5.818a.547.547,0,0,0,0,1.094h5.818A.547.547,0,0,0,486.586,122.971Zm0,2.533a.547.547,0,0,0-.547-.547h-5.818a.547.547,0,0,0,0,1.094h5.818A.547.547,0,0,0,486.586,125.5Zm0,2.533a.546.546,0,0,0-.547-.546h-5.818a.546.546,0,0,0,0,1.093h5.818A.547.547,0,0,0,486.586,128.037Zm0,2.533a.547.547,0,0,0-.547-.547h-5.818a.547.547,0,0,0,0,1.094h5.818A.546.546,0,0,0,486.586,130.569Zm0,2.533a.546.546,0,0,0-.547-.546h-5.818a.546.546,0,0,0,0,1.093h5.818A.546.546,0,0,0,486.586,133.1Zm6.965,2.533a.546.546,0,0,0-.546-.546h-5.818a.546.546,0,1,0,0,1.093H493A.546.546,0,0,0,493.551,135.635Zm0,2.533a.546.546,0,0,0-.546-.546h-5.818a.547.547,0,1,0,0,1.093H493A.546.546,0,0,0,493.551,138.168Zm0,2.533a.546.546,0,0,0-.546-.546h-5.818a.547.547,0,1,0,0,1.093H493A.546.546,0,0,0,493.551,140.7Zm-4.4-17.729a.633.633,0,1,0-.633.633A.633.633,0,0,0,489.147,122.971Zm1.9,0a.633.633,0,1,0-.633.633A.634.634,0,0,0,491.046,122.971Zm1.9,0a.633.633,0,1,0-.633.633A.633.633,0,0,0,492.945,122.971Zm1.9,0a.633.633,0,1,0-.633.633A.634.634,0,0,0,494.845,122.971Zm1.9,0a.633.633,0,1,0-.633.633A.633.633,0,0,0,496.745,122.971Zm1.9,0a.633.633,0,1,0-.633.633A.634.634,0,0,0,498.645,122.971Zm-9.5,5.065a.633.633,0,1,0-.633.633A.633.633,0,0,0,489.147,128.037Zm1.9,0a.633.633,0,1,0-.633.633A.634.634,0,0,0,491.046,128.037Zm1.9,0a.633.633,0,1,0-.633.633A.633.633,0,0,0,492.945,128.037Zm1.9,0a.633.633,0,1,0-.633.633A.634.634,0,0,0,494.845,128.037Zm1.9,0a.633.633,0,1,0-.633.633A.633.633,0,0,0,496.745,128.037Zm1.9,0a.633.633,0,1,0-.633.633A.634.634,0,0,0,498.645,128.037Zm-3.008,7.282a.633.633,0,1,0-.633.633A.633.633,0,0,0,495.637,135.319Zm1.9,0a.633.633,0,1,0-.633.633A.633.633,0,0,0,497.536,135.319Zm1.9,0a.633.633,0,1,0-.633.633A.633.633,0,0,0,499.436,135.319Zm1.9,0a.633.633,0,1,0-.633.633A.634.634,0,0,0,501.336,135.319Zm1.9,0a.633.633,0,1,0-.633.633A.633.633,0,0,0,503.235,135.319Zm1.9,0a.633.633,0,1,0-.633.633A.633.633,0,0,0,505.134,135.319Zm-9.5,5.224a.633.633,0,1,0-.633.633A.633.633,0,0,0,495.637,140.542Zm1.9,0a.633.633,0,1,0-.633.633A.633.633,0,0,0,497.536,140.542Zm1.9,0a.633.633,0,1,0-.633.633A.633.633,0,0,0,499.436,140.542Zm1.9,0a.633.633,0,1,0-.633.633A.634.634,0,0,0,501.336,140.542Zm1.9,0a.633.633,0,1,0-.633.633A.633.633,0,0,0,503.235,140.542Zm1.9,0a.633.633,0,1,0-.633.633A.633.633,0,0,0,505.134,140.542Z" transform="translate(-440.961 -122.338)" fill="#958919"/>
              <path id="Trazado_1044717" data-name="Trazado 1044717" d="M477.749,158.784h-2.217a.547.547,0,0,1,0-1.094h2.217a.547.547,0,0,1,0,1.094Zm.546,1.986a.546.546,0,0,0-.546-.547h-2.217a.547.547,0,0,0,0,1.094h2.217A.546.546,0,0,0,478.295,160.77Zm0,2.533a.546.546,0,0,0-.546-.547h-2.217a.547.547,0,0,0,0,1.094h2.217A.546.546,0,0,0,478.295,163.3Zm0,2.533a.546.546,0,0,0-.546-.547h-2.217a.547.547,0,0,0,0,1.094h2.217A.546.546,0,0,0,478.295,165.835Zm0,2.533a.546.546,0,0,0-.546-.547h-2.217a.547.547,0,0,0,0,1.094h2.217A.546.546,0,0,0,478.295,168.368Zm0,2.533a.546.546,0,0,0-.546-.546h-2.217a.546.546,0,0,0,0,1.093h2.217A.546.546,0,0,0,478.295,170.9Zm0,2.533a.546.546,0,0,0-.546-.546h-2.217a.547.547,0,0,0,0,1.093h2.217A.546.546,0,0,0,478.295,173.434Zm0,2.533a.546.546,0,0,0-.546-.546h-2.217a.546.546,0,0,0,0,1.093h2.217A.546.546,0,0,0,478.295,175.967Zm8.291-17.729a.547.547,0,0,0-.547-.547h-5.818a.547.547,0,0,0,0,1.094h5.818A.547.547,0,0,0,486.586,158.237Zm0,2.533a.547.547,0,0,0-.547-.547h-5.818a.547.547,0,0,0,0,1.094h5.818A.547.547,0,0,0,486.586,160.77Zm0,2.533a.547.547,0,0,0-.547-.547h-5.818a.547.547,0,0,0,0,1.094h5.818A.547.547,0,0,0,486.586,163.3Zm0,2.533a.547.547,0,0,0-.547-.547h-5.818a.547.547,0,0,0,0,1.094h5.818A.547.547,0,0,0,486.586,165.835Zm0,2.533a.547.547,0,0,0-.547-.547h-5.818a.547.547,0,0,0,0,1.094h5.818A.547.547,0,0,0,486.586,168.368Zm6.965,2.533a.546.546,0,0,0-.546-.546h-5.818a.546.546,0,1,0,0,1.093H493A.546.546,0,0,0,493.551,170.9Zm0,2.533a.546.546,0,0,0-.546-.546h-5.818a.547.547,0,1,0,0,1.093H493A.546.546,0,0,0,493.551,173.434Zm0,2.533a.546.546,0,0,0-.546-.546h-5.818a.546.546,0,1,0,0,1.093H493A.546.546,0,0,0,493.551,175.967Zm-4.4-17.729a.633.633,0,1,0-.633.633A.633.633,0,0,0,489.147,158.237Zm1.9,0a.633.633,0,1,0-.633.633A.634.634,0,0,0,491.046,158.237Zm1.9,0a.633.633,0,1,0-.633.633A.633.633,0,0,0,492.945,158.237Zm1.9,0a.633.633,0,1,0-.633.633A.634.634,0,0,0,494.845,158.237Zm1.9,0a.633.633,0,1,0-.633.633A.633.633,0,0,0,496.745,158.237Zm1.9,0a.633.633,0,1,0-.633.633A.634.634,0,0,0,498.645,158.237Zm-9.5,5.065a.633.633,0,1,0-.633.633A.633.633,0,0,0,489.147,163.3Zm1.9,0a.633.633,0,1,0-.633.633A.634.634,0,0,0,491.046,163.3Zm1.9,0a.633.633,0,1,0-.633.633A.633.633,0,0,0,492.945,163.3Zm1.9,0a.633.633,0,1,0-.633.633A.634.634,0,0,0,494.845,163.3Zm1.9,0a.633.633,0,1,0-.633.633A.633.633,0,0,0,496.745,163.3Zm1.9,0a.633.633,0,1,0-.633.633A.634.634,0,0,0,498.645,163.3Zm-3.008,7.282a.633.633,0,1,0-.633.633A.633.633,0,0,0,495.637,170.585Zm1.9,0a.633.633,0,1,0-.633.633A.634.634,0,0,0,497.536,170.585Zm1.9,0a.633.633,0,1,0-.633.633A.633.633,0,0,0,499.436,170.585Zm1.9,0a.633.633,0,1,0-.633.633A.634.634,0,0,0,501.336,170.585Zm1.9,0a.633.633,0,1,0-.633.633A.633.633,0,0,0,503.235,170.585Zm1.9,0a.633.633,0,1,0-.633.633A.633.633,0,0,0,505.134,170.585Zm-9.5,5.224a.633.633,0,1,0-.633.633A.633.633,0,0,0,495.637,175.808Zm1.9,0a.633.633,0,1,0-.633.633A.633.633,0,0,0,497.536,175.808Zm1.9,0a.633.633,0,1,0-.633.633A.632.632,0,0,0,499.436,175.808Zm1.9,0a.633.633,0,1,0-.633.633A.633.633,0,0,0,501.336,175.808Zm1.9,0a.633.633,0,1,0-.633.633A.633.633,0,0,0,503.235,175.808Zm1.9,0a.633.633,0,1,0-.633.633A.632.632,0,0,0,505.134,175.808Z" transform="translate(-440.961 -136.847)" fill="#958919"/>
            </g>
          </g>
          <g id="Grupo_1179467" data-name="Grupo 1179467" transform="translate(0 77.986)">
            <g id="Grupo_1179466" data-name="Grupo 1179466">
              <path id="Trazado_1044718" data-name="Trazado 1044718" d="M419.94,256.017h-2.216a.546.546,0,1,1,0-1.093h2.216a.546.546,0,0,1,0,1.093Zm.546,1.986a.546.546,0,0,0-.546-.547h-2.216a.546.546,0,1,0,0,1.093h2.216A.546.546,0,0,0,420.486,258Zm0,2.533a.546.546,0,0,0-.546-.547h-2.216a.546.546,0,1,0,0,1.093h2.216A.546.546,0,0,0,420.486,260.536Zm0,2.533a.546.546,0,0,0-.546-.547h-2.216a.546.546,0,1,0,0,1.093h2.216A.546.546,0,0,0,420.486,263.068Zm0,2.533a.546.546,0,0,0-.546-.547h-2.216a.547.547,0,1,0,0,1.093h2.216A.546.546,0,0,0,420.486,265.6Zm0,2.533a.546.546,0,0,0-.546-.547h-2.216a.547.547,0,1,0,0,1.093h2.216A.546.546,0,0,0,420.486,268.134Zm0,2.533a.546.546,0,0,0-.546-.547h-2.216a.546.546,0,1,0,0,1.093h2.216A.546.546,0,0,0,420.486,270.667Zm0,2.533a.546.546,0,0,0-.546-.547h-2.216a.546.546,0,1,0,0,1.093h2.216A.546.546,0,0,0,420.486,273.2Zm8.291-17.73a.546.546,0,0,0-.547-.546h-5.818a.546.546,0,0,0,0,1.093h5.818A.546.546,0,0,0,428.777,255.47Zm0,2.533a.546.546,0,0,0-.547-.547h-5.818a.546.546,0,0,0,0,1.093h5.818A.546.546,0,0,0,428.777,258Zm0,2.533a.546.546,0,0,0-.547-.547h-5.818a.546.546,0,0,0,0,1.093h5.818A.546.546,0,0,0,428.777,260.536Zm0,2.533a.546.546,0,0,0-.547-.547h-5.818a.546.546,0,0,0,0,1.093h5.818A.546.546,0,0,0,428.777,263.068Zm0,2.533a.547.547,0,0,0-.547-.547h-5.818a.547.547,0,0,0,0,1.093h5.818A.546.546,0,0,0,428.777,265.6Zm6.965,2.533a.546.546,0,0,0-.547-.547h-5.818a.547.547,0,1,0,0,1.093H435.2A.546.546,0,0,0,435.743,268.134Zm0,2.533a.547.547,0,0,0-.547-.547h-5.818a.546.546,0,1,0,0,1.093H435.2A.546.546,0,0,0,435.743,270.667Zm0,2.533a.547.547,0,0,0-.547-.547h-5.818a.546.546,0,1,0,0,1.093H435.2A.546.546,0,0,0,435.743,273.2Zm-4.4-17.73a.633.633,0,1,0-.633.633A.633.633,0,0,0,431.338,255.47Zm1.9,0a.633.633,0,1,0-.633.633A.633.633,0,0,0,433.237,255.47Zm1.9,0a.633.633,0,1,0-.633.633A.633.633,0,0,0,435.136,255.47Zm1.9,0a.633.633,0,1,0-.633.633A.633.633,0,0,0,437.036,255.47Zm1.9,0a.633.633,0,1,0-.633.633A.633.633,0,0,0,438.936,255.47Zm1.9,0a.633.633,0,1,0-.633.633A.633.633,0,0,0,440.836,255.47Zm-9.5,5.066a.633.633,0,1,0-.633.633A.634.634,0,0,0,431.338,260.536Zm1.9,0a.633.633,0,1,0-.633.633A.634.634,0,0,0,433.237,260.536Zm1.9,0a.633.633,0,1,0-.633.633A.633.633,0,0,0,435.136,260.536Zm1.9,0a.633.633,0,1,0-.633.633A.634.634,0,0,0,437.036,260.536Zm1.9,0a.633.633,0,1,0-.633.633A.633.633,0,0,0,438.936,260.536Zm1.9,0a.633.633,0,1,0-.633.633A.634.634,0,0,0,440.836,260.536Zm-3.008,7.281a.633.633,0,1,0-.633.633A.633.633,0,0,0,437.828,267.817Zm1.9,0a.633.633,0,1,0-.633.633A.633.633,0,0,0,439.727,267.817Zm1.9,0a.633.633,0,1,0-.633.633A.633.633,0,0,0,441.627,267.817Zm1.9,0a.633.633,0,1,0-.633.633A.633.633,0,0,0,443.527,267.817Zm1.9,0a.633.633,0,1,0-.633.633A.633.633,0,0,0,445.426,267.817Zm1.9,0a.633.633,0,1,0-.633.633A.633.633,0,0,0,447.326,267.817Zm-9.5,5.224a.633.633,0,1,0-.633.633A.633.633,0,0,0,437.828,273.041Zm1.9,0a.633.633,0,1,0-.633.633A.633.633,0,0,0,439.727,273.041Zm1.9,0a.633.633,0,1,0-.633.633A.633.633,0,0,0,441.627,273.041Zm1.9,0a.633.633,0,1,0-.633.633A.633.633,0,0,0,443.527,273.041Zm1.9,0a.633.633,0,1,0-.633.633A.633.633,0,0,0,445.426,273.041Zm1.9,0a.633.633,0,1,0-.633.633A.634.634,0,0,0,447.326,273.041Z" transform="translate(-417.177 -254.837)" fill="#958919"/>
              <path id="Trazado_1044719" data-name="Trazado 1044719" d="M419.94,290.451h-2.216a.547.547,0,0,1,0-1.094h2.216a.547.547,0,0,1,0,1.094Zm.546,1.986a.546.546,0,0,0-.546-.546h-2.216a.547.547,0,1,0,0,1.093h2.216A.546.546,0,0,0,420.486,292.437Zm0,2.533a.546.546,0,0,0-.546-.546h-2.216a.547.547,0,1,0,0,1.093h2.216A.546.546,0,0,0,420.486,294.97Zm0,2.533a.546.546,0,0,0-.546-.546h-2.216a.547.547,0,1,0,0,1.093h2.216A.546.546,0,0,0,420.486,297.5Zm0,2.533a.546.546,0,0,0-.546-.546h-2.216a.546.546,0,1,0,0,1.093h2.216A.546.546,0,0,0,420.486,300.035Zm0,2.533a.546.546,0,0,0-.546-.546h-2.216a.546.546,0,1,0,0,1.093h2.216A.546.546,0,0,0,420.486,302.568Zm0,2.533a.546.546,0,0,0-.546-.546h-2.216a.547.547,0,1,0,0,1.093h2.216A.546.546,0,0,0,420.486,305.1Zm0,2.533a.546.546,0,0,0-.546-.547h-2.216a.547.547,0,1,0,0,1.093h2.216A.546.546,0,0,0,420.486,307.634Zm8.291-17.73a.547.547,0,0,0-.547-.547h-5.818a.547.547,0,0,0,0,1.094h5.818A.547.547,0,0,0,428.777,289.9Zm0,2.533a.546.546,0,0,0-.547-.546h-5.818a.547.547,0,0,0,0,1.093h5.818A.547.547,0,0,0,428.777,292.437Zm0,2.533a.546.546,0,0,0-.547-.546h-5.818a.547.547,0,0,0,0,1.093h5.818A.546.546,0,0,0,428.777,294.97Zm0,2.533a.546.546,0,0,0-.547-.546h-5.818a.547.547,0,0,0,0,1.093h5.818A.547.547,0,0,0,428.777,297.5Zm0,2.533a.546.546,0,0,0-.547-.546h-5.818a.546.546,0,0,0,0,1.093h5.818A.546.546,0,0,0,428.777,300.035Zm6.965,2.533a.546.546,0,0,0-.547-.546h-5.818a.546.546,0,1,0,0,1.093H435.2A.546.546,0,0,0,435.743,302.568Zm0,2.533a.546.546,0,0,0-.547-.546h-5.818a.547.547,0,1,0,0,1.093H435.2A.546.546,0,0,0,435.743,305.1Zm0,2.533a.547.547,0,0,0-.547-.547h-5.818a.547.547,0,1,0,0,1.093H435.2A.546.546,0,0,0,435.743,307.634Zm-4.4-17.73a.633.633,0,1,0-.633.633A.634.634,0,0,0,431.338,289.9Zm1.9,0a.633.633,0,1,0-.633.633A.634.634,0,0,0,433.237,289.9Zm1.9,0a.633.633,0,1,0-.633.633A.633.633,0,0,0,435.136,289.9Zm1.9,0a.633.633,0,1,0-.633.633A.634.634,0,0,0,437.036,289.9Zm1.9,0a.633.633,0,1,0-.633.633A.633.633,0,0,0,438.936,289.9Zm1.9,0a.633.633,0,1,0-.633.633A.633.633,0,0,0,440.836,289.9Zm-9.5,5.065a.633.633,0,1,0-.633.633A.633.633,0,0,0,431.338,294.97Zm1.9,0a.633.633,0,1,0-.633.633A.633.633,0,0,0,433.237,294.97Zm1.9,0a.633.633,0,1,0-.633.633A.633.633,0,0,0,435.136,294.97Zm1.9,0a.633.633,0,1,0-.633.633A.633.633,0,0,0,437.036,294.97Zm1.9,0a.633.633,0,1,0-.633.633A.633.633,0,0,0,438.936,294.97Zm1.9,0a.633.633,0,1,0-.633.633A.633.633,0,0,0,440.836,294.97Zm-3.008,7.282a.633.633,0,1,0-.633.633A.633.633,0,0,0,437.828,302.252Zm1.9,0a.633.633,0,1,0-.633.633A.634.634,0,0,0,439.727,302.252Zm1.9,0a.633.633,0,1,0-.633.633A.633.633,0,0,0,441.627,302.252Zm1.9,0a.633.633,0,1,0-.633.633A.634.634,0,0,0,443.527,302.252Zm1.9,0a.633.633,0,1,0-.633.633A.633.633,0,0,0,445.426,302.252Zm1.9,0a.633.633,0,1,0-.633.633A.634.634,0,0,0,447.326,302.252Zm-9.5,5.224a.633.633,0,1,0-.633.633A.633.633,0,0,0,437.828,307.476Zm1.9,0a.633.633,0,1,0-.633.633A.633.633,0,0,0,439.727,307.476Zm1.9,0a.633.633,0,1,0-.633.633A.633.633,0,0,0,441.627,307.476Zm1.9,0a.633.633,0,1,0-.633.633A.633.633,0,0,0,443.527,307.476Zm1.9,0a.633.633,0,1,0-.633.633A.633.633,0,0,0,445.426,307.476Zm1.9,0a.633.633,0,1,0-.633.633A.633.633,0,0,0,447.326,307.476Z" transform="translate(-417.177 -269.004)" fill="#958919"/>
              <path id="Trazado_1044720" data-name="Trazado 1044720" d="M419.94,325.717h-2.216a.547.547,0,1,1,0-1.094h2.216a.547.547,0,0,1,0,1.094Zm.546,1.986a.546.546,0,0,0-.546-.546h-2.216a.546.546,0,1,0,0,1.093h2.216A.546.546,0,0,0,420.486,327.7Zm0,2.533a.546.546,0,0,0-.546-.546h-2.216a.547.547,0,1,0,0,1.093h2.216A.546.546,0,0,0,420.486,330.236Zm0,2.533a.546.546,0,0,0-.546-.546h-2.216a.546.546,0,1,0,0,1.093h2.216A.546.546,0,0,0,420.486,332.768Zm0,2.533a.546.546,0,0,0-.546-.546h-2.216a.547.547,0,1,0,0,1.093h2.216A.546.546,0,0,0,420.486,335.3Zm0,2.533a.546.546,0,0,0-.546-.546h-2.216a.546.546,0,1,0,0,1.093h2.216A.546.546,0,0,0,420.486,337.834Zm0,2.533a.546.546,0,0,0-.546-.547h-2.216a.546.546,0,1,0,0,1.093h2.216A.546.546,0,0,0,420.486,340.368Zm0,2.533a.546.546,0,0,0-.546-.547h-2.216a.546.546,0,1,0,0,1.093h2.216A.546.546,0,0,0,420.486,342.9Zm8.291-17.73a.547.547,0,0,0-.547-.547h-5.818a.547.547,0,0,0,0,1.094h5.818A.547.547,0,0,0,428.777,325.17Zm0,2.533a.546.546,0,0,0-.547-.546h-5.818a.546.546,0,0,0,0,1.093h5.818A.546.546,0,0,0,428.777,327.7Zm0,2.533a.546.546,0,0,0-.547-.546h-5.818a.547.547,0,0,0,0,1.093h5.818A.546.546,0,0,0,428.777,330.236Zm0,2.533a.546.546,0,0,0-.547-.546h-5.818a.546.546,0,0,0,0,1.093h5.818A.546.546,0,0,0,428.777,332.768Zm0,2.533a.546.546,0,0,0-.547-.546h-5.818a.547.547,0,0,0,0,1.093h5.818A.546.546,0,0,0,428.777,335.3Zm6.965,2.533a.546.546,0,0,0-.547-.546h-5.818a.546.546,0,1,0,0,1.093H435.2A.546.546,0,0,0,435.743,337.834Zm0,2.533a.546.546,0,0,0-.547-.547h-5.818a.546.546,0,1,0,0,1.093H435.2A.546.546,0,0,0,435.743,340.368Zm0,2.533a.546.546,0,0,0-.547-.547h-5.818a.546.546,0,1,0,0,1.093H435.2A.546.546,0,0,0,435.743,342.9Zm-4.4-17.73a.633.633,0,1,0-.633.633A.634.634,0,0,0,431.338,325.17Zm1.9,0a.633.633,0,1,0-.633.633A.634.634,0,0,0,433.237,325.17Zm1.9,0a.633.633,0,1,0-.633.633A.633.633,0,0,0,435.136,325.17Zm1.9,0a.633.633,0,1,0-.633.633A.634.634,0,0,0,437.036,325.17Zm1.9,0a.633.633,0,1,0-.633.633A.633.633,0,0,0,438.936,325.17Zm1.9,0a.633.633,0,1,0-.633.633A.634.634,0,0,0,440.836,325.17Zm-9.5,5.065a.633.633,0,1,0-.633.633A.633.633,0,0,0,431.338,330.236Zm1.9,0a.633.633,0,1,0-.633.633A.633.633,0,0,0,433.237,330.236Zm1.9,0a.633.633,0,1,0-.633.633A.632.632,0,0,0,435.136,330.236Zm1.9,0a.633.633,0,1,0-.633.633A.633.633,0,0,0,437.036,330.236Zm1.9,0a.633.633,0,1,0-.633.633A.633.633,0,0,0,438.936,330.236Zm1.9,0a.633.633,0,1,0-.633.633A.633.633,0,0,0,440.836,330.236Zm-3.008,7.282a.633.633,0,1,0-.633.633A.633.633,0,0,0,437.828,337.518Zm1.9,0a.633.633,0,1,0-.633.633A.633.633,0,0,0,439.727,337.518Zm1.9,0a.633.633,0,1,0-.633.633A.633.633,0,0,0,441.627,337.518Zm1.9,0a.633.633,0,1,0-.633.633A.633.633,0,0,0,443.527,337.518Zm1.9,0a.633.633,0,1,0-.633.633A.633.633,0,0,0,445.426,337.518Zm1.9,0a.633.633,0,1,0-.633.633A.633.633,0,0,0,447.326,337.518Zm-9.5,5.224a.633.633,0,1,0-.633.633A.633.633,0,0,0,437.828,342.742Zm1.9,0a.633.633,0,1,0-.633.633A.633.633,0,0,0,439.727,342.742Zm1.9,0a.633.633,0,1,0-.633.633A.633.633,0,0,0,441.627,342.742Zm1.9,0a.633.633,0,1,0-.633.633A.633.633,0,0,0,443.527,342.742Zm1.9,0a.633.633,0,1,0-.633.633A.633.633,0,0,0,445.426,342.742Zm1.9,0a.633.633,0,1,0-.633.633A.633.633,0,0,0,447.326,342.742Z" transform="translate(-417.177 -283.513)" fill="#958919"/>
              <path id="Trazado_1044721" data-name="Trazado 1044721" d="M477.749,256.017h-2.217a.546.546,0,0,1,0-1.093h2.217a.546.546,0,0,1,0,1.093Zm.546,1.986a.546.546,0,0,0-.546-.547h-2.217a.546.546,0,0,0,0,1.093h2.217A.546.546,0,0,0,478.295,258Zm0,2.533a.546.546,0,0,0-.546-.547h-2.217a.546.546,0,0,0,0,1.093h2.217A.546.546,0,0,0,478.295,260.536Zm0,2.533a.546.546,0,0,0-.546-.547h-2.217a.546.546,0,0,0,0,1.093h2.217A.546.546,0,0,0,478.295,263.068Zm0,2.533a.546.546,0,0,0-.546-.547h-2.217a.547.547,0,0,0,0,1.093h2.217A.546.546,0,0,0,478.295,265.6Zm0,2.533a.546.546,0,0,0-.546-.547h-2.217a.547.547,0,0,0,0,1.093h2.217A.546.546,0,0,0,478.295,268.134Zm0,2.533a.546.546,0,0,0-.546-.547h-2.217a.546.546,0,0,0,0,1.093h2.217A.546.546,0,0,0,478.295,270.667Zm0,2.533a.546.546,0,0,0-.546-.547h-2.217a.546.546,0,0,0,0,1.093h2.217A.546.546,0,0,0,478.295,273.2Zm8.291-17.73a.546.546,0,0,0-.547-.546h-5.818a.546.546,0,0,0,0,1.093h5.818A.546.546,0,0,0,486.586,255.47Zm0,2.533a.546.546,0,0,0-.547-.547h-5.818a.546.546,0,0,0,0,1.093h5.818A.546.546,0,0,0,486.586,258Zm0,2.533a.546.546,0,0,0-.547-.547h-5.818a.546.546,0,0,0,0,1.093h5.818A.546.546,0,0,0,486.586,260.536Zm0,2.533a.546.546,0,0,0-.547-.547h-5.818a.546.546,0,0,0,0,1.093h5.818A.546.546,0,0,0,486.586,263.068Zm0,2.533a.547.547,0,0,0-.547-.547h-5.818a.547.547,0,0,0,0,1.093h5.818A.546.546,0,0,0,486.586,265.6Zm6.965,2.533a.546.546,0,0,0-.546-.547h-5.818a.547.547,0,1,0,0,1.093H493A.546.546,0,0,0,493.551,268.134Zm0,2.533a.546.546,0,0,0-.546-.547h-5.818a.546.546,0,1,0,0,1.093H493A.546.546,0,0,0,493.551,270.667Zm0,2.533a.546.546,0,0,0-.546-.547h-5.818a.546.546,0,1,0,0,1.093H493A.546.546,0,0,0,493.551,273.2Zm-4.4-17.73a.633.633,0,1,0-.633.633A.633.633,0,0,0,489.147,255.47Zm1.9,0a.633.633,0,1,0-.633.633A.633.633,0,0,0,491.046,255.47Zm1.9,0a.633.633,0,1,0-.633.633A.633.633,0,0,0,492.945,255.47Zm1.9,0a.633.633,0,1,0-.633.633A.633.633,0,0,0,494.845,255.47Zm1.9,0a.633.633,0,1,0-.633.633A.633.633,0,0,0,496.745,255.47Zm1.9,0a.633.633,0,1,0-.633.633A.633.633,0,0,0,498.645,255.47Zm-9.5,5.066a.633.633,0,1,0-.633.633A.633.633,0,0,0,489.147,260.536Zm1.9,0a.633.633,0,1,0-.633.633A.634.634,0,0,0,491.046,260.536Zm1.9,0a.633.633,0,1,0-.633.633A.633.633,0,0,0,492.945,260.536Zm1.9,0a.633.633,0,1,0-.633.633A.634.634,0,0,0,494.845,260.536Zm1.9,0a.633.633,0,1,0-.633.633A.633.633,0,0,0,496.745,260.536Zm1.9,0a.633.633,0,1,0-.633.633A.634.634,0,0,0,498.645,260.536Zm-3.008,7.281a.633.633,0,1,0-.633.633A.633.633,0,0,0,495.637,267.817Zm1.9,0a.633.633,0,1,0-.633.633A.633.633,0,0,0,497.536,267.817Zm1.9,0a.633.633,0,1,0-.633.633A.633.633,0,0,0,499.436,267.817Zm1.9,0a.633.633,0,1,0-.633.633A.633.633,0,0,0,501.336,267.817Zm1.9,0a.633.633,0,1,0-.633.633A.633.633,0,0,0,503.235,267.817Zm1.9,0a.633.633,0,1,0-.633.633A.633.633,0,0,0,505.134,267.817Zm-9.5,5.224a.633.633,0,1,0-.633.633A.633.633,0,0,0,495.637,273.041Zm1.9,0a.633.633,0,1,0-.633.633A.633.633,0,0,0,497.536,273.041Zm1.9,0a.633.633,0,1,0-.633.633A.633.633,0,0,0,499.436,273.041Zm1.9,0a.633.633,0,1,0-.633.633A.634.634,0,0,0,501.336,273.041Zm1.9,0a.633.633,0,1,0-.633.633A.633.633,0,0,0,503.235,273.041Zm1.9,0a.633.633,0,1,0-.633.633A.633.633,0,0,0,505.134,273.041Z" transform="translate(-440.961 -254.837)" fill="#958919"/>
              <path id="Trazado_1044722" data-name="Trazado 1044722" d="M477.749,291.283h-2.217a.547.547,0,0,1,0-1.093h2.217a.547.547,0,0,1,0,1.093Zm.546,1.986a.546.546,0,0,0-.546-.546h-2.217a.546.546,0,0,0,0,1.093h2.217A.546.546,0,0,0,478.295,293.268Zm0,2.533a.546.546,0,0,0-.546-.547h-2.217a.547.547,0,0,0,0,1.093h2.217A.546.546,0,0,0,478.295,295.8Zm0,2.533a.546.546,0,0,0-.546-.547h-2.217a.546.546,0,0,0,0,1.093h2.217A.546.546,0,0,0,478.295,298.334Zm0,2.533a.546.546,0,0,0-.546-.547h-2.217a.546.546,0,0,0,0,1.093h2.217A.546.546,0,0,0,478.295,300.867Zm0,2.533a.546.546,0,0,0-.546-.547h-2.217a.547.547,0,0,0,0,1.093h2.217A.546.546,0,0,0,478.295,303.4Zm0,2.533a.546.546,0,0,0-.546-.547h-2.217a.546.546,0,0,0,0,1.093h2.217A.546.546,0,0,0,478.295,305.933Zm0,2.533a.546.546,0,0,0-.546-.547h-2.217a.547.547,0,0,0,0,1.094h2.217A.546.546,0,0,0,478.295,308.466Zm8.291-17.729a.546.546,0,0,0-.547-.547h-5.818a.547.547,0,0,0,0,1.093h5.818A.546.546,0,0,0,486.586,290.736Zm0,2.532a.546.546,0,0,0-.547-.546h-5.818a.546.546,0,0,0,0,1.093h5.818A.546.546,0,0,0,486.586,293.268Zm0,2.533a.547.547,0,0,0-.547-.547h-5.818a.547.547,0,0,0,0,1.093h5.818A.546.546,0,0,0,486.586,295.8Zm0,2.533a.546.546,0,0,0-.547-.547h-5.818a.546.546,0,0,0,0,1.093h5.818A.546.546,0,0,0,486.586,298.334Zm0,2.533a.547.547,0,0,0-.547-.547h-5.818a.546.546,0,0,0,0,1.093h5.818A.546.546,0,0,0,486.586,300.867Zm6.965,2.533a.546.546,0,0,0-.546-.547h-5.818a.547.547,0,1,0,0,1.093H493A.546.546,0,0,0,493.551,303.4Zm0,2.533a.546.546,0,0,0-.546-.547h-5.818a.546.546,0,1,0,0,1.093H493A.546.546,0,0,0,493.551,305.933Zm0,2.533a.546.546,0,0,0-.546-.547h-5.818a.547.547,0,1,0,0,1.094H493A.546.546,0,0,0,493.551,308.466Zm-4.4-17.73a.633.633,0,1,0-.633.633A.633.633,0,0,0,489.147,290.736Zm1.9,0a.633.633,0,1,0-.633.633A.633.633,0,0,0,491.046,290.736Zm1.9,0a.633.633,0,1,0-.633.633A.633.633,0,0,0,492.945,290.736Zm1.9,0a.633.633,0,1,0-.633.633A.633.633,0,0,0,494.845,290.736Zm1.9,0a.633.633,0,1,0-.633.633A.633.633,0,0,0,496.745,290.736Zm1.9,0a.633.633,0,1,0-.633.633A.633.633,0,0,0,498.645,290.736Zm-9.5,5.066a.633.633,0,1,0-.633.633A.634.634,0,0,0,489.147,295.8Zm1.9,0a.633.633,0,1,0-.633.633A.634.634,0,0,0,491.046,295.8Zm1.9,0a.633.633,0,1,0-.633.633A.633.633,0,0,0,492.945,295.8Zm1.9,0a.633.633,0,1,0-.633.633A.634.634,0,0,0,494.845,295.8Zm1.9,0a.633.633,0,1,0-.633.633A.633.633,0,0,0,496.745,295.8Zm1.9,0a.633.633,0,1,0-.633.633A.634.634,0,0,0,498.645,295.8Zm-3.008,7.281a.633.633,0,1,0-.633.633A.633.633,0,0,0,495.637,303.083Zm1.9,0a.633.633,0,1,0-.633.633A.633.633,0,0,0,497.536,303.083Zm1.9,0a.633.633,0,1,0-.633.633A.633.633,0,0,0,499.436,303.083Zm1.9,0a.633.633,0,1,0-.633.633A.633.633,0,0,0,501.336,303.083Zm1.9,0a.633.633,0,1,0-.633.633A.633.633,0,0,0,503.235,303.083Zm1.9,0a.633.633,0,1,0-.633.633A.633.633,0,0,0,505.134,303.083Zm-9.5,5.224a.633.633,0,1,0-.633.633A.634.634,0,0,0,495.637,308.307Zm1.9,0a.633.633,0,1,0-.633.633A.634.634,0,0,0,497.536,308.307Zm1.9,0a.633.633,0,1,0-.633.633A.633.633,0,0,0,499.436,308.307Zm1.9,0a.633.633,0,1,0-.633.633A.634.634,0,0,0,501.336,308.307Zm1.9,0a.633.633,0,1,0-.633.633A.633.633,0,0,0,503.235,308.307Zm1.9,0a.633.633,0,1,0-.633.633A.633.633,0,0,0,505.134,308.307Z" transform="translate(-440.961 -269.346)" fill="#958919"/>
            </g>
          </g>
        </g>
      </g>
      <g id="Webpage" transform="translate(75.955 48.702)">
        <g id="Grupo_1179475" data-name="Grupo 1179475">
          <rect id="Rectángulo_406387" data-name="Rectángulo 406387" width="139.918" height="210.888" transform="translate(65.122)" fill="#a3a3a3" stroke="#263238" stroke-miterlimit="10" stroke-width="1"/>
          <g id="Grupo_1179474" data-name="Grupo 1179474" transform="translate(0 0.145)">
            <rect id="Rectángulo_406388" data-name="Rectángulo 406388" width="200.444" height="210.657" fill="#ebebeb" stroke="#263238" stroke-miterlimit="10" stroke-width="1"/>
            <rect id="Rectángulo_406389" data-name="Rectángulo 406389" width="180.969" height="4.204" transform="translate(6.179 108.793)" fill="#263238"/>
            <rect id="Rectángulo_406390" data-name="Rectángulo 406390" width="180.969" height="4.204" transform="translate(6.179 189.634)" fill="#263238"/>
            <rect id="Rectángulo_406391" data-name="Rectángulo 406391" width="6.004" height="210.657" transform="translate(194.441)" fill="#f5f5f5" stroke="#263238" stroke-miterlimit="10" stroke-width="1"/>
            <g id="Grupo_1179469" data-name="Grupo 1179469" transform="translate(7.44 130.298)">
              <rect id="Rectángulo_406392" data-name="Rectángulo 406392" width="54.232" height="47.506" rx="10.494" fill="#fff" stroke="#263238" stroke-miterlimit="10" stroke-width="1"/>
              <path id="Trazado_1044723" data-name="Trazado 1044723" d="M97.845,340.186h40.592a6.82,6.82,0,0,0,6.82-6.82V310.939l-6.306-5.647L121.427,323.28l-7.28-5.376L94.5,339.306A6.784,6.784,0,0,0,97.845,340.186Z" transform="translate(-91.024 -292.68)" fill="#197d95" stroke="#263238" stroke-miterlimit="10" stroke-width="1"/>
              <path id="Trazado_1048754" data-name="Trazado 1048754" d="M4.606,0A4.606,4.606,0,1,1,0,4.606,4.606,4.606,0,0,1,4.606,0Z" transform="translate(9.083 17.083) rotate(-76.717)" fill="#197d95" stroke="#263238" stroke-width="1"/>
            </g>
            <g id="Grupo_1179470" data-name="Grupo 1179470" transform="translate(69.678 130.298)">
              <rect id="Rectángulo_406393" data-name="Rectángulo 406393" width="54.232" height="47.506" rx="10.494" transform="translate(0)" fill="#fff" stroke="#263238" stroke-miterlimit="10" stroke-width="1"/>
              <path id="Trazado_1044724" data-name="Trazado 1044724" d="M203.587,340.186h40.592a6.82,6.82,0,0,0,6.82-6.82V310.939l-6.306-5.647L227.17,323.28l-7.28-5.376-19.647,21.4A6.787,6.787,0,0,0,203.587,340.186Z" transform="translate(-196.767 -292.68)" fill="#197d95" stroke="#263238" stroke-miterlimit="10" stroke-width="1"/>
              <circle id="Elipse_11826" data-name="Elipse 11826" cx="4.606" cy="4.606" r="4.606" transform="matrix(0.87, -0.493, 0.493, 0.87, 8.346, 11.919)" fill="#197d95" stroke="#263238" stroke-miterlimit="10" stroke-width="1"/>
            </g>
            <g id="Grupo_1179471" data-name="Grupo 1179471" transform="translate(131.916 130.298)">
              <rect id="Rectángulo_406394" data-name="Rectángulo 406394" width="54.232" height="47.506" rx="10.494" fill="#fff" stroke="#263238" stroke-miterlimit="10" stroke-width="1"/>
              <path id="Trazado_1044725" data-name="Trazado 1044725" d="M309.33,340.186h40.592a6.82,6.82,0,0,0,6.82-6.82V310.939l-6.306-5.647L332.913,323.28l-7.28-5.376-19.647,21.4A6.785,6.785,0,0,0,309.33,340.186Z" transform="translate(-302.51 -292.68)" fill="#197d95" stroke="#263238" stroke-miterlimit="10" stroke-width="1"/>
              <path id="Trazado_1048753" data-name="Trazado 1048753" d="M4.606,0A4.606,4.606,0,1,1,0,4.606,4.606,4.606,0,0,1,4.606,0Z" transform="translate(8.11 13.658) rotate(-45)" fill="#197d95" stroke="#263238" stroke-width="1"/>
            </g>
            <g id="Grupo_1179472" data-name="Grupo 1179472" transform="translate(110.069 26.752)">
              <path id="Rectángulo_406395" data-name="Rectángulo 406395" d="M10.494,0H65.585A10.494,10.494,0,0,1,76.08,10.494v41.26A14.889,14.889,0,0,1,61.191,66.643H13.954A13.954,13.954,0,0,1,0,52.689V10.494A10.494,10.494,0,0,1,10.494,0Z" fill="#fff" stroke="#263238" stroke-miterlimit="10" stroke-width="1"/>
              <path id="Trazado_1044726" data-name="Trazado 1044726" d="M275.938,186.95h56.944a9.568,9.568,0,0,0,9.567-9.568v-31.46L333.6,138l-24.583,25.233-10.213-7.54-27.561,30.023A9.516,9.516,0,0,0,275.938,186.95Z" transform="translate(-266.37 -120.306)" fill="#13d01a" stroke="#263238" stroke-miterlimit="10" stroke-width="1"/>
              <path id="Trazado_1048755" data-name="Trazado 1048755" d="M6.462,0A6.462,6.462,0,1,1,0,6.462,6.462,6.462,0,0,1,6.462,0Z" transform="matrix(0.16, -0.987, 0.987, 0.16, 13.102, 24.504)" fill="#20d024" stroke="#263238" stroke-width="1"/>
            </g>
            <rect id="Rectángulo_406396" data-name="Rectángulo 406396" width="6.004" height="46.813" transform="translate(194.441 27.662)" fill="#d1d1d1" stroke="#263238" stroke-miterlimit="10" stroke-width="1"/>
            <path id="Trazado_1048756" data-name="Trazado 1048756" d="M0,0H200.444V10.879H0Z" fill="#6a1995" stroke="#263238" stroke-width="1"/>
            <g id="Grupo_1179473" data-name="Grupo 1179473" transform="translate(177.06 3.692)">
              <path id="Trazado_1044727" data-name="Trazado 1044727" d="M380.142,70.442a1.682,1.682,0,1,1-1.682-1.682A1.682,1.682,0,0,1,380.142,70.442Z" transform="translate(-376.779 -68.76)" fill="#fff" stroke="#263238" stroke-miterlimit="10" stroke-width="1"/>
              <path id="Trazado_1044728" data-name="Trazado 1044728" d="M393,70.442a1.682,1.682,0,1,1-1.682-1.682A1.681,1.681,0,0,1,393,70.442Z" transform="translate(-382.069 -68.76)" fill="#fff" stroke="#263238" stroke-miterlimit="10" stroke-width="1"/>
              <path id="Trazado_1044729" data-name="Trazado 1044729" d="M405.856,70.442a1.682,1.682,0,1,1-1.682-1.682A1.681,1.681,0,0,1,405.856,70.442Z" transform="translate(-387.358 -68.76)" fill="#263238" stroke="#263238" stroke-miterlimit="10" stroke-width="1"/>
            </g>
            <line id="Línea_686" data-name="Línea 686" x2="72.44" transform="translate(11.21 32.111)" fill="none" stroke="#263238" stroke-miterlimit="10" stroke-width="3"/>
            <line id="Línea_687" data-name="Línea 687" x2="72.44" transform="translate(11.21 70.004)" fill="none" stroke="#263238" stroke-miterlimit="10" stroke-width="1"/>
            <line id="Línea_688" data-name="Línea 688" x2="72.44" transform="translate(11.21 78.952)" fill="none" stroke="#263238" stroke-miterlimit="10" stroke-width="1"/>
            <line id="Línea_689" data-name="Línea 689" x2="72.44" transform="translate(11.21 89.076)" fill="none" stroke="#263238" stroke-miterlimit="10" stroke-width="1"/>
            <line id="Línea_690" data-name="Línea 690" x2="88.632" transform="translate(11.21 47.877)" fill="none" stroke="#263238" stroke-miterlimit="10" stroke-width="3"/>
          </g>
        </g>
      </g>
      <g id="Character" transform="translate(78.749 110.837)">
        <g id="Grupo_1179478" data-name="Grupo 1179478">
          <g id="Grupo_1179476" data-name="Grupo 1179476" transform="translate(50.702 8.832)">
            <path id="Trazado_1044730" data-name="Trazado 1044730" d="M174.128,183.083a21.266,21.266,0,0,1,1.544,4.632,6.807,6.807,0,0,0,2.28,4.338.97.97,0,0,1,.073,1.691,5.3,5.3,0,0,1-1.176.662s-.294,5.809-1.1,6.544-4.044-.368-4.044-.368-4.706-6.25-4.853-8.971,4.485-6.985,4.485-6.985S173.245,181.98,174.128,183.083Z" transform="translate(-166.845 -182.814)" fill="#fff" stroke="#263238" stroke-miterlimit="10" stroke-width="1"/>
            <path id="Trazado_1044731" data-name="Trazado 1044731" d="M180.3,193.259c.051.627-.039,1.147-.2,1.16s-.334-.484-.386-1.112.038-1.147.2-1.16S180.245,192.632,180.3,193.259Z" transform="translate(-172.132 -186.654)" fill="none" stroke="#263238" stroke-miterlimit="10" stroke-width="1"/>
            <path id="Trazado_1044732" data-name="Trazado 1044732" d="M178.153,189.762s.474-.985,1.354-.863" transform="translate(-171.497 -185.313)" fill="none" stroke="#263238" stroke-linecap="round" stroke-linejoin="round" stroke-width="1"/>
            <path id="Trazado_1044733" data-name="Trazado 1044733" d="M179.843,202.635a3.405,3.405,0,0,0,1.544.882" transform="translate(-172.193 -190.969)" fill="none" stroke="#263238" stroke-linecap="round" stroke-linejoin="round" stroke-width="1"/>
          </g>
          <path id="Trazado_1044734" data-name="Trazado 1044734" d="M225.255,238.256l8.381-6.279a20.726,20.726,0,0,1,.9-3.6,24.8,24.8,0,0,1,2.252-2.027c.225-.3.675-2.627,1.275-2.4s.976.526.9,1.276a6.643,6.643,0,0,1-1.2,2.552,4.929,4.929,0,0,0-.675,1.351s8.931-4.878,9.531-4.653.6.6.45.9-5.4,3.9-5.4,3.9l.676.6,6.229-1.951s.976.15.75.676-6.454,3.377-6.454,3.377l.75.525,5.4-.75a.778.778,0,0,1-.225.976,44.068,44.068,0,0,1-5.329,1.951l3.453.75s.375.6,0,.9-4.653-.075-4.653-.075l-6.9-.15-7.012,8.2Z" transform="translate(-140.174 -190.898)" fill="#fff" stroke="#263238" stroke-miterlimit="10" stroke-width="1"/>
          <path id="Trazado_1044735" data-name="Trazado 1044735" d="M100.585,240.211l-5.429-8.955a20.718,20.718,0,0,0,.51-3.678,24.651,24.651,0,0,0-1.332-2.721c-.1-.363.355-2.689-.286-2.7s-1.1.123-1.312.848a6.642,6.642,0,0,0,.161,2.815,4.926,4.926,0,0,1,.122,1.506s-6.463-7.861-7.1-7.876-.781.333-.754.667,3.555,5.639,3.555,5.639l-.851.3-5.049-4.137s-.961-.225-.949.346,4.726,5.544,4.726,5.544l-.892.207L80.968,225.3a.778.778,0,0,0-.155.989,44.031,44.031,0,0,0,4.214,3.8l-3.483-.593s-.572.417-.336.835S85.552,232,85.552,232l6.461,2.44,3.658,9.4Z" transform="translate(-80.703 -189.052)" fill="#fff" stroke="#263238" stroke-miterlimit="10" stroke-width="1"/>
          <g id="Grupo_1179477" data-name="Grupo 1179477" transform="translate(32.464 82.531)">
            <path id="Trazado_1044736" data-name="Trazado 1044736" d="M135.877,310.149a84.537,84.537,0,0,0,.489,11.238c.652,4.56,6.515,34.367,6.515,34.367a37.584,37.584,0,0,0-2.769,10.912c-.652,6.352,0,30.62,0,30.62s-.7,6.181-.361,6.516a2.068,2.068,0,0,0,1.34.67h9.127s1-.586.754-1.424-3.1-2.763-3.35-3.182-1.759-2.6-1.842-2.931,1.759-12.56,1.759-12.56,5.108-23.7,5.443-25.623.67-3.517.753-4.27,1.842-27.131,1.842-27.131l2.428.419,14.55,27.87s.792,9.048,2.375,12.666,8.777,17.592,8.777,17.592l2.488,8.369s-2.941,4.071-2.375,4.637a51.456,51.456,0,0,0,4.75,3.053c1.47.905,6.446,4.185,9.839,4.185s3.732-1.357,3.28-1.923-4.411-2.488-4.411-2.488-4.41-7.464-4.863-8.821-4.706-24.83-6.967-31.5-3.054-9.048-3.054-9.048-.7-11.537-2.393-20.924-4.75-20.13-6.785-23.41C173.218,308.028,154.292,315.777,135.877,310.149Z" transform="translate(-135.859 -308.028)" fill="#263238" stroke="#263238" stroke-miterlimit="10" stroke-width="1"/>
            <path id="Trazado_1044737" data-name="Trazado 1044737" d="M230.278,454.59s-4.41-7.464-4.863-8.821c-.174-.524-.972-4.365-2.015-9.265a19.138,19.138,0,0,1-7.333,1.056c.4.749.64,1.2.64,1.2l2.488,8.368s-2.941,4.072-2.375,4.637a51.31,51.31,0,0,0,4.75,3.054c1.47.905,6.446,4.185,9.839,4.185s3.732-1.357,3.28-1.923S230.278,454.59,230.278,454.59Z" transform="translate(-168.858 -360.885)" fill="#fff" stroke="#263238" stroke-miterlimit="10" stroke-width="1"/>
            <path id="Trazado_1044738" data-name="Trazado 1044738" d="M235.164,465.1c-.453-.566-4.411-2.488-4.411-2.488s-5.584-2.557-7.56-4.285A16.733,16.733,0,0,0,219.078,456c-.827,1.225-2.182,3.381-1.782,3.781a51.312,51.312,0,0,0,4.75,3.054c1.47.905,6.446,4.185,9.839,4.185S235.617,465.666,235.164,465.1Z" transform="translate(-169.334 -368.908)" fill="#958919" stroke="#263238" stroke-miterlimit="10" stroke-width="1"/>
            <path id="Trazado_1044739" data-name="Trazado 1044739" d="M152.875,459.152s1-.586.754-1.424-3.1-2.763-3.35-3.182-1.759-2.6-1.842-2.931c-.062-.248.929-6.994,1.45-10.494l-7.338-.19c.086,6.046.22,11.034.22,11.034s-.7,6.181-.361,6.516a2.068,2.068,0,0,0,1.34.67Z" transform="translate(-138.516 -362.707)" fill="#fff" stroke="#263238" stroke-miterlimit="10" stroke-width="1"/>
            <path id="Trazado_1044740" data-name="Trazado 1044740" d="M153.629,466.635c-.21-.7-2.233-2.16-3.036-2.864a3.126,3.126,0,0,0-1.223-.14c-.909.177-.741-.247-2.964-.741a15.574,15.574,0,0,0-3.816-.295c-.18,1.856-.4,4.575-.182,4.794a2.068,2.068,0,0,0,1.34.67h9.127S153.88,467.473,153.629,466.635Z" transform="translate(-138.516 -371.614)" fill="#958919" stroke="#263238" stroke-miterlimit="10" stroke-width="1"/>
          </g>
          <path id="Trazado_1044741" data-name="Trazado 1044741" d="M136.764,223.536l-11.779,7.73,9.57,23.68-5.991,28.195s7.361,6.749,21.349,5.521,21.717-9.447,21.717-9.447l-9.715-24.76,1.35-9.57s11.165,9.448,12.147,9.079a88.651,88.651,0,0,0,8.358-3.985,13.239,13.239,0,0,0,1.351-2.207l3.33-2.967-4.188-7.637-3.452,2.441a4.2,4.2,0,0,0-2.086.123c-.859.368-4.417,1.963-4.417,1.963L164.861,226.6l-13.619-3.558Z" transform="translate(-98.921 -190.534)" fill="#ef52fc" stroke="#263238" stroke-miterlimit="10" stroke-width="1"/>
          <path id="Trazado_1044742" data-name="Trazado 1044742" d="M161.183,177.1s2.514-.629,2.891-2.765-3.016-5.782-6.159-6.411-3.771,1.509-5.406,1.509-5.4-.88-8.925,1.383-5.028,4.9-5.028,7.667.377,5.154.377,7.291-4.148,4.9-4.776,8.673a6.547,6.547,0,0,0,4.4,7.165c2.263.755,2.137,3.646,7.919,4.9s10.433-2.263,11.313-4.777,5.154-4.9,3.017-9.8-5.782-5.908-5.154-7.668,3.9-1.885,4.651-4.148A24.53,24.53,0,0,0,161.183,177.1Z" transform="translate(-102.658 -167.808)" fill="#263238" stroke="#263238" stroke-miterlimit="10" stroke-width="1"/>
          <path id="Trazado_1044743" data-name="Trazado 1044743" d="M116.517,237.012,113.2,248.423l-1.1-1.473a8,8,0,0,0-5.154,1.227c-2.086,1.6-2.822,3.926-2.454,4.294a26.022,26.022,0,0,1,1.6,2.454s-.736,2.577.245,4.049,6.748,6.012,8.343,5.767,8.221-12.76,8.221-12.76S118.971,238.975,116.517,237.012Z" transform="translate(-90.453 -196.28)" fill="#ef52fc" stroke="#263238" stroke-miterlimit="10" stroke-width="1"/>
          <line id="Línea_691" data-name="Línea 691" x1="3.313" y2="6.871" transform="translate(19.438 52.143)" fill="none" stroke="#263238" stroke-miterlimit="10" stroke-width="1"/>
          <line id="Línea_692" data-name="Línea 692" y1="2.822" x2="2.577" transform="translate(18.457 55.333)" fill="none" stroke="#263238" stroke-miterlimit="10" stroke-width="1"/>
          <line id="Línea_693" data-name="Línea 693" x1="6.012" y1="5.521" transform="translate(26.432 50.18)" fill="none" stroke="#263238" stroke-miterlimit="10" stroke-width="1"/>
          <line id="Línea_694" data-name="Línea 694" x2="2.699" y2="1.104" transform="translate(26.555 53.983)" fill="none" stroke="#263238" stroke-miterlimit="10" stroke-width="1"/>
          <path id="Trazado_1044744" data-name="Trazado 1044744" d="M153.336,268.073s11.9,6.871,14.969,8.711" transform="translate(-110.585 -209.059)" fill="none" stroke="#263238" stroke-miterlimit="10" stroke-width="1"/>
          <line id="Línea_695" data-name="Línea 695" x2="7.73" y2="4.294" transform="translate(48.64 64.903)" fill="none" stroke="#263238" stroke-miterlimit="10" stroke-width="1"/>
          <line id="Línea_696" data-name="Línea 696" y1="13.128" x2="1.35" transform="translate(64.345 41.223)" fill="none" stroke="#263238" stroke-miterlimit="10" stroke-width="1"/>
          <line id="Línea_697" data-name="Línea 697" x1="2.209" y2="7.607" transform="translate(65.695 44.904)" fill="none" stroke="#263238" stroke-miterlimit="10" stroke-width="1"/>
          <line id="Línea_698" data-name="Línea 698" x2="3.681" y2="4.049" transform="translate(75.388 51.161)" fill="none" stroke="#263238" stroke-miterlimit="10" stroke-width="1"/>
          <line id="Línea_699" data-name="Línea 699" x1="3.067" y1="1.227" transform="translate(76.738 52.511)" fill="none" stroke="#263238" stroke-miterlimit="10" stroke-width="1"/>
          <line id="Línea_700" data-name="Línea 700" x2="2.699" y2="4.049" transform="translate(81.768 50.793)" fill="none" stroke="#263238" stroke-miterlimit="10" stroke-width="1"/>
          <path id="Trazado_1044745" data-name="Trazado 1044745" d="M107.266,264.1a9.257,9.257,0,0,1,5.276-4.785" transform="translate(-91.631 -205.457)" fill="none" stroke="#263238" stroke-miterlimit="10" stroke-width="1"/>
        </g>
      </g>
      <g id="Arrow" transform="translate(196.896 263.919)">
        <path id="Trazado_1044746" data-name="Trazado 1044746" d="M337.076,432.563h-43.99v-4.669l-5.826,3.364-5.826,3.364,5.826,3.364,5.826,3.364V436.68h43.99Z" transform="translate(-281.434 -427.894)" fill="#b586ff" stroke="#263238" stroke-miterlimit="10" stroke-width="1"/>
      </g>
      <g id="Code_1" data-name="Code 1" transform="translate(367.258 75.899)">
        <g id="Grupo_1179479" data-name="Grupo 1179479">
          <path id="Trazado_1044747" data-name="Trazado 1044747" d="M583.246,140.959,570.879,132.3v-5.026l12.367-8.657v5.625l-7.7,5.545,7.7,5.546Z" transform="translate(-570.879 -112.633)" fill="#263238"/>
          <path id="Trazado_1044748" data-name="Trazado 1044748" d="M598.669,140.765l9.9-32.316h3.51l-9.935,32.316Z" transform="translate(-582.312 -108.449)" fill="#263238"/>
          <path id="Trazado_1044749" data-name="Trazado 1044749" d="M628.021,140.959v-5.625l7.737-5.584-7.737-5.506v-5.625l12.367,8.657V132.3Z" transform="translate(-594.388 -112.633)" fill="#263238"/>
        </g>
      </g>
      <g id="Text" transform="translate(330.379 108.445)">
        <g id="Grupo_1179480" data-name="Grupo 1179480" transform="translate(105.192 88.157)">
          <path id="Trazado_1044750" data-name="Trazado 1044750" d="M686.943,326.818v-13.3h4.464a3.862,3.862,0,0,1,1.97.451,2.757,2.757,0,0,1,1.149,1.313,5.212,5.212,0,0,1,.378,2.093,4.473,4.473,0,0,1-.509,2.356,2.646,2.646,0,0,1-1.379,1.124,5.748,5.748,0,0,1-1.953.312h-1.182v5.647Zm2.938-7.7h.985a1.422,1.422,0,0,0,.821-.2.953.953,0,0,0,.369-.592,4.6,4.6,0,0,0,.091-1,4.837,4.837,0,0,0-.074-.895,1.022,1.022,0,0,0-.353-.616,1.356,1.356,0,0,0-.87-.229h-.968Z" transform="translate(-686.943 -313.522)" fill="#263238"/>
          <path id="Trazado_1044751" data-name="Trazado 1044751" d="M702.727,326.818v-13.3h2.938v5.384h2.052v-5.384h2.955v13.3h-2.955v-5.811h-2.052v5.811Z" transform="translate(-693.437 -313.522)" fill="#263238"/>
          <path id="Trazado_1044752" data-name="Trazado 1044752" d="M719.655,326.818v-13.3h4.464a3.861,3.861,0,0,1,1.97.451,2.757,2.757,0,0,1,1.149,1.313,5.2,5.2,0,0,1,.378,2.093,4.471,4.471,0,0,1-.509,2.356,2.646,2.646,0,0,1-1.379,1.124,5.749,5.749,0,0,1-1.953.312h-1.182v5.647Zm2.938-7.7h.985a1.421,1.421,0,0,0,.82-.2.953.953,0,0,0,.369-.592,4.6,4.6,0,0,0,.091-1,4.78,4.78,0,0,0-.074-.895,1.019,1.019,0,0,0-.353-.616,1.357,1.357,0,0,0-.87-.229h-.968Z" transform="translate(-700.401 -313.522)" fill="#263238"/>
        </g>
        <g id="Grupo_1179481" data-name="Grupo 1179481" transform="translate(0 153.446)">
          <path id="Trazado_1044753" data-name="Trazado 1044753" d="M513.493,442.52a5.912,5.912,0,0,1-3.157-.726,3.911,3.911,0,0,1-1.638-2.039,9.037,9.037,0,0,1-.477-3.092v-6.334a9.186,9.186,0,0,1,.477-3.135,3.859,3.859,0,0,1,1.638-2.028,5.977,5.977,0,0,1,3.157-.716,6.07,6.07,0,0,1,3.048.64,3.538,3.538,0,0,1,1.551,1.79,7.139,7.139,0,0,1,.456,2.647v1.519h-3.8v-1.757a8.755,8.755,0,0,0-.055-1,1.471,1.471,0,0,0-.314-.792,1.1,1.1,0,0,0-.889-.314,1.15,1.15,0,0,0-.9.325,1.536,1.536,0,0,0-.369.813,6.714,6.714,0,0,0-.076,1.031v8.266a5.516,5.516,0,0,0,.1,1.074,1.489,1.489,0,0,0,.391.781,1.161,1.161,0,0,0,.857.293,1.066,1.066,0,0,0,.868-.316,1.554,1.554,0,0,0,.325-.813,7.853,7.853,0,0,0,.065-1.02v-1.843h3.8v1.518a7.575,7.575,0,0,1-.444,2.679,3.668,3.668,0,0,1-1.541,1.866A5.8,5.8,0,0,1,513.493,442.52Z" transform="translate(-508.221 -424.448)" fill="#263238"/>
          <path id="Trazado_1044754" data-name="Trazado 1044754" d="M531.249,440.847v-3.471h-3.124v-2.061h3.124v-3.384h2.343v3.384h3.146v2.061h-3.146v3.471Z" transform="translate(-516.41 -427.527)" fill="#263238"/>
          <path id="Trazado_1044755" data-name="Trazado 1044755" d="M547.762,440.847v-3.471h-3.124v-2.061h3.124v-3.384h2.343v3.384h3.145v2.061h-3.145v3.471Z" transform="translate(-523.204 -427.527)" fill="#263238"/>
        </g>
        <g id="Grupo_1179482" data-name="Grupo 1179482" transform="translate(85.167)">
          <path id="Trazado_1044756" data-name="Trazado 1044756" d="M652.92,172.459v-1.311a3.056,3.056,0,0,0,.483-.032.682.682,0,0,0,.315-.12.507.507,0,0,0,.167-.262,1.579,1.579,0,0,0,.053-.446v-6.544h1.876v6.628a3.346,3.346,0,0,1-.173,1.16,1.259,1.259,0,0,1-.6.7,2.58,2.58,0,0,1-1.206.231Z" transform="translate(-652.92 -163.744)" fill="#263238"/>
          <path id="Trazado_1044757" data-name="Trazado 1044757" d="M659.282,172.239l1.6-8.5h2.14l1.583,8.5h-1.73l-.284-1.793h-1.248l-.294,1.793Zm2.234-2.915h.9l-.45-3.314Z" transform="translate(-655.537 -163.744)" fill="#263238"/>
          <path id="Trazado_1044758" data-name="Trazado 1044758" d="M670.095,172.239l-1.531-8.5h1.6l.912,5.768.85-5.768h1.7l-1.552,8.5Z" transform="translate(-659.356 -163.744)" fill="#263238"/>
          <path id="Trazado_1044759" data-name="Trazado 1044759" d="M677.367,172.239l1.6-8.5h2.139l1.583,8.5h-1.73l-.283-1.793h-1.248l-.294,1.793Zm2.234-2.915h.9l-.451-3.314Z" transform="translate(-662.978 -163.744)" fill="#263238"/>
        </g>
      </g>
    </g>
  </g>
</svg>
