<svg xmlns="http://www.w3.org/2000/svg" xmlns:xlink="http://www.w3.org/1999/xlink" width="108.914" height="108.914" viewBox="0 0 108.914 108.914">
  <defs>
    <filter id="Trazado_874925" x="0" y="0" width="108.914" height="108.914" filterUnits="userSpaceOnUse">
      <feOffset dy="3" input="SourceAlpha"/>
      <feGaussianBlur stdDeviation="3" result="blur"/>
      <feFlood flood-opacity="0.161"/>
      <feComposite operator="in" in2="blur"/>
      <feComposite in="SourceGraphic"/>
    </filter>
  </defs>
  <g id="Grupo_1179868" data-name="Grupo 1179868" transform="translate(-588.051 -554)">
    <g id="Grupo_1111507" data-name="Grupo 1111507" transform="translate(-211.449 -1408.211)">
      <g id="Grupo_1111314" data-name="Grupo 1111314" transform="translate(0 16)">
        <g id="Grupo_1109835" data-name="Grupo 1109835">
          <g id="Grupo_1107913" data-name="Grupo 1107913" transform="translate(808.5 1952.211)">
            <g transform="matrix(1, 0, 0, 1, -9, -6)" filter="url(#Trazado_874925)">
              <g id="Trazado_874925-2" data-name="Trazado 874925" transform="translate(9 6)" fill="#1bebf5" opacity="0.859">
                <path d="M 45.45676803588867 89.41407012939453 C 39.52198028564453 89.41407012939453 33.76551818847656 88.25206756591797 28.34726715087891 85.96034240722656 C 23.11311721801758 83.74648284912109 18.41204261779785 80.57682800292969 14.37464332580566 76.5394287109375 C 10.33724308013916 72.50202941894531 7.167593002319336 67.80095672607422 4.953730583190918 62.56679534912109 C 2.662005424499512 57.14855575561523 1.500005483627319 51.39208221435547 1.500005483627319 45.45729446411133 C 1.500005483627319 39.52198028564453 2.662005424499512 33.76551818847656 4.953730583190918 28.34726905822754 C 7.167593002319336 23.11310577392578 10.33724308013916 18.41203117370605 14.37464332580566 14.37464332580566 C 18.41204261779785 10.33724403381348 23.11311721801758 7.167593955993652 28.34726715087891 4.953731060028076 C 33.76551818847656 2.662006139755249 39.52198028564453 1.500006198883057 45.45676803588867 1.500006198883057 C 51.39155578613281 1.500006198883057 57.14802932739258 2.662006139755249 62.56626892089844 4.953731060028076 C 67.80043029785156 7.167593955993652 72.50150299072266 10.33724403381348 76.53890228271484 14.37464332580566 C 80.57630920410156 18.41203117370605 83.74595642089844 23.11310577392578 85.95981597900391 28.34726905822754 C 88.25154113769531 33.76551818847656 89.41354370117188 39.52198028564453 89.41354370117188 45.45676803588867 C 89.41354370117188 51.39208221435547 88.25154113769531 57.14855575561523 85.95981597900391 62.56679534912109 C 83.74595642089844 67.80095672607422 80.57630920410156 72.50202941894531 76.53890228271484 76.5394287109375 C 72.50150299072266 80.57682800292969 67.80043029785156 83.74648284912109 62.56626892089844 85.96034240722656 C 57.14802932739258 88.25206756591797 51.39155578613281 89.41407012939453 45.45676803588867 89.41407012939453 Z" stroke="none"/>
                <path d="M 45.45676803588867 3 C 39.72381210327148 3 34.1639404296875 4.12213134765625 28.93159484863281 6.335227966308594 C 23.87622833251953 8.473472595214844 19.33542633056641 11.53517150878906 15.43529510498047 15.435302734375 C 11.53517150878906 19.33543395996094 8.473464965820312 23.87622833251953 6.335227966308594 28.93160247802734 C 4.122123718261719 34.16394424438477 3 39.72381591796875 3 45.4572868347168 C 3 51.19024658203125 4.122123718261719 56.75011825561523 6.335227966308594 61.98246002197266 C 8.473464965820312 67.03782653808594 11.53517150878906 71.57862854003906 15.43529510498047 75.478759765625 C 19.33542633056641 79.37889099121094 23.87622833251953 82.44058990478516 28.93159484863281 84.57883453369141 C 34.1639404296875 86.79193115234375 39.72381210327148 87.9140625 45.45676803588867 87.9140625 C 51.18972396850586 87.9140625 56.74959564208984 86.79193115234375 61.98194122314453 84.57883453369141 C 67.03730773925781 82.44058990478516 71.57810974121094 79.37889099121094 75.47824096679688 75.478759765625 C 79.37837219238281 71.57862854003906 82.44007110595703 67.03782653808594 84.57830810546875 61.98246002197266 C 86.79141235351562 56.75011825561523 87.91353607177734 51.19024658203125 87.91353607177734 45.4567756652832 C 87.91353607177734 39.72381591796875 86.79141235351562 34.16394424438477 84.57830810546875 28.93160247802734 C 82.44007110595703 23.87622833251953 79.37837219238281 19.33543395996094 75.47824096679688 15.435302734375 C 71.57810974121094 11.53517150878906 67.03730773925781 8.473472595214844 61.98194122314453 6.335227966308594 C 56.74959564208984 4.12213134765625 51.18972396850586 3 45.45676803588867 3 M 45.45676803588867 0 C 70.56185150146484 0 90.91353607177734 20.35169219970703 90.91353607177734 45.4567756652832 L 90.91353607177734 45.4572868347168 C 90.91353607177734 70.5623779296875 70.56185150146484 90.9140625 45.45676803588867 90.9140625 C 20.3516845703125 90.9140625 0 70.5623779296875 0 45.4572868347168 L 0 45.4567756652832 C 0 20.35169219970703 20.3516845703125 0 45.45676803588867 0 Z" stroke="none" fill="#fff"/>
              </g>
            </g>
            <g id="Trazado_874923" data-name="Trazado 874923" transform="translate(0 0)" fill="none">
              <path d="M45.457,0A45.457,45.457,0,0,1,90.914,45.457h0A45.457,45.457,0,0,1,0,45.457H0A45.457,45.457,0,0,1,45.457,0Z" stroke="none"/>
              <path d="M 45.45676803588867 3 C 39.72381210327148 3 34.1639404296875 4.12213134765625 28.93159484863281 6.335227966308594 C 23.87622833251953 8.473472595214844 19.33542633056641 11.53517150878906 15.43529510498047 15.435302734375 C 11.53517150878906 19.33543395996094 8.473464965820312 23.87622833251953 6.335227966308594 28.93160247802734 C 4.122123718261719 34.16394424438477 3 39.72381591796875 3 45.4572868347168 C 3 51.19024658203125 4.122123718261719 56.75011825561523 6.335227966308594 61.98246002197266 C 8.473464965820312 67.03782653808594 11.53517150878906 71.57862854003906 15.43529510498047 75.478759765625 C 19.33542633056641 79.37889099121094 23.87622833251953 82.44058990478516 28.93159484863281 84.57883453369141 C 34.1639404296875 86.79193115234375 39.72381210327148 87.9140625 45.45676803588867 87.9140625 C 51.18972396850586 87.9140625 56.74959564208984 86.79193115234375 61.98194122314453 84.57883453369141 C 67.03730773925781 82.44058990478516 71.57810974121094 79.37889099121094 75.47824096679688 75.478759765625 C 79.37837219238281 71.57862854003906 82.44007110595703 67.03782653808594 84.57830810546875 61.98246002197266 C 86.79141235351562 56.75011825561523 87.91353607177734 51.19024658203125 87.91353607177734 45.4567756652832 C 87.91353607177734 39.72381591796875 86.79141235351562 34.16394424438477 84.57830810546875 28.93160247802734 C 82.44007110595703 23.87622833251953 79.37837219238281 19.33543395996094 75.47824096679688 15.435302734375 C 71.57810974121094 11.53517150878906 67.03730773925781 8.473472595214844 61.98194122314453 6.335227966308594 C 56.74959564208984 4.12213134765625 51.18972396850586 3 45.45676803588867 3 M 45.45676803588867 0 C 70.56185150146484 0 90.91353607177734 20.35169219970703 90.91353607177734 45.4567756652832 L 90.91353607177734 45.4572868347168 C 90.91353607177734 70.5623779296875 70.56185150146484 90.9140625 45.45676803588867 90.9140625 C 20.3516845703125 90.9140625 0 70.5623779296875 0 45.4572868347168 L 0 45.4567756652832 C 0 20.35169219970703 20.3516845703125 0 45.45676803588867 0 Z" stroke="none" fill="#fff"/>
            </g>
          </g>
        </g>
      </g>
    </g>
    <g id="Grupo_1179867" data-name="Grupo 1179867" transform="translate(610.561 527.003)">
      <g id="Grupo_1179865" data-name="Grupo 1179865" transform="translate(0.948 53.168)">
        <g id="Grupo_1179864" data-name="Grupo 1179864" transform="translate(0 0)">
          <path id="Trazado_1046198" data-name="Trazado 1046198" d="M69.533,123.36v39.331a2.062,2.062,0,0,1-2.062,2.062l-1.544.2H9.562A2.062,2.062,0,0,1,7.5,162.886V126.395l.83-3.035Z" transform="translate(-7.5 -115.313)" fill="#a8d3d8"/>
          <path id="Trazado_1046199" data-name="Trazado 1046199" d="M70.34,109.223v39.526a2.062,2.062,0,0,1-2.062,2.062H65.5a2.062,2.062,0,0,0,2.062-2.062V114.786a2.529,2.529,0,0,0-2.529-2.529H7.5v-3.035l34.122-2.046Z" transform="translate(-7.5 -101.177)" fill="#8ebac5"/>
          <path id="Trazado_1046200" data-name="Trazado 1046200" d="M69.961,62.061l-.107,5.194-3.054.511H7.5V61.782A2.062,2.062,0,0,1,9.562,59.72h55.7L67.9,60A2.062,2.062,0,0,1,69.961,62.061Z" transform="translate(-7.5 -59.72)" fill="#947df6"/>
          <path id="Trazado_1046201" data-name="Trazado 1046201" d="M465.793,61.782v5.984h-3.54V61.782a2.062,2.062,0,0,0-2.062-2.062h3.54A2.062,2.062,0,0,1,465.793,61.782Z" transform="translate(-402.952 -59.72)" fill="#8769ef"/>
        </g>
      </g>
      <g id="Grupo_1179866" data-name="Grupo 1179866" transform="translate(0 52.22)">
        <path id="Trazado_1046202" data-name="Trazado 1046202" d="M63.789,91.206a.948.948,0,0,0,.948-.948V55.231A3.012,3.012,0,0,0,61.73,52.22H3.007A3.012,3.012,0,0,0,0,55.231v45.511a3.012,3.012,0,0,0,3.007,3.011H61.73a3.012,3.012,0,0,0,3.007-3.011V94.683a.948.948,0,1,0-1.9,0v6.058a1.113,1.113,0,0,1-1.11,1.114H3.007a1.113,1.113,0,0,1-1.11-1.114V62.163H31.359a.948.948,0,0,0,0-1.9H1.9V55.231a1.113,1.113,0,0,1,1.11-1.114H61.73a1.113,1.113,0,0,1,1.11,1.114v5.036H35.785a.948.948,0,1,0,0,1.9H62.84V90.258A.948.948,0,0,0,63.789,91.206Z" transform="translate(0 -52.22)"/>
        <path id="Trazado_1046203" data-name="Trazado 1046203" d="M356.064,182.958l.383-2.116.618,2.1a1.111,1.111,0,0,0,2.134-.01l.6-2.1.409,2.133a.948.948,0,0,0,1.863-.357l-1.036-5.406a1.105,1.105,0,0,0-2.149-.094l-.764,2.688-.794-2.7a1.105,1.105,0,0,0-2.148.115l-.978,5.4a.948.948,0,1,0,1.866.338Z" transform="translate(-309.399 -160.618)"/>
        <path id="Trazado_1046204" data-name="Trazado 1046204" d="M440.552,181.841h-.991v-4.584a.948.948,0,0,0-1.9,0v5.533a.948.948,0,0,0,.948.948h1.939a.948.948,0,1,0,0-1.9Z" transform="translate(-382.327 -160.618)"/>
        <path id="Trazado_1046205" data-name="Trazado 1046205" d="M228.687,176.308a.948.948,0,0,0-.948.948v5.533a.948.948,0,1,0,1.9,0v-1.913h1.932v1.913a.948.948,0,1,0,1.9,0v-5.533a.948.948,0,0,0-1.9,0v1.723h-1.932v-1.723A.948.948,0,0,0,228.687,176.308Z" transform="translate(-198.944 -160.618)"/>
        <path id="Trazado_1046206" data-name="Trazado 1046206" d="M296.49,183.738a.948.948,0,0,0,.948-.948v-4.584h.586a.948.948,0,0,0,0-1.9h-3.055a.948.948,0,1,0,0,1.9h.573v4.584A.948.948,0,0,0,296.49,183.738Z" transform="translate(-256.844 -160.619)"/>
        <path id="Trazado_1046207" data-name="Trazado 1046207" d="M48.962,176.586a.948.948,0,0,0-1.341,0l-3.343,3.343a.948.948,0,0,0,0,1.341l3.343,3.343a.948.948,0,1,0,1.341-1.341L46.29,180.6l2.673-2.673A.948.948,0,0,0,48.962,176.586Z" transform="translate(-38.437 -160.619)"/>
        <path id="Trazado_1046208" data-name="Trazado 1046208" d="M426.837,339.757a.948.948,0,0,0,1.341,0l3.343-3.343a.948.948,0,0,0,0-1.341l-3.343-3.343a.948.948,0,1,0-1.341,1.341l2.673,2.673-2.673,2.673A.948.948,0,0,0,426.837,339.757Z" transform="translate(-372.626 -296.146)"/>
        <path id="Trazado_1046209" data-name="Trazado 1046209" d="M113.935,177.707H103.551a.948.948,0,1,0,0,1.9h10.384a.948.948,0,0,0,0-1.9Z" transform="translate(-89.63 -161.84)"/>
        <path id="Trazado_1046210" data-name="Trazado 1046210" d="M165.1,231.085a.948.948,0,1,0,0-1.9h-2.979a.948.948,0,1,0,0,1.9Z" transform="translate(-140.792 -206.812)"/>
        <path id="Trazado_1046211" data-name="Trazado 1046211" d="M103.548,231.085h2.98a.948.948,0,1,0,0-1.9h-2.98a.948.948,0,1,0,0,1.9Z" transform="translate(-89.627 -206.812)"/>
        <path id="Trazado_1046212" data-name="Trazado 1046212" d="M139.2,280.668h-8.885a.948.948,0,0,0,0,1.9H139.2a.948.948,0,1,0,0-1.9Z" transform="translate(-113.013 -251.783)"/>
        <path id="Trazado_1046213" data-name="Trazado 1046213" d="M409.213,280.668h-6.475a.948.948,0,0,0,0,1.9h6.475a.948.948,0,0,0,0-1.9Z" transform="translate(-350.988 -251.783)"/>
        <path id="Trazado_1046214" data-name="Trazado 1046214" d="M253.246,281.616a.948.948,0,0,0-.948-.948H235.588a.948.948,0,0,0,0,1.9H252.3A.948.948,0,0,0,253.246,281.616Z" transform="translate(-204.972 -251.783)"/>
        <path id="Trazado_1046215" data-name="Trazado 1046215" d="M44.948,280.668a.948.948,0,0,0,0,1.9h6.369a.948.948,0,0,0,0-1.9Z" transform="translate(-38.437 -251.783)"/>
        <path id="Trazado_1046216" data-name="Trazado 1046216" d="M302.79,333.1a.948.948,0,0,0-.948-.948h-7.873a.948.948,0,1,0,0,1.9h7.874A.948.948,0,0,0,302.79,333.1Z" transform="translate(-255.971 -296.754)"/>
        <path id="Trazado_1046217" data-name="Trazado 1046217" d="M55.3,333.1a.948.948,0,0,0-.948-.948h-9.4a.948.948,0,0,0,0,1.9h9.4A.948.948,0,0,0,55.3,333.1Z" transform="translate(-38.437 -296.754)"/>
        <path id="Trazado_1046218" data-name="Trazado 1046218" d="M153.36,333.1a.948.948,0,0,0,.948.948h13.233a.948.948,0,0,0,0-1.9H154.308A.948.948,0,0,0,153.36,333.1Z" transform="translate(-133.969 -296.754)"/>
        <path id="Trazado_1046219" data-name="Trazado 1046219" d="M125.638,385.525h20.205a.948.948,0,1,0,0-1.9H125.638a.948.948,0,0,0,0,1.9Z" transform="translate(-108.924 -341.725)"/>
        <path id="Trazado_1046220" data-name="Trazado 1046220" d="M320.438,383.628a.948.948,0,1,0,0,1.9h2.756a.948.948,0,1,0,0-1.9Z" transform="translate(-279.094 -341.725)"/>
        <path id="Trazado_1046221" data-name="Trazado 1046221" d="M44.948,383.628a.948.948,0,0,0,0,1.9h5.777a.948.948,0,0,0,0-1.9Z" transform="translate(-38.437 -341.725)"/>
        <path id="Trazado_1046222" data-name="Trazado 1046222" d="M381.94,321.146a.95.95,0,0,0,1.143-.7l2.248-9.416a.948.948,0,0,0-1.845-.441L381.237,320A.948.948,0,0,0,381.94,321.146Z" transform="translate(-333.011 -277.283)"/>
        <circle id="Elipse_11876" data-name="Elipse 11876" cx="0.948" cy="0.948" r="0.948" transform="translate(4.371 4.023)"/>
        <circle id="Elipse_11877" data-name="Elipse 11877" cx="0.948" cy="0.948" r="0.948" transform="translate(8.685 4.023)"/>
        <circle id="Elipse_11878" data-name="Elipse 11878" cx="0.948" cy="0.948" r="0.948" transform="translate(12.999 4.023)"/>
      </g>
    </g>
  </g>
</svg>
