<svg xmlns="http://www.w3.org/2000/svg" width="73" height="73" viewBox="0 0 73 73">
  <g id="Grupo_1179963" data-name="Grupo 1179963" transform="translate(-612.051 -9926)">
    <g id="Elipse_11813" data-name="Elipse 11813" transform="translate(612.051 9926)" fill="#fcf3aa" stroke="#f8e32a" stroke-width="3">
      <circle cx="36.5" cy="36.5" r="36.5" stroke="none"/>
      <circle cx="36.5" cy="36.5" r="35" fill="none"/>
    </g>
    <g id="Grupo_1179962" data-name="Grupo 1179962" transform="translate(623.551 9937.5)">
      <path id="Trazado_1046744" data-name="Trazado 1046744" d="M8,6H38.353V26.235H8Z" transform="translate(6.882 3.823)" fill="#ccc"/>
      <path id="Trazado_1046745" data-name="Trazado 1046745" d="M8.031,14H38.383v5.059l-6.6,4.4a1.25,1.25,0,0,1-1.72-.3L27.76,20.1a1.265,1.265,0,0,0-1.8-.228l-4.679,3.743a1.327,1.327,0,0,1-1.366.152L16.4,21.993a1.273,1.273,0,0,0-1.467.228L7.98,29.176V14Z" transform="translate(6.852 16.059)" fill="#333"/>
      <path id="Trazado_1046746" data-name="Trazado 1046746" d="M4,9.059V6.529A2.537,2.537,0,0,1,6.529,4H41.941A2.537,2.537,0,0,1,44.47,6.529V9.059Z" transform="translate(0.765 0.765)" fill="#3ae4de"/>
      <path id="Trazado_1046747" data-name="Trazado 1046747" d="M6.529,41.411A2.537,2.537,0,0,1,4,38.882V6H14.118V41.411Z" transform="translate(0.765 3.823)" fill="#f2f2f2"/>
      <path id="Trazado_1046748" data-name="Trazado 1046748" d="M8,26.118l6.956-6.956a1.261,1.261,0,0,1,1.467-.228L19.939,20.7a1.274,1.274,0,0,0,1.366-.152l4.679-3.743a1.241,1.241,0,0,1,1.8.228l2.3,3.061a1.3,1.3,0,0,0,1.72.3L38.4,16v7.588a2.537,2.537,0,0,1-2.529,2.529Z" transform="translate(6.882 19.117)" fill="#333"/>
      <path id="Trazado_1046749" data-name="Trazado 1046749" d="M16,8v5.059l3.592,3.592a5.417,5.417,0,0,0,1.467-3.592A5.089,5.089,0,0,0,16,8Z" transform="translate(19.117 6.882)" fill="#ff3446"/>
      <path id="Trazado_1046750" data-name="Trazado 1046750" d="M19.059,8A5.089,5.089,0,0,0,14,13.059a5.14,5.14,0,0,0,5.059,5.059,5.416,5.416,0,0,0,3.592-1.467l-3.592-3.592Z" transform="translate(16.059 6.882)" fill="#ffdc00"/>
      <path id="Trazado_1046751" data-name="Trazado 1046751" d="M8.765,28.166a1.186,1.186,0,0,1-.885-.379,1.252,1.252,0,0,1,0-1.8l6.956-6.956a2.549,2.549,0,0,1,2.909-.481l3.516,1.771,4.679-3.743a2.549,2.549,0,0,1,1.9-.531,2.5,2.5,0,0,1,1.695.986l2.3,3.061,6.6-4.4a1.259,1.259,0,0,1,1.391,2.1l-6.6,4.4a2.533,2.533,0,0,1-3.415-.582l-2.3-3.061L22.828,22.3a2.517,2.517,0,0,1-2.706.278l-3.516-1.771L9.65,27.761a1.27,1.27,0,0,1-.885.379Z" transform="translate(6.118 18.334)" fill="#21ce62"/>
      <path id="Trazado_1046752" data-name="Trazado 1046752" d="M46.5,42.705A3.789,3.789,0,0,1,42.705,46.5H7.294A3.789,3.789,0,0,1,3.5,42.705V7.294A3.789,3.789,0,0,1,7.294,3.5H42.705A3.789,3.789,0,0,1,46.5,7.294ZM7.294,6.029A1.252,1.252,0,0,0,6.029,7.294V42.705A1.252,1.252,0,0,0,7.294,43.97H42.705a1.252,1.252,0,0,0,1.265-1.265V7.294a1.252,1.252,0,0,0-1.265-1.265Z" transform="translate(0 0)"/>
      <path id="Trazado_1046753" data-name="Trazado 1046753" d="M45.235,8.029H4.765a1.265,1.265,0,0,1,0-2.529h40.47a1.265,1.265,0,1,1,0,2.529Z" transform="translate(0 3.059)"/>
      <path id="Trazado_1046754" data-name="Trazado 1046754" d="M8.765,43.441A1.252,1.252,0,0,1,7.5,42.176V6.765a1.265,1.265,0,0,1,2.529,0V42.176A1.252,1.252,0,0,1,8.765,43.441Z" transform="translate(6.118 3.059)"/>
      <path id="Trazado_1046755" data-name="Trazado 1046755" d="M40.382,14.765a1.252,1.252,0,0,1-1.265,1.265H8.765a1.265,1.265,0,0,1,0-2.529H39.117A1.252,1.252,0,0,1,40.382,14.765Z" transform="translate(6.118 15.294)"/>
      <path id="Trazado_1046756" data-name="Trazado 1046756" d="M15.823,10.029H10.765a1.265,1.265,0,0,1,0-2.529h5.059a1.265,1.265,0,0,1,0,2.529Z" transform="translate(9.176 6.118)"/>
      <path id="Trazado_1046757" data-name="Trazado 1046757" d="M15.823,12.029H10.765a1.265,1.265,0,0,1,0-2.529h5.059a1.265,1.265,0,0,1,0,2.529Z" transform="translate(9.176 9.176)"/>
      <path id="Trazado_1046758" data-name="Trazado 1046758" d="M15.823,14.029H10.765a1.265,1.265,0,0,1,0-2.529h5.059a1.265,1.265,0,0,1,0,2.529Z" transform="translate(9.176 12.235)"/>
      <path id="Trazado_1046759" data-name="Trazado 1046759" d="M19.823,20.147a6.323,6.323,0,1,1,6.323-6.323A6.326,6.326,0,0,1,19.823,20.147Zm0-10.118a3.794,3.794,0,1,0,3.794,3.794A3.789,3.789,0,0,0,19.823,10.029Z" transform="translate(15.294 6.118)"/>
      <path id="Trazado_1046760" data-name="Trazado 1046760" d="M19.294,17.618a1.186,1.186,0,0,1-.885-.379l-2.529-2.529a1.288,1.288,0,0,1-.379-.885V8.765a1.265,1.265,0,0,1,2.529,0v4.528l2.15,2.15a1.252,1.252,0,0,1,0,1.8A1.27,1.27,0,0,1,19.294,17.618Z" transform="translate(18.353 6.118)"/>
    </g>
  </g>
</svg>
