<svg xmlns="http://www.w3.org/2000/svg" xmlns:xlink="http://www.w3.org/1999/xlink" width="236" height="247" viewBox="0 0 236 247">
  <defs>
    <clipPath id="clip-path">
      <path id="Trazado_1045503" data-name="Trazado 1045503" d="M524.2,1872.491H512.419a5,5,0,0,1-4.712-5.242h11.777A5,5,0,0,0,524.2,1872.491Z" transform="translate(-507.707 -1867.249)" fill="#c59626"/>
    </clipPath>
    <clipPath id="clip-path-2">
      <path id="Trazado_1045508" data-name="Trazado 1045508" d="M519.484,1217.7H507.707a5,5,0,0,1,4.712-5.243H524.2A5,5,0,0,0,519.484,1217.7Z" transform="translate(-507.707 -1212.457)" fill="#c59626"/>
    </clipPath>
  </defs>
  <g id="Grupo_1179699" data-name="Grupo 1179699" transform="translate(-312.051 -1001)">
    <rect id="Rectángulo_406165" data-name="Rectángulo 406165" width="236" height="247" rx="15" transform="translate(312.051 1001)" fill="#41484b"/>
    <g id="Grupo_1179646" data-name="Grupo 1179646" transform="translate(243.364 938.159)">
      <g id="background" transform="translate(78.686 76.841)">
        <g id="Grupo_1179684" data-name="Grupo 1179684" transform="translate(0)">
          <g id="Grupo_1179646-2" data-name="Grupo 1179646" opacity="0.5">
            <ellipse id="Elipse_11829" data-name="Elipse 11829" cx="108.352" cy="108.352" rx="108.352" ry="108.352" fill="#f2f2f2"/>
            <circle id="Elipse_11830" data-name="Elipse 11830" cx="89.429" cy="89.429" r="89.429" transform="translate(18.923 18.923)" fill="#f7f6f5"/>
            <circle id="Elipse_11831" data-name="Elipse 11831" cx="71.211" cy="71.211" r="71.211" transform="translate(37.141 37.141)" fill="#f9f9f9"/>
          </g>
          <ellipse id="Elipse_11832" data-name="Elipse 11832" cx="58.323" cy="3.593" rx="58.323" ry="3.593" transform="translate(42.818 211.046)" fill="#ddd"/>
          <g id="Grupo_1179650" data-name="Grupo 1179650" transform="translate(102.151 11.698)">
            <g id="Grupo_1179648" data-name="Grupo 1179648">
              <g id="Grupo_1179647" data-name="Grupo 1179647">
                <path id="Trazado_1045488" data-name="Trazado 1045488" d="M953.76,182.041V225.1a4.023,4.023,0,0,0,4.284,3.7h69.34a4.023,4.023,0,0,0,4.285-3.7v-43.06a4.023,4.023,0,0,0-4.285-3.7h-69.34a4.144,4.144,0,0,0-4.232,3.114A3.242,3.242,0,0,0,953.76,182.041Z" transform="translate(-953.567 -178.172)" fill="#fff"/>
                <path id="Trazado_1045489" data-name="Trazado 1045489" d="M952.162,180.125a4.311,4.311,0,0,1,4.422-3.259h69.34c2.47,0,4.478,1.735,4.478,3.869V223.8c0,2.134-2.008,3.869-4.478,3.869h-69.34c-2.469,0-4.477-1.735-4.477-3.869v-43.06A3.453,3.453,0,0,1,952.162,180.125Zm.332,43.67a3.843,3.843,0,0,0,4.09,3.523h69.34a3.843,3.843,0,0,0,4.091-3.523v-43.06a3.843,3.843,0,0,0-4.091-3.523h-69.34a3.935,3.935,0,0,0-4.04,2.969,3.116,3.116,0,0,0-.05.555Z" transform="translate(-952.107 -176.866)" fill="#cecece"/>
              </g>
              <path id="Trazado_1045490" data-name="Trazado 1045490" d="M952.107,181.378v1.252h78.3v-1.252a4.5,4.5,0,0,0-4.478-4.512h-69.34a4.466,4.466,0,0,0-4.422,3.8A4.678,4.678,0,0,0,952.107,181.378Z" transform="translate(-952.107 -176.866)" fill="#cecece"/>
              <ellipse id="Elipse_11833" data-name="Elipse 11833" cx="1.363" cy="1.371" rx="1.363" ry="1.371" transform="translate(16.1 1.751)" fill="#e6af2e"/>
              <ellipse id="Elipse_11834" data-name="Elipse 11834" cx="1.363" cy="1.371" rx="1.363" ry="1.371" transform="translate(9.583 1.751)" fill="#fff"/>
              <ellipse id="Elipse_11835" data-name="Elipse 11835" cx="1.363" cy="1.371" rx="1.363" ry="1.371" transform="translate(3.201 1.751)" fill="#eaeaea"/>
            </g>
            <rect id="Rectángulo_406398" data-name="Rectángulo 406398" width="34.763" height="3.629" transform="translate(15.708 10.281)" fill="#262423"/>
            <rect id="Rectángulo_406399" data-name="Rectángulo 406399" width="22.68" height="3.629" transform="translate(51.968 10.281)" fill="#e6af2e"/>
            <rect id="Rectángulo_406400" data-name="Rectángulo 406400" width="25.349" height="3.629" transform="translate(20.132 16.728)" fill="#e6af2e"/>
            <rect id="Rectángulo_406401" data-name="Rectángulo 406401" width="27.77" height="3.629" transform="translate(46.878 16.728)" fill="#262423"/>
            <rect id="Rectángulo_406402" data-name="Rectángulo 406402" width="19.556" height="3.629" transform="translate(4.069 23.175)" fill="#262423"/>
            <rect id="Rectángulo_406403" data-name="Rectángulo 406403" width="33.758" height="3.629" transform="translate(40.89 23.175)" fill="#e6af2e"/>
            <rect id="Rectángulo_406404" data-name="Rectángulo 406404" width="14.597" height="3.629" transform="translate(24.897 23.175)" fill="#ededed"/>
            <rect id="Rectángulo_406405" data-name="Rectángulo 406405" width="14.111" height="3.629" transform="translate(14.504 29.622)" fill="#262423"/>
            <rect id="Rectángulo_406406" data-name="Rectángulo 406406" width="38.551" height="3.629" transform="translate(29.813 29.622)" fill="#e6af2e"/>
            <rect id="Rectángulo_406407" data-name="Rectángulo 406407" width="28.64" height="3.629" transform="translate(4.166 36.2)" fill="#ededed"/>
            <rect id="Rectángulo_406408" data-name="Rectángulo 406408" width="32.23" height="3.629" transform="translate(34.104 36.2)" fill="#e6af2e"/>
            <rect id="Rectángulo_406409" data-name="Rectángulo 406409" width="32.929" height="3.629" transform="translate(4.069 42.779)" fill="#e6af2e"/>
            <rect id="Rectángulo_406410" data-name="Rectángulo 406410" width="20.884" height="3.629" transform="translate(53.764 42.779)" fill="#262423"/>
            <rect id="Rectángulo_406411" data-name="Rectángulo 406411" width="14.597" height="3.629" transform="translate(38.183 42.779)" fill="#ededed"/>
            <rect id="Rectángulo_406412" data-name="Rectángulo 406412" width="6.743" height="3.629" transform="translate(67.483 36.2)" fill="#262423"/>
            <g id="Grupo_1179649" data-name="Grupo 1179649" transform="translate(4.454 9.51)">
              <path id="Trazado_1045491" data-name="Trazado 1045491" d="M993.245,264.663l-3.056-1.268v-.8l3.056-1.27v.954l-1.857.716,1.857.716Z" transform="translate(-990.189 -260.96)" fill="#e6af2e"/>
              <path id="Trazado_1045492" data-name="Trazado 1045492" d="M1019.8,258.18h.558l-.99,4.074h-.553Z" transform="translate(-1015.471 -258.18)" fill="#e6af2e"/>
              <path id="Trazado_1045493" data-name="Trazado 1045493" d="M1034.354,263.714l1.857-.716-1.857-.716v-.954l3.055,1.27v.8l-3.055,1.268Z" transform="translate(-1029.189 -260.96)" fill="#e6af2e"/>
            </g>
          </g>
          <g id="Grupo_1179653" data-name="Grupo 1179653" transform="translate(9.455 19.22)">
            <g id="Grupo_1179652" data-name="Grupo 1179652">
              <g id="Grupo_1179651" data-name="Grupo 1179651">
                <path id="Trazado_1045494" data-name="Trazado 1045494" d="M161.246,253.36V354.7c0,4.8,2,8.7,4.457,8.7H237.83c2.461,0,4.457-3.894,4.457-8.7V253.36c0-4.8-2-8.7-4.457-8.7H165.7c-2.222,0-4.065,3.174-4.4,7.328Q161.247,252.66,161.246,253.36Z" transform="translate(-161.045 -244.255)" fill="#fff"/>
                <path id="Trazado_1045495" data-name="Trazado 1045495" d="M159.583,248.852c.361-4.444,2.3-7.67,4.6-7.67h72.127c2.569,0,4.658,4.084,4.658,9.105V351.624c0,5.021-2.089,9.105-4.658,9.105H164.183c-2.568,0-4.657-4.084-4.657-9.105V250.287C159.526,249.81,159.545,249.327,159.583,248.852Zm.345,102.773c0,4.572,1.909,8.292,4.255,8.292h72.127c2.347,0,4.256-3.719,4.256-8.292V250.287c0-4.572-1.909-8.292-4.256-8.292H164.183c-2.107,0-3.875,2.938-4.2,6.986-.035.433-.052.871-.052,1.305Z" transform="translate(-159.526 -241.182)" fill="#b7b7b7"/>
              </g>
              <path id="Trazado_1045496" data-name="Trazado 1045496" d="M159.526,247.384V249.1h81.443v-1.721c0-3.42-2.089-6.2-4.658-6.2H164.183c-2.3,0-4.24,2.2-4.6,5.224A8.475,8.475,0,0,0,159.526,247.384Z" transform="translate(-159.526 -241.182)" fill="#b7b7b7"/>
              <ellipse id="Elipse_11836" data-name="Elipse 11836" cx="1.873" cy="1.884" rx="1.873" ry="1.884" transform="translate(21.287 2.406)" fill="#e6af2e"/>
              <ellipse id="Elipse_11837" data-name="Elipse 11837" cx="1.873" cy="1.884" rx="1.873" ry="1.884" transform="translate(12.33 2.406)" fill="#fff"/>
              <ellipse id="Elipse_11838" data-name="Elipse 11838" cx="1.873" cy="1.884" rx="1.873" ry="1.884" transform="translate(3.559 2.406)" fill="#eaeaea"/>
            </g>
            <rect id="Rectángulo_406413" data-name="Rectángulo 406413" width="34.763" height="3.629" transform="translate(71.085 17.076) rotate(180)" fill="#262423"/>
            <rect id="Rectángulo_406414" data-name="Rectángulo 406414" width="22.68" height="3.629" transform="translate(34.824 17.076) rotate(180)" fill="#e6af2e"/>
            <rect id="Rectángulo_406415" data-name="Rectángulo 406415" width="27.77" height="3.629" transform="translate(39.914 24.614) rotate(180)" fill="#262423"/>
            <rect id="Rectángulo_406416" data-name="Rectángulo 406416" width="27.77" height="3.629" transform="translate(39.914 62.299) rotate(180)" fill="#262423"/>
            <rect id="Rectángulo_406417" data-name="Rectángulo 406417" width="33.758" height="3.629" transform="translate(45.902 32.177) rotate(180)" fill="#e6af2e"/>
            <circle id="Elipse_11839" data-name="Elipse 11839" cx="1.736" cy="1.736" r="1.736" transform="translate(4.768 13.526)" fill="#2d2a29"/>
            <circle id="Elipse_11840" data-name="Elipse 11840" cx="1.736" cy="1.736" r="1.736" transform="translate(4.768 21.063)" fill="#2d2a29"/>
            <circle id="Elipse_11841" data-name="Elipse 11841" cx="1.736" cy="1.736" r="1.736" transform="translate(4.768 28.6)" fill="#2d2a29"/>
            <rect id="Rectángulo_406418" data-name="Rectángulo 406418" width="34.763" height="3.629" transform="translate(71.085 92.682) rotate(180)" fill="#262423"/>
            <rect id="Rectángulo_406419" data-name="Rectángulo 406419" width="22.68" height="3.629" transform="translate(34.824 92.682) rotate(180)" fill="#e6af2e"/>
            <rect id="Rectángulo_406420" data-name="Rectángulo 406420" width="27.77" height="3.629" transform="translate(39.914 100.219) rotate(180)" fill="#262423"/>
            <rect id="Rectángulo_406421" data-name="Rectángulo 406421" width="33.758" height="3.629" transform="translate(45.902 107.782) rotate(180)" fill="#e6af2e"/>
            <circle id="Elipse_11842" data-name="Elipse 11842" cx="1.736" cy="1.736" r="1.736" transform="translate(4.768 89.131)" fill="#2d2a29"/>
            <circle id="Elipse_11843" data-name="Elipse 11843" cx="1.736" cy="1.736" r="1.736" transform="translate(4.768 96.669)" fill="#2d2a29"/>
            <circle id="Elipse_11844" data-name="Elipse 11844" cx="1.736" cy="1.736" r="1.736" transform="translate(4.768 104.206)" fill="#2d2a29"/>
            <circle id="Elipse_11845" data-name="Elipse 11845" cx="1.736" cy="1.736" r="1.736" transform="translate(4.768 36.137)" fill="#2d2a29"/>
            <circle id="Elipse_11846" data-name="Elipse 11846" cx="1.736" cy="1.736" r="1.736" transform="translate(4.768 58.748)" fill="#2d2a29"/>
            <circle id="Elipse_11847" data-name="Elipse 11847" cx="1.736" cy="1.736" r="1.736" transform="translate(4.768 66.397)" fill="#2d2a29"/>
            <rect id="Rectángulo_406422" data-name="Rectángulo 406422" width="19.556" height="3.629" transform="translate(70.892 39.744) rotate(180)" fill="#262423"/>
            <rect id="Rectángulo_406423" data-name="Rectángulo 406423" width="19.831" height="3.629" transform="translate(32.044 39.744) rotate(180)" fill="#e6af2e"/>
            <rect id="Rectángulo_406424" data-name="Rectángulo 406424" width="14.597" height="3.629" transform="translate(50.064 39.744) rotate(180)" fill="#ededed"/>
            <rect id="Rectángulo_406425" data-name="Rectángulo 406425" width="14.111" height="3.629" transform="translate(66.003 47.307) rotate(180)" fill="#262423"/>
            <rect id="Rectángulo_406426" data-name="Rectángulo 406426" width="38.551" height="3.629" transform="translate(50.695 47.307) rotate(180)" fill="#e6af2e"/>
            <rect id="Rectángulo_406427" data-name="Rectángulo 406427" width="6.743" height="3.629" transform="translate(18.887 55.002) rotate(180)" fill="#e6af2e"/>
            <rect id="Rectángulo_406428" data-name="Rectángulo 406428" width="30.592" height="3.629" transform="translate(12.144 66.318)" fill="#e6af2e"/>
            <rect id="Rectángulo_406429" data-name="Rectángulo 406429" width="19.401" height="3.629" transform="translate(58.312 66.318)" fill="#262423"/>
            <rect id="Rectángulo_406430" data-name="Rectángulo 406430" width="13.56" height="3.629" transform="translate(43.837 66.318)" fill="#ededed"/>
            <rect id="Rectángulo_406431" data-name="Rectángulo 406431" width="25.349" height="3.629" transform="translate(37.493 84.912) rotate(180)" fill="#e6af2e"/>
            <rect id="Rectángulo_406432" data-name="Rectángulo 406432" width="19.556" height="3.629" transform="translate(47.568 77.349) rotate(180)" fill="#262423"/>
            <rect id="Rectángulo_406433" data-name="Rectángulo 406433" width="14.597" height="3.629" transform="translate(26.741 77.349) rotate(180)" fill="#ededed"/>
          </g>
          <g id="Grupo_1179656" data-name="Grupo 1179656" transform="translate(128.414 73.427)">
            <g id="Grupo_1179655" data-name="Grupo 1179655">
              <g id="Grupo_1179654" data-name="Grupo 1179654">
                <path id="Trazado_1045497" data-name="Trazado 1045497" d="M1178.336,711.1v53.534a4.47,4.47,0,0,0,4.333,4.6H1252.8a4.47,4.47,0,0,0,4.333-4.6V711.1a4.47,4.47,0,0,0-4.333-4.595h-70.129a4.42,4.42,0,0,0-4.28,3.871A4.968,4.968,0,0,0,1178.336,711.1Z" transform="translate(-1178.14 -706.288)" fill="#fff"/>
                <path id="Trazado_1045498" data-name="Trazado 1045498" d="M1176.719,708.716a4.6,4.6,0,0,1,4.473-4.052h70.129a4.681,4.681,0,0,1,4.529,4.81v53.533a4.681,4.681,0,0,1-4.529,4.81h-70.129a4.681,4.681,0,0,1-4.528-4.81V709.474A5.258,5.258,0,0,1,1176.719,708.716Zm.336,54.292a4.269,4.269,0,0,0,4.137,4.38h70.129a4.269,4.269,0,0,0,4.138-4.38V709.474a4.269,4.269,0,0,0-4.138-4.38h-70.129a4.193,4.193,0,0,0-4.086,3.691,4.743,4.743,0,0,0-.051.69Z" transform="translate(-1176.664 -704.664)" fill="#cecece"/>
              </g>
              <path id="Trazado_1045499" data-name="Trazado 1045499" d="M1176.664,709.228v1.266h79.186v-1.266a4.551,4.551,0,0,0-4.529-4.564h-70.129a4.517,4.517,0,0,0-4.473,3.844A4.738,4.738,0,0,0,1176.664,709.228Z" transform="translate(-1176.664 -704.664)" fill="#cecece"/>
              <ellipse id="Elipse_11848" data-name="Elipse 11848" cx="1.378" cy="1.387" rx="1.378" ry="1.387" transform="translate(16.283 1.771)" fill="#e6af2e"/>
              <ellipse id="Elipse_11849" data-name="Elipse 11849" cx="1.378" cy="1.387" rx="1.378" ry="1.387" transform="translate(9.692 1.771)" fill="#fff"/>
              <ellipse id="Elipse_11850" data-name="Elipse 11850" cx="1.378" cy="1.387" rx="1.378" ry="1.387" transform="translate(3.238 1.771)" fill="#eaeaea"/>
            </g>
            <rect id="Rectángulo_406434" data-name="Rectángulo 406434" width="27.77" height="3.629" transform="translate(40.586 43.64) rotate(180)" fill="#262423"/>
            <rect id="Rectángulo_406435" data-name="Rectángulo 406435" width="33.758" height="3.629" transform="translate(46.574 13.518) rotate(180)" fill="#e6af2e"/>
            <circle id="Elipse_11851" data-name="Elipse 11851" cx="1.736" cy="1.736" r="1.736" transform="translate(5.44 9.942)" fill="#2d2a29"/>
            <circle id="Elipse_11852" data-name="Elipse 11852" cx="1.736" cy="1.736" r="1.736" transform="translate(5.44 17.479)" fill="#2d2a29"/>
            <circle id="Elipse_11853" data-name="Elipse 11853" cx="1.736" cy="1.736" r="1.736" transform="translate(5.44 40.09)" fill="#2d2a29"/>
            <circle id="Elipse_11854" data-name="Elipse 11854" cx="1.736" cy="1.736" r="1.736" transform="translate(5.44 47.739)" fill="#2d2a29"/>
            <circle id="Elipse_11855" data-name="Elipse 11855" cx="1.736" cy="1.736" r="1.736" transform="translate(5.44 55.14)" fill="#2d2a29"/>
            <rect id="Rectángulo_406436" data-name="Rectángulo 406436" width="19.556" height="3.629" transform="translate(71.564 21.086) rotate(180)" fill="#262423"/>
            <rect id="Rectángulo_406437" data-name="Rectángulo 406437" width="19.831" height="3.629" transform="translate(32.716 21.086) rotate(180)" fill="#e6af2e"/>
            <rect id="Rectángulo_406438" data-name="Rectángulo 406438" width="14.597" height="3.629" transform="translate(50.736 21.086) rotate(180)" fill="#ededed"/>
            <rect id="Rectángulo_406439" data-name="Rectángulo 406439" width="8.527" height="3.629" transform="translate(68.685 28.649) rotate(180)" fill="#262423"/>
            <rect id="Rectángulo_406440" data-name="Rectángulo 406440" width="23.295" height="3.629" transform="translate(59.435 28.649) rotate(180)" fill="#e6af2e"/>
            <rect id="Rectángulo_406441" data-name="Rectángulo 406441" width="6.743" height="3.629" transform="translate(42.965 36.343) rotate(180)" fill="#e6af2e"/>
            <rect id="Rectángulo_406442" data-name="Rectángulo 406442" width="28.953" height="3.629" transform="translate(12.816 47.66)" fill="#e6af2e"/>
            <rect id="Rectángulo_406443" data-name="Rectángulo 406443" width="18.362" height="3.629" transform="translate(56.511 47.66)" fill="#262423"/>
            <rect id="Rectángulo_406444" data-name="Rectángulo 406444" width="12.834" height="3.629" transform="translate(42.811 47.66)" fill="#ededed"/>
            <rect id="Rectángulo_406445" data-name="Rectángulo 406445" width="19.556" height="3.629" transform="translate(59.482 58.69) rotate(180)" fill="#262423"/>
            <rect id="Rectángulo_406446" data-name="Rectángulo 406446" width="14.597" height="3.629" transform="translate(38.654 58.69) rotate(180)" fill="#ededed"/>
          </g>
          <g id="Grupo_1179669" data-name="Grupo 1179669" transform="translate(50.176 132.815)">
            <g id="Grupo_1179667" data-name="Grupo 1179667">
              <g id="Grupo_1179666" data-name="Grupo 1179666" style="isolation: isolate">
                <g id="Grupo_1179657" data-name="Grupo 1179657" transform="translate(4.712 0)">
                  <path id="Trazado_1045500" data-name="Trazado 1045500" d="M559.773,1212.457h0Z" transform="translate(-547.996 -1212.457)" fill="#c59626"/>
                </g>
                <g id="Grupo_1179660" data-name="Grupo 1179660" transform="translate(0 76.581)" style="isolation: isolate">
                  <path id="Trazado_1045501" data-name="Trazado 1045501" d="M524.2,1872.491H512.419a5,5,0,0,1-4.712-5.242h11.777A5,5,0,0,0,524.2,1872.491Z" transform="translate(-507.707 -1867.249)" fill="#c59626"/>
                  <g id="Grupo_1179659" data-name="Grupo 1179659" clip-path="url(#clip-path)">
                    <g id="Grupo_1179658" data-name="Grupo 1179658" style="isolation: isolate">
                      <path id="Trazado_1045502" data-name="Trazado 1045502" d="M524.2,1872.491H512.419a5,5,0,0,1-4.712-5.242h11.777a5,5,0,0,0,4.712,5.242" transform="translate(-507.707 -1867.249)" fill="#c59626"/>
                    </g>
                  </g>
                </g>
                <g id="Grupo_1179661" data-name="Grupo 1179661" transform="translate(0 5.243)">
                  <rect id="Rectángulo_406447" data-name="Rectángulo 406447" width="11.777" height="71.338" fill="#c59626"/>
                </g>
                <g id="Grupo_1179664" data-name="Grupo 1179664" style="isolation: isolate">
                  <path id="Trazado_1045504" data-name="Trazado 1045504" d="M519.484,1217.7H507.707a5,5,0,0,1,4.712-5.243H524.2A5,5,0,0,0,519.484,1217.7Z" transform="translate(-507.707 -1212.457)" fill="#c59626"/>
                  <g id="Grupo_1179663" data-name="Grupo 1179663" clip-path="url(#clip-path-2)">
                    <g id="Grupo_1179662" data-name="Grupo 1179662" style="isolation: isolate">
                      <path id="Trazado_1045505" data-name="Trazado 1045505" d="M519.484,1235.749H507.707a5.651,5.651,0,0,1,.758-2.852h11.777a5.651,5.651,0,0,0-.757,2.852" transform="translate(-507.707 -1230.506)" fill="#c59626"/>
                      <path id="Trazado_1045506" data-name="Trazado 1045506" d="M525.961,1222.308H514.184a5.079,5.079,0,0,1,1.2-1.4h11.777a5.08,5.08,0,0,0-1.2,1.4" transform="translate(-513.427 -1219.918)" fill="#c59626"/>
                      <path id="Trazado_1045507" data-name="Trazado 1045507" d="M536.225,1213.445H524.448a4.38,4.38,0,0,1,2.754-.988h11.777a4.38,4.38,0,0,0-2.754.988" transform="translate(-522.49 -1212.457)" fill="#c59626"/>
                    </g>
                  </g>
                </g>
                <g id="Grupo_1179665" data-name="Grupo 1179665" transform="translate(11.777)">
                  <path id="Trazado_1045509" data-name="Trazado 1045509" d="M691.944,1212.457a5,5,0,0,1,4.712,5.243v71.338a5,5,0,0,1-4.712,5.243H613.116a5,5,0,0,1-4.712-5.243V1217.7a5,5,0,0,1,4.712-5.243Z" transform="translate(-608.404 -1212.457)" fill="#e6af2e"/>
                </g>
              </g>
            </g>
            <g id="Grupo_1179668" data-name="Grupo 1179668" transform="translate(18.318 20.723)">
              <path id="Trazado_1045510" data-name="Trazado 1045510" d="M691.963,1448.275l-27.633-11.464V1429.6l27.633-11.483v8.632l-16.794,6.472,16.794,6.476Z" transform="translate(-664.33 -1414.785)" fill="#fff"/>
              <path id="Trazado_1045511" data-name="Trazado 1045511" d="M932.153,1389.646H937.2l-8.949,36.844h-5Z" transform="translate(-892.972 -1389.646)" fill="#fff"/>
              <path id="Trazado_1045512" data-name="Trazado 1045512" d="M1063.729,1439.694l16.794-6.476-16.794-6.472v-8.632l27.633,11.483v7.214l-27.633,11.464Z" transform="translate(-1017.017 -1414.785)" fill="#fff"/>
            </g>
          </g>
          <g id="Grupo_1179671" data-name="Grupo 1179671" transform="translate(168.41 54.254)">
            <rect id="Rectángulo_406448" data-name="Rectángulo 406448" width="25.102" height="20.918" rx="10.459" fill="#e6af2e"/>
            <g id="Grupo_1179670" data-name="Grupo 1179670" transform="translate(2.845 6.25)">
              <path id="Trazado_1045513" data-name="Trazado 1045513" d="M1550.038,609.159l-7.064-2.931v-1.844l7.064-2.936v2.207l-4.293,1.655,4.293,1.656Z" transform="translate(-1542.974 -600.597)" fill="#fff"/>
              <path id="Trazado_1045514" data-name="Trazado 1045514" d="M1611.442,594.17h1.292l-2.288,9.419h-1.278Z" transform="translate(-1601.425 -594.17)" fill="#fff"/>
              <path id="Trazado_1045515" data-name="Trazado 1045515" d="M1645.08,606.965l4.293-1.656-4.293-1.655v-2.207l7.064,2.936v1.844l-7.064,2.931Z" transform="translate(-1633.138 -600.597)" fill="#fff"/>
            </g>
          </g>
          <g id="Grupo_1179673" data-name="Grupo 1179673" transform="translate(4.879 133.169)">
            <rect id="Rectángulo_406449" data-name="Rectángulo 406449" width="29.394" height="29.394" rx="14.697" transform="translate(0 0)" fill="#dbdad9"/>
            <g id="Grupo_1179672" data-name="Grupo 1179672" transform="translate(2.875 10.541)">
              <path id="Trazado_1045516" data-name="Trazado 1045516" d="M151.1,1310.9l2.359.713a4.348,4.348,0,0,1-.749,1.658,3.247,3.247,0,0,1-1.269,1,4.744,4.744,0,0,1-1.928.339,5.6,5.6,0,0,1-2.32-.413,3.676,3.676,0,0,1-1.554-1.452,4.922,4.922,0,0,1-.654-2.661,4.522,4.522,0,0,1,1.15-3.322,5.232,5.232,0,0,1,5.841-.5,3.91,3.91,0,0,1,1.4,2.044l-2.377.529a2.034,2.034,0,0,0-.261-.583,1.551,1.551,0,0,0-.553-.475,1.7,1.7,0,0,0-2.133.569,3.127,3.127,0,0,0-.368,1.715,3.259,3.259,0,0,0,.44,1.985,1.735,1.735,0,0,0,2.4.1A2.681,2.681,0,0,0,151.1,1310.9Z" transform="translate(-144.985 -1305.61)"/>
              <path id="Trazado_1045517" data-name="Trazado 1045517" d="M224.6,1311.588l2.561-.161a1.951,1.951,0,0,0,.339.951,1.422,1.422,0,0,0,1.188.529,1.316,1.316,0,0,0,.888-.27.81.81,0,0,0,.312-.627.8.8,0,0,0-.3-.606,3.438,3.438,0,0,0-1.379-.505,5.856,5.856,0,0,1-2.525-1.058,2.127,2.127,0,0,1-.761-1.682,2.284,2.284,0,0,1,.389-1.269,2.58,2.58,0,0,1,1.171-.939,5.469,5.469,0,0,1,2.142-.342,4.38,4.38,0,0,1,2.546.621,2.681,2.681,0,0,1,1.043,1.976l-2.537.149a1.186,1.186,0,0,0-1.319-1.123,1.079,1.079,0,0,0-.707.2.609.609,0,0,0-.238.484.484.484,0,0,0,.2.374,2.2,2.2,0,0,0,.9.321,11.316,11.316,0,0,1,2.528.77,2.658,2.658,0,0,1,1.111.966,2.448,2.448,0,0,1,.348,1.29,2.762,2.762,0,0,1-.464,1.545,2.9,2.9,0,0,1-1.3,1.073,5.233,5.233,0,0,1-2.1.365,4.321,4.321,0,0,1-3.078-.856A3.374,3.374,0,0,1,224.6,1311.588Z" transform="translate(-215.29 -1305.61)"/>
              <path id="Trazado_1045518" data-name="Trazado 1045518" d="M299.745,1311.588l2.561-.161a1.951,1.951,0,0,0,.339.951,1.422,1.422,0,0,0,1.188.529,1.316,1.316,0,0,0,.888-.27.81.81,0,0,0,.312-.627.8.8,0,0,0-.3-.606,3.438,3.438,0,0,0-1.379-.505,5.856,5.856,0,0,1-2.525-1.058,2.127,2.127,0,0,1-.761-1.682,2.284,2.284,0,0,1,.389-1.269,2.58,2.58,0,0,1,1.171-.939,5.469,5.469,0,0,1,2.142-.342,4.38,4.38,0,0,1,2.546.621,2.681,2.681,0,0,1,1.043,1.976l-2.537.149a1.186,1.186,0,0,0-1.319-1.123,1.079,1.079,0,0,0-.707.2.61.61,0,0,0-.238.484.484.484,0,0,0,.2.374,2.2,2.2,0,0,0,.9.321,11.317,11.317,0,0,1,2.528.77,2.658,2.658,0,0,1,1.111.966,2.448,2.448,0,0,1,.348,1.29,2.762,2.762,0,0,1-.463,1.545,2.9,2.9,0,0,1-1.3,1.073,5.234,5.234,0,0,1-2.1.365,4.321,4.321,0,0,1-3.078-.856A3.374,3.374,0,0,1,299.745,1311.588Z" transform="translate(-281.645 -1305.61)"/>
            </g>
          </g>
          <g id="Grupo_1179675" data-name="Grupo 1179675" transform="translate(168.756 133.001)">
            <path id="Trazado_1045519" data-name="Trazado 1045519" d="M1568.117,1217.8v22.219a3.755,3.755,0,0,1-3.755,3.755h-39.005a3.755,3.755,0,0,1-3.755-3.755V1217.8c0-.018,0-.036,0-.054a3.754,3.754,0,0,1,3.754-3.7h39.005a3.755,3.755,0,0,1,3.754,3.7C1568.117,1217.766,1568.117,1217.784,1568.117,1217.8Z" transform="translate(-1521.602 -1214.047)" fill="#fffefd" stroke="#191716" stroke-miterlimit="10" stroke-width="2"/>
            <path id="Trazado_1045520" data-name="Trazado 1045520" d="M1568.123,1217.748H1521.61a3.754,3.754,0,0,1,3.754-3.7h39.006A3.754,3.754,0,0,1,1568.123,1217.748Z" transform="translate(-1521.609 -1214.047)" fill="#2d2a29"/>
            <g id="Grupo_1179674" data-name="Grupo 1179674" transform="translate(4.579 10.89)">
              <path id="Trazado_1045521" data-name="Trazado 1045521" d="M1560.752,1307.157h3.029v3.43h3.309v-3.43h3.042v9.8h-3.042v-3.964h-3.309v3.964h-3.029Z" transform="translate(-1560.752 -1307.157)" fill="#e6af2e"/>
              <path id="Trazado_1045522" data-name="Trazado 1045522" d="M1652.268,1307.157h9.206v2.42h-3.089v7.38h-3.028v-7.38h-3.089Z" transform="translate(-1641.565 -1307.157)" fill="#e6af2e"/>
              <path id="Trazado_1045523" data-name="Trazado 1045523" d="M1742.411,1307.157h3.983l1.536,5.963,1.525-5.963h3.98v9.8h-2.48v-7.474l-1.911,7.474H1746.8l-1.907-7.474v7.474h-2.48Z" transform="translate(-1721.165 -1307.157)" fill="#e6af2e"/>
              <path id="Trazado_1045524" data-name="Trazado 1045524" d="M1853.19,1307.157h3.029v7.387h4.727v2.413h-7.755Z" transform="translate(-1818.988 -1307.157)" fill="#e6af2e"/>
            </g>
          </g>
          <g id="Grupo_1179677" data-name="Grupo 1179677" transform="translate(147.048 178.591)">
            <path id="Trazado_1045525" data-name="Trazado 1045525" d="M1343.674,1603.864l47.6.154a3.388,3.388,0,0,1,3.377,3.4l-.04,12.182a3.388,3.388,0,0,1-3.4,3.377l-31.385-.1-9.906-.032-6.309-.021a3.388,3.388,0,0,1-3.377-3.4l.039-12.183c0-.71-2.819-2.3-4.178-3.021a.2.2,0,0,1,.094-.37Z" transform="translate(-1335.992 -1603.849)" fill="#dbdad9"/>
            <g id="Grupo_1179676" data-name="Grupo 1179676" transform="translate(10.277 6.048)">
              <path id="Trazado_1045526" data-name="Trazado 1045526" d="M1429.418,1667.342l-5.553-2.3v-1.449l5.553-2.308v1.735l-3.375,1.3,3.375,1.3Z" transform="translate(-1423.865 -1660.612)" fill="#262423"/>
              <path id="Trazado_1045527" data-name="Trazado 1045527" d="M1484.93,1659.912l1.939.586a3.576,3.576,0,0,1-.615,1.363,2.671,2.671,0,0,1-1.043.825,3.9,3.9,0,0,1-1.585.278,4.6,4.6,0,0,1-1.907-.339,3.025,3.025,0,0,1-1.277-1.193,4.046,4.046,0,0,1-.537-2.187,3.715,3.715,0,0,1,.945-2.73,3.6,3.6,0,0,1,2.674-.954,3.633,3.633,0,0,1,2.127.547,3.214,3.214,0,0,1,1.15,1.68l-1.953.435a1.671,1.671,0,0,0-.215-.479,1.271,1.271,0,0,0-.454-.391,1.4,1.4,0,0,0-1.753.468,2.569,2.569,0,0,0-.3,1.41,2.679,2.679,0,0,0,.361,1.632,1.426,1.426,0,0,0,1.975.085A2.2,2.2,0,0,0,1484.93,1659.912Z" transform="translate(-1473.351 -1655.561)" fill="#262423"/>
              <path id="Trazado_1045528" data-name="Trazado 1045528" d="M1546.259,1659.268a3.389,3.389,0,0,1,3.7-3.707,3.742,3.742,0,0,1,2.754.96,3.618,3.618,0,0,1,.967,2.688,4.41,4.41,0,0,1-.422,2.059,3.011,3.011,0,0,1-1.221,1.25,4.03,4.03,0,0,1-1.99.447,4.578,4.578,0,0,1-2-.386,3.016,3.016,0,0,1-1.287-1.221A4.052,4.052,0,0,1,1546.259,1659.268Zm2.212.01a2.4,2.4,0,0,0,.4,1.558,1.525,1.525,0,0,0,2.2.01,2.649,2.649,0,0,0,.391-1.665,2.212,2.212,0,0,0-.408-1.477,1.394,1.394,0,0,0-1.106-.466,1.344,1.344,0,0,0-1.074.474A2.409,2.409,0,0,0,1548.471,1659.277Z" transform="translate(-1531.945 -1655.561)" fill="#262423"/>
              <path id="Trazado_1045529" data-name="Trazado 1045529" d="M1620.13,1656.6h3.287a3.937,3.937,0,0,1,1.57.264,2.559,2.559,0,0,1,.989.757,3.131,3.131,0,0,1,.566,1.148,5.315,5.315,0,0,1,.176,1.387,4.822,4.822,0,0,1-.261,1.78,2.946,2.946,0,0,1-.725,1.06,2.367,2.367,0,0,1-1,.569,5.136,5.136,0,0,1-1.319.2h-3.287Zm2.212,1.622v3.912h.542a2.285,2.285,0,0,0,.987-.154,1.044,1.044,0,0,0,.459-.537,3.377,3.377,0,0,0,.166-1.243,2.415,2.415,0,0,0-.371-1.558,1.57,1.57,0,0,0-1.231-.42Z" transform="translate(-1597.176 -1656.482)" fill="#262423"/>
              <path id="Trazado_1045530" data-name="Trazado 1045530" d="M1686.357,1656.6h5.929v1.529h-3.712v1.138h3.443v1.46h-3.443v1.412h3.819v1.621h-6.036Z" transform="translate(-1655.657 -1656.482)" fill="#262423"/>
              <path id="Trazado_1045531" data-name="Trazado 1045531" d="M1746.405,1665.618l3.375-1.3-3.375-1.3v-1.735l5.553,2.308v1.449l-5.553,2.3Z" transform="translate(-1708.683 -1660.612)" fill="#262423"/>
            </g>
          </g>
          <g id="Grupo_1179679" data-name="Grupo 1179679" transform="translate(14.17 173.243)">
            <path id="Trazado_1045532" data-name="Trazado 1045532" d="M242.095,1558.137l-39.452.128c-1.551.005-2.8,1.684-2.8,3.75l.044,13.453c.007,2.066,1.269,3.737,2.82,3.732l26.013-.084,8.211-.026,5.229-.017c1.551-.005,2.8-1.684,2.8-3.75l-.044-13.453c0-.784,2.335-2.535,3.46-3.333.15-.106.092-.409-.078-.409Z" transform="translate(-199.847 -1558.128)" fill="#2d2a29"/>
            <g id="Grupo_1179678" data-name="Grupo 1179678" transform="translate(6.738 5.991)">
              <path id="Trazado_1045533" data-name="Trazado 1045533" d="M257.455,1631.2v-6.758h1.756v.724a2.337,2.337,0,0,1,.668-.618,1.916,1.916,0,0,1,.908-.217,1.758,1.758,0,0,1,1.519.751,3.113,3.113,0,0,1,.537,1.858,2.678,2.678,0,0,1-.585,1.865,1.915,1.915,0,0,1-1.48.643,2.049,2.049,0,0,1-.79-.148,1.879,1.879,0,0,1-.638-.438v2.337Zm1.881-4.3a1.288,1.288,0,0,0,.244.862.783.783,0,0,0,.618.281.682.682,0,0,0,.548-.27,1.459,1.459,0,0,0,.221-.915,1.36,1.36,0,0,0-.231-.874.7.7,0,0,0-.562-.279.755.755,0,0,0-.6.281A1.4,1.4,0,0,0,259.336,1626.9Z" transform="translate(-257.455 -1622.576)" fill="#fff"/>
              <path id="Trazado_1045534" data-name="Trazado 1045534" d="M306.047,1609.352h1.876v2.489a2.536,2.536,0,0,1,.761-.567,2.162,2.162,0,0,1,.894-.17,1.579,1.579,0,0,1,1.205.466,2.017,2.017,0,0,1,.44,1.429v3.111h-1.885v-2.692a.981.981,0,0,0-.171-.652.61.61,0,0,0-.479-.191.682.682,0,0,0-.553.258,1.5,1.5,0,0,0-.212.926v2.351h-1.876Z" transform="translate(-300.364 -1609.352)" fill="#fff"/>
              <path id="Trazado_1045535" data-name="Trazado 1045535" d="M350.107,1625.274h1.98l1.01,3.259.938-3.259h1.849l-1.942,5.23a3.174,3.174,0,0,1-.677,1.209,2.158,2.158,0,0,1-1.488.443,10.753,10.753,0,0,1-1.253-.111l-.147-1.309a2.968,2.968,0,0,0,.9.129.877.877,0,0,0,.536-.152,1.155,1.155,0,0,0,.348-.545Z" transform="translate(-339.271 -1623.412)" fill="#fff"/>
              <path id="Trazado_1045536" data-name="Trazado 1045536" d="M398.789,1609.352v1.862h1.033v1.374h-1.033v1.734a.931.931,0,0,0,.06.414.343.343,0,0,0,.323.156,2.056,2.056,0,0,0,.581-.12l.138,1.295a6.1,6.1,0,0,1-1.3.152,2.262,2.262,0,0,1-1.032-.18,1.1,1.1,0,0,1-.491-.545,3.21,3.21,0,0,1-.159-1.186v-1.722h-.692v-1.374h.692v-.9Z" transform="translate(-379.988 -1609.352)" fill="#fff"/>
              <path id="Trazado_1045537" data-name="Trazado 1045537" d="M427.546,1626.9a2.449,2.449,0,0,1,.756-1.846,3.279,3.279,0,0,1,4.264.127,2.666,2.666,0,0,1-.145,3.542,2.863,2.863,0,0,1-2.072.721,2.908,2.908,0,0,1-1.908-.6A2.406,2.406,0,0,1,427.546,1626.9Zm1.881,0a1.477,1.477,0,0,0,.265.968.869.869,0,0,0,1.332,0,1.528,1.528,0,0,0,.26-.991,1.444,1.444,0,0,0-.263-.947.818.818,0,0,0-.65-.311.849.849,0,0,0-.678.316A1.461,1.461,0,0,0,429.427,1626.9Z" transform="translate(-407.653 -1622.576)" fill="#fff"/>
              <path id="Trazado_1045538" data-name="Trazado 1045538" d="M478.188,1624.439h1.747v.8a2.6,2.6,0,0,1,.793-.7,2.087,2.087,0,0,1,.977-.21,1.6,1.6,0,0,1,1.219.463,2.017,2.017,0,0,1,.44,1.431v3.111h-1.885v-2.692a.981.981,0,0,0-.17-.652.609.609,0,0,0-.48-.191.682.682,0,0,0-.553.258,1.5,1.5,0,0,0-.212.927v2.351h-1.876Z" transform="translate(-452.372 -1622.576)" fill="#fff"/>
            </g>
          </g>
          <g id="Grupo_1179681" data-name="Grupo 1179681" transform="translate(177.962 6.468)">
            <rect id="Rectángulo_406450" data-name="Rectángulo 406450" width="28.103" height="21.989" rx="10.995" transform="translate(0)" fill="#fff" stroke="#191716" stroke-miterlimit="10" stroke-width="2"/>
            <path id="Trazado_1045539" data-name="Trazado 1045539" d="M1628.419,134.76v.122h-28.1v-.122a2.615,2.615,0,0,1,2.615-2.615H1625.8A2.615,2.615,0,0,1,1628.419,134.76Z" transform="translate(-1600.316 -132.145)" fill="#2d2a29"/>
            <g id="Grupo_1179680" data-name="Grupo 1179680" transform="translate(3.158 7.619)">
              <path id="Trazado_1045540" data-name="Trazado 1045540" d="M1633.278,202.446l2.3.7a4.242,4.242,0,0,1-.73,1.616,3.166,3.166,0,0,1-1.237.979,4.625,4.625,0,0,1-1.879.33,5.458,5.458,0,0,1-2.262-.4,3.583,3.583,0,0,1-1.514-1.415,4.8,4.8,0,0,1-.637-2.593,4.407,4.407,0,0,1,1.121-3.238,5.1,5.1,0,0,1,5.693-.483,3.811,3.811,0,0,1,1.364,1.992l-2.316.515a1.99,1.99,0,0,0-.255-.568,1.512,1.512,0,0,0-.539-.463,1.656,1.656,0,0,0-2.079.555,3.046,3.046,0,0,0-.359,1.672,3.176,3.176,0,0,0,.429,1.935,1.692,1.692,0,0,0,2.343.1A2.612,2.612,0,0,0,1633.278,202.446Z" transform="translate(-1627.319 -197.286)" fill="#e6af2e"/>
              <path id="Trazado_1045541" data-name="Trazado 1045541" d="M1707.687,210.063h2.218v-2.23h1.871v2.23h2.229v1.871h-2.229v2.218H1709.9v-2.218h-2.218Z" transform="translate(-1698.287 -206.599)" fill="#e6af2e"/>
              <path id="Trazado_1045542" data-name="Trazado 1045542" d="M1774.635,210.063h2.218v-2.23h1.87v2.23h2.229v1.871h-2.229v2.218h-1.87v-2.218h-2.218Z" transform="translate(-1757.406 -206.599)" fill="#e6af2e"/>
            </g>
          </g>
          <g id="Grupo_1179683" data-name="Grupo 1179683" transform="translate(77.519 10.544)">
            <rect id="Rectángulo_406451" data-name="Rectángulo 406451" width="17.512" height="17.512" rx="8.756" fill="#2d2a29"/>
            <g id="Grupo_1179682" data-name="Grupo 1179682" transform="translate(4.083 3.597)">
              <path id="Trazado_1045543" data-name="Trazado 1045543" d="M780.487,197.758v1.788h-.244a.778.778,0,0,0-.512.144.8.8,0,0,0-.241.444,6.007,6.007,0,0,0-.044.9,3.665,3.665,0,0,1-.153,1.153,1.281,1.281,0,0,1-.312.518,1.766,1.766,0,0,1-.5.3,1.828,1.828,0,0,1,.542.351,1.468,1.468,0,0,1,.3.556,4.078,4.078,0,0,1,.125,1.191,3.718,3.718,0,0,0,.076.959.53.53,0,0,0,.253.316,1.776,1.776,0,0,0,.711.093v1.766H779.8a3.535,3.535,0,0,1-1.509-.232,1.341,1.341,0,0,1-.638-.676,3.546,3.546,0,0,1-.191-1.332q0-.2.011-.392.005-.12.005-.245a2.5,2.5,0,0,0-.114-.9.77.77,0,0,0-.33-.387,1.386,1.386,0,0,0-.624-.131v-1.869a1.208,1.208,0,0,0,.629-.131.812.812,0,0,0,.319-.4,2.687,2.687,0,0,0,.109-.913v-.185q-.006-.125-.005-.251a4.343,4.343,0,0,1,.161-1.4,1.5,1.5,0,0,1,.444-.659,1.422,1.422,0,0,1,.578-.262,4.834,4.834,0,0,1,1.106-.115Z" transform="translate(-776.411 -197.758)" fill="#fff"/>
              <path id="Trazado_1045544" data-name="Trazado 1045544" d="M833.752,197.758a4.834,4.834,0,0,1,1.106.115,1.421,1.421,0,0,1,.578.262,1.5,1.5,0,0,1,.444.659,4.346,4.346,0,0,1,.161,1.4q0,.125-.005.251v.185a2.686,2.686,0,0,0,.109.913.811.811,0,0,0,.319.4,1.207,1.207,0,0,0,.629.131v1.869a1.386,1.386,0,0,0-.624.131.771.771,0,0,0-.33.387,2.5,2.5,0,0,0-.114.9q0,.125.006.245.011.2.011.392a3.548,3.548,0,0,1-.191,1.332,1.342,1.342,0,0,1-.638.676,3.535,3.535,0,0,1-1.509.232h-.687v-1.766a1.779,1.779,0,0,0,.711-.093.531.531,0,0,0,.253-.316,3.706,3.706,0,0,0,.076-.959,4.075,4.075,0,0,1,.125-1.191,1.463,1.463,0,0,1,.3-.556,1.827,1.827,0,0,1,.542-.351,1.76,1.76,0,0,1-.5-.3,1.28,1.28,0,0,1-.312-.518,3.668,3.668,0,0,1-.153-1.153,5.991,5.991,0,0,0-.044-.9.8.8,0,0,0-.241-.444.778.778,0,0,0-.512-.144h-.244v-1.788Z" transform="translate(-826.396 -197.758)" fill="#fff"/>
            </g>
          </g>
        </g>
      </g>
      <g id="human" transform="translate(144.945 103.127)">
        <g id="Grupo_1179698" data-name="Grupo 1179698" transform="translate(0)">
          <g id="Grupo_1179688" data-name="Grupo 1179688" transform="translate(0 83.485)">
            <path id="Trazado_1045545" data-name="Trazado 1045545" d="M649.439,1212.458s-1.492,43.948-1.359,47.18-3.768,12.39-2.66,19.15,13.236,6.6,16.673,2.927.891-4.648,2.317-7.609a19.913,19.913,0,0,0,1.708-4.572L655.67,1235.9l-1.627-23.444Z" transform="translate(-645.222 -1189.414)" fill="#020202" opacity="0.1"/>
            <path id="Trazado_1045546" data-name="Trazado 1045546" d="M1054.19,1213.089s3.217,6.785,3.217,17.5.151,27.95.751,29.915-2.439,13.883-.769,18.055,11.394,11.032,21.765,4.15h0l-12.958-63-2.891-6.626h-9.115" transform="translate(-1006.359 -1189.971)" fill="#020202" opacity="0.1"/>
            <g id="Grupo_1179685" data-name="Grupo 1179685" transform="translate(55.597 66.038)">
              <path id="Trazado_1045547" data-name="Trazado 1045547" d="M1132.484,1586.466s-.646-4.366-.2-5.331,11.437-1.48,11.412-.663.649,9.8.41,11.206-11.284-.418-11.284-.418Z" transform="translate(-1130.778 -1580.065)" fill="#f5bf99"/>
              <path id="Trazado_1045548" data-name="Trazado 1045548" d="M1120.866,1639.782c.646.8,1.932,2.9,2.522,3.056s.59,1.554.429,3.217a3.725,3.725,0,0,0,2.466,4.236c2.253.964,10.83,2.359,12.546-1.234a4.161,4.161,0,0,0,.159-2.974h0c-.767-2.875-3.511-6.141-3.59-10.16-.066-3.327-.309-4.633-1.214-5.359h0a2.358,2.358,0,0,0-.263-.184v0a10.887,10.887,0,0,0-2.436-.89c-2.083-.623-4.278.529-5.844,1.287-.36.176-.687.328-.971.435a1.259,1.259,0,0,1-.907.105c-1.019-.483-1.393-1.93-1.929-1.234a45.537,45.537,0,0,0-.966,5.082,6.853,6.853,0,0,1-.075,1v0C1120.644,1637.383,1120.391,1639.19,1120.866,1639.782Z" transform="translate(-1120.59 -1623.547)" fill="#191716"/>
              <path id="Trazado_1045549" data-name="Trazado 1045549" d="M1156.433,1652.072s-.818-7.436,0-10.242v0c-.36.176-.687.329-.971.435C1155.467,1642.4,1155.794,1650.956,1156.433,1652.072Z" transform="translate(-1151.384 -1634.604)" opacity="0.5"/>
              <path id="Trazado_1045550" data-name="Trazado 1045550" d="M1234.969,1648.424s1.006-1.2-.141-9.782h0a2.323,2.323,0,0,0-.263-.184S1235.4,1646.145,1234.969,1648.424Z" transform="translate(-1221.235 -1631.627)" opacity="0.5"/>
              <path id="Trazado_1045551" data-name="Trazado 1045551" d="M1163.759,1724.357s6.326,3.217,8.685-.67C1172.444,1723.687,1170.407,1726.877,1163.759,1724.357Z" transform="translate(-1158.71 -1706.89)" opacity="0.5"/>
              <path id="Trazado_1045552" data-name="Trazado 1045552" d="M1120.866,1691.564c.646.8,1.932,2.9,2.522,3.056s.59,1.554.429,3.217a3.724,3.724,0,0,0,2.466,4.236c2.253.964,10.83,2.359,12.546-1.234a4.161,4.161,0,0,0,.159-2.974c-.54,2.814-2.037,3.189-7.773,3.34s-6.648-3.636-6.546-4.6.112-3.752-.531-4.477-3.265-4.076-3.347-4.179C1120.644,1689.165,1120.391,1690.972,1120.866,1691.564Z" transform="translate(-1120.59 -1675.329)" opacity="0.5"/>
            </g>
            <g id="Grupo_1179686" data-name="Grupo 1179686" transform="translate(2.356 64.465)">
              <path id="Trazado_1045553" data-name="Trazado 1045553" d="M721.608,1573.02s.646-4.367.2-5.332-11.437-1.479-11.413-.663-.649,9.8-.41,11.206,11.284-.418,11.284-.418Z" transform="translate(-704.72 -1566.619)" fill="#f5bf99"/>
              <path id="Trazado_1045554" data-name="Trazado 1045554" d="M683.683,1626.335c-.646.8-1.932,2.895-2.522,3.056s-.59,1.554-.429,3.217a3.724,3.724,0,0,1-2.466,4.236c-2.252.964-10.83,2.359-12.545-1.234a4.161,4.161,0,0,1-.159-2.974v0c.767-2.875,3.511-6.141,3.59-10.16.066-3.327.309-4.633,1.214-5.359v0a2.348,2.348,0,0,1,.263-.184v0a10.9,10.9,0,0,1,2.437-.891c2.083-.623,4.278.529,5.844,1.287.36.176.687.328.971.435a1.259,1.259,0,0,0,.907.105c1.019-.483,1.393-1.931,1.929-1.234a45.53,45.53,0,0,1,.966,5.082,6.857,6.857,0,0,0,.076,1v0C683.9,1623.936,684.158,1625.743,683.683,1626.335Z" transform="translate(-665.364 -1610.1)" fill="#191716"/>
              <path id="Trazado_1045555" data-name="Trazado 1045555" d="M781.172,1638.625s.818-7.436,0-10.242v0c.36.176.687.329.971.435C782.138,1628.956,781.811,1637.509,781.172,1638.625Z" transform="translate(-767.628 -1621.158)" opacity="0.5"/>
              <path id="Trazado_1045556" data-name="Trazado 1045556" d="M703.837,1634.977s-1.005-1.2.141-9.782v0a2.363,2.363,0,0,1,.263-.184S703.408,1632.7,703.837,1634.977Z" transform="translate(-698.977 -1618.18)" opacity="0.5"/>
              <path id="Trazado_1045557" data-name="Trazado 1045557" d="M715.6,1710.911s-6.326,3.217-8.686-.67C706.913,1710.241,708.951,1713.431,715.6,1710.911Z" transform="translate(-702.054 -1693.444)" opacity="0.5"/>
              <path id="Trazado_1045558" data-name="Trazado 1045558" d="M683.683,1678.117c-.646.8-1.932,2.895-2.522,3.056s-.59,1.554-.429,3.217a3.724,3.724,0,0,1-2.466,4.236c-2.252.964-10.83,2.359-12.545-1.234a4.161,4.161,0,0,1-.159-2.974c.541,2.814,2.037,3.189,7.773,3.34s6.647-3.636,6.546-4.6-.112-3.752.531-4.477,3.265-4.076,3.347-4.179C683.9,1675.718,684.158,1677.525,683.683,1678.117Z" transform="translate(-665.364 -1661.882)" opacity="0.5"/>
            </g>
            <g id="Grupo_1179687" data-name="Grupo 1179687" transform="translate(5.84)">
              <path id="Trazado_1045559" data-name="Trazado 1045559" d="M759.095,1084.113c-.574.957-12.914.469-13.68.086s-.865-28.6-.482-35.3a10.523,10.523,0,0,0-.024-1.551c-.02-.242-.05-.479-.087-.712a12.676,12.676,0,0,0-5.436-8.069l0,0H715.27a10.629,10.629,0,0,0-3,4.947c-.073.254-.14.519-.2.8-.544,2.418-.719,5.756-.626,10.906.192,10.718,0,26.411-.383,27.368s-15.609.47-15.8-.87-.085-34.344.108-46.4,8.229-15.119,8.229-15.119,28.132-8.8,41.912-2.487,15.12,14.544,15.31,20.86S759.67,1083.155,759.095,1084.113Z" transform="translate(-695.159 -1015.423)" fill="#2d2a29"/>
              <path id="Trazado_1045560" data-name="Trazado 1045560" d="M937.868,1210.789h-.743s.083-.115.216-.331Z" transform="translate(-908.826 -1187.648)" fill="#020202" opacity="0.4"/>
              <path id="Trazado_1045561" data-name="Trazado 1045561" d="M878.473,1120.423c-.132-5.576,5.094-10.761,5.255-10.92a17.108,17.108,0,0,0-5.862,9.166c.6-6.646-2.473-9.1-2.561-9.169a10.671,10.671,0,0,1,.215,11.807l-8.4.33h24.113C890.536,1121.147,878.473,1120.423,878.473,1120.423Z" transform="translate(-847.004 -1098.498)" fill="#020202" opacity="0.4"/>
              <path id="Trazado_1045562" data-name="Trazado 1045562" d="M885,1064.9s-3.49-4.322-7.744-5.66A13.165,13.165,0,0,1,885,1064.9Z" transform="translate(-855.958 -1054.113)" fill="#020202" opacity="0.4"/>
              <path id="Trazado_1045563" data-name="Trazado 1045563" d="M988.418,1088.662s2.264-3.016,5.146-3.907A8.764,8.764,0,0,0,988.418,1088.662Z" transform="translate(-954.12 -1076.646)" fill="#020202" opacity="0.4"/>
              <path id="Trazado_1045564" data-name="Trazado 1045564" d="M974.046,1065.063a15.151,15.151,0,0,1,8.336-3.773S978.849,1061.462,974.046,1065.063Z" transform="translate(-941.429 -1055.926)" fill="#020202" opacity="0.4"/>
              <path id="Trazado_1045565" data-name="Trazado 1045565" d="M722.013,1181.747a12.561,12.561,0,0,0,9.643,1.69A9.625,9.625,0,0,1,722.013,1181.747Z" transform="translate(-718.872 -1162.295)" fill="#020202" opacity="0.4"/>
              <path id="Trazado_1045566" data-name="Trazado 1045566" d="M1166.493,1192.754a12.56,12.56,0,0,1-9.643,1.69A9.625,9.625,0,0,0,1166.493,1192.754Z" transform="translate(-1102.853 -1172.014)" fill="#020202" opacity="0.4"/>
              <path id="Trazado_1045567" data-name="Trazado 1045567" d="M1123.177,1243.793a7.937,7.937,0,0,1-3.293,5.215q-.031-.363-.087-.712A9.279,9.279,0,0,0,1123.177,1243.793Z" transform="translate(-1070.134 -1217.084)" fill="#020202" opacity="0.4"/>
              <path id="Trazado_1045568" data-name="Trazado 1045568" d="M819.3,1236.934c-.073.253-.14.519-.2.8a5.777,5.777,0,0,1-2.733-3.267A5.6,5.6,0,0,0,819.3,1236.934Z" transform="translate(-802.193 -1208.845)" fill="#020202" opacity="0.4"/>
            </g>
          </g>
          <g id="Grupo_1179690" data-name="Grupo 1179690" transform="translate(4.654 29.229)">
            <path id="Trazado_1045569" data-name="Trazado 1045569" d="M895.216,553.848l.175,7.814,10.8,4.962,5.642-5.951-1.006-9.158Z" transform="translate(-870.632 -551.515)" fill="#ffc7a0"/>
            <path id="Trazado_1045570" data-name="Trazado 1045570" d="M914.681,992.49a25.351,25.351,0,0,1-5.49,2c-2.1.321-4.755,1.556-7.705.167s.779-13.238.779-13.238h10.908S916.26,989.449,914.681,992.49Z" transform="translate(-875.166 -931.138)" fill="#fff"/>
            <path id="Trazado_1045571" data-name="Trazado 1045571" d="M770.066,981.417s-.588,5.133-1.124,5.855-2.475,2.687-2.067,5.313c0,0,9.909-2.305,11.654,0s4.9,3.9,5.043,3.186.779-14.354.779-14.354Z" transform="translate(-757.251 -931.138)" fill="#e6af2e"/>
            <path id="Trazado_1045572" data-name="Trazado 1045572" d="M1009.989,981.417s1.285,11.58,1.689,11.524,11.144-3.278,15.8-.785-.771-6.817-1.211-10.739Z" transform="translate(-971.982 -931.138)" fill="#e6af2e"/>
            <g id="Grupo_1179689" data-name="Grupo 1179689" transform="translate(8.187 0.933)">
              <path id="Trazado_1045573" data-name="Trazado 1045573" d="M910.06,630.767s6.875,4.5,13.425-.952v12.424l-1.738,28.7H910.839Z" transform="translate(-891.927 -621.59)" fill="#fff"/>
              <path id="Trazado_1045574" data-name="Trazado 1045574" d="M773.927,608.837H759.642l.26-5.021-.152-.856L755.014,569.3s1.462-2.3,6.31-4.9a67.473,67.473,0,0,1,9.139-4.049c.173-.606,1.212-.866,1.212-.866s.086,7.1,1.472,9.177,2.684,6.406,3.117,12.207S773.927,608.837,773.927,608.837Z" transform="translate(-755.014 -559.491)" fill="#e6af2e"/>
              <path id="Trazado_1045575" data-name="Trazado 1045575" d="M1011.322,601.714l.8,7.123H995.846s-2.251-20.777-1.818-26.578,1.472-10.391,2.857-12.469,1.212-10.3,1.212-10.3,1.039.26,1.212.866a36.44,36.44,0,0,1,10.513,3.766,15.094,15.094,0,0,1,6.135,6.122l-4.787,30.108.008.075Z" transform="translate(-966.025 -559.491)" fill="#e6af2e"/>
              <path id="Trazado_1045576" data-name="Trazado 1045576" d="M886.84,632.564h-.007a.049.049,0,0,1-.042-.056c.007-.05.07-6.868.627-14.048.534-6.891,1.825-14.092,2.179-18.336a54.274,54.274,0,0,0-.348-12.149,25.131,25.131,0,0,0-2.212-7.913c-1.745-3.1-1.985-8.858-1.988-8.915a.049.049,0,0,1,.047-.051.049.049,0,0,1,.051.047c0,.058.241,5.788,1.975,8.871a25.218,25.218,0,0,1,2.223,7.948,54.383,54.383,0,0,1,.349,12.171c-.355,4.243-1.645,11.439-2.179,18.328-.557,7.186-.62,14.012-.628,14.062A.049.049,0,0,1,886.84,632.564Z" transform="translate(-869.841 -569.737)" fill="#020202" opacity="0.15"/>
              <path id="Trazado_1045577" data-name="Trazado 1045577" d="M1011.854,629.643a.049.049,0,0,1-.049-.044c-.691-6.005-2.891-25.53-3.013-31.92-.109-5.729.036-13,1.345-15.115,2.287-3.691,2.193-11.343,2.192-11.42a.049.049,0,1,1,.1,0,39.293,39.293,0,0,1-.229,4.324,18.58,18.58,0,0,1-1.977,7.149c-1.3,2.093-1.439,9.346-1.33,15.061.122,6.388,2.321,25.909,3.012,31.911a.049.049,0,0,1-.043.055Z" transform="translate(-979.086 -569.737)" fill="#020202" opacity="0.15"/>
              <path id="Trazado_1045578" data-name="Trazado 1045578" d="M1037.06,835.816a35.99,35.99,0,0,0,6.7-20.024S1044.112,827.7,1037.06,835.816Z" transform="translate(-1004.073 -785.816)" fill="#020202" opacity="0.15"/>
              <path id="Trazado_1045579" data-name="Trazado 1045579" d="M831.763,886.355s-.808,8.748.806,14.985A70.631,70.631,0,0,1,831.763,886.355Z" transform="translate(-822.609 -848.127)" fill="#020202" opacity="0.15"/>
              <path id="Trazado_1045580" data-name="Trazado 1045580" d="M831.066,707.965a55.375,55.375,0,0,1,8.391,13.8A137.785,137.785,0,0,0,831.066,707.965Z" transform="translate(-822.171 -690.6)" fill="#020202" opacity="0.15"/>
              <path id="Trazado_1045581" data-name="Trazado 1045581" d="M1031.361,730.631a18.137,18.137,0,0,1,6.219-6.32S1033.806,725.635,1031.361,730.631Z" transform="translate(-999.041 -705.034)" fill="#020202" opacity="0.15"/>
            </g>
            <path id="Trazado_1045582" data-name="Trazado 1045582" d="M784.971,1030.273s6.672-.721,9.725,4.7A9.051,9.051,0,0,0,784.971,1030.273Z" transform="translate(-773.281 -974.139)" fill="#020202" opacity="0.15"/>
            <path id="Trazado_1045583" data-name="Trazado 1045583" d="M1084.827,981.417s-7.312,3.828-8.519,8.128C1076.308,989.545,1078.579,985.2,1084.827,981.417Z" transform="translate(-1030.544 -931.138)" fill="#020202" opacity="0.15"/>
            <path id="Trazado_1045584" data-name="Trazado 1045584" d="M693.2,643.39a47,47,0,0,0-2.26,4.9,133.751,133.751,0,0,0-3.409,14.076c-.911,5.086-4.281,18.136-1.331,22.468s8.946,6.22,8.946,6.22l6.949-14.6Z" transform="translate(-685.014 -632.645)" fill="#e6af2e"/>
            <path id="Trazado_1045585" data-name="Trazado 1045585" d="M1104.648,651.443s1.871,5.752,3.095,11.682.848,7.061,1.79,12.052,2.543,9.264-.471,13.721-4.053,6.891-7.348,6.9-7.3-7.4-7.3-7.4Z" transform="translate(-1046.53 -639.756)" fill="#e6af2e"/>
            <path id="Trazado_1045586" data-name="Trazado 1045586" d="M708.979,913.766s-7.473-2.16-10.392,2.277C698.587,916.042,701.389,910.73,708.979,913.766Z" transform="translate(-696.999 -870.571)" fill="#020202" opacity="0.15"/>
            <path id="Trazado_1045587" data-name="Trazado 1045587" d="M1120.089,896.39s7.473-2.16,10.392,2.277C1130.481,898.666,1127.678,893.354,1120.089,896.39Z" transform="translate(-1069.205 -855.228)" fill="#020202" opacity="0.15"/>
            <path id="Trazado_1045588" data-name="Trazado 1045588" d="M769.263,744.66a120.9,120.9,0,0,1,2.827,18.331h.642S771.749,752.311,769.263,744.66Z" transform="translate(-759.41 -722.071)" fill="#020202" opacity="0.15"/>
            <path id="Trazado_1045589" data-name="Trazado 1045589" d="M1130.719,744.762a120.962,120.962,0,0,0-2.826,18.331h-.642S1128.232,752.413,1130.719,744.762Z" transform="translate(-1075.528 -722.161)" fill="#020202" opacity="0.15"/>
          </g>
          <g id="Grupo_1179697" data-name="Grupo 1179697" transform="translate(23.942)">
            <path id="Trazado_1045590" data-name="Trazado 1045590" d="M851.807,447.439s-1.851-1.881-1.869.262.342.827.553,3.789c.176,2.466,2.065,1.688,2.065,1.688Z" transform="translate(-849.937 -429.708)" fill="#ffc7a0"/>
            <path id="Trazado_1045591" data-name="Trazado 1045591" d="M1048.919,451.882s1.851-1.881,1.869.262-.342.827-.553,3.789c-.176,2.466-2.065,1.688-2.065,1.688Z" transform="translate(-1024.986 -433.632)" fill="#ffc7a0"/>
            <path id="Trazado_1045592" data-name="Trazado 1045592" d="M892.431,393.293c0,.238,0,.479-.006.722q0,.548,0,1.113a17.29,17.29,0,0,1-.236,2.84c-.011.069-.023.137-.036.206a16.431,16.431,0,0,1-1.44,4.4c-2.233,4.52-6.158,7.1-8.714,7.1-2.524,0-6.152-2.277-8.326-6.651v0a17.691,17.691,0,0,1-1.636-5.347h0c-.012-.083-.023-.166-.034-.25a20.841,20.841,0,0,1-.18-2.751q0-.687-.01-1.346-.005-.408-.011-.8c-.1-6.77-.176-10.975,10.2-10.975C892.46,381.543,892.49,386.273,892.431,393.293Z" transform="translate(-869.223 -372.193)" fill="#ffc7a0"/>
            <path id="Trazado_1045593" data-name="Trazado 1045593" d="M856.245,319.894s-.371,4.749-.347,5.171-1.1-5.171-1.278-6.7-1.751-6.692-.264-9.1,1.392-2.887,3.08-3.98,4.88-3.937,7.374-3.674,6.867,1.443,8.4,2.537,3.885,1.924,5.135,4.943-1.481,12.355-1.712,16c0,0-.071.529-.493-4.386a.832.832,0,0,0-.274-.549,5.591,5.591,0,0,1-1.455-3.007.783.783,0,0,0-.666-.6c-1.272-.158-4.359-.49-5.391-.146-1.274.425-6.063,1.968-10.1-.191a.418.418,0,0,0-.57.182,5.586,5.586,0,0,0-.646,2.589.412.412,0,0,1-.26.4C856.552,319.465,856.266,319.632,856.245,319.894Z" transform="translate(-853.28 -301.594)" fill="#191716"/>
            <path id="Trazado_1045594" data-name="Trazado 1045594" d="M905.041,561.341s-2.646,7.291-8.393,7.484c-5.7.192-8.648-6.929-8.693-7.038,2.174,4.374,5.8,6.651,8.326,6.651,2.556,0,6.481-2.576,8.714-7.1Z" transform="translate(-883.509 -530.962)" fill="#272727" opacity="0.1"/>
            <g id="Grupo_1179691" data-name="Grupo 1179691" transform="translate(1.265 1.663)" opacity="0.15">
              <path id="Trazado_1045595" data-name="Trazado 1045595" d="M909.636,382.057a6.5,6.5,0,0,0-3.671-1.644c-2.109-.137-10-.247-12.465-3.233" transform="translate(-889.671 -370.004)" fill="none" stroke="#fff" stroke-linecap="round" stroke-miterlimit="10" stroke-width="1.5"/>
              <path id="Trazado_1045596" data-name="Trazado 1045596" d="M869.922,387.06s-5.5,1.075-9.172-5.517" transform="translate(-860.75 -373.855)" fill="none" stroke="#fff" stroke-linecap="round" stroke-miterlimit="10" stroke-width="1.5"/>
              <path id="Trazado_1045597" data-name="Trazado 1045597" d="M876.981,389.3s-3.045.466-6.172-3.452" transform="translate(-869.633 -377.657)" fill="none" stroke="#fff" stroke-linecap="round" stroke-miterlimit="10" stroke-width="1.5"/>
              <path id="Trazado_1045598" data-name="Trazado 1045598" d="M906.164,354.073s-.548,1.534-5.15-2.411-12.684-.356-15.54-4.931" transform="translate(-882.582 -343.115)" fill="none" stroke="#fff" stroke-linecap="round" stroke-miterlimit="10" stroke-width="1.5"/>
              <path id="Trazado_1045599" data-name="Trazado 1045599" d="M1002.355,343.629s-2.411,1.233-6.493-2.52" transform="translate(-980.06 -338.15)" fill="none" stroke="#fff" stroke-linecap="round" stroke-miterlimit="10" stroke-width="1.5"/>
              <path id="Trazado_1045600" data-name="Trazado 1045600" d="M938.29,318.086s-4.684.6-7.78-2.274" transform="translate(-922.351 -315.812)" fill="none" stroke="#fff" stroke-linecap="round" stroke-miterlimit="10" stroke-width="1.5"/>
              <path id="Trazado_1045601" data-name="Trazado 1045601" d="M915.83,337.536s-7.26.383-10.383-2.986" transform="translate(-900.219 -332.358)" fill="none" stroke="#fff" stroke-linecap="round" stroke-miterlimit="10" stroke-width="1.5"/>
              <path id="Trazado_1045602" data-name="Trazado 1045602" d="M1035.916,435.506s1.11,2.246,2.171,1.945" transform="translate(-1015.43 -421.507)" fill="none" stroke="#fff" stroke-linecap="round" stroke-miterlimit="10" stroke-width="1.5"/>
              <path id="Trazado_1045603" data-name="Trazado 1045603" d="M1048.44,428.01a1.264,1.264,0,0,0,.973,1.014" transform="translate(-1026.489 -414.888)" fill="none" stroke="#fff" stroke-linecap="round" stroke-miterlimit="10" stroke-width="1.5"/>
              <path id="Trazado_1045604" data-name="Trazado 1045604" d="M864.571,415.509a9.1,9.1,0,0,0,0,3.489" transform="translate(-863.966 -403.849)" fill="none" stroke="#fff" stroke-linecap="round" stroke-miterlimit="10" stroke-width="1.5"/>
              <path id="Trazado_1045605" data-name="Trazado 1045605" d="M870.041,430.426s-.274,2.21-1.369,2.84" transform="translate(-867.745 -417.021)" fill="none" stroke="#fff" stroke-linecap="round" stroke-miterlimit="10" stroke-width="1.5"/>
            </g>
            <g id="Grupo_1179696" data-name="Grupo 1179696" transform="translate(5.169 19.57)">
              <g id="Grupo_1179693" data-name="Grupo 1179693" transform="translate(10.423)">
                <g id="Grupo_1179692" data-name="Grupo 1179692">
                  <path id="Trazado_1045606" data-name="Trazado 1045606" d="M987.884,470.248c-.021-.022-.043-.042-.064-.062a4.083,4.083,0,0,0-3.968-1.119.541.541,0,0,0-.358.245,2.13,2.13,0,0,0-.238,1.216,4.784,4.784,0,0,1,4.78.287.375.375,0,0,0-.012-.335A.609.609,0,0,0,987.884,470.248Z" transform="translate(-983.256 -468.925)" fill="#191716"/>
                </g>
              </g>
              <g id="Grupo_1179695" data-name="Grupo 1179695" transform="translate(0 0.053)">
                <g id="Grupo_1179694" data-name="Grupo 1179694">
                  <path id="Trazado_1045607" data-name="Trazado 1045607" d="M894.335,470.625c.022-.022.044-.041.066-.061a4.083,4.083,0,0,1,4-1.011.54.54,0,0,1,.351.255,2.128,2.128,0,0,1,.205,1.222,4.784,4.784,0,0,0-4.786.156.375.375,0,0,1,.021-.334A.612.612,0,0,1,894.335,470.625Z" transform="translate(-894.138 -469.382)" fill="#191716"/>
                </g>
              </g>
              <ellipse id="Elipse_11856" data-name="Elipse 11856" cx="0.97" cy="1.172" rx="0.97" ry="1.172" transform="translate(11.458 2.247)" fill="#191716"/>
              <ellipse id="Elipse_11857" data-name="Elipse 11857" cx="0.97" cy="1.172" rx="0.97" ry="1.172" transform="translate(2.086 2.2)" fill="#191716"/>
              <path id="Trazado_1045608" data-name="Trazado 1045608" d="M950.487,498.5a.578.578,0,0,1,.016-.273c.067-.213.218-.517.433.071a16.185,16.185,0,0,1-.132,5.173.58.58,0,0,0,.325.682l.462.2a.554.554,0,0,1,.313.331c.054.17.007.364-.47.384-.867.038-1.9-.814-1.593-1.622A10,10,0,0,0,950.487,498.5Z" transform="translate(-943.278 -494.562)" fill="#272727" opacity="0.1"/>
            </g>
            <path id="Trazado_1045609" data-name="Trazado 1045609" d="M933.715,565.956a4.854,4.854,0,0,0,2.694,1.066,4.432,4.432,0,0,0,2.816-.788A4.769,4.769,0,0,0,940.437,565a.288.288,0,0,0-.107-.373.256.256,0,0,0-.353.1,4.094,4.094,0,0,1-2.116,1.573,4.029,4.029,0,0,1-2.535-.048,4.225,4.225,0,0,1-1.256-.687.26.26,0,0,0-.369,0,.285.285,0,0,0,.014.387Z" transform="translate(-923.844 -533.833)" fill="#191716"/>
          </g>
          <g id="laptop" transform="translate(13.784 65.487)">
            <path id="Trazado_1045610" data-name="Trazado 1045610" d="M811.738,1097.573s.769,2.31-6.445,2.112c-3.02-.083-10.5-.865-18.173-1.07-10.66-.286-21.7,0-21.7,0a3.631,3.631,0,0,1-2.184-1.931Z" transform="translate(-763.218 -1069.181)" fill="#020202" opacity="0.4"/>
            <path id="Trazado_1045611" data-name="Trazado 1045611" d="M812.873,864.2l-1.188,25.247a1.625,1.625,0,0,1-.081.472,1.385,1.385,0,0,1-.078.2,1.524,1.524,0,0,1-.669.692,1.41,1.41,0,0,1-.675.154l-33-.694-.227-.006-1.03-.023-11.338-.187a1.514,1.514,0,0,1-1.437-1.582l-.067-25.428a1.506,1.506,0,0,1,1.5-1.513l46.848,1.091A1.516,1.516,0,0,1,812.873,864.2Z" transform="translate(-763.084 -861.528)" fill="#d8d7d6"/>
            <path id="Trazado_1045612" data-name="Trazado 1045612" d="M943.906,959.587l-2.326-.054a2.982,2.982,0,0,1-2.83-3.114l.051-2.449a2.966,2.966,0,0,1,2.958-2.979l2.326.054a2.982,2.982,0,0,1,2.83,3.114l-.051,2.449A2.966,2.966,0,0,1,943.906,959.587Z" transform="translate(-918.205 -940.526)" fill="#fff"/>
            <path id="Trazado_1045613" data-name="Trazado 1045613" d="M846.5,964.959s35.972-.9,39.232-18.233l-.972,16.509a2.26,2.26,0,0,1-2.231,2.182Z" transform="translate(-836.742 -936.762)" opacity="0.05"/>
          </g>
        </g>
      </g>
    </g>
  </g>
</svg>
